<svg xmlns="http://www.w3.org/2000/svg" width="120" height="40"><g fill="none"><path fill="#A6A6A6" d="M110.443949 0H9.56144647c-.36772943 0-.7310465 0-1.09780321.00213-.30700944.00199999-.61157204.00780997-.92152974.01269995-.67337137.00790178-1.34515919.06697604-2.0095255.17670943-.66343315.11212226-1.30608376.32350469-1.90621629.62699796-.59939856.30606072-1.14708616.70375524-1.623194 1.17865617-.47860732.47356546-.87756349 1.02094306-1.18152759 1.62108473C.51684711 4.21722541.30549571 4.8590525.1948956 5.52159205c-.11165161.66170276-.17173237 1.33103622-.17970306 2.0019935-.00930605.306599-.0102888.614218-.01519253.92085701V31.5586274c.00490373.310499.00588648.611298.01519253.921897.00797314.670924.0680539 1.3402241.17970306 2.0018935.11029472.6629269.32165862 1.3051224.62675455 1.9042938.30382609.598201.70283835 1.1433625 1.18152759 1.6142948.47430259.4770125 1.0223442.8749776 1.623194 1.1786962.60012798.3043055 1.2427093.5169461 1.90621629.6307979.66447925.1088544 1.33619798.1679527 2.0095255.1767994.3099577.0068.6145203.0107.92152974.0107.36674668.002.73009384.002 1.09780321.002H110.443949c.360409 0 .726634 0 1.087043-.002.305555 0 .618932-.0039.924488-.0107.672054-.0083762 1.342508-.0674783 2.005614-.1767994.665648-.1146532 1.310533-.3272375 1.913557-.6307979.600308-.3038945 1.147844-.7018487 1.62174-1.1786962.477454-.4727767.877318-1.0175394 1.184917-1.6142948.302807-.5996072.512159-1.2417514.620838-1.9042938.111828-.6617602.174041-1.3309114.186121-2.0018935.003911-.310599.003911-.611398.003911-.921897C120 31.1953286 120 30.8340298 120 30.464831V9.53622901c0-.36620881 0-.72948763-.007822-1.09178645 0-.30663901 0-.61425801-.003911-.92089701-.012078-.67101538-.07429-1.34019998-.186121-2.0019935-.108982-.66215625-.318322-1.30393248-.620838-1.90331381-.619008-1.20292001-1.600577-2.18208751-2.806657-2.7997909-.603026-.30275164-1.24798-.51407792-1.913557-.62699796-.662991-.11021686-1.333515-.16931169-2.005614-.17675943C112.149924.00980997 111.836547.00395 111.530992.002 111.170583 0 110.804358 0 110.443949 0Z"/><path fill="#0A0B09" d="M8.46853696 39.1250028c-.30553532 0-.60368998-.0038999-.90682859-.0106999-.62797619-.0081593-1.25448465-.0626748-1.87438719-.1630995-.57802784-.0992715-1.13798144-.2839346-1.66139092-.5478982-.51861011-.2617765-.99162421-.6050252-1.40092177-1.0165967-.41522205-.4067234-.76091338-.8784532-1.02337485-1.3964955-.26535358-.5214091-.44899404-1.0802969-.54452435-1.6571946-.10316444-.6198831-.15898068-1.2466827-.16696741-1.8749939-.0063578-.2108993-.0146811-.913097-.0146811-.913097V8.44444256s.00886482-.69140776.01473124-.8945371c.00764723-.62731591.0631389-1.25314283.16599469-1.87206391.09570664-.57847804.27948928-1.13897743.54498564-1.6620946.26149686-.51768447.60526898-.98976649 1.01798978-1.39794546.4122569-.41205724.88678409-.75707342 1.40627675-1.02246667.52220654-.26311555 1.0811019-.44647601 1.65796133-.54393824C6.3053386.94996305 6.93402206.89512318 7.56417528.88733712l.90485306-.01220996H111.526078l.915663.01269995c.624422.00739918 1.247394.06174981 1.863617.16258948.582699.09868474 1.147419.28332461 1.675591.54784822 1.040732.53484431 1.887556 1.38101846 2.42178 2.41992213.261258.51950588.442206 1.07543326.536702 1.64891464.104081.62399935.162331 1.25474426.174288 1.88720387.002908.28319908.002908.58739809.002908.89013711.007922.37499878.007922.73192762.007922 1.09178645V30.464831c0 .3632988 0 .7177977-.007922 1.0751965 0 .3251989 0 .623098-.003911.929697-.011698.6211736-.068977 1.2406602-.17138 1.8534939-.093572.5810593-.276213 1.1443095-.541516 1.6699946-.264316.5124195-.608023.980063-1.018451 1.3856955-.409665.4137833-.883514.7590403-1.403328 1.0224967-.526709.2659928-1.090597.4513388-1.672683.5497982-.619855.1009607-1.246424.1554797-1.874447.1630995-.293722.0068-.601283.0106999-.899919.0106999l-1.087043.002-101.97541204-.002Z"/><path fill="#FFF" d="M42.4210241 27.1396918h-4.7466879l-1.1399111 3.3564391h-2.0105083l4.4959862-12.4179597h2.0888475l4.4959862 12.4179597h-2.0447943l-1.1389183-3.3564391Zm-4.2550817-1.548825h3.7625329l-1.8548024-5.4472523h-.0519053l-1.8558252 5.4472523Zm17.148596.3789088c0 2.8134709-1.5100873 4.621075-3.7889267 4.621075-1.1779122.0614444-2.2874411-.5537875-2.8566269-1.5839949h-.0431207v4.4843655H46.762247V21.4424403h1.8039099v1.5058551h.034276c.5944724-1.0237487 1.7051978-1.6387158 2.8909028-1.6005848 2.3042606.00001 3.8232027 1.8164041 3.8232027 4.622065Zm-1.9155223 0c0-1.832994-.9499293-3.0380801-2.3992966-3.0380801-1.4239061 0-2.3816673 1.230466-2.3816673 3.0380801 0 1.8242141.9577612 3.0458901 2.3816673 3.0458901 1.4493774 0 2.3992966-1.1962861 2.3992966-3.0458901Zm11.9083364 0c0 2.8134709-1.5100874 4.621075-3.7889268 4.621075-1.1779122.0614444-2.2874411-.5537875-2.8566269-1.5839949h-.0431207v4.4843655h-1.863617V21.4424403h1.8038697v1.5058551h.034276c.5944768-1.0237481 1.7052064-1.6387116 2.8909129-1.6005748 2.3043308 0 3.8232328 1.8163941 3.8232328 4.622055Zm-1.9155123 0c0-1.832994-.9499393-3.0380801-2.3993067-3.0380801-1.4239061 0-2.3816673 1.230466-2.3816673 3.0380801 0 1.8242141.9577612 3.0458901 2.3816673 3.0458901 1.4493774 0 2.3993067-1.1962861 2.3993067-3.0458901Zm8.5199408 1.0663965c.1380866 1.231446 1.3377449 2.0399934 2.9770841 2.0399934 1.5708074 0 2.700921-.8085874 2.700921-1.9189438 0-.9638668-.681598-1.540995-2.295486-1.9365137l-1.6138879-.3876987c-2.2866714-.5507782-3.3482432-1.6171848-3.3482432-3.3476491 0-2.1425731 1.8724318-3.6142483 4.5312349-3.6142483 2.6313663 0 4.4352661 1.4716752 4.4959861 3.6142483h-1.8812664c-.1126153-1.239256-1.1399111-1.9872936-2.6411838-1.9872936s-2.5285585.7568376-2.5285585 1.858394c0 .8779271.6561368 1.3945255 2.2612101 1.7899942l1.3720008.3359389c2.5550025.602538 3.6165743 1.6259947 3.6165743 3.4423688 0 2.3232324-1.8557852 3.7783077-4.807408 3.7783077-2.761641 0-4.6262307-1.4208954-4.7466879-3.6669881l1.9077104.00009Zm11.6684048-7.7363048v2.142573h1.7265132v1.4716752h-1.7265132v4.9911938c0 .7753875.3456977 1.1367163 1.1046523 1.1367163.2049653-.003564.4095988-.0179173.6130462-.0429998v1.4628852c-.3412269.0635793-.6880553.0923742-1.0351277.0859397-1.8381458 0-2.5550026-.6884777-2.5550026-2.444332v-5.1894032h-1.3200954v-1.4716752h1.3200754v-2.142573h1.8724518Zm2.7264224 6.6699083c0-2.8486207 1.6824398-4.6386549 4.3060043-4.6386549 2.6323691 0 4.306977 1.7899942 4.306977 4.6386549 0 2.8564407-1.6657933 4.6386549-4.306977 4.6386549-2.6402512 0-4.3060043-1.7822242-4.3060043-4.6386549Zm6.7141055 0c0-1.9540937-.8980239-3.1074099-2.4081113-3.1074099-1.5100873 0-2.4071285 1.1621062-2.4071285 3.1074099 0 1.9619036.8970412 3.1064399 2.4071285 3.1064399 1.5100874 0 2.4081113-1.1445363 2.4081113-3.1064399Zm3.435357-4.5273353h1.7774458v1.540995h.0431208c.2478699-.9920084 1.1593781-1.674743 2.1838437-1.6357347.214765-.0007477.428938.0225107.638507.0693398v1.7382743c-.271128-.0826164-.553961-.1205483-.837344-.1122996-.5478854-.0221645-1.0781171.1955741-1.4514717.596044-.3733546.40047-.5525317.9436617-.4904845 1.4869492v5.3701026h-1.8636171v-9.0536706Zm13.2353013 6.3945092c-.250702 1.6435447-1.855785 2.771471-3.909384 2.771471-2.641184 0-4.280533-1.7646442-4.280533-4.595685 0-2.8398308 1.648164-4.6816248 4.202194-4.6816248 2.511911 0 4.091533 1.7206944 4.091533 4.4658055v.6367179h-6.412481v.1122996c-.05987.6740295.173528 1.3412251.640824 1.831874.467297.4906489 1.123453.7574609 1.801564.7325677.904374.0844993 1.757021-.4333609 2.096689-1.2734359l1.769594.00001Zm-6.299874-2.7021312h4.539085c.03382-.6056705-.187268-1.197943-.609998-1.6341331-.42273-.4361901-1.008773-.676749-1.616936-.6637194-.612975-.0036478-1.202015.2370238-1.636195.6685211-.434181.4314972-.677526 1.0180663-.675956 1.6293314Zm-78.5530853-4.8340739c.0219183-1.6964654.913801-3.26348332 2.3631755-4.15204654-.9184986-1.30810298-2.4017715-2.1077348-4.0023643-2.15767299-1.6839541-.17625943-3.31647417 1.00482673-4.17458639 1.00482673-.8747187 0-2.19591729-.98732679-3.61863005-.95813688-1.87191902.06030822-3.57475004 1.09589192-4.48547672 2.72786113C8.98110147 20.113985 10.42774122 25.035019 12.285552 27.7416202c.92950207 1.3253457 2.01582313 2.8057909 3.43725231 2.753291 1.39095385-.0575298 1.91044814-.8844771 3.58944836-.8844771 1.66341663 0 2.15081103.8844771 3.60108093.8510972 1.4925583-.0241599 2.4329408-1.3312356 3.3298316-2.6691313.6678457-.9443572 1.1817519-1.9880776 1.5226826-3.0924999-1.772706-.7476663-2.9253661-2.4798076-2.9274351-4.3991557Zm-2.7392984-8.08976374c.8138047-.97420493 1.2147355-2.22638031 1.1176487-3.49060866-1.2433127.13022006-2.3917854.72277733-3.2165845 1.65960461-.81445131.92430602-1.22705044 2.13354574-1.14692075 3.36137907 1.25998405.01293673 2.45631235-.55111499 3.24585655-1.53037502Zm15.83326414-3.47987861c.79116134-.05661564 1.56608639.24354663 2.11148221.81786915.54539581.57432253.80377468 1.36226855.70401955 2.14696121 0 1.9062438-1.03316225 3.00199024-2.81550176 3.00199024H35.771058v-5.9668206h2.16132044Zm-1.2319688 5.12298334h1.12815819c.56540475.0337019 1.1159405-.18844038 1.49874412-.60474624s.55712071-.98245418.47454995-1.54124678c.07656335-.55647366-.1002641-1.11795015-.48211858-1.53086104-.38185447-.4129109-.92877543-.63404563-1.49117549-.60292203h-1.12815819v4.27977609Zm5.09727941-1.40965541c-.07742963-.80711233.31067337-1.58822291 1.00153966-2.01573609.69086628-.42751317 1.5650471-.42751317 2.25591338 0 .69086629.42751318 1.07896931 1.20862376 1.00153961 2.01573609.0789029.80797963-.30884589 1.59060521-1.00032474 2.01903873-.69147885.42843353-1.56686427.42843353-2.25834313 0-.69147885-.42843352-1.0792276-1.2110591-1.00032478-2.01903873Zm3.34236668 0c0-.97606683-.43972096-1.54686498-1.21140122-1.54686498-.77462851 0-1.21038838.57079815-1.21038838 1.54687498 0 .9838868.43578996 1.55028496 1.21038838 1.55028496.77170031 0 1.21140122-.57031815 1.21140122-1.55029496Zm6.57798447 2.25340267h-.9244579l-.9332726-3.31639922h-.0705074l-.9293617 3.31639922h-.9156533l-1.2446944-4.50291536h.9039004l.8089045 3.43598883h.0665964l.9283789-3.43598883h.8549333l.928379 3.43598883h.0705073l.8049835-3.43598883h.8911648zm2.2866714-4.50291536h.8578715v.71532767h.0665965c.2315831-.52667035.772726-.84883977 1.3475222-.80224739.4450628-.03336812.8811927.13688946 1.1852488.46270057.3040561.3258111.4430426.77181918.3777166 1.21209399v2.91499052h-.8911647V12.0059514c0-.72362765-.3153328-1.08349648-.9744078-1.08349648-.3018792-.01402083-.594845.10412223-.8020908.32345573-.2072457.2193335-.308102.51798255-.2761276.81765056v2.63427144h-.8911647v-4.50291536ZM59.2596624 8.437103h.8911647v6.26071965h-.8911647zm2.1299827 4.00732698c-.0773702-.80716513.310794-1.58829548 1.0017116-2.01581525.6909176-.42751977 1.5651433-.42751977 2.2560609 0 .6909175.42751977 1.0790817 1.20865012 1.0017116 2.01581525.0788026.80800856-.3090172 1.59061202-1.0005304 2.01902667-.6915132.42841466-1.5669102.42841466-2.2584233 0-.6915132-.42841465-1.079333-1.21101811-1.0005304-2.01902667Zm3.3423667 0c0-.97606683-.439721-1.54686498-1.2114012-1.54686498-.7746285 0-1.2103884.57079815-1.2103884 1.54687498 0 .9838868.4357899 1.55028496 1.2103884 1.55028496.7716902 0 1.2114012-.57031815 1.2114012-1.55029496Zm1.8552937.97997681c0-.81054736.6052143-1.27782585 1.6795016-1.34423563l1.2231542-.07030977v-.38866874c0-.47558845-.3153328-.74413758-.924458-.74413758-.4974826 0-.8421976.18212941-.9411146.50048837h-.8627652c.091075-.77343748.8206574-1.26952587 1.8450049-1.26952587 1.1320792 0 1.7705867.56199817 1.7705867 1.51317508v3.07665h-.8578716v-.63280794h-.0705074c-.291367.46212483-.8095125.73221085-1.3563369.7069977-.383337.03976169-.7656522-.08403907-1.0524304-.34079645s-.451253-.62250711-.4527633-1.00682917Zm2.9026558-.38476875v-.37645877l-1.1026969.07030977c-.6218609.04149986-.9039004.25243918-.9039004.64940789 0 .40526868.3525469.64110791.837344.64110791.2869895.02896977.5734818-.05944475.7938929-.24500361.220411-.18555886.3558674-.45237306.3753604-.73936319Zm2.0584925-.59520806c0-1.42284538.7335034-2.32421245 1.8743872-2.32421245.5760895-.02646978 1.1156507.28135195 1.3847365.78999743h.0665964V8.437103h.8911648v6.26071965h-.8539506v-.71142769h-.0705074c-.289426.50442535-.8356347.80704386-1.4180296.78563745-1.1487258.00005-1.8743973-.90133707-1.8743973-2.32760243Zm.9205771 0c0 .95507689.4514639 1.52978502 1.2065075 1.52978502.7511027 0 1.2153122-.5829981 1.2153122-1.52587504 0-.93847695-.4690832-1.52978502-1.2153122-1.52978502-.75018 0-1.2065376.57860811-1.2065376 1.52587504h.0000301Zm6.9833894 0c-.0774296-.80711233.3106734-1.58822291 1.0015397-2.01573609.6908663-.42751317 1.5650471-.42751317 2.2559134 0 .6908663.42751318 1.0789693 1.20862376 1.0015396 2.01573609.0789029.80797963-.3088459 1.59060521-1.0003248 2.01903873-.6914788.42843353-1.5668642.42843353-2.2583431 0-.6914788-.42843352-1.0792276-1.2110591-1.0003248-2.01903873Zm3.3423567 0c0-.97606683-.439711-1.54686498-1.2113912-1.54686498-.7746285 0-1.2103884.57079815-1.2103884 1.54687498 0 .9838868.43579 1.55028496 1.2103884 1.55028496.7716903 0 1.2113912-.57031815 1.2113912-1.55029496Zm2.1123634-2.24951269h.8578715v.71532767h.0665964c.2315832-.52667035.7727261-.84883977 1.3475223-.80224739.4450627-.03336812.8811927.13688946 1.1852488.46270057.3040561.3258111.4430426.77181918.3777166 1.21209399v2.91499052h-.8911647V12.0059514c0-.72362765-.3153328-1.08349648-.9744078-1.08349648-.3018793-.01402083-.5948451.10412223-.8020908.32345573-.2072457.2193335-.3081021.51798255-.2761276.81765056v2.63427144h-.8911647v-4.50291536Zm8.8705423-1.12108636v1.14159629h.9783288v.74853757h-.9783288v2.31542247c0 .47167847.1948856.6782178.6385075.6782178.1135735-.00036246.227033-.00721032.3398213-.02050993v.74022759c-.1600385.02855062-.3221863.0437399-.4847571.04540985-.9910543 0-1.3857192-.34765887-1.3857192-1.21581605v-2.54299173h-.7168467v-.74853757h.7168467V9.07383093h.8921475Zm2.1955964-.63672793h.8833328v2.48144194h.0705074c.2427072-.53127972.793321-.85385969 1.3768544-.80663738.4425354-.02401264.8727615.14999322 1.1734944.47462231.3007328.32462908.4406492.76606929.3816391 1.20408223v2.90722055h-.8920573v-2.68799126c0-.71923766-.3359404-1.08349648-.9655931-1.08349648-.3100389-.02535625-.6154939.08704068-.8347043.3071425-.2192105.22010183-.3298238.5254651-.3022685.83445379v2.62989145h-.8911648L95.9732791 8.437103Zm9.0820645 5.0449136c-.2498925.84937673-1.0741581 1.3981685-1.9566475 1.30272577-.6021217.01585015-1.1807941-.23302854-1.5824818-.68060263-.4016876-.44757408-.5857817-1.04859581-.5034375-1.64359982-.080157-.59665758.1032472-1.19864237.5026981-1.64999768.3994508-.45135531.9756424-.7076679 1.5793002-.70253467 1.2564474 0 2.0144293.85599722 2.0144293 2.26999262v.31008899h-3.1886163v.04979984c-.028217.33413906.0862221.66464559.3151731.91023774.228951.24559216.55117.38348198.8874134.37975807.4359924.05219451.8604012-.16346643 1.0742974-.54589823l.8578716.00003Zm-3.1347756-1.45116528h2.2807949c.0227165-.30559857-.0850396-.60655296-.2967137-.82869821-.2116741-.22214526-.5075803-.34482175-.8147978-.337798-.3113797-.00390107-.6111429.11776085-.8312908.33738779-.2201479.21962693-.3420207.51860316-.3379725.82910842h-.0000201Z"/></g></svg>