<?xml version="1.0" encoding="UTF-8"?>
<svg width="105px" height="31px" viewBox="0 0 105 31" version="1.1" xmlns="http://www.w3.org/2000/svg" xmlns:xlink="http://www.w3.org/1999/xlink">
    <!-- Generator: sketchtool 51.2 (57519) - http://www.bohemiancoding.com/sketch -->
    <title>A530662A-DEEB-4F75-90FB-2858EC566017</title>
    <desc>Created with sketchtool.</desc>
    <defs>
        <polygon id="path-1" points="0 0.189111622 31.9062216 0.189111622 31.9062216 29.902569 0 29.902569"></polygon>
        <polygon id="path-3" points="7.10542736e-15 0.189111622 31.9063545 0.189111622 31.9063545 29.9122074 7.10542736e-15 29.9122074"></polygon>
        <polygon id="path-5" points="0 0.188845736 31.786041 0.188845736 31.786041 29.865079 0 29.865079"></polygon>
    </defs>
    <g id="Page-1" stroke="none" stroke-width="1" fill="none" fill-rule="evenodd">
        <g id="Hompage-amends-v2" transform="translate(-615.000000, -1702.000000)">
            <g id="Group-10" transform="translate(237.000000, 1578.000000)">
                <g id="Group-16" transform="translate(90.000000, 112.000000)">
                    <g id="Group-15" transform="translate(0.000000, 8.000000)">
                        <g id="Logo---BBC" transform="translate(288.000000, 4.000000)">
                            <rect id="Background" x="0" y="0" width="106" height="30.5769231"></rect>
                            <g id="Page-1">
                                <path d="M17.6175589,12.9333737 C18.2457153,12.3657065 18.5594611,11.6305309 18.5594611,10.727847 C18.5594611,8.85733696 17.3682906,7.92141722 14.9859494,7.92141722 L12.5849962,7.92141722 L12.5849962,13.7848746 L14.4415472,13.7848746 C15.9305105,13.7848746 16.9894026,13.501041 17.6175589,12.9333737" id="Fill-1" fill="#1D1D1B"></path>
                                <path d="M18.2388023,16.6327826 C17.5966869,16.3914908 16.5823307,16.2698478 15.195069,16.2698478 L12.5847304,16.2698478 L12.5847304,22.4543629 L15.3346593,22.4543629 C16.8615113,22.4543629 17.8964737,22.3353788 18.4415406,22.09874 C18.9859427,21.8607717 19.422661,21.4911898 19.7536894,20.9886647 C20.0833884,20.4861396 20.2489026,19.9457258 20.2489026,19.3687525 C20.2489026,18.7738319 20.0747471,18.2287651 19.7257713,17.735546 C19.3761309,17.2423269 18.8809176,16.8747391 18.2388023,16.6327826" id="Fill-3" fill="#1D1D1B"></path>
                                <g id="Group-7" transform="translate(0.000000, 0.475804)">
                                    <mask id="mask-2" fill="white">
                                        <use xlink:href="#path-1"></use>
                                    </mask>
                                    <g id="Clip-6"></g>
                                    <path d="M22.3708746,21.8109845 C21.8590435,22.5926902 21.1079147,23.2301526 20.1161589,23.7233717 C19.1250677,24.2165907 17.8847082,24.4632003 16.395745,24.4632003 L9.79312375,24.4632003 L9.79312375,4.96044105 L14.9021288,4.96044105 C16.5127349,4.96044105 17.7690477,5.17780309 18.6717316,5.60986831 C19.5737508,6.04259824 20.263061,6.63818353 20.7376681,7.39662416 C21.2122751,8.15572952 21.4495786,9.03248955 21.4495786,10.0282337 C21.4495786,11.9452738 20.4584875,13.3192412 18.4763052,14.1468123 C19.9001263,14.4166869 21.0328018,15.0029661 21.8749967,15.9056501 C22.7171915,16.8089987 23.1386212,17.8878324 23.1386212,19.1441451 C23.1386212,20.1398892 22.8827057,21.0292788 22.3708746,21.8109845 Z M27.2206405,0.189111622 L2.65872993,0.189111622 L-0.000132943144,0.189111622 L-0.000132943144,29.902569 L31.9062216,29.902569 L31.9062216,0.189111622 L27.2206405,0.189111622 Z" id="Fill-5" fill="#1D1D1B" mask="url(#mask-2)"></path>
                                </g>
                                <path d="M54.3917596,12.9333737 C55.019916,12.3657065 55.3336618,11.6305309 55.3336618,10.727847 C55.3336618,8.85733696 54.1424912,7.92141722 51.7601501,7.92141722 L49.3591969,7.92141722 L49.3591969,13.7848746 L51.2157479,13.7848746 C52.7047111,13.7848746 53.7636033,13.501041 54.3917596,12.9333737" id="Fill-8" fill="#1D1D1B"></path>
                                <path d="M55.0130029,16.6327826 C54.3708875,16.3914908 53.3565314,16.2698478 51.9692696,16.2698478 L49.358931,16.2698478 L49.358931,22.4543629 L52.1088599,22.4543629 C53.635712,22.4543629 54.6706743,22.3353788 55.2157412,22.09874 C55.7601434,21.8607717 56.1968616,21.4911898 56.5278901,20.9886647 C56.857589,20.4861396 57.0231033,19.9457258 57.0231033,19.3687525 C57.0231033,18.7738319 56.8489477,18.2287651 56.499972,17.735546 C56.1503315,17.2423269 55.6551183,16.8747391 55.0130029,16.6327826" id="Fill-10" fill="#1D1D1B"></path>
                                <g id="Group-14" transform="translate(36.559365, 0.475804)">
                                    <mask id="mask-4" fill="white">
                                        <use xlink:href="#path-3"></use>
                                    </mask>
                                    <g id="Clip-13"></g>
                                    <path d="M22.5857107,21.8109845 C22.0738796,22.5926902 21.3227508,23.2301526 20.330995,23.7233717 C19.3399038,24.2165907 18.0995443,24.4632003 16.6105811,24.4632003 L10.0079599,24.4632003 L10.0079599,4.96044105 L15.1169649,4.96044105 C16.7275711,4.96044105 17.9838838,5.17780309 18.8865677,5.60986831 C19.788587,6.04259824 20.4778972,6.63818353 20.9525042,7.39662416 C21.4271112,8.15572952 21.6644147,9.03248955 21.6644147,10.0282337 C21.6644147,11.9452738 20.6733236,13.3192412 18.6911413,14.1468123 C20.1149624,14.4166869 21.247638,15.0029661 22.0898328,15.9056501 C22.9320276,16.8089987 23.3534574,17.8878324 23.3534574,19.1441451 C23.3534574,20.1398892 23.0975418,21.0292788 22.5857107,21.8109845 Z M28.2344649,0.189111622 L3.67188963,0.189111622 L7.10542736e-15,0.189111622 L7.10542736e-15,29.9125397 L31.9063545,29.9125397 L31.9063545,0.189111622 L28.2344649,0.189111622 Z" id="Fill-12" fill="#1D1D1B" mask="url(#mask-4)"></path>
                                </g>
                                <g id="Group-17" transform="translate(73.118729, 0.475804)">
                                    <mask id="mask-6" fill="white">
                                        <use xlink:href="#path-5"></use>
                                    </mask>
                                    <g id="Clip-16"></g>
                                    <path d="M24.3718018,23.0118599 C22.3238127,24.1285824 19.9600836,24.6869436 17.2799498,24.6869436 C15.1023411,24.6869436 13.2544314,24.2488959 11.7375502,23.37413 C10.2206689,22.4993641 9.02019231,21.2942345 8.1361204,19.7580765 C7.25204849,18.2232479 6.81001254,16.5621233 6.81001254,14.7747028 C6.81001254,11.9363666 7.82237458,9.54870778 9.84576923,7.6130556 C11.8704933,5.67740343 14.3671656,4.70957734 17.335786,4.70957734 C19.3831104,4.70957734 21.6584323,5.24467349 24.1624164,6.3148658 L24.1624164,9.31605727 C21.8817768,8.01387918 19.6529849,7.36245778 17.4753763,7.36245778 C15.2419314,7.36245778 13.3873746,8.06772115 11.9123704,9.47758319 C10.4373662,10.8874452 9.69953177,12.6529302 9.69953177,14.7747028 C9.69953177,16.9150874 10.4254013,18.6745899 11.8771405,20.0518809 C13.3295443,21.4291718 15.1860953,22.1178173 17.4474582,22.1178173 C19.8111873,22.1178173 22.1190803,21.391283 24.3718018,19.9402086 L24.3718018,23.0118599 Z M31.7861401,0.188845736 L31.2416388,0.188845736 L28.6931187,0.188845736 L28.1739758,0.188845736 L3.61206522,0.188845736 L0,0.188845736 L0,29.865079 L31.7853763,29.865079 C31.7853763,20.7990213 31.7920234,12.0094854 31.7660995,3.23457316 L31.786041,3.23457316 L31.7861401,0.188845736 Z" id="Fill-15" fill="#1D1D1B" mask="url(#mask-6)"></path>
                                </g>
                            </g>
                        </g>
                    </g>
                </g>
            </g>
        </g>
    </g>
</svg>