<?xml version="1.0" encoding="UTF-8"?>
<svg width="100px" height="111px" viewBox="0 0 100 111" version="1.1" xmlns="http://www.w3.org/2000/svg" xmlns:xlink="http://www.w3.org/1999/xlink">
    <title>be-humble</title>
    <g id="—-Main" stroke="none" stroke-width="1" fill="none" fill-rule="evenodd">
        <g id="be-humble">
            <path d="M92.977774,88.5092331 C96.8400126,86.2732708 100,80.7854689 100,76.313831 L100,34.6858105 C100,30.2144594 96.8400126,24.7266575 92.977774,22.490982 L57.022226,1.67697176 C53.1599874,-0.558990588 46.8400126,-0.558990588 42.977774,1.67697176 L7.02222604,22.490982 C3.15998741,24.7266575 0,30.2144594 0,34.6858105 L0,76.313831 C0,80.7854689 3.15998741,86.2732708 7.02222604,88.5092331 L42.977774,109.323243 C46.8400126,111.558919 53.1599874,111.558919 57.022226,109.323243 L92.977774,88.5092331 Z" id="Fill-1" fill="#14C8F6"></path>
            <path d="M49.9998284,106.121911 C48.2326153,106.121911 46.5168912,105.739308 45.4101662,105.09915 L9.45461827,84.2845664 C7.09585514,82.9190691 4.86552819,79.0454278 4.86552819,76.3138597 L4.86552819,34.686126 C4.86552819,31.9545578 7.09585514,28.0809165 9.45519037,26.7151325 L45.4101662,5.90140905 C46.5168912,5.26067792 48.2326153,4.87807481 49.9998284,4.87807481 C51.7667553,4.87807481 53.4824795,5.26067792 54.5892045,5.90112224 L90.5450385,26.7154193 C92.9043737,28.0809165 95.1347006,31.9545578 95.1347006,34.686126 L95.1347006,76.3138597 C95.1347006,79.0454278 92.9043737,82.9190691 90.5450385,84.2845664 L54.5892045,105.09915 C53.4824795,105.739308 51.7667553,106.121911 49.9998284,106.121911" id="Fill-3" fill="#FFFFFF"></path>
            <path d="M39.1803827,77.5788304 C42.5852284,79.1838131 46.1797248,79.9865913 49.9630138,79.9865913 C53.7465889,79.9865913 57.3551017,79.1838131 60.7894105,77.5788304 C64.2237192,75.9738477 67.1628765,73.7126461 69.6077405,70.7946522 C70.3062731,69.9190245 70.4515861,69.0144292 70.0442518,68.0808662 C69.6369175,67.1470163 68.9380989,66.5633602 67.9486541,66.3298977 C66.9592094,66.0964352 66.1153637,66.4173744 65.4168311,67.2930021 C63.4960096,69.5688308 61.1821562,71.348767 58.4755571,72.6328106 C55.7689579,73.9165673 52.9170457,74.5587325 49.9192483,74.5587325 C46.9217369,74.5587325 44.0987156,73.9311945 41.4504706,72.6766923 C38.9489688,71.491311 36.7724191,69.8249512 34.9199634,67.6770392 L34.5967276,67.2930021 C33.898195,66.4173744 33.0540633,66.0964352 32.0646186,66.3298977 C31.0751738,66.5633602 30.3766412,67.1470163 29.9690209,68.0808662 C29.5616865,69.0144292 29.7072857,69.9190245 30.4058182,70.7946522 C32.8503962,73.7126461 35.775251,75.9738477 39.1803827,77.5788304" id="Fill-5" fill="#14C8F6"></path>
            <path d="M32.1519208,50.5870134 C33.548986,51.6375944 34.945765,52.1627416 36.3428302,52.1627416 C37.7398953,52.1627416 39.1366744,51.6375944 40.5337395,50.5870134 C41.9305186,49.5364323 43.1239166,48.1066898 44.1133614,46.2974991 C45.1608742,44.3715772 45.7721617,42.2704151 45.9469378,39.9942995 C45.9469378,39.5276614 45.7867502,39.1482132 45.4666609,38.8565285 C45.1462856,38.564557 44.7681284,38.4478258 44.331617,38.5063348 C43.943448,38.5582472 43.635945,38.7484015 43.4091078,39.0767977 L43.3272977,39.2067222 L41.7560285,42.0954616 C41.1155639,43.2624871 40.3154839,44.1673693 39.3549301,44.8092476 C38.3943763,45.451126 37.390343,45.7720652 36.3428302,45.7720652 C35.2950313,45.7720652 34.3055865,45.451126 33.3742098,44.8092476 C32.5203524,44.2207157 31.7889242,43.4116278 31.1799251,42.3819837 L31.0168769,42.0954616 L29.3577906,39.2067222 C29.1249464,38.7980195 28.7905546,38.564557 28.3537573,38.5063348 C27.9172459,38.4478258 27.5390886,38.564557 27.2189994,38.8565285 C26.9340942,39.1158038 26.799365,39.4442 26.8136674,39.8420039 L26.8259676,39.9942995 L26.8663005,40.4471708 C27.0799794,42.5500538 27.6486456,44.4997808 28.572299,46.2974991 C29.5617438,48.1066898 30.7548557,49.5364323 32.1519208,50.5870134" id="Fill-7" fill="#14C8F6"></path>
            <path d="M71.1642782,46.6543181 L71.3539289,46.2975278 L71.557596,45.910049 C72.4812495,44.09082 73.0244572,42.1190086 73.1875054,39.9943282 C73.1875054,39.52769 73.0273177,39.1482418 72.7072285,38.8565572 C72.3871392,38.5645857 72.0232844,38.4478545 71.6156641,38.5063635 C71.2535256,38.5579891 70.960325,38.7484302 70.7363483,39.0768264 L70.6553963,39.2067509 L68.996596,42.0954903 L68.8335479,42.3820124 C68.2245488,43.4116565 67.4928345,44.2207444 66.6392631,44.8092763 C65.7078864,45.4511547 64.7184416,45.7720939 63.6709288,45.7720939 C62.62313,45.7720939 61.6188106,45.4511547 60.6582568,44.8092763 C59.7780829,44.2207444 59.0323522,43.4116565 58.4207786,42.3820124 L58.2574444,42.0954903 L56.6858892,39.2067509 L56.6046512,39.0768264 C56.4058468,38.7894439 56.1455419,38.6078938 55.8234503,38.5321763 L55.6818559,38.5063635 L55.3995252,38.4931703 C55.080008,38.5083711 54.7956749,38.6294045 54.546812,38.8565572 C54.2267227,39.1482418 54.0668211,39.52769 54.0668211,39.9943282 C54.2413113,42.2704438 54.8525988,44.3716059 55.9001116,46.2975278 C56.8898424,48.1067185 58.0829543,49.536461 59.4797334,50.5870421 C60.8767985,51.6376231 62.2592752,52.1627703 63.6268772,52.1627703 C64.9950513,52.1627703 66.3918304,51.6376231 67.8180726,50.5870421 C69.0538059,49.6767105 70.1038931,48.481291 70.9680483,47.0007833 L71.1642782,46.6543181 Z" id="Fill-9" fill="#14C8F6"></path>
        </g>
    </g>
</svg>