<?xml version="1.0" encoding="UTF-8"?>
<svg width="143px" height="26px" viewBox="0 0 143 26" version="1.1" xmlns="http://www.w3.org/2000/svg" xmlns:xlink="http://www.w3.org/1999/xlink">
    <!-- Generator: sketchtool 51.2 (57519) - http://www.bohemiancoding.com/sketch -->
    <title>D4B59349-3EB2-4699-8B6F-3CA195132758</title>
    <desc>Created with sketchtool.</desc>
    <defs>
        <polygon id="path-1" points="0 0.0441666667 18.5592137 0.0441666667 18.5592137 24.6890647 0 24.6890647"></polygon>
        <polygon id="path-3" points="0.0607210923 0.249341388 18.2532679 0.249341388 18.2532679 19.025641 0.0607210923 19.025641"></polygon>
    </defs>
    <g id="Page-1" stroke="none" stroke-width="1" fill="none" fill-rule="evenodd">
        <g id="Hompage-amends-v2" transform="translate(-452.000000, -1707.000000)">
            <g id="Group-10" transform="translate(237.000000, 1578.000000)">
                <g id="Group-16" transform="translate(90.000000, 112.000000)">
                    <g id="Group-15" transform="translate(0.000000, 8.000000)">
                        <g id="Logo---Buzzfeed" transform="translate(125.327692, 9.000000)">
                            <rect id="Background" x="0" y="0" width="142.692308" height="25.4807692"></rect>
                            <g id="Page-1">
                                <g id="Group-3" transform="translate(0.000000, 0.295611)">
                                    <mask id="mask-2" fill="white">
                                        <use xlink:href="#path-1"></use>
                                    </mask>
                                    <g id="Clip-2"></g>
                                    <path d="M5.26792821,9.81848782 C6.80900513,9.81848782 8.27228077,9.82120577 9.73555641,9.81610962 C10.0172038,9.81509038 10.3049667,9.81780833 10.5788,9.76243013 C11.6119603,9.55518654 12.3903128,9.02518654 12.6607487,7.94819936 C13.0922231,6.23113526 11.997909,4.74781474 10.2213897,4.65982115 C9.39547308,4.61905192 8.56615897,4.64860962 7.73820385,4.64793013 C6.93505,4.6469109 6.1322359,4.64759038 5.30428077,4.64759038 C5.28797308,4.82527628 5.26928718,4.93399423 5.26894744,5.04237244 C5.26724872,6.60213526 5.26792821,8.16189808 5.26792821,9.81848782 Z M5.30394103,19.9866737 C5.37256923,20.0104558 5.44085769,20.0539429 5.50880641,20.0539429 C7.16199872,20.0570006 8.81824872,20.1154365 10.4677038,20.0372955 C12.1749154,19.9560968 13.1897295,18.9069686 13.2349154,17.361475 C13.280441,15.8078276 12.3430885,14.6876929 10.6712103,14.4872442 C9.61460769,14.3601801 8.53524231,14.4182763 7.46572949,14.4033276 C6.7573641,14.393475 6.04831923,14.4016288 5.30394103,14.4016288 L5.30394103,19.9866737 Z M-0.000135897436,0.0586737179 C3.98981282,0.0637698718 7.98078077,0.003975 11.968691,0.0953660256 C15.042691,0.165692949 17.4511333,2.25375705 17.9695821,5.10556474 C18.5563192,8.33414808 16.8813833,11.0908276 14.2972936,11.8304494 C14.2313833,11.8491353 14.1780436,11.9099494 14.0897103,11.9714429 C16.5528513,12.6767506 18.0232615,14.3068404 18.437409,16.7495968 C19.1199538,20.7796353 16.8970115,24.0914558 12.697441,24.5596224 C11.7658641,24.663584 10.8200179,24.660866 9.88062692,24.6659622 C6.58715256,24.6832891 3.29367821,24.6826096 0.000203846154,24.6890647 C-0.000135897436,16.4788212 -0.000135897436,8.26857756 -0.000135897436,0.0586737179 Z" id="Fill-1" fill="#EE3925" mask="url(#mask-2)"></path>
                                </g>
                                <g id="Group-6" transform="translate(86.294872, 6.410996)">
                                    <mask id="mask-4" fill="white">
                                        <use xlink:href="#path-3"></use>
                                    </mask>
                                    <g id="Clip-5"></g>
                                    <path d="M13.6629923,7.89367051 C13.7554026,5.6816 11.6479731,3.99205513 8.97962692,4.09737564 C6.75974231,4.18502949 4.78651154,6.06483077 5.02331282,7.89367051 L13.6629923,7.89367051 Z M8.8376141,19.025709 C8.21384487,18.9095167 7.58328077,18.8205038 6.96732564,18.6730551 C2.14364615,17.5169077 -0.314398718,13.3649013 0.107223077,8.77734359 C0.460216667,4.93586282 2.39675513,2.12754231 6.08501154,0.82734359 C11.2345051,-0.98790641 17.2061782,1.46300385 18.0871333,8.31461282 C18.2033256,9.21968974 18.1978897,10.1407346 18.2532679,11.1358436 L11.5582808,11.1358436 L4.95502436,11.1358436 C5.26317179,12.8240295 6.11422949,14.0080359 7.59856923,14.6375808 C10.0107487,15.660209 12.2700436,15.1502538 14.4009154,13.7790487 C14.5266205,13.6981897 14.6428128,13.6020423 14.7651205,13.5150679 C14.7770115,13.5065744 14.8011333,13.513709 14.886409,13.513709 C15.5380372,14.4731449 16.2110692,15.4638372 16.9673385,16.5775167 C16.2813962,17.0049141 15.6484538,17.4690038 14.9574154,17.8162218 C13.6854154,18.4552795 12.3186269,18.7940038 10.8978192,18.9122346 C10.736441,18.9258244 10.5788,18.9866385 10.4191205,19.025709 L8.8376141,19.025709 Z" id="Fill-4" fill="#EE3925" mask="url(#mask-4)"></path>
                                </g>
                                <path d="M110.407629,14.3013705 L119.055803,14.3013705 C119.166899,12.1572487 117.109412,10.4541141 114.523283,10.5047359 C112.228655,10.5492423 110.242514,12.3638128 110.407629,14.3013705 Z M114.226347,25.4364667 C113.458867,25.2822231 112.679495,25.1731654 111.926623,24.9655821 C108.331456,23.9738705 105.851328,20.9335051 105.525174,17.2177295 C105.217027,13.7129346 106.23286,10.7425564 109.046277,8.53150513 C113.310059,5.18095385 121.688815,5.94096026 123.353219,13.8685372 C123.472809,14.4362487 123.542796,15.0195885 123.578809,15.599191 C123.61686,16.2148064 123.587303,16.8344987 123.587303,17.5466013 L116.975553,17.5466013 L110.376033,17.5466013 C110.491206,18.5376333 110.876136,19.3339923 111.514514,19.9934346 C112.975751,21.5012167 114.799155,21.7852423 116.769668,21.4397231 C118.025021,21.2188897 119.183886,20.7422295 120.226899,19.8483641 C120.929149,20.8771077 121.611354,21.8776526 122.353694,22.966191 C121.800251,23.3368513 121.29879,23.7285756 120.747726,24.0299282 C119.377879,24.7794026 117.895578,25.1745244 116.343629,25.3199346 C116.162886,25.3365821 115.986899,25.3967167 115.808194,25.4364667 L114.226347,25.4364667 Z" id="Fill-7" fill="#EE3925"></path>
                                <path d="M26.7771288,25.4365686 C26.2117955,25.320716 25.6430647,25.2204917 25.0821481,25.0869724 C21.6082699,24.2590173 19.5562186,21.6586199 19.5531609,18.0838378 C19.5504429,14.6575237 19.5524814,11.2312096 19.5524814,7.80489551 L19.5524814,7.1906391 L24.2484173,7.1906391 L24.2484173,7.84498526 C24.2484173,11.0830814 24.2575904,14.3211776 24.2440006,17.5592737 C24.2375455,19.028325 24.6870263,20.2721263 26.078616,20.9115237 C27.5870776,21.6039212 29.1318917,21.5791199 30.5272186,20.5850301 C31.5491673,19.8569596 31.8382891,18.7432801 31.8403276,17.5460237 C31.8464429,14.3269532 31.8427058,11.1075429 31.8427058,7.88813269 L31.8427058,7.18044679 L36.4876801,7.18044679 C36.4876801,7.38327372 36.4876801,7.59935064 36.4876801,7.81474808 C36.4876801,11.2036904 36.4890391,14.5926327 36.4873404,17.9812353 C36.4849622,22.0707288 33.9396032,24.8814276 29.8606417,25.310184 C29.6591737,25.3309083 29.4621224,25.3934212 29.2626929,25.4362288 C28.4340583,25.4365686 27.6054237,25.4365686 26.7771288,25.4365686" id="Fill-9" fill="#EE3925"></path>
                                <path d="M71.1163173,24.9283122 L71.1163173,0.370966026 L88.1969263,0.370966026 L88.1969263,2.75290833 C88.1969263,3.28019038 88.1612532,3.81053013 88.2067788,4.33373526 C88.2519647,4.85490192 88.0426827,4.95580577 87.5633045,4.95342756 C84.1930481,4.93406218 80.8224519,4.94323526 77.4521955,4.94323526 L76.3860801,4.94323526 L76.3860801,10.1141327 L77.0220801,10.1141327 C79.5643814,10.1141327 82.1060032,10.1287417 84.6479647,10.1019019 C85.1613173,10.0968058 85.2819263,10.2602224 85.2700353,10.7453763 C85.2384391,12.0391199 85.2591635,13.3342224 85.2591635,14.6928571 L76.3480288,14.6928571 L76.3480288,24.9279724 C74.576266,24.9283122 72.8727917,24.9283122 71.1163173,24.9283122" id="Fill-11" fill="#EE3925"></path>
                                <path d="M129.255449,21.1493103 C130.155429,21.1493103 130.998333,21.14965 131.840897,21.1493103 C134.873449,21.1486308 136.782808,19.4397205 137.122551,16.4224577 C137.366487,14.2562526 136.194712,12.101259 134.32884,11.3364962 C132.684821,10.6627846 130.967417,11.0208744 129.255788,10.9257462 C129.255449,14.3659897 129.255449,17.7107654 129.255449,21.1493103 M124.777288,24.9187654 L124.777288,24.2725731 C124.777288,18.7772205 124.776949,13.2815282 124.777288,7.7858359 C124.777288,7.06422051 124.778308,7.05776538 125.523026,7.0649 C128.100321,7.08868205 130.687808,6.97894487 133.251513,7.17735513 C136.904776,7.46002179 139.764058,9.1054 141.117596,12.7114385 C142.493218,16.3759128 141.444769,20.5581564 138.649699,22.8493872 C137.002962,24.1995282 135.065404,24.8640667 132.978019,24.93915 C130.327679,25.0352974 127.671564,24.9693872 125.017827,24.9714256 C124.964147,24.9714256 124.910128,24.9486628 124.777288,24.9187654" id="Fill-13" fill="#EE3925"></path>
                                <path d="M45.9538878,11.2020256 L37.9977724,11.2020256 L37.9977724,7.17232692 L52.3808173,7.17232692 C52.3808173,7.93267308 52.342766,8.69641667 52.3923686,9.4550641 C52.4375545,10.1545962 52.224875,10.6944487 51.7835481,11.2438141 C49.3914135,14.2203077 47.0369904,17.2273782 44.6699968,20.2242564 C44.5429327,20.3852949 44.4223237,20.55075 44.2245929,20.8123526 L52.476625,20.8123526 L52.476625,24.9191731 L37.9539455,24.9191731 C37.9539455,23.7973397 37.9376378,22.6758462 37.9695737,21.5557115 C37.9750096,21.3637564 38.1683237,21.1633077 38.3042212,20.9900385 C40.7323686,17.8976923 43.1656122,14.8090833 45.5961378,11.7184359 C45.6973814,11.5893333 45.7836763,11.4486795 45.9538878,11.2020256" id="Fill-15" fill="#EE3925"></path>
                                <path d="M53.7620449,11.2065103 C53.7620449,9.93485 53.7610256,8.76918974 53.7634038,7.60352949 C53.7637436,7.47510641 53.7851474,7.34634359 53.8000962,7.17952949 L68.1393141,7.17952949 C68.1393141,8.26297179 68.1512051,9.32908718 68.1267436,10.3941833 C68.1230064,10.5548821 67.9646859,10.7240744 67.8512115,10.8677859 C65.3822949,14.001241 62.9089615,17.1312987 60.4383462,20.2630551 C60.3163782,20.4176385 60.2073205,20.5830936 60.0174038,20.8477538 L60.7369808,20.8477538 C63.0710192,20.8477538 65.4053974,20.8572667 67.7394359,20.8392603 C68.1729487,20.8358628 68.3350064,20.9422026 68.3220962,21.4045936 C68.2905,22.5668564 68.3115641,23.7308179 68.3115641,24.9294333 L53.7759744,24.9294333 C53.7759744,23.7685295 53.7664615,22.6266513 53.7875256,21.4857923 C53.7902436,21.3427603 53.9400705,21.1936128 54.0426731,21.063491 C56.4134038,18.0441897 58.7875321,15.0279462 61.1603013,12.0106833 C61.3417244,11.7799974 61.5190705,11.5462538 61.7813526,11.2065103 L53.7620449,11.2065103 Z" id="Fill-17" fill="#EE3925"></path>
                            </g>
                        </g>
                    </g>
                </g>
            </g>
        </g>
    </g>
</svg>