<?xml version="1.0" encoding="UTF-8"?>
<svg width="32px" height="41px" viewBox="0 0 32 41" version="1.1" xmlns="http://www.w3.org/2000/svg" xmlns:xlink="http://www.w3.org/1999/xlink">
    <!-- Generator: sketchtool 51.2 (57519) - http://www.bohemiancoding.com/sketch -->
    <title>323002C7-5914-4069-8F57-5D39C7DE48D4</title>
    <desc>Created with sketchtool.</desc>
    <defs></defs>
    <g id="Page-1" stroke="none" stroke-width="1" fill="none" fill-rule="evenodd">
        <g id="Hompage-amends-v2" transform="translate(-878.000000, -1695.000000)">
            <g id="Group-10" transform="translate(237.000000, 1578.000000)">
                <g id="Group-16" transform="translate(90.000000, 112.000000)">
                    <g id="Group-14" transform="translate(424.000000, 0.000000)">
                        <g id="Logo---Channel-4" transform="translate(127.951524, 5.000000)">
                            <rect id="Background" x="0" y="0" width="30.7937807" height="40.7692308"></rect>
                            <g id="Page-1" fill="#231F20">
                                <polygon id="Fill-1" points="22.8765696 4.05324223 22.8765696 35.3922029 18.5997038 35.3922029 18.5997038 9.14982979"></polygon>
                                <polygon id="Fill-2" points="8.35899345 40.3856097 12.7252046 40.3856097 12.7252046 36.1083101 8.35899345 36.1083101"></polygon>
                                <polygon id="Fill-3" points="23.5767594 27.7098486 30.4802046 27.7098486 30.4802046 23.4338502 23.5767594 23.4338502"></polygon>
                                <polygon id="Fill-4" points="18.5087971 40.3856097 27.7386907 40.3856097 27.7386907 36.1083101 18.5087971 36.1083101"></polygon>
                                <polygon id="Fill-5" points="13.4265221 40.3660925 17.7025205 40.3660925 17.7025205 28.3695295 13.4265221 28.3695295"></polygon>
                                <polygon id="Fill-6" points="13.4276064 22.5909681 13.4276064 7.16371768 17.7023036 2.04370949 17.7023036 22.5909681"></polygon>
                                <polygon id="Fill-7" points="0.561400982 22.5909681 12.676802 8.06367676 12.676802 14.7715164 6.17367594 22.5909681"></polygon>
                                <polygon id="Fill-8" points="19.4004722 -0.000130114566 18.5360777 1.03688298 18.5360777 7.72563912 22.7708732 2.63165385"></polygon>
                                <polygon id="Fill-9" points="0 27.7098486 17.7237725 27.7098486 17.7237725 23.4338502 0 23.4338502"></polygon>
                            </g>
                        </g>
                    </g>
                </g>
            </g>
        </g>
    </g>
</svg>