<?xml version="1.0" encoding="UTF-8"?>
<svg width="100px" height="111px" viewBox="0 0 100 111" version="1.1" xmlns="http://www.w3.org/2000/svg" xmlns:xlink="http://www.w3.org/1999/xlink">
    <title>customer-first</title>
    <defs>
        <path d="M40.021901,0.00618468019 C39.2870402,0.0492060184 38.66002,0.352936666 38.1411264,0.916803005 L38.1411264,0.916803005 L32.4338693,6.83395786 L26.6216321,0.807241997 C26.1236202,0.313643844 25.531784,0.046911547 24.8455516,0.00618468019 L24.8455516,0.00618468019 C24.1106907,-0.0371234669 23.4296072,0.147007861 22.802873,0.558865472 L22.802873,0.558865472 C22.1758528,0.970723083 21.7759558,1.54520135 21.6028959,2.28230028 L21.6028959,2.28230028 L19.5925409,10.215435 L11.7450624,8.00471188 C11.0099155,7.78788433 10.3073783,7.84209122 9.63716461,8.16704573 L9.63716461,8.16704573 C8.96695093,8.49228704 8.46951107,8.99076095 8.14541714,9.66275425 L8.14541714,9.66275425 C7.82103715,10.3347476 7.76697382,11.0391503 7.98322714,11.7759624 L7.98322714,11.7759624 L10.253315,19.6442783 L2.13094304,21.698117 C1.46530615,21.8882713 0.9406916,22.2766106 0.557385442,22.8634217 L0.557385442,22.8634217 C0.146618543,23.4921068 -0.0370251537,24.1747121 0.00616830145,24.911811 L0.00616830145,24.911811 C0.0493617566,25.6486231 0.352001992,26.2773083 0.914089009,26.7975796 L0.914089009,26.7975796 L6.75092645,32.5199912 L0.914089009,38.2424028 C0.352001992,38.7626742 0.0493617566,39.3910726 0.00616830145,40.1284583 L0.00616830145,40.1284583 C-0.0370251537,40.8652704 0.146618543,41.5372637 0.557385442,42.1441514 L0.557385442,42.1441514 C0.96815234,42.7510391 1.54110923,43.141386 2.27597007,43.3146186 L2.27597007,43.3146186 L10.253315,45.3957041 L7.98322714,53.2637333 C7.76697382,54.0008322 7.82103715,54.7052349 8.14541714,55.3772282 L8.14541714,55.3772282 C8.46951107,56.0492215 8.96695093,56.5479822 9.63716461,56.8732236 L9.63716461,56.8732236 C10.3073783,57.1978913 11.0099155,57.2523849 11.7450624,57.0355574 L11.7450624,57.0355574 L19.5925409,54.7597286 L21.6406544,62.9033811 C21.8303051,63.5722195 22.217616,64.108839 22.802873,64.5135264 L22.802873,64.5135264 C23.4296072,64.9471815 24.1106907,65.1313128 24.8455516,65.066494 L24.8455516,65.066494 C25.5809845,65.0013884 26.2077187,64.6873326 26.7266123,64.1234663 L26.7266123,64.1234663 L32.4338693,58.2708434 L38.1411264,64.1234663 C38.66002,64.6873326 39.2870402,64.9904896 40.021901,65.0337978 L40.021901,65.0337978 C40.7570479,65.0771059 41.4378454,64.8929746 42.0648656,64.4808302 L42.0648656,64.4808302 C42.6918859,64.0692594 43.0917829,63.4947811 43.2645567,62.757969 L43.2645567,62.757969 L45.2754838,54.7597286 L53.1229623,57.0355574 C53.857537,57.2523849 54.5603604,57.1978913 55.230574,56.8732236 L55.230574,56.8732236 C55.9007877,56.5479822 56.3979415,56.0492215 56.7223215,55.3772282 L56.7223215,55.3772282 C57.0464154,54.7052349 57.1004788,54.0008322 56.8845115,53.2637333 L56.8845115,53.2637333 L54.6144237,45.3957041 L62.7365096,43.2770466 C63.4024325,43.0883264 63.927047,42.7103122 64.3106393,42.1441514 L64.3106393,42.1441514 C64.7211201,41.5372637 64.9050498,40.8652704 64.8615703,40.1284583 L64.8615703,40.1284583 C64.8183769,39.3910726 64.5157367,38.7626742 63.9536496,38.2424028 L63.9536496,38.2424028 L58.1165261,32.5199912 L63.9536496,26.7975796 C64.5157367,26.2773083 64.8183769,25.6486231 64.8615703,24.911811 L64.8615703,24.911811 C64.9050498,24.1747121 64.7211201,23.4921068 64.3106393,22.8634217 L64.3106393,22.8634217 C63.8995863,22.2350233 63.3266294,21.8337776 62.5917686,21.6602582 L62.5917686,21.6602582 L54.6144237,19.6442783 L56.8845115,11.7759624 C57.1004788,11.0391503 57.0464154,10.3347476 56.7223215,9.66275425 L56.7223215,9.66275425 C56.3979415,8.99076095 55.9007877,8.49228704 55.230574,8.16704573 L55.230574,8.16704573 C54.5603604,7.84209122 53.857537,7.78788433 53.1229623,8.00471188 L53.1229623,8.00471188 L45.2754838,10.215435 L43.2270842,2.13688816 C43.0374335,1.46919699 42.6501226,0.943189426 42.0648656,0.558865472 L42.0648656,0.558865472 C41.4976297,0.186300683 40.8863422,0 40.2307171,0 L40.2307171,0 C40.1617792,0 40.0919831,0.0021693553 40.021901,0.00618468019 L40.021901,0.00618468019 Z" id="path-1"></path>
        <path d="M9.74026717,0.0100383122 L0.940816385,0.931268567 C0.329242827,0.997234619 0,1.2602384 0,1.68815731 L0,1.68815731 L0,3.59687068 C0,4.09018203 0.423353071,4.32048959 1.12903687,4.25481035 L1.12903687,4.25481035 L5.50530622,3.79390841 L5.50530622,22.220808 C5.50530622,22.6814231 5.88174719,22.9447137 6.54051889,22.9447137 L6.54051889,22.9447137 L9.83437741,22.9447137 C10.4931491,22.9447137 10.8698761,22.6814231 10.8698761,22.220808 L10.8698761,22.220808 L10.8698761,0.700961004 C10.8698761,0.257554411 10.5280471,0 9.94650877,0 L9.94650877,0 C9.88100346,0 9.81206556,0.00344170706 9.74026717,0.0100383122 L9.74026717,0.0100383122 Z" id="path-3"></path>
    </defs>
    <g id="—-Main" stroke="none" stroke-width="1" fill="none" fill-rule="evenodd">
        <g id="customer-first">
            <path d="M92.977774,88.5092331 C96.8400126,86.2732708 100,80.7854689 100,76.313831 L100,34.6858105 C100,30.2144594 96.8400126,24.7266575 92.977774,22.490982 L57.022226,1.67697176 C53.1599874,-0.558990588 46.8400126,-0.558990588 42.977774,1.67697176 L7.02222604,22.490982 C3.15998741,24.7266575 0,30.2144594 0,34.6858105 L0,76.313831 C0,80.7854689 3.15998741,86.2732708 7.02222604,88.5092331 L42.977774,109.323243 C46.8400126,111.558919 53.1599874,111.558919 57.022226,109.323243 L92.977774,88.5092331 Z" id="Fill-1" fill="#14C8F6"></path>
            <g id="Group-5" transform="translate(17.566102, 22.960499)">
                <mask id="mask-2" fill="white">
                    <use xlink:href="#path-1"></use>
                </mask>
                <g id="Clip-4"></g>
                <polygon id="Fill-3" fill="#FFFFFF" mask="url(#mask-2)" points="-2.7024332 67.7885975 67.5701718 67.7885975 67.5701718 -2.709609 -2.7024332 -2.709609"></polygon>
            </g>
            <path d="M49.5017592,66.9517855 C48.8429875,66.9517855 48.4665465,66.6884949 48.4665465,66.2278798 L48.4665465,47.8009802 L44.0905632,48.2615953 C43.3845934,48.3275614 42.9609543,48.0972538 42.9609543,47.6036557 L42.9609543,45.6952291 C42.9609543,45.2673102 43.2904831,45.0043064 43.9020567,44.9383403 L52.7015075,44.0171101 C53.4074773,43.951144 53.8308304,44.2144346 53.8308304,44.7080328 L53.8308304,66.2278798 C53.8308304,66.6884949 53.4543894,66.9517855 52.7956177,66.9517855 L49.5017592,66.9517855 Z" id="Fill-6" fill="#14C8F6"></path>
            <g id="Group-10" transform="translate(42.961154, 44.006986)">
                <mask id="mask-4" fill="white">
                    <use xlink:href="#path-3"></use>
                </mask>
                <g id="Clip-9"></g>
                <polygon id="Fill-8" fill="#14C8F6" mask="url(#mask-4)" points="-2.86049372 25.8128029 13.7303699 25.8128029 13.7303699 -2.86808921 -2.86049372 -2.86808921"></polygon>
            </g>
        </g>
    </g>
</svg>