<svg xmlns="http://www.w3.org/2000/svg" version="1.1" x="0" y="0" viewBox="0 0 96 68" xml:space="preserve"><style type="text/css">
	.st0{fill:#5E5E5E;}
</style><path class="st0" d="M44 30c12.9 13.1 34.5 13 48 0 -12.6-6.9-24.2-9.5-39.5-9.9C48.1 10.3 38.6 0 24.6 0c-6.8 0-11.4 6-12.5 11L0 12v2l13.5 2.3 6.5 6c0.9 13.4 9.2 25.1 21 30.5L36 68h2.8l7.9-13.2c3 0.8 6.1 1.2 9.3 1.2h0.2l-4 12H55l7.2-12h16.5L92 60h4L77.4 44c-18.3 2.7-30.7-1.6-37.9-14H44zM25.3 14.5c-2.6-0.1-4.6-2.3-4.5-4.8 0.1-2.6 2.3-4.6 4.8-4.5 2.6 0.1 4.6 2.2 4.5 4.8C30 12.6 27.8 14.6 25.3 14.5z"/></svg>