<?xml version="1.0" encoding="UTF-8"?>
<svg width="21px" height="15px" viewBox="0 0 21 15" version="1.1" xmlns="http://www.w3.org/2000/svg" xmlns:xlink="http://www.w3.org/1999/xlink">
<defs>
<rect id="path-1" x="0" y="0" width="21" height="15" rx="2"></rect>
</defs>
<g id="Page-1" stroke="none" stroke-width="1" fill="none" fill-rule="evenodd">
<g id="Desktop-Copy" transform="translate(-716.000000, -502.000000)">
<g id="GB" transform="translate(716.000000, 502.000000)">
<mask id="mask-2" fill="white">
<use xlink:href="#path-1"></use>
</mask>
<use id="Mask" fill="#FFFFFF" xlink:href="#path-1"></use>
<rect id="Mask-Copy" fill="#0A17A7" mask="url(#mask-2)" x="0" y="0" width="21" height="15"></rect>
<path d="M5.00530593,10 L0,10 L0,5 L5.00530593,5 L-2.08023771,0.220740472 L-0.961851899,-1.43733467 L8,4.60751076 L8,-1 L13,-1 L13,4.60751076 L21.9618519,-1.43733467 L23.0802377,0.220740472 L15.9946941,5 L21,5 L21,10 L15.9946941,10 L23.0802377,14.7792595 L21.9618519,16.4373347 L13,10.3924892 L13,16 L8,16 L8,10.3924892 L-0.961851899,16.4373347 L-2.08023771,14.7792595 L5.00530593,10 Z" id="Rectangle-2" fill="#FFFFFF" mask="url(#mask-2)"></path>
<path d="M14.0009766,4.74914551 L23.5,-1.5" id="Line" stroke="#DB1F35" stroke-width="0.666666667" stroke-linecap="round" mask="url(#mask-2)"></path>
<path d="M15.0095825,16.0127563 L23.5249634,10.2731323" id="Line-Copy-2" stroke="#DB1F35" stroke-width="0.666666667" stroke-linecap="round" mask="url(#mask-2)" transform="translate(19.267273, 13.142944) scale(1, -1) translate(-19.267273, -13.142944) "></path>
<path d="M6.00415039,4.73284912 L-2.87811279,-1.25323486" id="Line-Copy" stroke="#DB1F35" stroke-width="0.666666667" stroke-linecap="round" mask="url(#mask-2)"></path>
<path d="M6.9675293,16.7328491 L-2.87811279,10.2036743" id="Line-Copy-3" stroke="#DB1F35" stroke-width="0.666666667" stroke-linecap="round" mask="url(#mask-2)" transform="translate(2.044708, 13.468262) scale(1, -1) translate(-2.044708, -13.468262) "></path>
<polygon id="Rectangle-2-Copy-3" fill="#E6273E" mask="url(#mask-2)" points="0 9 9 9 9 15 12 15 12 9 21 9 21 6 12 6 12 0 9 0 9 6 0 6"></polygon>
</g>
</g>
</g>
</svg>