<?xml version="1.0" encoding="UTF-8"?>
<svg width="100px" height="111px" viewBox="0 0 100 111" version="1.1" xmlns="http://www.w3.org/2000/svg" xmlns:xlink="http://www.w3.org/1999/xlink">
    <title>get-stuff-done</title>
    <g id="—-Main" stroke="none" stroke-width="1" fill="none" fill-rule="evenodd">
        <g id="get-stuff-done">
            <path d="M92.977774,88.5092331 C96.8400126,86.2732708 100,80.7854689 100,76.313831 L100,34.6858105 C100,30.2144594 96.8400126,24.7266575 92.977774,22.490982 L57.022226,1.67697176 C53.1599874,-0.558990588 46.8400126,-0.558990588 42.977774,1.67697176 L7.02222604,22.490982 C3.15998741,24.7266575 0,30.2144594 0,34.6858105 L0,76.313831 C0,80.7854689 3.15998741,86.2732708 7.02222604,88.5092331 L42.977774,109.323243 C46.8400126,111.558919 53.1599874,111.558919 57.022226,109.323243 L92.977774,88.5092331 Z" id="Fill-1" fill="#00b67a"></path>
            <path d="M75.8600646,39.1215113 C75.7087445,38.6284867 75.387225,38.3061135 74.8955062,38.1543916 C74.4037873,38.0026696 73.9689922,38.1165328 73.5905489,38.4956942 L65.363769,46.8013937 L57.8744243,45.4929714 L56.6261049,37.9837403 L64.8531709,29.7348289 C65.2313281,29.3556675 65.3446037,28.9197179 65.1935696,28.4266934 C65.0422495,27.9336688 64.72073,27.6112956 64.2290111,27.4595737 C61.5432936,26.7766817 58.8481364,26.8053626 56.1438256,27.544756 C53.4392288,28.2844362 51.0847564,29.6591113 49.0801224,31.669355 C46.9238823,33.8688927 45.5245287,36.4478785 44.8814897,39.4060257 C44.2384508,42.3263141 44.3708916,45.208457 45.2785263,48.0530279 L21.6760205,71.7752806 C20.7680998,72.6853253 20.1533797,73.7376272 19.8318602,74.9324732 C19.5103407,76.1270323 19.5103407,77.3408077 19.8318602,78.5735124 C20.1533797,79.8059304 20.7680998,80.8771617 21.6760205,81.7874932 C22.5836551,82.6978247 23.642896,83.3138903 24.8531709,83.6362635 C26.0637318,83.9586367 27.2740067,83.9586367 28.4842816,83.6362635 C29.6948425,83.3138903 30.7537973,82.6978247 31.661718,81.7874932 L55.3211476,58.1220287 C58.1578993,59.070219 61.0326954,59.2219409 63.9452502,58.5771944 C66.8955634,57.932448 69.4674333,56.5101625 71.661432,54.3106249 C73.666066,52.300668 75.0373867,49.939657 75.7748219,47.2281654 C76.5125433,44.5163871 76.5408622,41.8143602 75.8600646,39.1215113" id="Fill-3" fill="#FFFFFF"></path>
        </g>
    </g>
</svg>