<svg xmlns="http://www.w3.org/2000/svg" xmlns:xlink="http://www.w3.org/1999/xlink" width="135" height="40"><defs><path id="a" d="M0 0h135v40H0z"/></defs><g fill="none" fill-rule="evenodd"><mask id="b" fill="#fff"><use xlink:href="#a"/></mask><path fill="#0A0B09" d="M129.997777 40.0600901H4.94219653c-2.75122276 0-5.0022232-2.25338-5.0022232-5.0075112V5.00751127C-.06002668 2.25338007 2.19097376 0 4.94219652 0H129.997777C132.749 0 135 2.25338007 135 5.00751127V35.0525789c0 2.7541312-2.251 5.0075112-5.002223 5.0075112" mask="url(#b)"/><path fill="#A6A6A6" d="M129.997777 0H4.94219653C2.19097377 0-.06002667 2.25338007-.06002667 5.00751127V35.0525789c0 2.7541312 2.25100044 5.0075112 5.0022232 5.0075112H129.997777c2.751223 0 5.002223-2.25338 5.002223-5.0075112V5.00751127C135 2.25338007 132.749 0 129.997777 0Zm0 .8012018c2.31703 0 4.201867 1.88683025 4.201867 4.20630947V35.0525789c0 2.3194792-1.884837 4.2063094-4.201867 4.2063094H4.94219653c-2.31702979 0-4.2018675-1.8868302-4.2018675-4.2063094V5.00751127c0-2.31947922 1.88483771-4.20630947 4.2018675-4.20630947H129.997777Z" mask="url(#b)"/><path fill="#FFFFFE" d="M106.923522 30.5424587h1.866829V18.0216775h-1.866829v12.5207812Zm16.814473-8.010015-2.139951 5.4281422h-.064029l-2.220987-5.4281422h-2.010894l3.331481 7.5863795-1.899844 4.2203305h1.946865l5.133281-11.80671h-2.075922Zm-10.587706 6.5878818c-.610271 0-1.46365-.3064597-1.46365-1.0625939 0-.9664497 1.062472-1.3370055 1.978879-1.3370055.820365 0 1.207537.1762644 1.705758.4186279-.145064 1.1597396-1.142508 1.9809715-2.220987 1.9809715Zm.226101-6.8612919c-1.351601 0-2.751223.5958938-3.330481 1.9168753l1.656737.692038c.354157-.692038 1.01345-.9183775 1.705758-.9183775.965429 0 1.946865.5798698 1.962872 1.6114171v.1281923c-.33815-.19329-1.062472-.4827241-1.946865-.4827241-1.786794 0-3.604602.9824737-3.604602 2.8182273 0 1.6755133 1.464651 2.7551327 3.10538 2.7551327 1.254558 0 1.947866-.5638457 2.381058-1.2248372h.065029v.9674511h1.802801v-4.8002003c0-2.223335-1.658737-3.4631947-3.797687-3.4631947Zm-11.537128 1.7976965h-2.6551802v-4.2914372h2.6551802c1.39562 0 2.187972 1.1567351 2.187972 2.1452179 0 .9704556-.792352 2.1462193-2.187972 2.1462193Zm-.048021-6.0340511h-4.4729884v12.5197797h1.8658292V25.799344h2.6071592c2.068919 0 4.102823-1.4992489 4.102823-3.8888332 0-2.3885829-2.033904-3.8878318-4.102823-3.8878318ZM77.3993997 29.12333c-1.2895731 0-2.3690529-1.0816224-2.3690529-2.5658488 0-1.5012519 1.0794798-2.5978968 2.3690529-2.5978968 1.2725656 0 2.2720098 1.0966449 2.2720098 2.5978968 0 1.4842264-.9994442 2.5658488-2.2720098 2.5658488Zm2.1429525-5.8898348h-.0640285c-.4191863-.4997496-1.2255447-.9524286-2.2399956-.9524286-2.1279457 0-4.0788128 1.8728092-4.0788128 4.2764146 0 2.3875814 1.9508671 4.2433651 4.0788128 4.2433651 1.0144509 0 1.8208093-.4516775 2.2399956-.9674512h.0640285v.6119179c0 1.6304456-.8703869 2.5007511-2.2720098 2.5007511-1.1445087 0-1.8538239-.8222334-2.1439529-1.5162744l-1.6277234.678017c.4672076 1.128693 1.707759 2.5167752 3.7716763 2.5167752 2.1919742 0 4.0457981-1.2909364 4.0457981-4.436655v-7.6484727h-1.7737883v.694041Zm3.0633615 7.3089635h1.8688305V18.0216775h-1.8688305v12.5207812Zm4.6250555-4.1301953c-.0480213-1.6464697 1.2735661-2.4847271 2.2239885-2.4847271.7423299 0 1.3706091.3715573 1.5807025.903355l-3.804691 1.5813721Zm5.802579-1.4201302c-.3551579-.9514271-1.4346377-2.7110666-3.642619-2.7110666-2.1919742 0-4.0137839 1.7275914-4.0137839 4.2603906 0 2.3875814 1.8058026 4.2593891 4.2228768 4.2593891 1.9498667 0 3.0783682-1.1937907 3.5465763-1.8878318l-1.4506447-.9684527c-.4842152.7100651-1.1445087 1.1787682-2.0959316 1.1787682-.9504224 0-1.6277234-.436655-2.0619164-1.2919379l5.6885283-2.3555333-.1930858-.4837256Zm-45.3281459-1.4031047v1.8067101h4.31992c-.1300578 1.0165248-.4682081 1.758638-.9844376 2.2744116-.6282792.6299449-1.6117163 1.323986-3.3354824 1.323986-2.6601823 0-4.7391063-2.1462193-4.7391063-4.8082123 0-2.661993 2.078924-4.8082123 4.7391063-4.8082123 1.4346376 0 2.4811027.5648472 3.2554469 1.2909364l1.273566-1.2749124C51.153735 18.3611868 49.7200978 17.57 47.7052023 17.57c-3.6436194 0-6.7059804 2.9694542-6.7059804 6.6159239 0 3.6454682 3.062361 6.6149224 6.7059804 6.6149224 1.9658737 0 3.4485327-.645969 4.6090485-1.8557837 1.19253-1.1937907 1.563695-2.871307 1.563695-4.227341 0-.418628-.0320143-.8062093-.0970432-1.1286931h-6.0757003ZM58.7891285 29.12333c-1.2895731 0-2.4020676-1.0655984-2.4020676-2.5818728 0-1.5333 1.1124945-2.5818728 2.4020676-2.5818728 1.2885727 0 2.4010671 1.0485728 2.4010671 2.5818728 0 1.5162744-1.1124944 2.5818728-2.4010671 2.5818728Zm0-6.8422634c-2.3540462 0-4.2718986 1.7916875-4.2718986 4.2603906 0 2.452679 1.9178524 4.2593891 4.2718986 4.2593891 2.3530458 0 4.2708982-1.8067101 4.2708982-4.2593891 0-2.4687031-1.9178524-4.2603906-4.2708982-4.2603906Zm9.317141 6.8422634c-1.2895732 0-2.4020676-1.0655984-2.4020676-2.5818728 0-1.5333 1.1124944-2.5818728 2.4020676-2.5818728 1.2895731 0 2.4010671 1.0485728 2.4010671 2.5818728 0 1.5162744-1.111494 2.5818728-2.4010671 2.5818728Zm-4.2708982-2.5818728c0 2.452679 1.9178524 4.2593891 4.2708982 4.2593891 2.3530458 0 4.2708981-1.8067101 4.2708981-4.2593891 0-2.4687031-1.9178523-4.2603906-4.2708981-4.2603906-2.3530458 0-4.2708982 1.7916875-4.2708982 4.2603906Z"/><path fill="#FFFFFE" fill-rule="nonzero" d="M44.5287706 14.7776565c-.5700934 0-1.0954736-.137079-1.5761405-.4112369-.480667-.2741579-.8621265-.6504256-1.1443787-1.1288032-.2822521-.4783775-.4233781-1.0113069-.4233781-1.5987882 0-.5874812.141126-1.1204106.4233781-1.5987881.2822522-.47837761.6637117-.85464534 1.1443787-1.12880324C43.433297 8.63707895 43.9586772 8.5 44.5287706 8.5c.4527212 0 .8747021.08112836 1.2659427.24338508.3912405.16225672.7182058.38885662.9808959.6797997l-.6539306.65462192c-.1956203-.2182073-.4289673-.38605908-.7000412-.50355532-.2710738-.11749625-.5714906-.17624437-.9012505-.17624437-.3856514 0-.7461517.09231848-1.0815007.27695543-.3353491.18463696-.6036283.44760476-.8048377.78890336-.2012094.3412986-.3018142.7329528-.3018142 1.1749624 0 .4420097.1006048.8336639.3018142 1.1749625.2012094.3412986.4694886.6042664.8048377.7889033.335349.184637.6986438.2769555 1.0898844.2769555.3577056 0 .6567252-.0531531.8970587-.1594592.2403335-.1063061.4555158-.2489802.6455469-.428022.1229613-.1230914.2277579-.2769555.3143897-.4615924.0866319-.184637.1439207-.3860591.1718664-.6042664h-2.0372454v-.8392589h2.9259204c.0279458.1566616.0419186.3189184.0419186.4867701 0 .3804641-.058686.7455417-.1760582 1.0952329-.1173722.3496912-.3046087.6532231-.5617097.9105959-.5645042.5986713-1.3050667.898007-2.2216874.898007Zm4.061065-6.14337508h3.6469209v.89800701h-2.7079436V11.194021h2.4396643v.8896145h-2.4396643v1.6617326h2.7079436v.898007h-3.6469209zm6.048008.89800701h-1.6767452v-.89800701h4.2924678v.89800701H55.576821v5.11108667h-.9389774zm5.5231748-.89800701h.9389774v6.00909368h-.9389774zm3.541274.89800701h-1.6767453v-.89800701h4.2924678v.89800701h-1.6767452v5.11108667h-.9389773zm7.996374 5.24536807c-.5812717 0-1.1094464-.1384777-1.5845243-.4154332-.4750778-.2769554-.8481536-.6560207-1.1192274-1.1371958-.2710738-.4811751-.4066107-1.0099082-.4066107-1.5861993 0-.5762911.1355369-1.1036254.4066107-1.582003.2710738-.47837753.6441496-.85744279 1.1192274-1.13719576C70.58922 8.63987648 71.1173947 8.5 71.6986664 8.5c.5812717 0 1.1080491.13987648 1.5803324.41962944.4722832.27975297.845359.65881823 1.1192274 1.13719576.2738684.4783776.4108026 1.0057119.4108026 1.582003s-.1355369 1.1050242-.4066107 1.5861993c-.2710738.4811751-.6441496.8602404-1.1192275 1.1371958-.4750778.2769555-1.0032525.4154332-1.5845242.4154332Zm0-.898007c.3968297 0 .7601245-.095116 1.0898844-.285348.3297599-.1902321.5896554-.4545986.7796865-.7930997.1900312-.3385011.2850467-.7259589.2850467-1.1623736 0-.4364146-.0950155-.8238724-.2850467-1.1623735-.1900311-.3385011-.4499266-.60286765-.7796865-.79309967-.3297599-.19023201-.6930547-.28534802-1.0898844-.28534802-.3968297 0-.7601245.09511601-1.0898844.28534802-.3297599.19023202-.5910527.45459857-.7838784.79309967-.1928257.3385011-.2892386.7259589-.2892386 1.1623735 0 .4364147.0964129.8238725.2892386 1.1623736.1928257.3385011.4541185.6028676.7838784.7930997.3297599.190232.6930547.285348 1.0898844.285348Zm4.2035883-5.24536808h1.1150356l2.6827924 4.37253878h.0503023l-.0503023-1.1581772V8.63428142h.9305936v6.00909368h-.980896l-2.816932-4.5991387h-.0503023l.0503023 1.1581772v3.4409615h-.9305936z"/><path fill="#D84037" d="M20.666185 19.4531798 10.0154513 30.7701552c0 .0030045.0010005.0050075.0010005.0070105.3271454 1.2288433 1.4476434 2.1331998 2.7782347 2.1331998.5322366 0 1.0314585-.1432148 1.4596488-.3965948l.0350155-.0200301 11.9893286-6.9253881-5.6124944-6.1151727"/><path fill="#F1B628" d="m31.4419742 17.5262894-.0100044-.0070105-5.1763006-3.0035052-5.8315918 5.1947921 5.8526011 5.8567852 5.1482882-2.9734602c.9034015-.4887331 1.5156736-1.4411617 1.5156736-2.5398097 0-1.0906359-.6042686-2.0380571-1.4986661-2.5277917"/><path fill="#5373AA" d="M10.0144509 9.2909364c-.06402849.23635454-.09704316.4847271-.09704316.7411117v19.997997c0 .2563845.03301467.5047571.09804356.7401101l11.0168964-11.0275413L10.0144509 9.2909364"/><path fill="#319F4F" d="m20.7452201 20.0310466 5.51245-5.5172759-11.9753224-6.95042568c-.4351934-.26139209-.9434193-.41161743-1.4876612-.41161743-1.3305913 0-2.4530902.90635954-2.7792352 2.13620431-.0010004.0010015-.0010004.002003-.0010004.0030045l10.7307692 10.7401102"/></g></svg>