<?xml version="1.0" encoding="UTF-8"?>
<svg enable-background="new 0 0 164 81" version="1.1" viewBox="0 0 164 81" xml:space="preserve" xmlns="http://www.w3.org/2000/svg">
<style type="text/css">
	.st0{fill:#E26600;}
	.st1{fill:#FF9600;}
	.st2{fill:#FFFFFF;}
</style>
<path class="st0" d="m160 35h-156c-2.2 0-4-1.8-4-4v-25c0-2.2 1.8-4 4-4h156c2.2 0 4 1.8 4 4v25c0 2.2-1.8 4-4 4z"/>
<path class="st1" d="m160 33h-156c-2.2 0-4-1.8-4-4v-25c0-2.2 1.8-4 4-4h156c2.2 0 4 1.8 4 4v25c0 2.2-1.8 4-4 4z"/>
<path class="st0" d="m160 81h-156c-2.2 0-4-1.8-4-4v-25c0-2.2 1.8-4 4-4h156c2.2 0 4 1.8 4 4v25c0 2.2-1.8 4-4 4z"/>
<path class="st1" d="m160 79h-156c-2.2 0-4-1.8-4-4v-25c0-2.2 1.8-4 4-4h156c2.2 0 4 1.8 4 4v25c0 2.2-1.8 4-4 4z"/>
	<path class="st2" d="m16.4 22.4h-1.1c-0.2 0-0.4-0.1-0.4-0.4v-10.5c0-0.2 0.1-0.4 0.4-0.4h3.3c2.4 0 3.9 1.4 3.9 3.6s-1.5 3.6-3.9 3.6h-0.8c-0.2 0-0.4-0.1-0.4-0.4v-1c0-0.2 0.1-0.4 0.4-0.4h0.8c1.3 0 2.1-0.7 2.1-1.9s-0.8-1.9-2.1-1.9h-1.8v9.3c0 0.3-0.2 0.4-0.4 0.4z"/>
	<path class="st2" d="m23.5 18.3c0-2.7 2-4.3 4.2-4.3s4.1 1.6 4.1 4.3-2 4.3-4.1 4.3-4.2-1.6-4.2-4.3zm6.5 0c0-1.5-0.8-2.6-2.3-2.6s-2.4 1.1-2.4 2.6 0.9 2.6 2.4 2.6 2.3-1.2 2.3-2.6z"/>
	<path class="st2" d="m33.4 21.7c-0.1-0.1-0.2-0.2-0.2-0.4v-1.2c0-0.3 0.2-0.4 0.4-0.2 0.9 0.8 1.8 1.1 2.6 1.1 1 0 1.5-0.3 1.5-0.9 0-0.5-0.4-0.8-1.3-1l-0.8-0.2c-1.8-0.3-2.5-1.2-2.5-2.4 0-1.5 1.2-2.5 3-2.5 1 0 1.7 0.2 2.5 0.6 0.2 0.1 0.2 0.2 0.2 0.4v1.1c0 0.3-0.2 0.4-0.4 0.2-0.8-0.6-1.4-0.8-2.3-0.8-0.7 0-1.2 0.3-1.2 0.8 0 0.4 0.3 0.7 1.1 0.9l0.8 0.1c1.9 0.3 2.8 1.1 2.8 2.6s-1.3 2.5-3.3 2.5c-1 0.2-2 0-2.9-0.7z"/>
	<path class="st2" d="m44.3 20.9c0.2 0 0.4 0 0.7-0.1 0.2 0 0.4 0.1 0.4 0.3v0.9c0 0.2-0.1 0.3-0.3 0.4-0.4 0.1-0.7 0.1-1.1 0.1-1.6 0-2.5-0.9-2.5-2.4v-4.1l-0.7 0.1c-0.2 0-0.4-0.1-0.4-0.3l-0.1-0.8c0-0.2 0.1-0.4 0.3-0.4l1-0.2v-2.2c0-0.2 0.1-0.4 0.4-0.4h1c0.2 0 0.4 0.1 0.4 0.4v1.9l1.6-0.3c0.2 0 0.4 0.1 0.4 0.3l0.1 0.9c0 0.2-0.1 0.4-0.3 0.4l-1.9 0.3v4.2c0.1 0.7 0.4 1 1 1z"/>
	<path class="st2" d="m57.3 14.2h1.1c0.2 0 0.4 0.1 0.4 0.4v7.4c0 0.2-0.1 0.4-0.4 0.4h-1.1c-0.2 0-0.4-0.1-0.4-0.3v-0.3c-0.5 0.4-1.2 0.8-2.1 0.8-2.5 0-4-1.8-4-4.3s1.5-4.3 4-4.3c0.9 0 1.7 0.3 2.2 0.7v-0.3c0-0.1 0.1-0.2 0.3-0.2zm-0.3 5.8v-3.3c-0.4-0.6-1.1-0.9-2-0.9-1.4 0-2.4 1.1-2.4 2.6s1 2.6 2.4 2.6c0.9-0.1 1.6-0.5 2-1z"/>
	<path class="st2" d="m68 17.2v4.8c0 0.2-0.1 0.4-0.4 0.4h-1.1c-0.2 0-0.4-0.1-0.4-0.4v-4.6c0-1.2-0.7-1.8-1.7-1.8-0.9 0-1.6 0.5-2 1.3v5.1c0 0.2-0.1 0.4-0.4 0.4h-1.1c-0.2 0-0.4-0.1-0.4-0.4v-7.5c0-0.2 0.1-0.4 0.4-0.4h1c0.2 0 0.4 0.1 0.4 0.4v0.5c0.4-0.6 1.3-1 2.3-1 2.2 0 3.4 1.2 3.4 3.2z"/>
	<path class="st2" d="m73.4 18.3c0-2.7 2-4.3 4.2-4.3s4.1 1.6 4.1 4.3-2 4.3-4.1 4.3-4.2-1.6-4.2-4.3zm6.5 0c0-1.5-0.8-2.6-2.3-2.6s-2.4 1.1-2.4 2.6 0.9 2.6 2.4 2.6 2.3-1.2 2.3-2.6z"/>
	<path class="st2" d="m87.5 15.4l-1.8 0.3v6.3c0 0.2-0.1 0.4-0.4 0.4h-1.1c-0.2 0-0.4-0.1-0.4-0.4v-6l-0.8 0.1c-0.2 0-0.4-0.1-0.4-0.3v-0.8c0-0.2 0.1-0.4 0.3-0.4l1.1-0.2v-1.4c0-1.6 0.9-2.4 2.5-2.4 0.4 0 0.7 0 1.1 0.2 0.2 0.1 0.3 0.2 0.3 0.4v1c0 0.3-0.2 0.3-0.4 0.2-0.3-0.1-0.5-0.1-0.7-0.1-0.6 0-1 0.3-1 1v0.8l1.5-0.3c0.2 0 0.4 0 0.4 0.3l0.1 0.9c0 0.2-0.1 0.4-0.3 0.4z"/>
	<path class="st2" d="m91.5 13.3v0.9h1.8c0.2 0 0.4 0.1 0.4 0.4v0.9c0 0.2-0.1 0.4-0.4 0.4h-1.8v6.1c0 0.2-0.1 0.4-0.4 0.4h-1.1c-0.2 0-0.4-0.1-0.4-0.4v-6.2h-0.9c-0.2 0-0.4-0.1-0.4-0.4v-0.9c0-0.2 0.1-0.4 0.4-0.4h0.9v-1.1c0-1.6 0.9-2.4 2.5-2.4 0.4 0 0.7 0 1.1 0.2 0.2 0.1 0.3 0.2 0.3 0.4v1c0 0.3-0.2 0.3-0.6 0.2-0.2-0.1-0.4-0.1-0.6-0.1-0.5-0.1-0.8 0.2-0.8 1z"/>
	<path class="st2" d="m101.8 19.4c0.2-0.2 0.4-0.2 0.4 0.1v1.5c0 0.2 0 0.3-0.2 0.4-0.7 0.6-1.9 1.2-3.3 1.2-2.7 0-4.4-1.7-4.4-4.6 0-2.3 1.7-4 4-4 1.5 0 2.9 0.6 3.6 2.4 0.1 0.2 0 0.4-0.1 0.5l-4.9 3.3c0.5 0.4 1.1 0.7 1.9 0.7 1.2 0 2.2-0.6 3-1.5zm-5.8-1.4c0 0.3 0 0.6 0.1 0.8l3.7-2.5c-0.3-0.6-1-0.7-1.5-0.7-1.4 0-2.3 1-2.3 2.4z"/>
	<path class="st2" d="m103.7 22v-7.5c0-0.2 0.1-0.4 0.4-0.4h1.1c0.2 0 0.4 0.1 0.4 0.4v0.5c0.4-0.6 1.2-1 2.2-1 0.3 0 0.5 0 0.7 0.1 0.2 0 0.3 0.2 0.3 0.4v1.1c0 0.2-0.1 0.4-0.4 0.3-0.2 0-0.4-0.1-0.7-0.1-1.2 0-1.7 0.7-2.1 1.3v5c0 0.2-0.1 0.4-0.4 0.4h-1.2c-0.2-0.1-0.3-0.2-0.3-0.5z"/>
	<path class="st2" d="m116.6 19.4c0.2-0.2 0.4-0.2 0.4 0.1v1.5c0 0.2 0 0.3-0.2 0.4-0.7 0.6-1.9 1.2-3.3 1.2-2.7 0-4.4-1.7-4.4-4.6 0-2.3 1.7-4 4-4 1.5 0 2.9 0.6 3.6 2.4 0.1 0.2 0 0.4-0.1 0.5l-4.9 3.3c0.5 0.4 1.1 0.7 1.9 0.7 1.3 0 2.3-0.6 3-1.5zm-5.7-1.4c0 0.3 0 0.6 0.1 0.8l3.7-2.5c-0.3-0.6-1-0.7-1.5-0.7-1.4 0-2.3 1-2.3 2.4z"/>
	<path class="st2" d="m124.7 10.4h1.1c0.2 0 0.4 0.1 0.4 0.4v11.2c0 0.2-0.1 0.4-0.4 0.4h-1.1c-0.2 0-0.4-0.1-0.4-0.3v-0.3c-0.5 0.4-1.2 0.8-2.1 0.8-2.5 0-4-1.8-4-4.3s1.5-4.3 4-4.3c0.9 0 1.7 0.3 2.2 0.7v-4c-0.1-0.2 0.1-0.3 0.3-0.3zm-0.4 6.2c-0.4-0.6-1.1-0.9-2-0.9-1.4 0-2.4 1.1-2.4 2.6s1 2.6 2.4 2.6c0.9 0 1.6-0.4 2-0.9v-3.4z"/>
	<path class="st2" d="m138.1 14.2h1.1c0.2 0 0.4 0.1 0.4 0.4v7.4c0 0.2-0.1 0.4-0.4 0.4h-1.1c-0.2 0-0.4-0.1-0.4-0.3v-0.3c-0.5 0.4-1.2 0.8-2.1 0.8-2.5 0-4-1.8-4-4.3s1.5-4.3 4-4.3c0.9 0 1.7 0.3 2.2 0.7v-0.3c0-0.1 0.1-0.2 0.3-0.2zm-0.3 5.8v-3.3c-0.4-0.6-1.1-0.9-2-0.9-1.4 0-2.4 1.1-2.4 2.6s1 2.6 2.4 2.6c0.8-0.1 1.5-0.5 2-1z"/>
	<path class="st2" d="m147.6 10.4h1.1c0.2 0 0.4 0.1 0.4 0.4v11.2c0 0.2-0.1 0.4-0.4 0.4h-1.1c-0.2 0-0.4-0.1-0.4-0.3v-0.3c-0.5 0.4-1.2 0.8-2.1 0.8-2.5 0-4-1.8-4-4.3s1.5-4.3 4-4.3c0.9 0 1.7 0.3 2.2 0.7v-4c0-0.2 0.1-0.3 0.3-0.3zm-0.3 6.2c-0.4-0.6-1.1-0.9-2-0.9-1.4 0-2.4 1.1-2.4 2.6s1 2.6 2.4 2.6c0.9 0 1.6-0.4 2-0.9v-3.4z"/>
	<path class="st2" d="m20.3 68.4h-1.1c-0.2 0-0.4-0.1-0.4-0.4v-10.5c0-0.2 0.1-0.4 0.4-0.4h3.3c2.4 0 3.9 1.4 3.9 3.6s-1.5 3.6-3.9 3.6h-0.8c-0.2 0-0.4-0.1-0.4-0.4v-1c0-0.2 0.1-0.4 0.4-0.4h0.8c1.3 0 2.1-0.7 2.1-1.9s-0.8-1.9-2.1-1.9h-1.8v9.3c0 0.3-0.2 0.4-0.4 0.4z"/>
	<path class="st2" d="m27.4 64.3c0-2.7 2-4.3 4.2-4.3s4.1 1.6 4.1 4.3-2 4.3-4.1 4.3-4.2-1.6-4.2-4.3zm6.5 0c0-1.5-0.8-2.6-2.3-2.6s-2.4 1.1-2.4 2.6 0.9 2.6 2.4 2.6c1.4 0 2.3-1.2 2.3-2.6z"/>
	<path class="st2" d="m37.3 67.7c-0.1-0.1-0.2-0.2-0.2-0.4v-1.2c0-0.3 0.2-0.4 0.4-0.2 0.9 0.8 1.8 1.1 2.6 1.1 1 0 1.5-0.3 1.5-0.9 0-0.5-0.4-0.8-1.3-1l-0.8-0.2c-1.8-0.3-2.5-1.2-2.5-2.4 0-1.5 1.2-2.5 3-2.5 1 0 1.7 0.2 2.5 0.6 0.2 0.1 0.2 0.2 0.2 0.4v1.1c0 0.3-0.2 0.4-0.4 0.2-0.8-0.6-1.4-0.8-2.3-0.8-0.7 0-1.2 0.3-1.2 0.8 0 0.4 0.3 0.7 1.1 0.9l0.8 0.1c1.9 0.3 2.8 1.1 2.8 2.6s-1.3 2.5-3.3 2.5c-1 0.2-2 0-2.9-0.7z"/>
	<path class="st2" d="m48.2 66.9c0.2 0 0.4 0 0.7-0.1 0.2 0 0.4 0.1 0.4 0.3v0.9c0 0.2-0.1 0.3-0.3 0.4-0.4 0.1-0.7 0.1-1.1 0.1-1.6 0-2.5-0.9-2.5-2.4v-4.1l-0.7 0.1c-0.2 0-0.4-0.1-0.4-0.3l-0.1-0.8c0-0.2 0.1-0.4 0.3-0.4l1-0.2v-2.2c0-0.2 0.1-0.4 0.4-0.4h1.1c0.2 0 0.4 0.1 0.4 0.4v1.9l1.6-0.3c0.2 0 0.4 0.1 0.4 0.3l0.1 0.9c0 0.2-0.1 0.4-0.3 0.4l-1.9 0.3v4.2c-0.1 0.7 0.3 1 0.9 1z"/>
	<path class="st2" d="m61.2 60.2h1.1c0.2 0 0.4 0.1 0.4 0.4v7.4c0 0.2-0.1 0.4-0.4 0.4h-1.1c-0.2 0-0.4-0.1-0.4-0.3v-0.3c-0.5 0.4-1.2 0.8-2.1 0.8-2.5 0-4-1.8-4-4.3s1.5-4.3 4-4.3c0.9 0 1.7 0.3 2.2 0.7v-0.3c0-0.1 0.1-0.2 0.3-0.2zm-0.3 5.8v-3.3c-0.4-0.6-1.1-0.9-2-0.9-1.4 0-2.4 1.1-2.4 2.6s1 2.6 2.4 2.6c0.8-0.1 1.5-0.5 2-1z"/>
	<path class="st2" d="m78.6 60.2h1.2c0.3 0 0.4 0.1 0.3 0.4l-2.6 7.5c-0.1 0.2-0.2 0.3-0.4 0.3h-1.1c-0.2 0-0.3-0.1-0.4-0.3l-1.6-4.8-1.7 4.9c-0.1 0.2-0.2 0.3-0.4 0.3h-1.1c-0.2 0-0.3-0.1-0.4-0.3l-2.6-7.5c-0.1-0.3 0-0.4 0.3-0.4h1.2c0.2 0 0.3 0.1 0.4 0.3l1.7 5.2 1.7-5.2c0.1-0.2 0.2-0.3 0.4-0.3h0.9c0.2 0 0.3 0.1 0.4 0.3l1.7 5.2 1.7-5.2c0.1-0.3 0.2-0.4 0.4-0.4z"/>
	<path class="st2" d="m87.2 60.2h1.1c0.2 0 0.4 0.1 0.4 0.4v7.4c0 0.2-0.1 0.4-0.4 0.4h-1.1c-0.2 0-0.4-0.1-0.4-0.3v-0.3c-0.5 0.4-1.2 0.8-2.1 0.8-2.5 0-4-1.8-4-4.3s1.5-4.3 4-4.3c0.9 0 1.7 0.3 2.2 0.7v-0.3c-0.1-0.1 0.1-0.2 0.3-0.2zm-0.4 5.8v-3.3c-0.4-0.6-1.1-0.9-2-0.9-1.4 0-2.4 1.1-2.4 2.6s1 2.6 2.4 2.6c0.9-0.1 1.6-0.5 2-1z"/>
	<path class="st2" d="m97.9 63.2v4.8c0 0.2-0.1 0.4-0.4 0.4h-1.1c-0.2 0-0.4-0.1-0.4-0.4v-4.6c0-1.2-0.7-1.8-1.7-1.8-0.9 0-1.6 0.5-2 1.3v5.1c0 0.2-0.1 0.4-0.4 0.4h-0.9c-0.2 0-0.4-0.1-0.4-0.4v-7.5c0-0.2 0.1-0.4 0.4-0.4h1c0.2 0 0.4 0.1 0.4 0.4v0.5c0.4-0.6 1.3-1 2.3-1 2 0 3.2 1.2 3.2 3.2z"/>
	<path class="st2" d="m103 66.9c0.2 0 0.4 0 0.7-0.1 0.2 0 0.4 0.1 0.4 0.3v0.9c0 0.2-0.1 0.3-0.3 0.4-0.4 0.1-0.7 0.1-1.1 0.1-1.6 0-2.5-0.9-2.5-2.4v-4.1l-0.7 0.1c-0.2 0-0.4-0.1-0.4-0.3l-0.1-0.8c0-0.2 0.1-0.4 0.3-0.4l1-0.2v-2.2c0-0.2 0.1-0.4 0.4-0.4h1.1c0.2 0 0.4 0.1 0.4 0.4v1.9l1.6-0.3c0.2 0 0.4 0.1 0.4 0.3l0.1 0.9c0 0.2-0.1 0.4-0.3 0.4l-1.9 0.3v4.2c-0.1 0.7 0.3 1 0.9 1z"/>
	<path class="st2" d="m112.8 65.4c0.2-0.2 0.4-0.2 0.4 0.1v1.5c0 0.2 0 0.3-0.2 0.4-0.7 0.6-1.9 1.2-3.3 1.2-2.7 0-4.4-1.7-4.4-4.6 0-2.3 1.7-4 4-4 1.5 0 2.9 0.6 3.6 2.4 0.1 0.2 0 0.4-0.1 0.5l-4.9 3.3c0.5 0.4 1.1 0.7 1.9 0.7 1.2 0 2.2-0.6 3-1.5zm-5.8-1.4c0 0.3 0 0.6 0.1 0.8l3.7-2.5c-0.3-0.6-1-0.7-1.5-0.7-1.4 0-2.3 1-2.3 2.4z"/>
	<path class="st2" d="m120.8 56.4h1.1c0.2 0 0.4 0.1 0.4 0.4v11.2c0 0.2-0.1 0.4-0.4 0.4h-1.1c-0.2 0-0.4-0.1-0.4-0.3v-0.3c-0.5 0.4-1.2 0.8-2.1 0.8-2.5 0-4-1.8-4-4.3s1.5-4.3 4-4.3c0.9 0 1.7 0.3 2.2 0.7v-4c0-0.2 0.1-0.3 0.3-0.3zm-0.3 6.2c-0.4-0.6-1.1-0.9-2-0.9-1.4 0-2.4 1.1-2.4 2.6s1 2.6 2.4 2.6c0.9 0 1.6-0.4 2-0.9v-3.4z"/>
	<path class="st2" d="m134.2 60.2h1.1c0.2 0 0.4 0.1 0.4 0.4v7.4c0 0.2-0.1 0.4-0.4 0.4h-1.1c-0.2 0-0.4-0.1-0.4-0.3v-0.3c-0.5 0.4-1.2 0.8-2.1 0.8-2.5 0-4-1.8-4-4.3s1.5-4.3 4-4.3c0.9 0 1.7 0.3 2.2 0.7v-0.3c0-0.1 0.1-0.2 0.3-0.2zm-0.3 5.8v-3.3c-0.4-0.6-1.1-0.9-2-0.9-1.4 0-2.4 1.1-2.4 2.6s1 2.6 2.4 2.6c0.9-0.1 1.6-0.5 2-1z"/>
	<path class="st2" d="m143.8 56.4h1.1c0.2 0 0.4 0.1 0.4 0.4v11.2c0 0.2-0.1 0.4-0.4 0.4h-1.1c-0.2 0-0.4-0.1-0.4-0.3v-0.3c-0.5 0.4-1.2 0.8-2.1 0.8-2.5 0-4-1.8-4-4.3s1.5-4.3 4-4.3c0.9 0 1.7 0.3 2.2 0.7v-4c-0.1-0.2 0-0.3 0.3-0.3zm-0.4 6.2c-0.4-0.6-1.1-0.9-2-0.9-1.4 0-2.4 1.1-2.4 2.6s1 2.6 2.4 2.6c0.9 0 1.6-0.4 2-0.9v-3.4z"/>
</svg>
