<svg id="Layer_1" xmlns="http://www.w3.org/2000/svg" viewBox="0 0 116 109"><style>.st0{fill:#00b67a;} .st1{fill:#14C8F6;} .st2{fill:#FFA500;} .st3{fill:#2AC4F3;} .st4{fill:#FFFFFF;} .st5{fill:#00658F;} .st6{fill:#FCC588;} .st7{fill:#E1F3FC;} .st8{fill:#00B8F1;} .st9{fill:#FBB56B;} .st10{fill:#FDDAB4;} .st11{fill:#F5841F;} .st12{fill:#005F8A;} .st13{fill:#F9A51A;} .st14{fill:#7ED2F6;} .st15{fill:#1E78A0;} .st16{fill:#FDCF9F;} .st17{fill:#FAB46B;} .st18{fill-rule:evenodd;clip-rule:evenodd;fill:#FFFFFF;} .st19{fill:#ABE0F9;} .st20{fill:#FCFCE2;} .st21{fill:#FFDF00;} .st22{fill:#EBFAFD;} .st23{fill:#9CEBFC;} .st24{fill:#E1F4FC;} .st25{fill:#F99B1A;} .st26{fill:#FF7A00;} .st27{fill:#CCECFB;} .st28{fill:none;} .st29{fill:none;stroke:#14C8F6;stroke-width:1.0922;stroke-miterlimit:10;} .st30{opacity:0.5;fill:#C1F0F8;} .st31{fill:#F5F5F5;} .st32{fill:#D5D5D5;} .st33{fill:url(#SVGID_1_);} .st34{fill:#FF9600;} .st35{fill:#999999;} .st36{fill:#FDE3C6;} .st37{opacity:0.25;fill:#00B8F1;} .st38{fill:#DFF7FC;} .st39{fill:none;stroke:#00658F;stroke-width:1.4101;stroke-linecap:round;stroke-miterlimit:10;} .st40{fill:#FF8500;} .st41{opacity:0.49;fill:url(#SVGID_2_);} .st42{opacity:0.35;fill:#00B8F1;} .st43{fill:#003D5D;} .st44{fill:#EB6C00;} .st45{fill:#E26600;} .st46{fill:#8DD7F7;} .st47{fill:none;stroke:#FFFFFF;stroke-width:0.4909;} .st48{fill:none;stroke:#FFFFFF;stroke-width:0.4038;} .st49{fill:#3E87A8;} .st50{clip-path:url(#SVGID_4_);fill:none;stroke:#FFFFFF;stroke-width:0.7294;} .st51{fill:#C1F0FA;} .st52{clip-path:url(#SVGID_6_);} .st53{fill:none;stroke:#FF9600;stroke-width:4;stroke-miterlimit:10;} .st54{fill:#D9F1FC;} .st55{fill:url(#);}</style><path class="st22" d="M115 29.5c0 1.9-1.6 3.5-3.5 3.5H3.5C1.6 33 0 31.4 0 29.5v-25C0 2.6 1.6 1 3.5 1h108c1.9 0 3.5 1.6 3.5 3.5v25z"/><path class="st23" d="M112 1c1.7 0 3 1.3 3 3v25c0 1.7-1.3 3-3 3H4c-1.7 0-3-1.3-3-3V4c0-1.7 1.3-3 3-3h108m0-1H4C1.8 0 0 1.8 0 4v25c0 2.2 1.8 4 4 4h108c2.2 0 4-1.8 4-4V4c0-2.2-1.8-4-4-4z"/><path class="st23" d="M8 8h17v17H8zM30 8h78v2H30zM30 13h78v2H30zM30 18h78v2H30zM30 23h58v2H30z"/><path class="st31" d="M115 67.5c0 1.9-1.6 3.5-3.5 3.5H3.5C1.6 71 0 69.4 0 67.5v-25C0 40.6 1.6 39 3.5 39h108c1.9 0 3.5 1.6 3.5 3.5v25z"/><path class="st32" d="M112 39c1.7 0 3 1.3 3 3v25c0 1.7-1.3 3-3 3H4c-1.7 0-3-1.3-3-3V42c0-1.7 1.3-3 3-3h108m0-1H4c-2.2 0-4 1.8-4 4v25c0 2.2 1.8 4 4 4h108c2.2 0 4-1.8 4-4V42c0-2.2-1.8-4-4-4z"/><path class="st32" d="M8 46h17v17H8zM30 46h78v2H30zM30 51h78v2H30zM30 56h78v2H30zM30 61h58v2H30z"/><path class="st31" d="M115 105.5c0 1.9-1.6 3.5-3.5 3.5H3.5c-1.9 0-3.5-1.6-3.5-3.5v-25C0 78.6 1.6 77 3.5 77h108c1.9 0 3.5 1.6 3.5 3.5v25z"/><path class="st32" d="M112 77c1.7 0 3 1.3 3 3v25c0 1.7-1.3 3-3 3H4c-1.7 0-3-1.3-3-3V80c0-1.7 1.3-3 3-3h108m0-1H4c-2.2 0-4 1.8-4 4v25c0 2.2 1.8 4 4 4h108c2.2 0 4-1.8 4-4V80c0-2.2-1.8-4-4-4z"/><path class="st32" d="M8 84h17v17H8zM30 84h78v2H30zM30 89h78v2H30zM30 94h78v2H30zM30 99h58v2H30z"/><linearGradient id="SVGID_1_" gradientUnits="userSpaceOnUse" x1="58" y1="108" x2="58" y2="31"><stop offset="0" stop-color="#FF9600" stop-opacity="0"/><stop offset="1" stop-color="#FF9600"/></linearGradient><path class="st33" d="M48 31h20v77H48z"/><path class="st34" d="M48 24h20v8H48zM57.8 12.7L43 24h30.2z"/></svg>