<svg id="Layer_1" xmlns="http://www.w3.org/2000/svg" viewBox="0 0 102 109.2"><style>.st0{fill:#00b67a;} .st1{fill:#14C8F6;} .st2{fill:#FFA500;} .st3{fill:#2AC4F3;} .st4{fill:#FFFFFF;} .st5{fill:#00658F;} .st6{fill:#FCC588;} .st7{fill:#E1F3FC;} .st8{fill:#00B8F1;} .st9{fill:#FBB56B;} .st10{fill:#FDDAB4;} .st11{fill:#F5841F;} .st12{fill:#005F8A;} .st13{fill:#F9A51A;} .st14{fill:#7ED2F6;} .st15{fill:#1E78A0;} .st16{fill:#FDCF9F;} .st17{fill:#FAB46B;} .st18{fill-rule:evenodd;clip-rule:evenodd;fill:#FFFFFF;} .st19{fill:#ABE0F9;} .st20{fill:#FCFCE2;} .st21{fill:#FFDF00;} .st22{fill:#EBFAFD;} .st23{fill:#9CEBFC;} .st24{fill:#E1F4FC;} .st25{fill:#F99B1A;} .st26{fill:#FF7A00;} .st27{fill:#CCECFB;} .st28{fill:none;} .st29{fill:none;stroke:#14C8F6;stroke-width:1.0922;stroke-miterlimit:10;} .st30{opacity:0.5;fill:#C1F0F8;} .st31{fill:#F5F5F5;} .st32{fill:#D5D5D5;} .st33{fill:url(#SVGID_1_);} .st34{fill:#FF9600;} .st35{fill:#999999;} .st36{fill:#FDE3C6;} .st37{opacity:0.25;fill:#00B8F1;} .st38{fill:#DFF7FC;} .st39{fill:none;stroke:#00658F;stroke-width:1.4101;stroke-linecap:round;stroke-miterlimit:10;} .st40{fill:#FF8500;} .st41{opacity:0.49;fill:url(#SVGID_2_);} .st42{opacity:0.35;fill:#00B8F1;} .st43{fill:#003D5D;} .st44{fill:#EB6C00;} .st45{fill:#E26600;} .st46{fill:#8DD7F7;} .st47{fill:none;stroke:#FFFFFF;stroke-width:0.4909;} .st48{fill:none;stroke:#FFFFFF;stroke-width:0.4038;} .st49{fill:#3E87A8;} .st50{clip-path:url(#SVGID_4_);fill:none;stroke:#FFFFFF;stroke-width:0.7294;} .st51{fill:#C1F0FA;} .st52{clip-path:url(#SVGID_6_);} .st53{fill:none;stroke:#FF9600;stroke-width:4;stroke-miterlimit:10;} .st54{fill:#D9F1FC;} .st55{fill:url(#);}</style><path class="st23" d="M19.5 22.1c1.4 0 2.5-1.8 2.5-4V4c0-2.2-1.1-4-2.5-4S17 1.8 17 4v14.1c0 2.2 1.1 4 2.5 4z"/><path class="st23" d="M94.9 10.2H89v11h-.7c-.7 3-3 4.3-5.7 4.3-3.3 0-6-2.7-6-5.9s2.6-6 5.9-6c.9 0 1.5.2 2.5.6v-4H25v11h.1c-.7 3-3 4.3-5.7 4.3-3.3 0-6-2.7-6-5.9s2.7-6 6-6c.9 0 1.6.2 2.6.6v-4H7.1c-4 0-7.1 3.3-7.1 7.3v84.1c0 4 3.1 7.6 7.1 7.6h87.7c4 0 7.1-3.5 7.1-7.6V17.5c.1-4-3-7.3-7-7.3z"/><path class="st23" d="M82.5 22.1c1.4 0 2.5-1.8 2.5-4V4c0-2.2-1.1-4-2.5-4S80 1.8 80 4v14.1c0 2.2 1.1 4 2.5 4z"/><path class="st5" d="M44.8 63.9l-3 2c-2.9 1.9-5.5 3.2-5.5 5.3v.1h11.2c.4 0 .7.3.7.7v4.9c0 .4-.3.7-.7.7H30.2c-.4 0-.7-.3-.7-.7V73c0-4.1 1.8-7.2 4.4-9.1l3.2-2.4c3.9-2.9 4.2-3.1 4.2-4.1 0-1.2-.6-1.7-3.5-1.7-2.3 0-4.9.3-7.2.4h-.1c-.4 0-.7-.3-.7-.7v-3.6c0-.4.3-.6.7-.7 2.2-.8 5.3-1.4 8.3-1.4 7.2 0 9.8 2.4 9.8 7.3.1 3-1.3 5.2-3.8 6.9zM61.6 78c-6.4 0-10.2-3.6-10.2-10.3V60c0-7.4 4.6-10.3 10.4-10.3 3.5 0 6 .5 7.8 1 .7.2.8.4.8.9v3.9c0 .5-.3.8-.7.8h-.2c-1.7-.3-4.5-.5-6.6-.5-3.3 0-4 .9-4 4.3v.2c.7-.1 2.7-.4 3.8-.4 6.1 0 9.1 2 9.1 8.2v.4c-.1 5.7-3.5 9.5-10.2 9.5zm2.7-9.9c0-2.6-1-3-2.9-3-.9 0-2 .1-2.6.2v2.4c0 3.9.7 4.6 2.8 4.6 1.6 0 2.7-.7 2.7-3.8v-.4z"/><path class="st4" d="M53.8 38c.8-.2-.5-.2.5-.2-.1.1-.3.2-.5.2zm-13.7-4.7c2.6-1.4 6.3-1.1 9.2-2 .4-.1 0 .5.7.3 2.9-1 7.6-.8 11.1.1l-.1.1c.7.2 1.5-.3 2.2-.1 0 .1-.2.1-.1.3.2-.3 1.3 0 1.6-.1.3.2.2.4.5.6l.5-.3c.6-.3 1.3-.1 2 .1s1.5.5 2.3.6c-.1.1-.3.1-.2.2 2.5.2 5.5 1.5 7.9 3-.2 0-.4.1-.3.3.3-.2 1.1.2 1.7.7 0 .2.3.4.7.6.4.2.8.4 1 .8h-.1c.7.2.5.9 1.2 1l.1.5c.6-.1.4.9.9 1.2l.1-.1c.4.4.3.7.7 1.1v.1c.7.9.8 1.6 1.1 1.4-.1.5-.7-.9-.7-.1 2.1 3 3 6.9 3.2 10.6-.1.4-.2.7-.3.8.1.4.1 1.4.3 1.7 0-.1-.2.2-.2.4-.2.7.4.8.2 1.5-.1-.3-.2-.4-.3-.3.1.3.2.7.2 1.1 0 .4-.1.8-.1 1.1 0-.1 0-.3-.2-.3.2.9-.4 1.4-.3 2.2l-.2-.3c-.5 1 .4.4-.1 1.4 0-.2-.1-.2-.2-.3.1.5-.1 1.1-.2 1.7-.1.3-.2.6-.2.9-.1.3-.2.5-.3.7 0-.1-.1-.1-.1-.1-.3.6-.8 1.6-1.2 2.6-.3.3-.4-.4-.9.6.4.2-.8 1.6 0 1.4-.5.8-1.5 1.8-1.8 2.4.1-.4-.7 0-.3-.6l-.6.3c-.1-.2.4-.4.1-.4-.2.3-.7 1.3-1 1.5-.2.7-.3 1.5-1 2.4.2-.5-.6-.1-.4-.4 0 0-.1.4-.2.9-.1.4-.3.9-.3.9-.3.3-.3-.2-.6.3.1.1 0 .3-.1.5-.1.1-1.1 1.2-1.5 1-.2 0 .4-.5 0-.3-.5.5-.4.6-1 1.1-.4.2-.9 1-.4.9.3-.2-.3-.1.2-.3-.1.4-.7 1-1.2 1.4.1-.2 0-.3 0-.4-.5.9-1.3 1.5-2.1 2.3.1.2.1-.5.3-.5-.6.3-1.1.8-1.6 1.2-.5.4-1 .8-1.6.9.1-.1.2.2.2.2-.6.3-.7 0-1 .4-.1-.1-.4.3-.8.6-.1.2-.1 0 .2-.2-.4.5-2.5 1.8-3.9 2.3.1.1-.6.7-.9.9V90c-.3 0-1 .5-1.1.3-.5.6 2.3-1.4 1.6-.7-.3-.1-1 .9-1 .5-.6.3-1 .8-1.7.8.2 0 .3-.6-.1-.3-.8.4-.2.2-.8.6l-.4.3c.1.3-.8.3-.4.4-.2-.2-1.2.6-1.3.2v-.4c-.4.2-.5.6-.7.8-.1 0-.2 0-.2-.1.1.5-.9.3-1.2.8-.9.1-2.1.6-2.5.4-.6.4-1.1.7-1.8.7.1-.1.3-.1.3-.3-.5 0-.6.1-.9.3.1-.1-1-.1-1.5-.1-.6.3-.3.5-.3.7-.7-.4-1.7.7-2.6.4.2-.1.9-.4.3-.5-.7-.4-1.1.6-2.1.5l.3.4c-.5-.2-1.4.4-1.3 0-.3.2-1.1 0-1 .4-1.6-.1-3.8.5-4.8-.2-.2.1-.8 0-.7.2.4.2.5-.2.7 0-.2 0-.2.1-.3.2-.5-.1-.9-.1-.4-.5-1.1-.3-1.1.7-2.5.5.1-.2 0-.2-.4-.2l-.8-.1c-.9-.2-.5-.5-.5-.7-.5 0-1.1-.1-1.3.1l-.5-.5c.4.3-.4.1-.6.2h.2c-.1-.1-.6-.1-.9-.1 0 .2.6.3.9.4-.3.1-.6 0-1 .1.2-.3-.7-.4-1.1-.5-.4-.1-.5.2-.7.1 0-.2-.7-.2-.3-.3.2 0 .3.2.6.1-.3-.2-.2-.4-.8-.3-.5.1 0 .6-.8.2.2 0 .3-.1.5-.2l-.4-.2-.4-.2-.1.2c-.1-.1 0-.1 0-.1-.3.2-1.2-.3-1.5 0-.4-.1-.8-.4-1.1-.6h.1c-.4-.3-1-.5-1.5-.5-.2-.1-.8-.3-1.2-.3-.5-.4.2-1-.6-1-.6-.3-1.2-.1-1 .2-.5-.4-1.1-.6-1.7-1-.5-.3-1.1-.7-1.4-1.2-.2 0-.2.1-.5-.1-.7-.6-1.4-1.3-2.1-1.9-.6-.7-1.1-1.4-1.4-2.1.4.3.2-.1.4-.2-.5-.2-.1-.6-.5-.5-.2.2-.3.2-.1.7-.4-.4-.7-1-1-1.6-.3-.6-.5-1.1-.5-1.4 0 .3-.1.1-.3-.1.4.1.2-.7-.2-1.2h-.3l.1-.5c-.2-.2-.6-.1-.5-.8.1-.1.2-.1.2-.2-.3-.6-.9-1.5-.8-2.2l.3-.5c0-.3-.2-.7-.3-.2.1-.5.1-1 .1-1.3 0-.2 0-.3.1-.5v-.1L8 75c0-.1.1-.1.1-.2-.1-.5-.2-1.1-.3-1.7-.1-.6-.1-1.2 0-1.9.2-1.2.4-2.5.9-3.6l.1.1c.4-.5-.2-.4.1-.8.1.2.5-.3.5.2.5-.8.1-1.2.2-1.7-.2-.2-.1.5-.3.3 0-.1.7-1 .4-1.3.2-.1.4.1.5.3l.1-.6c.6-.4 0 1.6.8 1.2l.2-.5c.5-.3-.1 1.3.5.3.1-.5-.2-1.2-.5-.8.4-1-.5-.8 0-1.9.3-.2-.4.9 0 .8.5-.4.4-1.1.7-1.4-.4.4-.5-.2-.3-.5.5-.4.1.5.6-.2-.1-.2.2-1-.3-.5-.2-.5.6-.7.5-1.3.4-.1.2 1.2.8.4-.4-.1.3-1.2-.4-1 .3-.3.5-.1.5.2.5-.3.3-1.4.9-1.1l-.3-.3c.2-.1.4-.2.7-.3l.4-.8c.2-.3.3-.4.5-.3.1-.1.8-.9.2-.8-.6.4-.3.7-.9.7.6-.1.6-.8.7-1.1l.2.1c.1-.2.5-.6.4-.8 0 .2.1.2.3.1l-.1-.4c.5-.8.5.2 1-.6l-.3.7c.1-.1.4-.2.7-.6-.1-.3-.1-.7-.1-1 .3-.4.4 0 .5-.5l-.2.7c0 .1.6 0 1.1-.5.2-.4.5-1.1-.1-.7.2-.2.7-.5.6-.1.5-.6-.3-.1.1-.7.3-.1 1.1-.4 1.7-.6l-.2.8.3-.3c-.2.6.4 0 .4.5.3-.2.5-.5.6-.7-1.1.1.3-1.3-.3-1.5.9-.9 1.4.5 1.9-.9-.3 0 0-.7-.5-.1.7-.4.1-.7 1-1.1-.4.6.9 0 .3.8-.1-.2-.5.2-.6.3.4 0 .3.5.9 0 .4-.3.9-.7.6-.9-.2-.2-.6.5-.5 0 .7-.6 1.1-.4 1.1-1-.5.4-.8.2-.9 0l.5-.5v.2c1-.5.1-.5 1-1.1l.7.1c0 .2-.4.4-.7.6-.3.2-.5.4-.3.5.6-.4.7-.7 1.3-1-.1.1-.3.2-.4.4.2-.1.8.4 1.5-.5.4-.4 0-.2-.1-.4.9-.6 1.1-1 1.7-1.4.1.4 1.2-.6.7.2-.5-.1-1.9.8-2 1.4.6.2-.8.4-.7 1 .8-.5 1 0 1.3.2.2-.1.4-.3.5-.5-.1-.3-.3-.1-.5-.4.5-.2.9-.5 1.2-.8.3-.3.6-.5.8-.8.4 0 .4.3.1.5 1-.6 2.2-1.2 3.2-1.6-.9-.1 1.1-.6.5-.8-.6.1-1.2.1-1-.3.4-.1.1.2.3.2.3-.4.9.1 1.2-.5-1 .6 0 .6 0 1 .6-.5.1.3.8 0 .6-.5 1.5-1 2.2-1.4 1.1-.1 2.6-.9 3.6-1.2.5 0 .3.5.9.4.6-.2-.6-.3.4-.4l-.1.1c.2-.2 1.8-.2 1.9-.8l-.2.5c.2 0 .3-.1.5-.2 0 .1.3.2 0 .4.6.2 1.2-.4 1.8-.5l-.4-.5c.5-.2 1-.3 1.4-.4.4-.1.9-.1 1.4-.2v.3l.6-.3c-.1.3.5.3.8.1l-1.5.9c-.5-.1.4-.4.1-.6-.3-.2-1.2 0-1.3.3.4-.1.4-.1.7-.2.2.3-.4.4-.6.7.2-.1.5 0 .5-.1-.4.2-.7.4-1.3.5.4-.2-.3-.2-.1-.3 0 .3-.5.6-1.3.7-.6-.2-1.4.6-2.3.7.3-.4.6-.8 1.2-1.1-.6 0-.6.2-1.2.1-.2.3-.3.7-.9 1.1l-.1-.2c-.6.3-.5.7-1.3.9l-2.1.6c-.7.3-1.3.5-1.8.7l-.1-.2c-.4.7-1.9.9-2.5 1.6-1.4.4-2.7 1.6-3.5 1.6l-3 2.1c-1 .7-1.9 1.4-3 2.2l.1-.5c-.2.5-.4 0-.7.3.6-.1-.3.6-.4 1-1.1.5-2 1.7-2.6 2.6l-.2-.2c-.4 1.1-1.6 1.6-2.5 2.5-.2 0-.5.1-.7.4-.2.8-.4 1.1-.9 2-.5.5-1.3 1.5-1.8 2-1.2 2.5-2.9 4.9-3.7 7.6l-.3.1c-.1.7-.2 1.4-.4 2.1-.2.7-.3 1.4-.5 2.1-.1.4-.2.7-.2 1 0 .3-.1.7-.1 1v1.8l-.5-.2c-.5.9-.1 1.9.2 1.6V77.6l.1.3c.1.4.2.7 0 1 .1.7.3.8.7 1.3.2.7.3 1.2.5 1.6.2.4.5.8.9 1.4l-.1-.3c-.2-.1-.4 0-.2.3.2.2.4.6.6.9.2.3.4.4.5 0 .6 1.4 2.3 2.3 3.2 3.5 0-.2.3 0 .5 0 1 .8 2.1 1.7 3.1 1.9.1.2-.4.1 0 .4.3.1.1-.2.5-.1 2 .6 3.9 1.8 5.9 2.1 3.5.4 7.1.8 10.5.5v.1c1.1-.5 2.7.2 3.5-.5.3.1 1-.1.9.2.9-.4 2.6-.1 3.8-.8-.1 0-.2 0-.3.1.3 0 .7 0 1-.1.2 0 .6-.2.9-.2.6-.2 1.3-.4 2-.4-.1.1-.4.2-.4.3.6.1 1.2-.8 1.6-.3.3-.1.1-.3 0-.3 3-.7 6-2.1 8.9-3.6 2.2-.6.5.8 2-.3.2 0 0-.2.1-.1.5-.5 1.3 0 1.6-.4-.3-.2.2-.3.1-.5 1.3-.5 1.8-.3 2.6-1.1v.2c.8-1.1 2.3-1.6 2.8-2.8 5.8-4.1 10.4-9.4 13.2-15.3.3-.7.7-1.5 1-2.2l.7-2.3c.3-1.6.7-3.1.7-4.7.2-1.5 0-3.3-.1-4.8-.2-1.6-.5-3.2-.9-4.8-.1-1.6-.1-1.7-1.1-3.1.1 0 .2.1.2 0-.4.1-.6-1-1-.9-1.3-2-2.8-3.6-4.8-5 .3.2.7 0 .3-.2l-.5-.1v-.1c-.3-.1-.7-.2-.5.1-2.7-1.5-5.5-2.8-8.6-3.6-3.1-.8-6.3-1.3-9.6-1.3-.8-.1-1.7-.1-2.7 0-1 .1-1.9.2-2.8.3-5-.1-9.7.2-14.7 1.6-.3-.4.1-1.5 2.2-2.2zm12.6 4.9c-.2-.2-.8-.2-.4-.5.1.1.5.3.4.5zm-16 2.5c0 .1-.2 0-.3 0 .2-.1.3-.3.5-.3-.2.2-.2.2-.2.3zm-3.8 1.8c0-.2.7-.7 1.2-1l-1.2 1zm-3.8 1.3c-.4.1-.3-.1.1-.3 0 0-.1.2-.1.3zm-.1.5c-.3.2-.5.2-.7.2.2.1.7-.5.7-.2zm-7.2 4.6c-.2.1-.4.5-.7.5.2 0 .6-.8.7-.5zM19 51.8c-.1.1-.2.1-.2.2-.2.1-.1-.2 0-.3l.2.1z"/><path class="st4" d="M44.5 95.1l-.4.1V95zM73.1 82.8c.3-.4.3-.1.4-.1-.3.3 0-.2-.4.1zM83.7 69.7v.1l-.3-.2z"/></svg>