<svg xmlns="http://www.w3.org/2000/svg" viewBox="0 0 109 109"><style>.st0{fill:#00b67a;} .st1{fill:#14C8F6;} .st2{fill:#FFA500;} .st3{fill:#2AC4F3;} .st4{fill:#FFFFFF;} .st5{fill:#00658F;} .st6{fill:#FCC588;} .st7{fill:#E1F3FC;} .st8{fill:#00B8F1;} .st9{fill:#FBB56B;} .st10{fill:#FDDAB4;} .st11{fill:#F5841F;} .st12{fill:#005F8A;} .st13{fill:#F9A51A;} .st14{fill:#7ED2F6;} .st15{fill:#1E78A0;} .st16{fill:#FDCF9F;} .st17{fill:#FAB46B;} .st18{fill-rule:evenodd;clip-rule:evenodd;fill:#FFFFFF;} .st19{fill:#ABE0F9;} .st20{fill:#FCFCE2;} .st21{fill:#FFDF00;} .st22{fill:#EBFAFD;} .st23{fill:#9CEBFC;} .st24{fill:#E1F4FC;} .st25{fill:#F99B1A;} .st26{fill:#FF7A00;} .st27{fill:#CCECFB;} .st28{fill:none;} .st29{fill:none;stroke:#14C8F6;stroke-width:1.0922;stroke-miterlimit:10;} .st30{opacity:0.5;fill:#C1F0F8;} .st31{fill:#F5F5F5;} .st32{fill:#D5D5D5;} .st33{fill:url(#SVGID_1_);} .st34{fill:#FF9600;} .st35{fill:#999999;} .st36{fill:#FDE3C6;} .st37{opacity:0.25;fill:#00B8F1;} .st38{fill:#DFF7FC;} .st39{fill:none;stroke:#00658F;stroke-width:1.4101;stroke-linecap:round;stroke-miterlimit:10;} .st40{fill:#FF8500;} .st41{opacity:0.49;fill:url(#SVGID_2_);} .st42{opacity:0.35;fill:#00B8F1;} .st43{fill:#003D5D;} .st44{fill:#EB6C00;} .st45{fill:#E26600;} .st46{fill:#8DD7F7;} .st47{fill:none;stroke:#FFFFFF;stroke-width:0.4909;} .st48{fill:none;stroke:#FFFFFF;stroke-width:0.4038;} .st49{fill:#3E87A8;} .st50{clip-path:url(#SVGID_4_);fill:none;stroke:#FFFFFF;stroke-width:0.7294;} .st51{fill:#C1F0FA;} .st52{clip-path:url(#SVGID_6_);} .st53{fill:none;stroke:#FF9600;stroke-width:4;stroke-miterlimit:10;} .st54{fill:#D9F1FC;} .st55{fill:url(#);}</style><path class="st3" d="M54.5 0l5 7.1 6.4-5.9 3.4 7.9 7.5-4.4 1.7 8.5 8.2-2.8-.1 8.7 8.6-1.1-1.9 8.5 8.7.7-3.7 7.9 8.3 2.6-5.2 6.9 7.6 4.2-6.5 5.7 6.5 5.7-7.6 4.2 5.2 6.9-8.3 2.6 3.7 7.8-8.7.8 1.9 8.5-8.6-1.1.1 8.7-8.2-2.8-1.7 8.5-7.5-4.4-3.4 7.9-6.4-5.9-5 7.1-5-7.1-6.4 5.9-3.4-7.9-7.5 4.4-1.7-8.5-8.2 2.8.1-8.7-8.6 1.1 1.9-8.5-8.7-.8 3.7-7.8-8.3-2.6 5.2-6.9L0 60.2l6.5-5.7L0 48.8l7.6-4.2-5.2-6.9 8.3-2.6L7 27.2l8.7-.7-1.9-8.5 8.6 1.1-.1-8.7 8.2 2.8 1.7-8.5 7.5 4.4 3.4-7.9 6.4 5.9"/><path class="st4" d="M41.8 81.8L21.2 61.3l8.3-8.3 20.6 20.5"/><path class="st4" d="M33.4 73.5l45-44.8 8.4 8.3-45 44.8"/></svg>