<svg xmlns="http://www.w3.org/2000/svg" xmlns:xlink="http://www.w3.org/1999/xlink" version="1.1" id="Layer_1" x="0" y="0" viewBox="0 0 200.5 106.8" xml:space="preserve"><style type="text/css">.st0{clip-path:url(#SVGID_2_);}.st1{opacity:0.1;}.st2{fill:#00b67a;}.st3{fill:#EBFAFD;}.st4{fill:#9CEBFC;}.st5{fill:#003D5D;}.st6{font-family:'Arial-BoldMT';}.st7{font-size:15.33px;}.st8{fill:#5E5E5E;}.st9{font-family:'ArialMT';}.st10{fill:#FFFFFF;}.st11{fill:url(#SVGID_3_);}.st12{clip-path:url(#SVGID_7_);}.st13{clip-path:url(#SVGID_8_);}.st14{clip-path:url(#SVGID_9_);}.st15{fill:#005F8A;}.st16{fill:#00B8F1;}.st17{fill:#FCC588;}.st18{fill:#FBB56B;}.st19{fill:#FDDAB4;}.st20{fill:#F5841F;}.st21{opacity:0.59;clip-path:url(#SVGID_9_);enable-background:new    ;}.st22{clip-path:url(#SVGID_9_);fill:#FFFFFF;}
</style><title>tips3_dev</title><defs><rect id="SVGID_1_" x="-15.5" y="-23.8" width="216" height="146"/></defs><clipPath id="SVGID_2_"><use xlink:href="#SVGID_1_"/></clipPath><g class="st0"><g class="st1"><path class="st2" d="M12 6h240c3.3 0 6 2.7 6 6v75c0 3.3-2.7 6-6 6H12c-3.3 0-6-2.7-6-6V12C6 8.7 8.7 6 12 6z"/></g><path class="st3" d="M6.5 0h240c3 0 5.5 2.5 5.5 5.5v75c0 3-2.5 5.5-5.5 5.5H6.5c-3 0-5.5-2.5-5.5-5.5v-75C1 2.5 3.5 0 6.5 0z"/><path class="st4" d="M246.5 1c2.8 0 4.5 2.2 4.5 4.9v75c0 2.8-1.7 5.1-4.5 5.1H6.5C3.7 86 1 83.7 1 80.9v-75C1 3.2 3.7 1 6.5 1H246M246.5 0H6.5C3.2 0 0 2.6 0 5.9v75C0 84.2 3.2 87 6.5 87h240c3.3 0 5.5-2.8 5.5-6.1v-75C252 2.6 249.8 0 246.5 0L246.5 0z"/><text transform="matrix(1 0 0 1 86.32 24.0594)" class="st5 st6 st7">Jenny</text><text transform="matrix(1 0 0 1 86.32 45.4595)" class="st8 st9 st7">Looking for a double </text><text transform="matrix(1 0 0 1 86.32 63.8594)" class="st8 st9 st7">room near city centre</text><rect x="170.5" y="-12.8" class="st10" width="115" height="120"/><linearGradient id="SVGID_3_" gradientUnits="userSpaceOnUse" x1="725.5" y1="10993.47" x2="770.5" y2="10993.47" gradientTransform="matrix(1 0 0 1 -600 -10946.2744)"><stop offset="0" style="stop-color:#FFFFFF;stop-opacity:0"/><stop offset="1" stop-color="#FFFFFF"/></linearGradient><rect x="125.5" y="-12.8" class="st11" width="45" height="120"/><rect x="15.5" y="14.2" class="st4" width="60" height="60"/><g id="Layer_1_1_"><defs><rect id="SVGID_4_" x="15.5" y="14.2" width="60" height="60"/></defs><defs><rect id="SVGID_5_" x="15.5" y="14.2" width="60" height="60"/></defs><defs><rect id="SVGID_6_" x="15.5" y="14.2" width="60" height="60"/></defs><clipPath id="SVGID_7_"><use xlink:href="#SVGID_4_"/></clipPath><clipPath id="SVGID_8_" class="st12"><use xlink:href="#SVGID_5_"/></clipPath><clipPath id="SVGID_9_" class="st13"><use xlink:href="#SVGID_6_"/></clipPath><g class="st14"><path class="st15" d="M23.7 57.1c-4.7 0.2-8.5 4-8.7 8.8l0 0 9 8.8v-8.5l2.8-7.7L23.7 57.1z"/><rect x="22" y="52" class="st16" width="37" height="8"/><polygon class="st15" points="56 96.8 56 58 24 58 24 90.2 "/><path class="st16" d="M51 50.4l7.3 7.3c4.5 4.5 11.7 4.5 16.2 0l0 0L59.1 42.3 51 50.4z"/><path class="st17" d="M56 101.8c6 0 8-4 8-8.9V65.7c0-5-2 2.7-8 2.7V101.8z"/><polygon class="st2" points="37 95.8 57.3 75.5 48 78 23.7 78 "/><path class="st2" d="M56 58.3c6 0 9.9 3.4 9.9 8.2l-0.3 0.9L56 76.7V58.3L56 58.3z"/><path class="st2" d="M60.1 72.9l3.3-4.9H52.9c-7 0-12.8 4-12.8 11h13.2L60.1 72.9z"/><path class="st2" d="M28.2 68c7 0 12.8 4 12.8 11H24V68H28.2z"/><path class="st17" d="M42.3 49h-2.9c-2.4-0.1-4.3 1.8-4.4 4.1v0.1 2.9c0 2.4 2 3.8 4.4 3.8h2.9c2.4 0 4.7-1.4 4.7-3.8v-2.9C46.9 50.8 44.8 48.9 42.3 49z"/><path class="st18" d="M47 56.2V52h-8v8h3.3C44.8 60 47 58.6 47 56.2z"/><path class="st16" d="M29 15v51.2c-9 0-14-7.1-14-15.6V22.4L29 15z"/><path class="st16" d="M46.9-1H34.1C23.5-1 15 6.9 15 17.5v12.8C15 40.9 23.5 49 34.1 49h12.8C57.5 49 64 64.1 64 53.5v-36C64 6.9 57.5-1 46.9-1z"/><path class="st17" d="M64 27l-0.2-1.8c0-9.4-7.6-17.1-17.1-17.2 -0.1 0-0.2 0-0.4 0H34.7C25 8 16 15.1 16 24.8V27l0.7 2.3C16.7 38.7 38 32 36.3 54h10.1C56 54 64 46.3 64 37V27L64 27z"/><path class="st19" d="M42.6 8C32.9 8 22 15.2 22 24.9v2.2l0.2 9.9c0.2 9.5 8 17.1 17.5 17H47V8H42.6L42.6 8z"/><path class="st16" d="M23.5 28.9h8.4C44 28.9 53.8 19.1 53.8 7H26L23.5 28.9z"/><path class="st16" d="M15 15.4v27.2c0 4.5 3 8.1 7 8.1V24.1L32.4 9.8 24 5.6 15 15.4z"/><path class="st19" d="M26.3 28.9l7.8-7.8c0.8-0.8 2.2-0.8 3 0l0 0 -9.3 9.3L26.3 28.9z"/><path class="st16" d="M62 8h-8.5c0 7 4.3 14 10.5 17.6 1.3 0.7-0.3-7.8 1.1-7.4L62 8z"/><path class="st20" d="M43.3 33c0-2.1-1.7-3.9-3.9-3.9s-3.9 1.7-3.9 3.9H43.3z"/><path class="st20" d="M57.9 33c0-2.1-1.7-3.9-3.9-3.9s-3.9 1.7-3.9 3.9H57.9z"/><rect x="43.5" y="35" transform="matrix(0.7072 -0.707 0.707 0.7072 -13.2405 44.0181)" class="st19" width="6" height="6"/><path class="st20" d="M50.5 45.5L50.5 45.5 50.5 45.5v-0.6V43h-0.1c-0.4 0.8-1.3 1.2-2.1 1h-3.6c-0.8 0.2-1.7-0.2-2.1-1h-0.1c0 0 0 1.8 0 1.9s0 0.3 0 0.2 0 0.2 0 0.2v0.1c0 0.1 0.1 0.3 0.1 0.4l0 0c1.5 2.1 4.5 2.6 6.5 1.1 0.4-0.3 0.8-0.6 1.1-1.1l0 0C50.4 45.8 50.5 45.7 50.5 45.5z"/><polygon class="st19" points="15 65.7 23.8 75.4 24 77 24 77 24 85.5 15 82.6 "/><path class="st19" d="M14.8 82.3c0 4.8 3.8 8.7 8.6 8.7 0.1 0 0.2 0 0.3 0h17.7c0-3-4-8.8-8.9-8.8L14.8 82.3z"/><path class="st19" d="M25 28.8c0-1-1.4-1.8-3-1.8h-1.1c-1.5 0-3.9 0.8-3.9 1.8v5.6c0 1 2.4 2.6 3.9 2.6H22c1.5-0.1 2.7-1.1 3-2.6V28.8z"/><path class="st16" d="M22 13v15.4c0 2.3 1.7 4.2 4 4.4V13H22z"/></g><rect x="54.5" y="55.2" class="st21" width="21" height="19"/><path class="st22" d="M72.2 69c0 0.2-0.1 0.4-0.3 0.5 -0.1 0-0.1 0-0.2 0s-0.3 0-0.3-0.1l-3.1-3.1v1.3c0 1.2-1 2.2-2.2 2.2l0 0h-5.4c-1.2 0-2.2-1-2.2-2.2l0 0v-5.4c0-1.2 1-2.2 2.2-2.2l0 0H66c1.2 0 2.2 1 2.2 2.2l0 0v1.3l3.1-3.1c0.1-0.1 0.2-0.1 0.3-0.1 0.1 0 0.1 0 0.2 0 0.2 0.1 0.3 0.3 0.3 0.5L72.2 69 72.2 69z"/></g></g></svg>