<svg xmlns="http://www.w3.org/2000/svg" viewBox="0 0 182 109"><style type="text/css">
	.st0{fill:#00b67a;} 
	.st1{fill:#14C8F6;} 
	.st2{fill:#FFA500;} 
	.st3{fill:#2AC4F3;} 
	.st4{fill:#FFFFFF;} 
	.st5{fill:#00658F;} 
	.st6{fill:#FCC588;} 
	.st7{fill:#E1F3FC;} 
	.st8{fill:#00B8F1;} 
	.st9{fill:#FBB56B;} 
	.st10{fill:#FDDAB4;} 
	.st11{fill:#F5841F;} 
	.st12{fill:#005F8A;} 
	.st13{fill:#F9A51A;} 
	.st14{fill:#7ED2F6;} 
	.st15{fill:#1E78A0;} 
	.st16{fill:#FDCF9F;} 
	.st17{fill:#FAB46B;} 
	.st18{fill-rule:evenodd;clip-rule:evenodd;fill:#FFFFFF;} 
	.st19{fill:#ABE0F9;} 
	.st20{fill:#FCFCE2;} 
	.st21{fill:#FFDF00;} 
	.st22{fill:#EBFAFD;} 
	.st23{fill:#9CEBFC;} 
	.st24{fill:#E1F4FC;} 
	.st25{fill:#F99B1A;} 
	.st26{fill:#FF7A00;} 
	.st27{fill:#CCECFB;} 
	.st28{fill:none;} 
	.st29{fill:none;stroke:#14C8F6;stroke-width:1.0922;stroke-miterlimit:10;} 
	.st30{opacity:0.5;fill:#C1F0F8;} 
	.st31{fill:#F5F5F5;} 
	.st32{fill:#D5D5D5;} 
	.st33{fill:url(#SVGID_1_);} 
	.st34{fill:#FF9600;} 
	.st35{fill:#999999;} 
	.st36{fill:#FDE3C6;} 
	.st37{opacity:0.25;fill:#00B8F1;} 
	.st38{fill:#DFF7FC;} 
	.st39{fill:none;stroke:#00658F;stroke-width:1.4101;stroke-linecap:round;stroke-miterlimit:10;} 
	.st40{fill:#FF8500;} 
	.st41{opacity:0.49;fill:url(#SVGID_2_);} 
	.st42{opacity:0.35;fill:#00B8F1;} 
	.st43{fill:#003D5D;} 
	.st44{fill:#EB6C00;} 
	.st45{fill:#E26600;} 
	.st46{fill:#8DD7F7;} 
	.st47{fill:none;stroke:#FFFFFF;stroke-width:0.4909;} 
	.st48{fill:none;stroke:#FFFFFF;stroke-width:0.4038;} 
	.st49{fill:#3E87A8;} 
	.st50{clip-path:url(#SVGID_4_);fill:none;stroke:#FFFFFF;stroke-width:0.7294;} 
	.st51{fill:#C1F0FA;} 
	.st52{clip-path:url(#SVGID_6_);} 
	.st53{fill:none;stroke:#FF9600;stroke-width:4;stroke-miterlimit:10;} 
	.st54{fill:#D9F1FC;} 
	.st55{fill:url(#);}
</style><path class="st3" d="M156 18c0 2.2-1.8 4-4 4H61c-2.2 0-4-1.8-4-4V4c0-2.2 1.8-4 4-4h91c2.2 0 4 1.8 4 4v14z"/><path class="st4" d="M67 14l-2-8.3h1.7l1.3 5.7 1.5-5.7h2l1.5 5.8 1.3-5.8H76L74 14h-1.8l-1.7-6.2-1.7 6.2H67zM80.1 12l1.6.3c-.2.6-.5 1-1 1.3-.4.3-1 .5-1.7.5-1.1 0-1.8-.3-2.3-1-.4-.5-.6-1.2-.6-2.1 0-1 .3-1.8.8-2.4.5-.6 1.2-.9 2-.9.9 0 1.6.3 2.1.9.5.6.8 1.5.7 2.7h-4c0 .5.1.8.4 1.1.2.3.6.4.9.4.3 0 .5-.1.6-.2.3 0 .4-.3.5-.6zm.1-1.6c0-.5-.1-.8-.4-1.1-.2-.2-.5-.3-.8-.3-.3 0-.6.1-.9.4-.2.3-.3.6-.3 1h2.4zM87.9 7.9v5.9c0 .8 0 1.3-.2 1.6-.1.3-.3.6-.6.7-.3.2-.7.3-1.1.3h-.5c-.2 0-.4-.1-.6-.1l.3-1.4h.4c.2 0 .3 0 .4-.1.1-.1.2-.2.2-.3 0-.1.1-.4.1-.9V7.9h1.6zm-1.6-.8V5.6h1.6v1.5h-1.6zM93.5 14v-.9c-.2.3-.5.6-.9.8-.4.2-.7.3-1.1.3-.4 0-.8-.1-1.1-.3s-.6-.4-.7-.8-.2-.8-.2-1.3V7.9h1.6v2.8c0 .8 0 1.4.1 1.6.1.2.2.3.3.5.2.1.4.2.6.2.3 0 .5-.1.7-.2.2-.2.4-.3.4-.6.1-.2.1-.8.1-1.6V7.9H95v6h-1.5zM96.1 12.2l1.6-.2c.1.3.2.5.4.7.2.2.5.2.9.2s.7-.1.9-.2c.1-.1.2-.2.2-.4 0-.1 0-.2-.1-.3-.1-.1-.3-.1-.5-.2-1.3-.3-2.1-.5-2.5-.8-.5-.3-.7-.8-.7-1.4 0-.5.2-1 .6-1.3.5-.3 1.1-.5 2-.5.8 0 1.4.1 1.8.4s.7.7.8 1.2l-1.5.3c-.1-.2-.2-.4-.4-.5-.2-.1-.4-.2-.8-.2s-.7.1-.9.2c-.1.1-.2.2-.2.3 0 .1.1.2.2.3.1.1.6.3 1.5.5s1.4.4 1.8.7c.3.3.5.7.5 1.2 0 .6-.2 1-.7 1.4s-1.1.6-2.1.6c-.8 0-1.5-.2-2-.5-.3-.4-.7-.9-.8-1.5zM105.9 7.9v1.3h-1.1v3.3c0 .1.1.1.1.2.1.1.2.1.3.1.1 0 .4-.1.6-.2l.1 1.2c-.4.2-.8.2-1.3.2-.3 0-.5 0-.8-.1s-.4-.2-.5-.4c-.1-.2-.2-.4-.2-.6 0-.2-.1-.6-.1-1.1V9.2h-.7V7.9h.7V6.7l1.6-.9v2.1h1.3zM115.5 9.7l-1.5.3c-.1-.3-.2-.6-.4-.7-.2-.2-.4-.2-.7-.2-.4 0-.7.1-1 .4-.2.3-.4.7-.4 1.4s.1 1.2.4 1.5c.2.3.6.4 1 .4.3 0 .6-.1.7-.3.2-.2.3-.5.4-.9l1.6.3c-.2.7-.5 1.3-.9 1.6-.5.4-1.1.6-1.9.6-.9 0-1.6-.3-2.1-.8-.5-.6-.8-1.3-.8-2.3 0-1 .3-1.8.8-2.3s1.2-.8 2.1-.8c.7 0 1.3.2 1.8.5s.7.7.9 1.3zM116.7 14V5.6h1.6V14h-1.6zM120 7.1V5.6h1.6v1.5H120zm0 6.9V8h1.6v6H120zM128.5 9.7l-1.6.3c-.1-.3-.2-.6-.4-.7-.2-.2-.4-.2-.7-.2-.4 0-.7.1-1 .4-.2.3-.4.7-.4 1.4s.1 1.2.4 1.5c.2.3.6.4 1 .4.3 0 .6-.1.7-.3.2-.2.3-.5.4-.9l1.6.3c-.2.7-.5 1.3-.9 1.6-.5.4-1.1.6-1.9.6-.9 0-1.6-.3-2.1-.8-.5-.6-.8-1.3-.8-2.3 0-1 .3-1.8.8-2.3s1.2-.8 2.1-.8c.7 0 1.3.2 1.8.5s.8.7 1 1.3zM129.6 14V5.6h1.6V10l1.9-2.1h2l-2.1 2.2 2.2 3.8h-1.7l-1.5-2.7-.7.8v2h-1.7zM139.7 12l1.6.3c-.2.6-.5 1-1 1.3-.4.3-1 .5-1.7.5-1.1 0-1.8-.3-2.3-1-.4-.5-.6-1.2-.6-2.1 0-1 .3-1.8.8-2.4.5-.6 1.2-.9 2-.9.9 0 1.6.3 2.1.9.5.6.8 1.5.7 2.7h-4c0 .5.1.8.4 1.1.2.3.6.4.9.4.3 0 .5-.1.6-.2.3 0 .4-.3.5-.6zm.1-1.6c0-.5-.1-.8-.4-1.1-.2-.2-.5-.4-.8-.4-.3 0-.6.1-.9.4-.2.3-.3.6-.3 1h2.4zM148.2 14h-1.5v-.9c-.2.3-.5.6-.9.8-.3.2-.7.3-1 .3-.7 0-1.3-.3-1.8-.8s-.7-1.3-.7-2.3c0-1 .2-1.8.7-2.3.5-.5 1.1-.8 1.8-.8s1.3.3 1.8.8v-3h1.6V14zm-4.3-3.2c0 .6.1 1.1.3 1.4.3.4.6.6 1.1.6.4 0 .7-.2.9-.5.3-.3.4-.8.4-1.4 0-.7-.1-1.2-.4-1.5-.2-.3-.6-.5-1-.5s-.7.2-1 .5c-.1.4-.3.8-.3 1.4z"/><path class="st3" d="M114 25.6V21h4.8M182 73c0 2.2-1.8 4-4 4H22c-2.2 0-4-1.8-4-4V59c0-2.2 1.8-4 4-4h156c2.2 0 4 1.8 4 4v14z"/><path class="st4" d="M26.4 69.6v-8.3H28l3.4 5.6v-5.6H33v8.3h-1.7l-3.4-5.4v5.4h-1.5zM38.3 67.6l1.6.3c-.2.6-.5 1-1 1.3-.4.3-1 .5-1.7.5-1.1 0-1.8-.3-2.3-1-.4-.5-.6-1.2-.6-2.1 0-1 .3-1.8.8-2.4.5-.6 1.2-.9 2-.9.9 0 1.6.3 2.1.9.5.6.8 1.5.7 2.7h-4c0 .5.1.8.4 1.1.2.3.6.4.9.4.3 0 .5-.1.6-.2.2 0 .4-.3.5-.6zm.1-1.6c0-.5-.1-.8-.4-1.1-.2-.2-.5-.4-.8-.4-.3 0-.6.1-.9.4-.2.3-.3.6-.3 1h2.4zM42.9 69.6l-2.4-6h1.7l1.1 3.1.3 1c.1-.3.1-.4.2-.5.1-.2.1-.3.2-.5l1.1-3.1h1.6l-2.4 6h-1.4zM51.2 67.6l1.6.3c-.2.6-.5 1-1 1.3-.4.3-1 .5-1.7.5-1.1 0-1.8-.3-2.3-1-.4-.5-.6-1.2-.6-2.1 0-1 .3-1.8.8-2.4.5-.6 1.2-.9 2-.9.9 0 1.6.3 2.1.9.5.6.8 1.5.7 2.7h-4c0 .5.1.8.4 1.1.2.3.6.4.9.4.3 0 .5-.1.6-.2.3 0 .4-.3.5-.6zm.1-1.6c0-.5-.1-.8-.4-1.1-.2-.2-.5-.4-.8-.4-.3 0-.6.1-.9.4-.2.3-.3.6-.3 1h2.4zM55.7 69.6h-1.6v-6h1.5v.9c.3-.4.5-.7.7-.8.2-.1.4-.2.7-.2.4 0 .7.1 1.1.3l-.5 1.4c-.3-.2-.5-.3-.8-.3-.2 0-.4.1-.6.2s-.3.3-.4.7-.1 1-.1 2v1.8zM63.5 69.6h-1.6v-6h1.5v.9c.3-.4.5-.7.7-.8.2-.1.4-.2.7-.2.4 0 .7.1 1.1.3l-.5 1.4c-.3-.2-.5-.3-.8-.3-.2 0-.4.1-.6.2s-.3.3-.4.7-.1 1-.1 2v1.8zM70 67.6l1.6.3c-.2.6-.5 1-1 1.3-.4.3-1 .5-1.7.5-1.1 0-1.8-.3-2.3-1-.4-.5-.6-1.2-.6-2.1 0-1 .3-1.8.8-2.4.5-.6 1.2-.9 2-.9.9 0 1.6.3 2.1.9.5.6.8 1.5.7 2.7h-4c0 .5.1.8.4 1.1.2.3.6.4.9.4.3 0 .5-.1.6-.2.3 0 .4-.3.5-.6zm.1-1.6c0-.5-.1-.8-.4-1.1-.2-.2-.5-.4-.8-.4-.3 0-.6.1-.9.4-.2.3-.3.6-.3 1h2.4zM73 63.5h1.5v.9c.2-.3.5-.5.8-.7.3-.2.7-.3 1.1-.3.7 0 1.3.3 1.8.8.5.6.7 1.3.7 2.3 0 1-.2 1.8-.7 2.4s-1.1.8-1.8.8c-.3 0-.6-.1-.9-.2-.3-.1-.6-.4-.9-.7v3H73v-8.3zm1.5 2.9c0 .7.1 1.2.4 1.5s.6.5 1 .5.7-.1.9-.4c.2-.3.4-.8.4-1.5 0-.6-.1-1.1-.4-1.4-.3-.3-.6-.5-.9-.5-.4 0-.7.2-1 .5-.2.3-.4.7-.4 1.3zM80.1 69.6v-8.3h1.6v8.3h-1.6zM84.5 65.4l-1.5-.3c.2-.6.4-1 .8-1.3.4-.3 1-.4 1.8-.4.7 0 1.2.1 1.6.3.3.2.6.4.7.6.1.3.2.7.2 1.4v1.9c0 .5 0 .9.1 1.2.1.3.1.5.3.8H87c0-.1-.1-.3-.2-.5 0-.1 0-.2-.1-.2-.3.3-.6.5-.9.6-.3.1-.6.2-1 .2-.6 0-1.1-.2-1.5-.5s-.5-.8-.5-1.3c0-.3.1-.6.2-.9s.4-.5.7-.6c.3-.1.7-.3 1.3-.4.7-.1 1.3-.3 1.6-.4v-.2c0-.3-.1-.5-.2-.7-.2-.1-.4-.2-.9-.2-.3 0-.5.1-.7.2 0 .2-.2.4-.3.7zm2.2 1.2c-.2.1-.5.1-1 .2-.4.1-.7.2-.9.3-.2.1-.3.3-.3.6 0 .2.1.4.2.6.2.2.4.2.6.2.3 0 .6-.1.8-.3.2-.1.3-.3.4-.5 0-.1.1-.4.1-.8v-.3zM95.1 65.3l-1.6.3c-.1-.3-.2-.6-.4-.7-.2-.2-.4-.2-.7-.2-.4 0-.7.1-1 .4-.2.3-.4.7-.4 1.4s.1 1.2.4 1.5c.2.3.6.4 1 .4.3 0 .6-.1.7-.3.2-.2.3-.5.4-.9l1.6.3c-.2.7-.5 1.3-.9 1.6-.5.4-1.1.6-1.9.6-.9 0-1.6-.3-2.1-.8-.5-.6-.8-1.3-.8-2.3 0-1 .3-1.8.8-2.3s1.2-.8 2.1-.8c.7 0 1.3.2 1.8.5s.8.6 1 1.3zM99.8 67.6l1.6.3c-.2.6-.5 1-1 1.3-.4.3-1 .5-1.7.5-1.1 0-1.8-.3-2.3-1-.4-.5-.6-1.2-.6-2.1 0-1 .3-1.8.8-2.4.5-.6 1.2-.9 2-.9.9 0 1.6.3 2.1.9.5.6.8 1.5.7 2.7h-4c0 .5.1.8.4 1.1.2.3.6.4.9.4.3 0 .5-.1.6-.2.3 0 .4-.3.5-.6zm.1-1.6c0-.5-.1-.8-.4-1.1-.2-.2-.5-.4-.8-.4-.3 0-.6.1-.9.4-.2.3-.3.6-.3 1h2.4zM102.2 67.8l1.6-.2c.1.3.2.5.4.7.2.2.5.2.9.2s.7-.1.9-.2c.1-.1.2-.2.2-.4 0-.1 0-.2-.1-.3-.1-.1-.3-.1-.5-.2-1.3-.3-2.1-.5-2.5-.8-.5-.3-.7-.8-.7-1.4 0-.5.2-1 .6-1.3.4-.4 1.1-.5 1.9-.5.8 0 1.4.1 1.8.4s.7.7.8 1.2l-1.5.3c-.1-.2-.2-.4-.4-.5-.2-.1-.4-.2-.8-.2s-.7.1-.9.2c-.1.1-.2.2-.2.3 0 .1.1.2.2.3.1.1.6.3 1.5.5s1.4.4 1.8.7c.3.3.5.7.5 1.2 0 .6-.2 1-.7 1.4s-1.1.6-2.1.6c-.8 0-1.5-.2-2-.5-.2-.4-.5-.9-.7-1.5zM115.3 63.5v1.3h-1.1v3.3c0 .1.1.1.1.2.1.1.2.1.3.1.1 0 .4-.1.6-.2l.1 1.2c-.4.2-.8.2-1.3.2-.3 0-.5 0-.8-.1s-.4-.2-.5-.4c-.1-.2-.2-.4-.2-.6 0-.2-.1-.6-.1-1.1v-2.6h-.7v-1.3h.7v-1.2l1.6-.9v2.1h1.3zM118 61.2v3.1c.5-.6 1.1-.9 1.8-.9.4 0 .7.1 1 .2s.5.3.7.5c.1.2.3.4.3.7.1.3.1.7.1 1.2v3.5h-1.6v-3.2c0-.6 0-1-.1-1.2s-.2-.3-.3-.4-.3-.2-.6-.2-.5.1-.7.2-.4.3-.5.6-.1.7-.1 1.2v3h-1.6v-8.3h1.6zM127 67.6l1.6.3c-.2.6-.5 1-1 1.3-.4.3-1 .5-1.7.5-1.1 0-1.8-.3-2.3-1-.4-.5-.6-1.2-.6-2.1 0-1 .3-1.8.8-2.4.5-.6 1.2-.9 2-.9.9 0 1.6.3 2.1.9.5.6.8 1.5.7 2.7h-4c0 .5.1.8.4 1.1.2.3.6.4.9.4.3 0 .5-.1.6-.2.3 0 .4-.3.5-.6zm.1-1.6c0-.5-.1-.8-.4-1.1-.2-.2-.5-.4-.8-.4-.3 0-.6.1-.9.4-.2.3-.3.6-.3 1h2.4zM133.2 69.6v-8.3h1.6v8.3h-1.6zM136.1 66.4c0-.5.1-1 .4-1.5s.6-.9 1.1-1.1c.5-.3 1-.4 1.6-.4.9 0 1.7.3 2.2.9.6.6.9 1.3.9 2.3 0 .9-.3 1.7-.9 2.3s-1.3.9-2.2.9c-.6 0-1.1-.1-1.6-.4-.5-.2-.9-.6-1.1-1.1-.3-.6-.4-1.2-.4-1.9zm1.6.1c0 .6.1 1.1.4 1.4.3.3.6.5 1.1.5.4 0 .8-.2 1.1-.5.3-.3.4-.8.4-1.4 0-.6-.1-1-.4-1.4-.3-.3-.6-.5-1.1-.5-.4 0-.8.2-1.1.5-.2.4-.4.8-.4 1.4zM143.2 66.4c0-.5.1-1 .4-1.5s.6-.9 1.1-1.1c.5-.3 1-.4 1.6-.4.9 0 1.7.3 2.2.9.6.6.9 1.3.9 2.3 0 .9-.3 1.7-.9 2.3s-1.3.9-2.2.9c-.6 0-1.1-.1-1.6-.4-.5-.2-.9-.6-1.1-1.1-.2-.6-.4-1.2-.4-1.9zm1.7.1c0 .6.1 1.1.4 1.4.3.3.6.5 1.1.5.4 0 .8-.2 1.1-.5.3-.3.4-.8.4-1.4 0-.6-.1-1-.4-1.4-.3-.3-.6-.5-1.1-.5-.4 0-.8.2-1.1.5-.3.4-.4.8-.4 1.4zM155.5 69.6h-1.6v-6h1.5v.9c.3-.4.5-.7.7-.8.2-.1.4-.2.7-.2.4 0 .7.1 1.1.3l-.5 1.4c-.3-.2-.5-.3-.8-.3-.2 0-.4.1-.6.2s-.3.3-.4.7-.1 1-.1 2v1.8zM158.1 66.4c0-.5.1-1 .4-1.5s.6-.9 1.1-1.1c.5-.3 1-.4 1.6-.4.9 0 1.7.3 2.2.9.6.6.9 1.3.9 2.3 0 .9-.3 1.7-.9 2.3s-1.3.9-2.2.9c-.6 0-1.1-.1-1.6-.4-.5-.2-.9-.6-1.1-1.1-.2-.6-.4-1.2-.4-1.9zm1.7.1c0 .6.1 1.1.4 1.4.3.3.6.5 1.1.5.4 0 .8-.2 1.1-.5.3-.3.4-.8.4-1.4 0-.6-.1-1-.4-1.4-.3-.3-.6-.5-1.1-.5-.4 0-.8.2-1.1.5-.3.4-.4.8-.4 1.4zM165.6 69.6v-8.3h1.6v8.3h-1.6zM168.9 69.6v-8.3h1.6v8.3h-1.6zM172.7 67.4l-.4-4.2v-2h1.7v2l-.4 4.2h-.9zm-.3 2.2V68h1.6v1.6h-1.6z"/><path class="st3" d="M99 81.2V77h4.6"/><path class="st8" d="M135 45c0 2.2-1.8 4-4 4H4c-2.2 0-4-1.8-4-4V31c0-2.2 1.8-4 4-4h127c2.2 0 4 1.8 4 4v14z"/><path class="st4" d="M8.4 41.8v-8.3h1.7v8.3H8.4zM14.8 35.7h1.5v.8c.5-.6 1.2-1 1.9-1 .4 0 .7.1 1 .2s.5.4.7.7c.3-.3.6-.6.9-.7.3-.2.6-.2 1-.2s.8.1 1.1.3c.3.2.5.4.7.8.1.3.2.7.2 1.3v3.9h-1.6v-3.5c0-.6-.1-1-.2-1.2-.1-.2-.4-.3-.7-.3-.2 0-.4.1-.6.2s-.3.3-.4.6-.3.7-.3 1.3v2.9h-1.6v-3.3c0-.6 0-1-.1-1.1s-.1-.3-.3-.4c-.1-.1-.3-.1-.5-.1s-.5.1-.7.2-.3.3-.4.6c-.1.2-.1.7-.1 1.2v2.9h-1.6v-6.1zM26.4 37.6l-1.4-.3c.2-.6.4-1 .8-1.3.4-.3 1-.4 1.8-.4.7 0 1.2.1 1.6.3.3.2.6.4.7.6.1.3.2.7.2 1.4v1.9c0 .5 0 .9.1 1.2.1.3.1.5.3.8h-1.6c0-.1-.1-.3-.2-.5 0-.1 0-.2-.1-.2-.3.3-.6.5-.9.6-.3.1-.6.2-1 .2-.6 0-1.1-.2-1.5-.5s-.5-.8-.5-1.3c0-.3.1-.6.2-.9s.4-.5.7-.6c.3-.1.7-.3 1.3-.4.7-.1 1.3-.3 1.6-.4v-.2c0-.3-.1-.5-.2-.7-.2-.1-.4-.2-.9-.2-.3 0-.5.1-.7.2 0 .2-.2.4-.3.7zm2.2 1.3c-.2.1-.5.1-1 .2-.4.1-.7.2-.9.3-.2.1-.3.3-.3.6 0 .2.1.4.2.6.2.2.4.2.6.2.3 0 .6-.1.8-.3.2-.1.3-.3.4-.5 0-.1.1-.4.1-.8v-.3zM33.3 41.8h-1.6v-6h1.5v.9c.3-.4.5-.7.7-.8.2-.1.4-.2.7-.2.4 0 .7.1 1.1.3l-.5 1.4c-.3-.2-.5-.3-.8-.3-.2 0-.4.1-.6.2s-.3.3-.4.7-.1 1-.1 2v1.8zM37.8 41.8h-1.6v-6h1.5v.9c.3-.4.5-.7.7-.8.2-.1.4-.2.7-.2.4 0 .7.1 1.1.3l-.5 1.4c-.3-.2-.5-.3-.8-.3-.2 0-.4.1-.6.2s-.3.3-.4.7-.1 1-.1 2v1.8zM40.8 34.9v-1.5h1.6v1.5h-1.6zm0 6.9v-6h1.6v6h-1.6zM47.5 39.8l1.6.3c-.2.6-.5 1-1 1.3-.4.3-1 .5-1.7.5-1.1 0-1.8-.3-2.3-1-.4-.5-.6-1.2-.6-2.1 0-1 .3-1.8.8-2.4.5-.6 1.2-.9 2-.9.9 0 1.6.3 2.1.9.5.6.8 1.5.7 2.7h-4c0 .5.1.8.4 1.1.2.3.6.4.9.4.3 0 .5-.1.6-.2.3 0 .5-.3.5-.6zm.1-1.6c0-.5-.1-.8-.4-1.1-.2-.2-.5-.4-.8-.4-.3 0-.6.1-.9.4-.2.3-.3.6-.3 1h2.4zM56.1 41.8h-1.5v-.9c-.2.3-.5.6-.9.8-.3.2-.7.3-1 .3-.7 0-1.3-.3-1.8-.8s-.7-1.3-.7-2.3c0-1 .2-1.8.7-2.3.5-.5 1.1-.8 1.8-.8s1.3.3 1.8.8v-3h1.6v8.2zm-4.3-3.2c0 .6.1 1.1.3 1.4.3.4.6.6 1.1.6.4 0 .7-.2.9-.5.3-.3.4-.8.4-1.4 0-.7-.1-1.2-.4-1.5-.2-.3-.6-.5-1-.5s-.7.2-1 .5c-.2.4-.3.8-.3 1.4zM60.8 35.7h1.5v.8c.5-.6 1.2-1 1.9-1 .4 0 .7.1 1 .2s.5.4.7.7c.3-.3.6-.6.9-.7.3-.2.6-.2 1-.2s.8.1 1.1.3c.3.2.5.4.7.8.1.3.2.7.2 1.3v3.9h-1.6v-3.5c0-.6-.1-1-.2-1.2-.1-.2-.4-.3-.7-.3-.2 0-.4.1-.6.2s-.3.3-.4.6-.3.7-.3 1.3v2.9h-1.6v-3.3c0-.6 0-1-.1-1.1s-.1-.3-.3-.4c-.1-.1-.3-.1-.5-.1s-.5.1-.7.2-.3.3-.4.6c-.1.2-.1.7-.1 1.2v2.9h-1.6v-6.1zM70.5 35.7h1.7l1.4 4.3 1.4-4.3h1.7l-2.1 5.8-.4 1.1c-.1.4-.3.6-.4.8-.1.2-.3.3-.4.5l-.6.3c-.2.1-.5.1-.8.1-.3 0-.6 0-.9-.1l-.1-1.3c.2 0 .5.1.7.1.4 0 .6-.1.8-.3.2-.2.3-.5.4-.8l-2.4-6.2zM80.3 35.7h.9v-.5c0-.5.1-.9.2-1.1.1-.2.3-.5.6-.6s.7-.2 1.1-.2c.5 0 .9.1 1.3.2l-.2 1.1c-.3-.1-.5-.1-.7-.1-.2 0-.4.1-.5.2s-.2.3-.2.6v.4H84V37h-1.2v4.8h-1.6V37h-.9v-1.3zM84.8 41.8v-8.3h1.6v8.3h-1.6zM89.3 37.6l-1.5-.3c.2-.6.4-1 .8-1.3.4-.3 1-.4 1.8-.4.7 0 1.2.1 1.6.3.3.2.6.4.7.6.1.3.2.7.2 1.4v1.9c0 .5 0 .9.1 1.2.1.3.1.5.3.8h-1.6c0-.1-.1-.3-.2-.5 0-.1 0-.2-.1-.2-.3.3-.6.5-.9.6-.3.1-.6.2-1 .2-.6 0-1.1-.2-1.5-.5s-.5-.8-.5-1.3c0-.3.1-.6.2-.9s.4-.5.7-.6c.3-.1.7-.3 1.3-.4.7-.1 1.3-.3 1.6-.4v-.2c0-.3-.1-.5-.2-.7-.2-.1-.4-.2-.9-.2-.3 0-.5.1-.7.2 0 .2-.1.4-.2.7zm2.1 1.3c-.2.1-.5.1-1 .2-.4.1-.7.2-.9.3-.2.1-.3.3-.3.6 0 .2.1.4.2.6.2.2.4.2.6.2.3 0 .6-.1.8-.3.2-.1.3-.3.4-.5 0-.1.1-.4.1-.8v-.3zM97.3 35.7V37h-1.1v3.3c0 .1.1.1.1.2.1.1.2.1.3.1.1 0 .4-.1.6-.2l.1 1.2c-.4.2-.8.2-1.3.2-.3 0-.5 0-.8-.1s-.4-.2-.5-.4c-.1-.2-.2-.4-.2-.6 0-.2-.1-.6-.1-1.1V37h-.7v-1.3h.7v-1.2l1.6-.9v2.1h1.3zM98.3 35.7h1.5v.8c.5-.6 1.2-1 1.9-1 .4 0 .7.1 1 .2s.5.4.7.7c.3-.3.6-.6.9-.7.3-.2.6-.2 1-.2s.8.1 1.1.3c.3.2.5.4.7.8.1.3.2.7.2 1.3v3.9h-1.6v-3.5c0-.6-.1-1-.2-1.2-.1-.2-.4-.3-.7-.3-.2 0-.4.1-.6.2s-.3.3-.4.6-.1.7-.1 1.2v2.9H102v-3.3c0-.6 0-1-.1-1.1s-.1-.3-.3-.4c-.1-.1-.3-.1-.5-.1s-.5.1-.7.2-.3.3-.4.6c-.1.2-.1.7-.1 1.2v2.9h-1.6v-6zM110 37.6l-1.5-.3c.2-.6.4-1 .8-1.3.4-.3 1-.4 1.8-.4.7 0 1.2.1 1.6.3.3.2.6.4.7.6.1.3.2.7.2 1.4v1.9c0 .5 0 .9.1 1.2.1.3.1.5.3.8h-1.6c0-.1-.1-.3-.2-.5 0-.1 0-.2-.1-.2-.3.3-.6.5-.9.6-.3.1-.6.2-1 .2-.6 0-1.1-.2-1.5-.5s-.5-.8-.5-1.3c0-.3.1-.6.2-.9s.4-.5.7-.6c.3-.1.7-.3 1.3-.4.7-.1 1.3-.3 1.6-.4v-.2c0-.3-.1-.5-.2-.7-.2-.1-.4-.2-.9-.2-.3 0-.5.1-.7.2 0 .2-.1.4-.2.7zm2.1 1.3c-.2.1-.5.1-1 .2-.4.1-.7.2-.9.3-.2.1-.3.3-.3.6 0 .2.1.4.2.6.2.2.4.2.6.2.3 0 .6-.1.8-.3.2-.1.3-.3.4-.5 0-.1.1-.4.1-.8v-.3zM118.1 35.7V37H117v3.3c0 .1.1.1.1.2.1.1.2.1.3.1.1 0 .4-.1.6-.2l.1 1.2c-.4.2-.8.2-1.3.2-.3 0-.5 0-.8-.1s-.4-.2-.5-.4c-.1-.2-.2-.4-.2-.6 0-.2-.1-.6-.1-1.1V37h-.7v-1.3h.7v-1.2l1.6-.9v2.1h1.3zM122.7 39.8l1.6.3c-.2.6-.5 1-1 1.3-.4.3-1 .5-1.7.5-1.1 0-1.8-.3-2.3-1-.4-.5-.6-1.2-.6-2.1 0-1 .3-1.8.8-2.4.5-.6 1.2-.9 2-.9.9 0 1.6.3 2.1.9.5.6.8 1.5.7 2.7h-4c0 .5.1.8.4 1.1.2.3.6.4.9.4.3 0 .5-.1.6-.2.3 0 .4-.3.5-.6zm.1-1.6c0-.5-.1-.8-.4-1.1-.2-.2-.5-.4-.8-.4-.3 0-.6.1-.9.4-.2.3-.3.6-.3 1h2.4zM126.3 39.6l-.4-4.2v-2h1.7v2l-.4 4.2h-.9zm-.4 2.2v-1.6h1.6v1.6h-1.6z"/><path class="st8" d="M48.9 49H53v4.4M157 101c0 2.2-1.8 4-4 4H53c-2.2 0-4-1.8-4-4V87c0-2.2 1.8-4 4-4h100c2.2 0 4 1.8 4 4v14z"/><path class="st4" d="M57.8 97.3V89h1.6l3.4 5.6V89h1.6v8.3h-1.7l-3.4-5.4v5.4h-1.5zM69.6 95.4l1.6.3c-.2.6-.5 1-1 1.3-.4.3-1 .5-1.7.5-1.1 0-1.8-.3-2.3-1-.4-.5-.6-1.2-.6-2.1 0-1 .3-1.8.8-2.4.5-.6 1.2-.9 2-.9.9 0 1.6.3 2.1.9.5.6.8 1.5.7 2.7h-4c0 .5.1.8.4 1.1.2.3.6.4.9.4.3 0 .5-.1.6-.2.3-.1.5-.3.5-.6zm.1-1.6c0-.5-.1-.8-.4-1.1-.2-.2-.5-.4-.8-.4-.3 0-.6.1-.9.4-.2.3-.3.6-.3 1h2.4zM73.7 97.3l-1.9-6h1.6l1.1 4 1-4H77l1 4 1.2-4h1.6l-1.9 6h-1.5l-1-3.9-1 3.9h-1.7zM84.9 97.3V89h1.6v3c.5-.6 1.1-.8 1.8-.8s1.3.3 1.8.8.7 1.3.7 2.3c0 1-.2 1.8-.7 2.4s-1.1.8-1.8.8c-.3 0-.7-.1-1-.3-.3-.2-.6-.4-.9-.8v.9h-1.5zm1.5-3.1c0 .6.1 1.1.3 1.4.3.4.6.6 1.1.6.4 0 .7-.2.9-.5.2-.3.4-.8.4-1.4 0-.7-.1-1.2-.4-1.5-.2-.3-.6-.5-1-.5s-.7.1-1 .4-.3.9-.3 1.5zM95.5 95.4l1.6.3c-.2.6-.5 1-1 1.3-.4.3-1 .5-1.7.5-1.1 0-1.8-.3-2.3-1-.4-.5-.6-1.2-.6-2.1 0-1 .3-1.8.8-2.4.5-.6 1.2-.9 2-.9.9 0 1.6.3 2.1.9.5.6.8 1.5.7 2.7h-4c0 .5.1.8.4 1.1.2.3.6.4.9.4.3 0 .5-.1.6-.2.3-.1.5-.3.5-.6zm.1-1.6c0-.5-.1-.8-.4-1.1-.2-.2-.5-.4-.8-.4-.3 0-.6.1-.9.4-.2.3-.3.6-.3 1h2.4zM98 95.6l1.6-.2c.1.3.2.5.4.7.2.2.5.2.9.2s.7-.1.9-.2c.1-.1.2-.2.2-.4 0-.1 0-.2-.1-.3-.1-.1-.3-.1-.5-.2-1.3-.3-2.1-.5-2.5-.8-.5-.3-.7-.8-.7-1.4 0-.5.2-1 .6-1.3.4-.4 1.1-.5 1.9-.5.8 0 1.4.1 1.8.4s.7.7.8 1.2l-1.5.3c-.1-.2-.2-.4-.4-.5-.2-.1-.4-.2-.8-.2s-.7.1-.9.2c-.1.1-.2.2-.2.3 0 .1.1.2.2.3.1.1.6.3 1.5.5s1.4.4 1.8.7c.3.3.5.7.5 1.2 0 .6-.2 1-.7 1.4s-1.1.6-2.1.6c-.8 0-1.5-.2-2-.5-.3-.5-.6-.9-.7-1.5zM107.8 91.3v1.3h-1.1v3.3c0 .1.1.1.1.2.1.1.2.1.3.1.1 0 .4-.1.6-.2l.1 1.2c-.4.2-.8.2-1.3.2-.3 0-.5 0-.8-.1s-.4-.2-.5-.4c-.1-.2-.2-.4-.2-.6 0-.2-.1-.6-.1-1.1v-2.6h-.7v-1.3h.7v-1.2l1.6-.9v2.1h1.3zM111.4 91.3h.9v-.5c0-.5.1-.9.2-1.1.1-.2.3-.5.6-.6s.7-.2 1.1-.2c.5 0 .9.1 1.3.2l-.2 1.1c-.3-.1-.5-.1-.7-.1-.2 0-.4.1-.5.2s-.2.3-.2.6v.4h1.2v1.3h-1.2v4.8h-1.6v-4.8h-.9v-1.3zM117.5 97.3h-1.6v-6h1.5v.9c.3-.4.5-.7.7-.8.2-.1.4-.2.7-.2.4 0 .7.1 1.1.3l-.5 1.4c-.3-.2-.5-.3-.8-.3-.2 0-.4.1-.6.2s-.3.3-.4.7-.1 1-.1 2v1.8zM120.5 90.5V89h1.6v1.5h-1.6zm0 6.8v-6h1.6v6h-1.6zM127.3 95.4l1.6.3c-.2.6-.5 1-1 1.3-.4.3-1 .5-1.7.5-1.1 0-1.8-.3-2.3-1-.4-.5-.6-1.2-.6-2.1 0-1 .3-1.8.8-2.4.5-.6 1.2-.9 2-.9.9 0 1.6.3 2.1.9.5.6.8 1.5.7 2.7h-4c0 .5.1.8.4 1.1.2.3.6.4.9.4.3 0 .5-.1.6-.2.3-.1.4-.3.5-.6zm.1-1.6c0-.5-.1-.8-.4-1.1-.2-.2-.5-.4-.8-.4-.3 0-.6.1-.9.4-.2.3-.3.6-.3 1h2.4zM135.8 97.3h-1.6v-3.1c0-.7 0-1.1-.1-1.3s-.2-.3-.3-.4c-.2-.1-.3-.2-.6-.2s-.5.1-.7.2c-.2.2-.4.4-.5.6-.1.2-.1.7-.1 1.4v2.7h-1.6v-6h1.5v.9c.5-.7 1.2-1 2-1 .4 0 .7.1 1 .2.3.1.5.3.7.5.2.2.3.4.3.7.1.3.1.6.1 1.1v3.7zM142.9 97.3h-1.5v-.9c-.2.3-.5.6-.9.8-.3.2-.7.3-1 .3-.7 0-1.3-.3-1.8-.8s-.7-1.3-.7-2.3c0-1 .2-1.8.7-2.3.5-.5 1.1-.8 1.8-.8s1.3.3 1.8.8v-3h1.6v8.2zm-4.2-3.1c0 .6.1 1.1.3 1.4.3.4.6.6 1.1.6.4 0 .7-.2.9-.5.3-.3.4-.8.4-1.4 0-.7-.1-1.2-.4-1.5-.2-.3-.6-.5-1-.5s-.7.2-1 .5c-.2.3-.3.8-.3 1.4zM143.9 95.6l1.6-.2c.1.3.2.5.4.7.2.2.5.2.9.2s.7-.1.9-.2c.1-.1.2-.2.2-.4 0-.1 0-.2-.1-.3-.1-.1-.3-.1-.5-.2-1.3-.3-2.1-.5-2.5-.8-.5-.3-.7-.8-.7-1.4 0-.5.2-1 .6-1.3.4-.4 1.1-.5 1.9-.5.8 0 1.4.1 1.8.4s.7.7.8 1.2l-1.5.3c-.1-.2-.2-.4-.4-.5-.2-.1-.4-.2-.8-.2s-.7.1-.9.2c-.1.1-.2.2-.2.3 0 .1.1.2.2.3.1.1.6.3 1.5.5s1.4.4 1.8.7c.3.3.5.7.5 1.2 0 .6-.2 1-.7 1.4s-1.1.6-2.1.6c-.8 0-1.5-.2-2-.5-.2-.5-.5-.9-.7-1.5z"/><path class="st8" d="M76.7 105H81v4"/></svg>