<svg xmlns="http://www.w3.org/2000/svg" version="1.1" x="0" y="0" viewBox="0 0 167.1 84.7" xml:space="preserve"><style type="text/css">
	.st0{fill:#EBFAFD;}
	.st1{fill:#9CEBFC;}
	.st2{fill:#2AC4F3;}
	.st3{fill:#F5F5F5;}
	.st4{fill:#D5D5D5;}
	.st5{fill:#999999;}
</style><path class="st0" d="M44.3 36c-2.2 0-3.9-1.8-3.9-3.9V18.6l-9-9.3h9V4.4c0-2.2 1.8-3.9 3.9-3.9h117.4c2.2 0 3.9 1.8 3.9 3.9v27.7c0 2.2-1.8 3.9-3.9 3.9C161.7 36 44.3 36 44.3 36z"/><path class="st1" d="M161.7 1c1.9 0 3.4 1.5 3.4 3.4v27.7c0 1.9-1.5 3.4-3.4 3.4H44.3c-1.9 0-3.4-1.5-3.4-3.4V18.4l-0.3-0.3 -8-8.3h8.3V4.4c0-1.9 1.5-3.4 3.4-3.4H161.7M161.7 0H44.3c-2.4 0-4.4 2-4.4 4.4v4.4h-9.7l9.7 10v13.3c0 2.4 2 4.4 4.4 4.4h117.4c2.4 0 4.4-2 4.4-4.4V4.4C166.1 2 164.1 0 161.7 0z"/><path class="st2" d="M62.9 23.4H61c-0.2 0-0.3-0.1-0.3-0.3v-4.2h-3.6v4.2c0 0.2-0.1 0.3-0.3 0.3H55c-0.2 0-0.3-0.1-0.3-0.3V13c0-0.2 0.1-0.3 0.3-0.3h1.9c0.2 0 0.3 0.1 0.3 0.3v3.8h3.6V13c0-0.2 0.1-0.3 0.3-0.3H63c0.2 0 0.3 0.1 0.3 0.3v10.1C63.2 23.3 63.1 23.4 62.9 23.4zM71.7 20h-4.6c0 0.8 0.3 1.6 1.5 1.6 0.9 0 2.2-0.1 2.8-0.1 0.2 0 0.3 0.1 0.3 0.2v1.1c0 0.2-0.1 0.3-0.3 0.4 -0.9 0.2-1.7 0.3-3 0.3 -1.7 0-3.6-0.9-3.6-3.7v-1c0-2.3 1.4-3.8 3.6-3.8 2.4 0 3.6 1.6 3.6 3.8v0.8C72 19.9 71.9 20 71.7 20zM69.8 18.5c0-1.1-0.5-1.6-1.3-1.6s-1.3 0.5-1.3 1.6v0.1C67.2 18.6 69.8 18.5 69.8 18.5zM80.6 15.5L78.2 24c-0.4 1.6-1 2.3-3.2 2.3 -0.5 0-1.4-0.1-1.7-0.2C73.1 26 73 26 73 25.8v-1.2c0-0.2 0.1-0.3 0.3-0.3 0.5 0 1.3 0.1 1.8 0.1s0.8-0.2 1-0.7l0.1-0.4H76c-0.5 0-1-0.1-1.3-1.3l-1.9-6.5v-0.1c0-0.1 0.1-0.2 0.3-0.2H75c0.1 0 0.2 0.1 0.3 0.3l1.3 5.4c0 0.2 0.1 0.3 0.2 0.3H77l1.3-5.7c0-0.1 0.1-0.3 0.3-0.3h1.9C80.5 15.1 80.6 15.2 80.6 15.5 80.6 15.4 80.6 15.4 80.6 15.5zM83.4 21.3L82 24.5c-0.1 0.2-0.1 0.3-0.3 0.3h-1.3c-0.1 0-0.2-0.1-0.2-0.2v-0.1l0.9-3.2c0-0.2 0.1-0.3 0.3-0.3h1.8c0.1 0 0.2 0.1 0.2 0.2C83.5 21.2 83.4 21.3 83.4 21.3zM95.5 23.4h-1.7c-0.2 0-0.3-0.1-0.3-0.3v-4.8c0-1-0.2-1.3-1.1-1.3 -0.4 0-0.9 0.2-1.4 0.5v5.7c0 0.2-0.1 0.3-0.3 0.3H89c-0.2 0-0.3-0.1-0.3-0.3v-7.7c0-0.2 0.1-0.3 0.3-0.3h1.6c0.2 0 0.3 0.1 0.3 0.3v0.3c0.8-0.6 1.4-0.7 2.3-0.7 2.1 0 2.5 1.5 2.5 3.3v4.8C95.8 23.2 95.6 23.4 95.5 23.4zM99.7 14.2h-1.9c-0.2 0-0.3-0.1-0.3-0.3v-1.3c0-0.2 0.1-0.3 0.3-0.3h1.9c0.2 0 0.3 0.1 0.3 0.3v1.3C99.9 14.1 99.8 14.2 99.7 14.2zM99.6 23.4h-1.8c-0.2 0-0.3-0.1-0.3-0.3v-7.7c0-0.2 0.1-0.3 0.3-0.3h1.8c0.2 0 0.3 0.1 0.3 0.3v7.7C99.9 23.3 99.8 23.4 99.6 23.4zM106.7 23.3c-0.4 0.1-1.1 0.2-1.9 0.2 -2 0-3.4-1.3-3.4-3.6v-1.2c0-2.3 1.3-3.6 3.4-3.6 0.9 0 1.5 0.1 1.9 0.2 0.2 0.1 0.3 0.1 0.3 0.3v1.3c0 0.1-0.1 0.2-0.3 0.2 -0.5-0.1-0.9-0.1-1.8-0.1 -0.6 0-1.2 0.4-1.2 1.7v1.2c0 1.3 0.5 1.7 1.2 1.7 0.8 0 1.2 0 1.8-0.1 0.1 0 0.3 0.1 0.3 0.2V23C107 23.2 106.9 23.2 106.7 23.3zM114.9 20h-4.6c0 0.8 0.3 1.6 1.5 1.6 0.9 0 2.2-0.1 2.8-0.1 0.2 0 0.3 0.1 0.3 0.2v1.1c0 0.2-0.1 0.3-0.3 0.4 -0.9 0.2-1.7 0.3-3 0.3 -1.7 0-3.6-0.9-3.6-3.7v-1c0-2.3 1.4-3.8 3.6-3.8 2.4 0 3.6 1.6 3.6 3.8v0.8C115.2 19.9 115.1 20 114.9 20zM112.9 18.5c0-1.1-0.5-1.6-1.3-1.6s-1.3 0.5-1.3 1.6v0.1C110.3 18.6 112.9 18.5 112.9 18.5zM123.9 23.5c-0.3 0-0.8 0-1.2-0.1v2.5c0 0.2-0.1 0.3-0.3 0.3h-1.7c-0.2 0-0.3-0.1-0.3-0.3V15.8c0-0.2 0.1-0.3 0.4-0.4 0.8-0.2 2-0.4 3.1-0.4 2.3 0 3.6 1.4 3.6 3.7v1.1C127.6 22.1 126.4 23.5 123.9 23.5zM125.2 18.7c0-1-0.3-1.8-1.3-1.8 -0.5 0-0.9 0-1.2 0.1v4.5c0.3 0 0.8 0.1 1.2 0.1 1 0 1.3-0.8 1.3-1.8C125.2 19.8 125.2 18.7 125.2 18.7zM135.1 23.4h-1.6c-0.2 0-0.3-0.1-0.3-0.3v-0.2c-0.6 0.4-1.1 0.6-2 0.6 -1.3 0-2.5-0.6-2.5-2.5v-0.1c0-1.7 1.1-2.4 3.5-2.4h0.8V18c0-0.8-0.4-1-1.1-1 -0.9 0-1.9 0.1-2.4 0.1h-0.1c-0.1 0-0.3-0.1-0.3-0.3v-1.2c0-0.2 0.1-0.3 0.3-0.3 0.5-0.1 1.5-0.3 2.5-0.3 2.1 0 3.4 0.8 3.4 2.9V23C135.4 23.3 135.3 23.4 135.1 23.4L135.1 23.4zM133.1 19.9h-0.8c-1 0-1.3 0.3-1.3 1.1 0 0.6 0.3 0.7 0.9 0.7 0.4 0 0.8-0.1 1.2-0.3L133.1 19.9 133.1 19.9zM143.5 23.1c-0.8 0.2-2 0.4-3.1 0.4 -2.3 0-3.6-1.4-3.6-3.7v-1.1c0-2.3 1.2-3.7 3.6-3.7 0.3 0 0.8 0 1.2 0.1v-2.5c0-0.2 0.1-0.3 0.3-0.3h1.7c0.2 0 0.3 0.1 0.3 0.3v10.1C144 23 143.9 23.1 143.5 23.1zM141.7 17c-0.3 0-0.8-0.1-1.2-0.1 -1 0-1.3 0.7-1.3 1.8v1.1c0 1 0.3 1.8 1.3 1.8 0.5 0 0.9 0 1.2-0.1V17zM148 12.6l-0.3 7.2c0 0.2-0.1 0.3-0.3 0.3h-1.2c-0.2 0-0.3-0.1-0.3-0.3l-0.3-7.2c0-0.1 0.2-0.3 0.3-0.3h1.8C147.9 12.3 148 12.5 148 12.6zM147.7 23.4H146c-0.2 0-0.3-0.1-0.3-0.3v-1.8c0-0.2 0.1-0.3 0.3-0.3h1.7c0.2 0 0.3 0.1 0.3 0.3v1.8C147.9 23.3 147.8 23.4 147.7 23.4z"/><path class="st3" d="M13.3 26.1c-7.1 0-12.8-5.7-12.8-12.8S6.2 0.5 13.3 0.5s12.8 5.7 12.8 12.8C26.1 20.3 20.3 26.1 13.3 26.1z"/><path class="st4" d="M13.3 1c6.8 0 12.3 5.5 12.3 12.3s-5.5 12.3-12.3 12.3S1 20.1 1 13.3 6.5 1 13.3 1M13.3 0C6 0 0 6 0 13.3s6 13.3 13.3 13.3 13.3-6 13.3-13.3S20.6 0 13.3 0z"/><path class="st4" d="M15.9 15.3c1.5-0.9 2.5-2.5 2.5-4.3 0-2.8-2.2-5-5-5s-5 2.2-5 5c0 1.8 1 3.4 2.5 4.3 -2.8 1.7-5.6 4.4-5.1 8.8 2.2 1.5 4.8 2.5 7.7 2.5s5.5-0.9 7.7-2.5C21.5 19.7 18.6 17 15.9 15.3z"/><path class="st3" d="M5.4 84.2c-2.2 0-3.9-1.8-3.9-3.9V52.6c0-2.2 1.8-3.9 3.9-3.9h117.4c2.2 0 3.9 1.8 3.9 3.9v4.9h9l-9 9.3v13.5c0 2.2-1.8 3.9-3.9 3.9C122.8 84.2 5.4 84.2 5.4 84.2z"/><path class="st4" d="M122.8 49.2c1.9 0 3.4 1.5 3.4 3.4V58h8.3l-8 8.3 -0.3 0.3v13.7c0 1.9-1.5 3.4-3.4 3.4H5.4c-1.9 0-3.4-1.5-3.4-3.4V52.6c0-1.9 1.5-3.4 3.4-3.4H122.8M122.8 48.2H5.4c-2.4 0-4.4 2-4.4 4.4v27.7c0 2.4 2 4.4 4.4 4.4h117.4c2.4 0 4.4-2 4.4-4.4V67l9.7-10h-9.7v-4.4C127.3 50.2 125.3 48.2 122.8 48.2z"/><path class="st5" d="M44.2 62.9h-2.3v8.4c0 0.2-0.1 0.3-0.3 0.3h-1.9c-0.2 0-0.3-0.1-0.3-0.3v-8.4h-2.3c-0.2 0-0.3-0.1-0.3-0.3v-1.4c0-0.2 0.1-0.3 0.3-0.3h7.1c0.2 0 0.3 0.1 0.3 0.3v1.5C44.5 62.8 44.4 62.9 44.2 62.9zM52.5 71.6h-1.7c-0.2 0-0.3-0.1-0.3-0.3v-4.8c0-1-0.2-1.3-1.1-1.3 -0.4 0-0.9 0.2-1.4 0.5v5.7c0 0.2-0.1 0.3-0.3 0.3H46c-0.2 0-0.3-0.1-0.3-0.3V60.8c0-0.2 0.1-0.3 0.3-0.3h1.8c0.2 0 0.3 0.1 0.3 0.3v3c0.7-0.5 1.3-0.6 2.2-0.6 2.1 0 2.5 1.5 2.5 3.3v4.8C52.8 71.4 52.7 71.6 52.5 71.6zM60.6 71.6H59c-0.2 0-0.3-0.1-0.3-0.3v-0.2c-0.6 0.4-1.1 0.6-2 0.6 -1.3 0-2.5-0.6-2.5-2.5v-0.1c0-1.7 1.1-2.4 3.5-2.4h0.8v-0.5c0-0.8-0.4-1-1.1-1 -0.9 0-1.9 0.1-2.4 0.1h-0.1c-0.1 0-0.3-0.1-0.3-0.3v-1.2c0-0.2 0.1-0.3 0.3-0.3 0.5-0.1 1.5-0.3 2.5-0.3 2.1 0 3.4 0.8 3.4 2.9v5.1C60.9 71.5 60.8 71.6 60.6 71.6zM58.6 68.1h-0.8c-1 0-1.3 0.3-1.3 1.1 0 0.6 0.3 0.7 0.9 0.7 0.4 0 0.8-0.1 1.2-0.3C58.6 69.6 58.6 68.1 58.6 68.1zM69.4 71.6h-1.7c-0.2 0-0.3-0.1-0.3-0.3v-4.8c0-1-0.2-1.3-1.1-1.3 -0.4 0-0.9 0.2-1.4 0.5v5.7c0 0.2-0.1 0.3-0.3 0.3H63c-0.2 0-0.3-0.1-0.3-0.3v-7.7c0-0.2 0.1-0.3 0.3-0.3h1.6c0.2 0 0.3 0.1 0.3 0.3V64c0.8-0.6 1.4-0.7 2.3-0.7 2.1 0 2.5 1.5 2.5 3.3v4.8C69.7 71.4 69.6 71.6 69.4 71.6zM78.6 63.6l-2.7 3.6 2.7 4v0.1c0 0.1-0.1 0.2-0.2 0.2h-2.2c-0.2 0-0.2 0-0.4-0.2l-2.1-3.4v3.3c0 0.2-0.1 0.3-0.3 0.3h-1.7c-0.2 0-0.3-0.1-0.3-0.3V60.8c0-0.2 0.1-0.3 0.3-0.3h1.7c0.2 0 0.3 0.1 0.3 0.3v6l2.2-3.3c0.1-0.2 0.3-0.2 0.4-0.2h2.1c0.1 0 0.2 0.1 0.2 0.2C78.6 63.5 78.6 63.6 78.6 63.6zM82.6 71.7c-0.8 0-1.9-0.1-2.6-0.3 -0.2 0-0.3-0.2-0.3-0.3v-1.2c0-0.1 0.1-0.3 0.3-0.3h0.1c0.8 0.1 2 0.2 2.4 0.2 0.7 0 0.9-0.2 0.9-0.6 0-0.2-0.1-0.4-0.5-0.6l-1.9-1c-0.8-0.5-1.3-1.2-1.3-2.1 0-1.5 1-2.2 3-2.2 1.1 0 1.8 0.1 2.6 0.3 0.2 0 0.3 0.2 0.3 0.3v1.2c0 0.2-0.1 0.3-0.2 0.3 -0.4-0.1-1.7-0.2-2.4-0.2 -0.6 0-0.8 0.1-0.8 0.4 0 0.2 0.2 0.3 0.4 0.5l1.8 1c1.2 0.7 1.5 1.4 1.5 2.2C85.7 70.7 84.7 71.7 82.6 71.7zM89.5 60.8L89.2 68c0 0.2-0.1 0.3-0.3 0.3h-1.2c-0.2 0-0.3-0.1-0.3-0.3l-0.3-7.2c0-0.1 0.2-0.3 0.3-0.3h1.8C89.4 60.5 89.5 60.7 89.5 60.8zM89.1 71.6h-1.7c-0.2 0-0.3-0.1-0.3-0.3v-1.8c0-0.2 0.1-0.3 0.3-0.3h1.7c0.2 0 0.3 0.1 0.3 0.3v1.8C89.4 71.5 89.3 71.6 89.1 71.6z"/><path class="st3" d="M153.8 74.3c-7.1 0-12.8-5.7-12.8-12.8 0-7.1 5.7-12.8 12.8-12.8s12.8 5.7 12.8 12.8C166.6 68.5 160.9 74.3 153.8 74.3z"/><path class="st4" d="M153.8 49.2c6.8 0 12.3 5.5 12.3 12.3s-5.5 12.3-12.3 12.3 -12.3-5.5-12.3-12.3S147.1 49.2 153.8 49.2M153.8 48.2c-7.3 0-13.3 6-13.3 13.3s6 13.3 13.3 13.3 13.3-6 13.3-13.3S161.2 48.2 153.8 48.2z"/><path class="st4" d="M151.3 63.5c-1.5-0.9-2.5-2.5-2.5-4.3 0-2.8 2.2-5 5-5s5 2.2 5 5c0 1.8-1 3.4-2.5 4.3 2.8 1.7 5.6 4.4 5.1 8.8 -2.2 1.5-4.8 2.5-7.7 2.5s-5.5-0.9-7.7-2.5C145.7 67.9 148.5 65.2 151.3 63.5L151.3 63.5z"/></svg>