<svg xmlns="http://www.w3.org/2000/svg" viewBox="0 0 164 109"><style>.st0{fill:#00b67a;} .st1{fill:#14C8F6;} .st2{fill:#FFA500;} .st3{fill:#2AC4F3;} .st4{fill:#FFFFFF;} .st5{fill:#00658F;} .st6{fill:#FCC588;} .st7{fill:#E1F3FC;} .st8{fill:#00B8F1;} .st9{fill:#FBB56B;} .st10{fill:#FDDAB4;} .st11{fill:#F5841F;} .st12{fill:#005F8A;} .st13{fill:#F9A51A;} .st14{fill:#7ED2F6;} .st15{fill:#1E78A0;} .st16{fill:#FDCF9F;} .st17{fill:#FAB46B;} .st18{fill-rule:evenodd;clip-rule:evenodd;fill:#FFFFFF;} .st19{fill:#ABE0F9;} .st20{fill:#FCFCE2;} .st21{fill:#FFDF00;} .st22{fill:#EBFAFD;} .st23{fill:#9CEBFC;} .st24{fill:#E1F4FC;} .st25{fill:#F99B1A;} .st26{fill:#FF7A00;} .st27{fill:#CCECFB;} .st28{fill:none;} .st29{fill:none;stroke:#14C8F6;stroke-width:1.0922;stroke-miterlimit:10;} .st30{opacity:0.5;fill:#C1F0F8;} .st31{fill:#F5F5F5;} .st32{fill:#D5D5D5;} .st33{fill:url(#SVGID_1_);} .st34{fill:#FF9600;} .st35{fill:#999999;} .st36{fill:#FDE3C6;} .st37{opacity:0.25;fill:#00B8F1;} .st38{fill:#DFF7FC;} .st39{fill:none;stroke:#00658F;stroke-width:1.4101;stroke-linecap:round;stroke-miterlimit:10;} .st40{fill:#FF8500;} .st41{opacity:0.49;fill:url(#SVGID_2_);} .st42{opacity:0.35;fill:#00B8F1;} .st43{fill:#003D5D;} .st44{fill:#EB6C00;} .st45{fill:#E26600;} .st46{fill:#8DD7F7;} .st47{fill:none;stroke:#FFFFFF;stroke-width:0.4909;} .st48{fill:none;stroke:#FFFFFF;stroke-width:0.4038;} .st49{fill:#3E87A8;} .st50{clip-path:url(#SVGID_4_);fill:none;stroke:#FFFFFF;stroke-width:0.7294;} .st51{fill:#C1F0FA;} .st52{clip-path:url(#SVGID_6_);} .st53{fill:none;stroke:#FF9600;stroke-width:4;stroke-miterlimit:10;} .st54{fill:#D9F1FC;} .st55{fill:url(#);}</style><path class="st0" d="M7 44h149v65H7z"/><path class="st5" d="M0 79h164v30H0z"/><path class="st5" d="M0 61h21v48H0zM142 61h22v48h-22z"/><path class="st1" d="M132 48.9v-.7c0-4.3-3.4-7.7-7.7-7.7v16.2l7.7-7.8zM94.6 40.5c-4.3 0-7.6 3.5-7.6 7.8v.6l7.7 7.8-.1-16.2z"/><path class="st1" d="M124 77.5l-30-4.1V55.6l-5.2-5.8 5.8-9.8h29.7l6 9.5-6.3 6.3"/><path class="st4" d="M104 49v5h-.1c.1 4 2.1 5.2 5.1 5.5V67h-4v1h9v-1h-4v-7.5c2-.3 4.7-1.5 4.8-5.5h.2v-5h-11z"/><path class="st5" d="M104.7 54c0 3 2.1 4.6 4.6 4.6 2.6 0 4.6-1.6 4.6-4.6h-9.2z"/><path class="st1" d="M124.5 66.9l-29.4-1.6L89.4 79h40.2"/><path class="st6" d="M132 48.5l-7.9 7.8-.1.7v6.1l8-2.5M105.8 74.9s-.1 0 0 0c-1-2.4.1-5.1 2.5-6.1s5.1 0 6.1 2.4v-.1l11.8 28.6-8.6 3.6-11.8-28.4z"/><path class="st1" d="M116.8 101.7l.7 1.6c2 4.8 7.4 7 12.2 5l-4.2-10.2-8.7 3.6z"/><path class="st10" d="M104.3 71.3s0-.1 0 0c-1-2.4-3.7-3.5-6.1-2.5-2.4 1-3.5 3.8-2.5 6.2v.1l10.6 25.6 8.6-3.6-10.6-25.8z"/><path class="st1" d="M114.2 95.2l.7 1.6c2 4.8-.3 10.2-5 12.2l-4.2-10.2 8.5-3.6z"/><path class="st6" d="M132.1 60.6c0 4.3-3.4 7.8-7.7 7.8H109c0-4.3 3.4-7.8 7.7-7.8h15.4z"/><path class="st10" d="M87 48.5l7.4 7.8-.4.7v6.1l-7-2.5"/><path class="st10" d="M86.9 60.6c0 4.3 3.4 7.8 7.7 7.8H110c0-4.3-3.4-7.8-7.7-7.8H86.9z"/><path class="st11" d="M131.5 42.4c3.1-3.1 3.1-8.1 0-11.2l-5.5-5.5c-3.1 3.1-3.1 8.1 0 11.2l5.5 5.5z"/><path class="st6" d="M110.7 35h-2c-1.7 0-2.7 1.3-2.7 3v2c0 1.7 1 3 2.7 3h2c1.7 0 3.3-1.3 3.3-3v-2c0-1.7-1.6-3-3.3-3z"/><path class="st9" d="M114 40v-3h-4v6h.7c1.7 0 3.3-1.3 3.3-3z"/><path class="st11" d="M112 0h-8.9C95.7 0 90 5.7 90 13.1V22c0 7.4 5.7 13 13.1 13h8.9c7.4 0 13-5.6 13-13v-8.9C125 5.7 119.4 0 112 0z"/><path class="st11" d="M127 13.4C127 6 121 0 113.7 0h-8.5C97.8 0 92 6 92 13.4v8.4c0 7.4 5.8 13.2 13.2 13.2h8.5c7.4 0 13.3-5.8 13.3-13.2v-8.4z"/><path class="st6" d="M126.5 20h-3.1l-.3-2.4c0-6.8-2.9-11.6-9.6-11.6h-8.1C98.6 6 93 11.5 93 18.2v.5c2 2.2 2 6.1.1 8.3.3 6.5 5.7 11.9 12.3 11.9h8.1c6.7 0 12.2-6 12.2-12h.8c.9 0 1.5-1.3 1.5-2.2v-3.2c0-.9-.6-1.5-1.5-1.5z"/><path class="st10" d="M105.3 6C98.6 6 93 11.5 93 18.2V20h-.7c-.9 0 1.7.6 1.7 1.5v3.2c0 .9-.6.5.4.5l-1.1 1.4c.1 6.7 5.4 12.3 12.1 12.3h.7V6h-.8z"/><path class="st11" d="M93 12v9c0 1.5 1 2.8 2 2.8V12h-2zM124 12v9c0 1.5-1 2.8-3 2.8V12h3z"/><path class="st11" d="M124 6h-9.6c0 6 3.6 11.8 9.6 13.7V6z"/><path class="st12" d="M104.2 24c0-2-1.2-2.7-2.7-2.7-1.5 0-2.7.7-2.7 2.7h5.4zM114.4 24c0-2-1.2-2.7-2.7-2.7-1.5 0-2.7.7-2.7 2.7h5.4z"/><path class="st6" d="M106.495 23.337l2.97 2.97-2.97 2.97-2.97-2.97z"/><path class="st11" d="M113.8 5.6l-21.3.1c-1.2 1.9-2.5 5.4-2.5 7.9v7c0 2.6.6 5.5 2 6.5h.2c11.9-.1 21.6-9.6 21.6-21.5z"/><path class="st13" d="M107.6 0h-4.5C95.7 0 90 5.7 90 13.1V20.9c10-1.8 17.5-10.6 17.6-20.9z"/><path class="st4" d="M102.9 32c0 1 1.3 2 3 2h1.3c1.7 0 3-1 3-2h-7.3z"/><path class="st12" d="M39.3 43.5C36 43.5 33 46.4 33 50l6 6.6v-6.3l2.4-5.7-2.1-1.1z"/><path class="st8" d="M38 39h28v7H38z"/><path class="st12" d="M64 73.1V44H39v24.2"/><path class="st8" d="M59.5 38.5l5.4 5.4c3.3 3.3 8.7 3.3 12.1 0L65.6 32.5l-6.1 6z"/><path class="st6" d="M64 76.9c4 0 6-2.9 6-6.6V49.9c0-3.7-2 2-6 2v25z"/><path class="st0" d="M49.1 72.4l15.2-15.3-7 1.9H39.2"/><path class="st0" d="M64 43.5c4 0 7 2.5 7 6.2v.6l-7 6.9V43.5z"/><path class="st0" d="M66.3 55l2.5-4H61c-5.3 0-9.5 4-9.5 9h9.8l5-5z"/><path class="st0" d="M42.5 51c5.3 0 9.5 4 9.5 9H39v-9h3.5z"/><path class="st6" d="M53.1 38h-2.2c-1.8 0-2.9.8-2.9 2.6v2.2c0 1.8 1.1 3.2 2.9 3.2h2.2c1.8 0 3.9-1.4 3.9-3.2v-2.2c0-1.8-2.1-2.6-3.9-2.6z"/><path class="st9" d="M57 42.8V39h-6v7h2.1c1.8 0 3.9-1.4 3.9-3.2z"/><path class="st8" d="M44 12.1v38.2c-7 0-11-5.3-11-11.7v-21l11-5.5z"/><path class="st8" d="M56.5 0H47c-8 0-14 6-14 13.9v9.5c0 8 6 14.6 14 14.6h9.5C64.4 38 70 48.7 70 40.8V13.9C70 6 64.4 0 56.5 0z"/><path class="st6" d="M70 21.1l-.5-1.7C69.5 12.1 63.3 6 56.1 6h-8.7C40.1 6 34 12.2 34 19.4V21l.2 1.6c.1 7 15.6 2.3 14.4 18.3h7.5C63.3 41 70 35.5 70 28.5v-7.4z"/><path class="st10" d="M53.3 6C46 6 38 12.2 38 19.5v1.6l.1 7.3c.1 7 5.8 12.6 13 12.6H57V6h-3.7z"/><path class="st8" d="M39 22.5h6.3c9 0 16.4-7.3 16.4-16.4H41l-2 16.4z"/><path class="st8" d="M33 12.4v20.3c0 3.3 3 6 5 6V18.9l7.7-10.7-6.1-3.1-6.6 7.3z"/><path class="st10" d="M41.1 22.5l5.8-5.8c.6-.6 1.6-.6 2.2 0l-7 7-1-1.2z"/><path class="st8" d="M67.8 6h-6.3c0 6 3.2 10.9 7.9 13.6.9.5-.2-6.1.8-5.7L67.8 6z"/><path class="st11" d="M53.8 26c0-2-1.3-2.9-2.9-2.9-1.6 0-2.9.9-2.9 2.9h5.8zM64.7 26c0-2-1.3-2.9-2.9-2.9-1.6 0-2.9.9-2.9 2.9h5.8z"/><path class="st10" d="M56.22 26.095l3.182 3.182-3.182 3.182-3.182-3.184z"/><path class="st11" d="M59.2 34.9v-.1-.4V33h-.1c-.4 1-1 1-1.6 1h-2.7c-.6 0-1.2 0-1.6-1h-.1v1.9c0 .1.1.2.1.3.4.8 1.5 1.5 2.8 1.5 1.3 0 2.4-.6 2.8-1.4.3-.2.4-.3.4-.4z"/><path class="st4" d="M49 49v6h.2c.1 3 1.8 4.6 4.8 4.9V68h-4v1h9v-1h-4v-8.1c3-.3 5-1.9 5.1-4.9H60v-6H49z"/><path class="st5" d="M50 54c0 4 2.1 4.6 4.6 4.6 2.6 0 4.6-.6 4.6-4.6H50z"/><path class="st10" d="M33 49.9l6.4 7.1v1H39v6.7l-6-2.2"/><path class="st10" d="M32.5 62.4c0 3.7 2.9 6.6 6.6 6.6h13.2c0-3-2.9-6.6-6.6-6.6H32.5z"/><path class="st14" d="M64.3 74.9s.1 0 0 0c1-2.4-.1-5.1-2.5-6.1s-5.1 0-6.1 2.4v-.1L44 99.6l8.6 3.6 11.7-28.3z"/><path class="st0" d="M53.3 101.7l-.7 1.6c-2 4.8-7.4 7-12.2 5l4.2-10.2 8.7 3.6z"/><path class="st7" d="M53 102h21.7c3.7 0 6.7 3.6 6.7 7H53v-7z"/><path class="st4" d="M68 94H34.5c-2.4 0-4.5 1.1-6 2.6s-2.5 3.7-2.5 6.1c0 2.4 1 4.5 2.5 6.1l.2.2H68V94z"/><path class="st7" d="M71 103c0 1-.6 2-1.4 2h-9.2c-.8 0-1.4-1-1.4-2h12z"/><path class="st7" d="M61.4 104.1c-.5.5-1.4.5-2 0l-.8-.8c-.5-.5-.5-1.4 0-2l2.8 2.8z"/><path class="st4" d="M69.1 105H47v4h28.4c-.9-2.6-3.4-4-6.3-4zM32.2 96.1l-2.9-2.9c-.4.4-.7 1-.7 1.6 0 .6.2 1.1.7 1.6l1.4 1.4 1.5-1.7z"/><path class="st4" d="M33 97v-4c-1 0-1.6.2-2 .7-.4.4-1 1-1 1.6V97h3z"/><path class="st4" d="M31.8 103.1c1 0 1.9-.6 2.3-1.5.5-1.3-.1-2.7-1.4-3.2-1.3-.5-2.5-1.3-3.4-2.3-4-4-4-10.4 0-14.4 1-1 1-2.5 0-3.4-1-1-2.5-1-3.4 0-5.9 5.9-5.9 15.4 0 21.3 1.5 1.5 3.2 2.6 5.1 3.4.2 0 .5.1.8.1z"/><path class="st7" d="M53 86.2v-1.5c0-4.8 3.9-8.7 8.6-8.7h5.6c4.8 0 8.7 4 8.7 8.7V87h-.1c-.3 6-5.3 10.8-11.4 10.8-6 0-11-4.8-11.4-10.8v-.8z"/><path class="st4" d="M64.5 76h2.8c4.8 0 8.7 4 8.7 8.7V87h-.1C75.6 93 70 97.7 64 97.7V76h.5z"/><path class="st7" d="M73 94l-4.7 4.8c-2.1 2.1-5.4 2-7.4 0L56.1 94H73z"/><path class="st15" d="M63.4 92c0 2 1.9 4.1 4.1 4.1 2.3 0 4.1-2.1 4.1-4.1h-8.2z"/><path class="st4" d="M69.6 79.2l9.1 9.1c1.6-1.6 2.4-3.7 2.4-5.9 0-2.1-.8-4.2-2.4-5.9l-3.2-3.2-5.9 5.9z"/><path class="st15" d="M65.6 92c0 2-1.9 4.1-4.1 4.1-2.3 0-4.1-2.1-4.1-4.1h8.2z"/><path class="st7" d="M75.9 85.1l-4.2-4.2c.5-.5 1.2-.8 1.9-.8s1.4.3 1.9.8l.3.3.1 3.9z"/><path class="st4" d="M70.24 93.63l-1.485-1.484 3.465-3.465 1.485 1.486z"/><path class="st7" d="M55.29 90.26l1.484-1.485 3.465 3.465-1.486 1.485z"/><path class="st15" d="M66.5 87c0-2 .9-2.1 2.1-2.1 1.2 0 2.1.1 2.1 2.1h-4.2z"/><path class="st7" d="M63 78v-4s.6.2.9.6c.4.4.1.9.1 1.4v2h-1z"/><path class="st7" d="M62.4 78.1l-2.7-2.7c.4-.4.9-.6 1.4-.6.5 0 1 .2 1.4.6l1.2 1.2-1.3 1.5z"/><path class="st4" d="M66 77v-2c-1 0-1 .2-1.3.4-.3.3-.7.6-.7 1v.6h2z"/><path class="st7" d="M75.9 81.2l1.9 1.9c-.3.3-.6.4-1 .4s-.7-.1-1-.4l-.9-.9 1-1zM73.7 80.9L71.9 79c-.3.3-.4.6-.4 1s.1.7.4 1l.9.9.9-1z"/><path class="st4" d="M73 94l-5 4.8c-1.1 1.1-2.1 1.6-4.1 1.6V94H73z"/><path class="st15" d="M65.4 96.5l1.5 1.5 4-4-2-1M58.568 94.5l1.485-1.484 3.464 3.465-1.485 1.486z"/><path class="st16" d="M64.5 92l3.5 2.9v2.7c0 .9-.6 1.6-1.1 2.2-.6.6-1.4.9-2.3.9-.9 0-1.4-.3-1.9-.9-.6-.6-.6-1.3-.6-2.2v-2.7l2.4-2.9z"/><path class="st17" d="M62 97.6v-2.7l2-3.1v8.8s-1.1-.3-1.6-.9c-.6-.5-.4-1.2-.4-2.1z"/><path class="st4" d="M64.1 91c0 2 1.7 3.8 3.8 3.8 2.1 0 3.8-1.8 3.8-3.8h-7.6z"/><path class="st7" d="M64.9 91c0 2-1.7 3.8-3.8 3.8-2.1 0-3.8-1.8-3.8-3.8h7.6z"/><path class="st7" d="M66.865 90.18l-2.334 2.333L62.2 90.18l2.333-2.334z"/><circle class="st18" cx="61" cy="85.7" r="4.6"/><path class="st15" d="M58.2 87c0-2 .9-2.1 2.1-2.1 1.2 0 2.1.1 2.1 2.1h-4.2zM66.9 90l-2.4-2.4-2.3 2.4"/><path class="st19" d="M54.3 74.9c1-2.4-.1-5.1-2.5-6.1s-5.1 0-6.1 2.4v-.1L33.9 99.6l8.6 3.6 11.8-28.3z"/><path class="st0" d="M43.2 101.7l-.7 1.6c-2 4.8-7.4 7-12.2 5l4.2-10.2 8.7 3.6z"/><path class="st7" d="M59.3 79.8l-9.1 9.1c-1.6-1.6-2.4-3.7-2.4-5.9 0-2.1.8-4.2 2.4-5.9l3.2-3.2 5.9 5.9z"/><path class="st10" d="M40 22.4c0-.8-.9-1.4-2.1-1.4h-.8c-1.2 0-2.1.6-2.1 1.4v4.2c0 .8.9 1.4 2.1 1.4h.8c1.2 0 2.1-.6 2.1-1.4v-4.2z"/><path class="st8" d="M38 11v11.1c0 1.8 1 3.3 3 3.3V11h-3z"/></svg>