<?xml version="1.0" encoding="UTF-8"?>
<svg width="164px" height="20px" viewBox="0 0 164 20" version="1.1" xmlns="http://www.w3.org/2000/svg" xmlns:xlink="http://www.w3.org/1999/xlink">
    <!-- Generator: sketchtool 51.2 (57519) - http://www.bohemiancoding.com/sketch -->
    <title>3905CE48-7F37-4784-BB7F-C847BCF65B1A</title>
    <desc>Created with sketchtool.</desc>
    <defs>
        <polygon id="path-1" points="0 0.84973913 11.3989565 0.84973913 11.3989565 18.821913 0 18.821913"></polygon>
        <polygon id="path-3" points="0.348608696 0.150869565 13.0573043 0.150869565 13.0573043 13.9130435 0.348608696 13.9130435"></polygon>
        <polygon id="path-5" points="0.657304348 0.150869565 13.3651304 0.150869565 13.3651304 13.9130435 0.657304348 13.9130435"></polygon>
        <polygon id="path-7" points="0.444032609 0.21573913 8.78178309 0.21573913 8.78178309 17.3913043 0.444032609 17.3913043"></polygon>
        <polygon id="path-9" points="0.312956522 0.150869565 13.0207826 0.150869565 13.0207826 13.9130435 0.312956522 13.9130435"></polygon>
        <polygon id="path-11" points="0.00643478261 0.150869565 12.7151304 0.150869565 12.7151304 13.9130435 0.00643478261 13.9130435"></polygon>
    </defs>
    <g id="Page-1" stroke="none" stroke-width="1" fill="none" fill-rule="evenodd">
        <g id="Life-Rent-Free---Yearly" transform="translate(-106.000000, -493.000000)">
            <g id="Group-2" transform="translate(15.000000, 463.000000)">
                <g id="Group-Copy" transform="translate(77.000000, 30.000000)">
                    <g id="Live-Rent-Free-white" transform="translate(14.000000, 0.000000)">
                        <g id="Group-3" transform="translate(0.000000, 0.048435)">
                            <mask id="mask-2" fill="white">
                                <use xlink:href="#path-1"></use>
                            </mask>
                            <g id="Clip-2"></g>
                            <path d="M-0.000173913043,18.2575652 L-0.000173913043,1.41495652 C-0.000173913043,1.05582609 0.205913043,0.84973913 0.564173913,0.84973913 L2.36156522,0.84973913 C2.72156522,0.84973913 2.92678261,1.05582609 2.92678261,1.41495652 L2.92678261,16.0488696 L10.8346087,16.0488696 C11.1937391,16.0488696 11.3989565,16.254087 11.3989565,16.614087 L11.3989565,18.2575652 C11.3989565,18.6166957 11.1937391,18.821913 10.8346087,18.821913 L0.564173913,18.821913 C0.205913043,18.821913 -0.000173913043,18.6166957 -0.000173913043,18.2575652" id="Fill-1" fill="#FFFFFF" mask="url(#mask-2)"></path>
                        </g>
                        <path d="M13.656,18.306 L13.656,6.29034783 C13.656,5.93121739 13.8612174,5.72513043 14.2203478,5.72513043 L15.9151304,5.72513043 C16.2751304,5.72513043 16.4803478,5.93121739 16.4803478,6.29034783 L16.4803478,18.306 C16.4803478,18.6651304 16.2751304,18.8703478 15.9151304,18.8703478 L14.2203478,18.8703478 C13.8612174,18.8703478 13.656,18.6651304 13.656,18.306 M12.9116522,2.15643478 C12.9116522,0.975565217 13.8873043,-8.69565217e-05 15.0681739,-8.69565217e-05 C16.2490435,-8.69565217e-05 17.2246957,0.975565217 17.2246957,2.15643478 C17.2246957,3.33817391 16.2490435,4.31382609 15.0681739,4.31382609 C13.8873043,4.31382609 12.9116522,3.33817391 12.9116522,2.15643478" id="Fill-4" fill="#FFFFFF"></path>
                        <path d="M29.2130435,5.72530435 L31.1643478,5.72530435 C31.5747826,5.72530435 31.753913,5.98182609 31.6008696,6.39313043 L26.773913,18.434 C26.6452174,18.7157391 26.44,18.8705217 26.1321739,18.8705217 L24.2582609,18.8705217 C23.9495652,18.8705217 23.7443478,18.7157391 23.6156522,18.434 L18.7886957,6.39313043 C18.6347826,5.98182609 18.8147826,5.72530435 19.226087,5.72530435 L21.1765217,5.72530435 C21.4852174,5.72530435 21.7417391,5.87921739 21.8443478,6.16095652 L25.1817391,14.814 L28.5452174,6.16095652 C28.6478261,5.87921739 28.9052174,5.72530435 29.2130435,5.72530435" id="Fill-6" fill="#FFFFFF"></path>
                        <g id="Group-10" transform="translate(32.173913, 5.265826)">
                            <mask id="mask-4" fill="white">
                                <use xlink:href="#path-3"></use>
                            </mask>
                            <g id="Clip-9"></g>
                            <path d="M3.14686957,6.54478261 C3.14686957,7.0326087 3.19817391,7.46826087 3.30078261,7.90478261 L9.17991304,3.92565217 C8.64165217,3.00130435 7.63991304,2.77 6.84426087,2.77 C4.63643478,2.77 3.14686957,4.33608696 3.14686957,6.54478261 M12.3894783,8.88130435 C12.7494783,8.49521739 13.0573043,8.59782609 13.0573043,9.11173913 L13.0573043,11.3717391 C13.0573043,11.6534783 12.9807826,11.8586957 12.7494783,12.0647826 C11.5938261,13.0404348 9.71991304,13.9134783 7.43469565,13.9134783 C3.17295652,13.9134783 0.348608696,11.1917391 0.348608696,6.57 C0.348608696,2.8473913 3.14686957,0.150869565 6.84426087,0.150869565 C9.3086087,0.150869565 11.5164348,1.1273913 12.6207826,3.92565217 C12.7494783,4.25956522 12.672087,4.49 12.3894783,4.69608696 L4.50773913,10.0613043 C5.3033913,10.7804348 6.33121739,11.1656522 7.53730435,11.1656522 C9.51469565,11.1656522 11.132087,10.2413043 12.3894783,8.88130435" id="Fill-8" fill="#FFFFFF" mask="url(#mask-4)"></path>
                        </g>
                        <path d="M67.7167826,18.1777391 C68.0246087,18.536 67.8967826,18.8707826 67.4089565,18.8707826 L64.8933043,18.8707826 C64.6106957,18.8707826 64.3793913,18.7933913 64.1993913,18.562087 L58.1150435,11.3994783 C57.9350435,11.1673043 57.8585217,10.9881739 57.8585217,10.7055652 L57.8585217,9.4733913 C57.8585217,9.11426087 58.0637391,8.90904348 58.4228696,8.90904348 L60.528087,8.90904348 C62.0428696,8.90904348 63.3515652,7.98469565 63.3515652,6.34121739 C63.3515652,4.6986087 62.0176522,3.74817391 60.528087,3.74817391 L56.8306957,3.74817391 L56.8306957,18.3055652 C56.8306957,18.6655652 56.6263478,18.8707826 56.2663478,18.8707826 L54.4689565,18.8707826 C54.1098261,18.8707826 53.9046087,18.6655652 53.9046087,18.3055652 L53.9046087,1.46295652 C53.9046087,1.10382609 54.1098261,0.898608696 54.4689565,0.898608696 L60.528087,0.898608696 C63.9428696,0.898608696 66.3567826,2.82469565 66.3567826,6.34121739 C66.3567826,9.34556522 64.6367826,11.1673043 61.9915652,11.6307826 L67.7167826,18.1777391 Z" id="Fill-11" fill="#FFFFFF"></path>
                        <g id="Group-15" transform="translate(67.826087, 5.265826)">
                            <mask id="mask-6" fill="white">
                                <use xlink:href="#path-5"></use>
                            </mask>
                            <g id="Clip-14"></g>
                            <path d="M3.45556522,6.54478261 C3.45556522,7.0326087 3.50686957,7.46826087 3.60947826,7.90478261 L9.4886087,3.92565217 C8.95034783,3.00130435 7.9486087,2.77 7.15295652,2.77 C4.94513043,2.77 3.45556522,4.33608696 3.45556522,6.54478261 M12.6981739,8.88130435 C13.0581739,8.49521739 13.3651304,8.59782609 13.3651304,9.11173913 L13.3651304,11.3717391 C13.3651304,11.6534783 13.2886087,11.8586957 13.0581739,12.0647826 C11.9025217,13.0404348 10.0277391,13.9134783 7.7433913,13.9134783 C3.48078261,13.9134783 0.657304348,11.1917391 0.657304348,6.57 C0.657304348,2.8473913 3.45556522,0.150869565 7.15295652,0.150869565 C9.61730435,0.150869565 11.8251304,1.1273913 12.9294783,3.92565217 C13.0581739,4.25956522 12.9807826,4.49 12.6981739,4.69608696 L4.81643478,10.0613043 C5.61208696,10.7804348 6.63991304,11.1656522 7.846,11.1656522 C9.8233913,11.1656522 11.4407826,10.2413043 12.6981739,8.88130435" id="Fill-13" fill="#FFFFFF" mask="url(#mask-6)"></path>
                        </g>
                        <path d="M95.2324348,10.5266087 L95.2324348,18.3057391 C95.2324348,18.6648696 95.0272174,18.8709565 94.668087,18.8709565 L92.9733043,18.8709565 C92.6133043,18.8709565 92.408087,18.6648696 92.408087,18.3057391 L92.408087,10.8857391 C92.408087,8.96052174 91.3037391,8.0613913 89.6098261,8.0613913 C88.1715652,8.0613913 87.042,8.80573913 86.4263478,10.1413913 L86.4263478,18.3057391 C86.4263478,18.6648696 86.2211304,18.8709565 85.8611304,18.8709565 L84.1663478,18.8709565 C83.8072174,18.8709565 83.602,18.6648696 83.602,18.3057391 L83.602,6.29008696 C83.602,5.93095652 83.8072174,5.72573913 84.1663478,5.72573913 L85.8350435,5.72573913 C86.1950435,5.72573913 86.4011304,5.93095652 86.4011304,6.29008696 L86.4011304,7.06052174 C87.1193913,6.08486957 88.4541739,5.41704348 90.0976522,5.41704348 C93.3063478,5.41704348 95.2324348,7.31704348 95.2324348,10.5266087" id="Fill-16" fill="#FFFFFF"></path>
                        <g id="Group-20" transform="translate(96.521739, 1.787565)">
                            <mask id="mask-8" fill="white">
                                <use xlink:href="#path-7"></use>
                            </mask>
                            <g id="Clip-19"></g>
                            <path d="M6.92321739,14.7470435 C7.23104348,14.7470435 7.64234783,14.7209565 8.10408696,14.6444348 C8.48930435,14.5670435 8.7206087,14.7470435 8.7206087,15.1313913 L8.7206087,16.5696522 C8.7206087,16.9026957 8.56669565,17.1087826 8.23278261,17.1861739 C7.66756522,17.3392174 7.10321739,17.3913913 6.51278261,17.3913913 C3.94495652,17.3913913 2.50756522,16.0044348 2.50756522,13.4887826 L2.50756522,6.88965217 L1.35278261,7.09573913 C0.992782609,7.14704348 0.73626087,6.99313043 0.684956522,6.634 L0.453652174,5.24704348 C0.402347826,4.88791304 0.55626087,4.63052174 0.915391304,4.57921739 L2.50756522,4.29747826 L2.50756522,0.780086957 C2.50756522,0.420086957 2.71278261,0.21573913 3.07191304,0.21573913 L4.76756522,0.21573913 C5.12669565,0.21573913 5.33191304,0.420086957 5.33191304,0.780086957 L5.33191304,3.80965217 L7.87365217,3.34791304 C8.23278261,3.27052174 8.48930435,3.45052174 8.5406087,3.80965217 L8.77191304,5.19573913 C8.82408696,5.55573913 8.66930435,5.81226087 8.31017391,5.86356522 L5.33191304,6.40269565 L5.33191304,13.1035652 C5.33191304,14.2322609 5.89626087,14.7470435 6.92321739,14.7470435" id="Fill-18" fill="#FFFFFF" mask="url(#mask-8)"></path>
                        </g>
                        <path d="M125.521217,3.67113043 L117.509913,3.67113043 L117.509913,8.24156522 C118.023826,8.08765217 118.61513,8.01026087 119.230783,8.01026087 C120.051652,8.01026087 120.61687,8.16417391 121.156,8.31895652 C121.618609,8.44678261 122.080348,8.57547826 122.69687,8.57547826 C123.364696,8.57547826 124.005565,8.49808696 124.827304,8.26765217 C125.213391,8.13895652 125.469043,8.31895652 125.469043,8.72852174 L125.469043,10.3206957 C125.469043,10.6293913 125.316,10.8606957 125.007304,10.9633043 C124.340348,11.1676522 123.59513,11.2972174 122.69687,11.2972174 C121.849043,11.2972174 121.33687,11.1676522 120.848174,11.0146087 C120.386435,10.8606957 119.949043,10.7833043 119.281217,10.7833043 C118.511652,10.7833043 117.947304,10.885913 117.509913,11.1424348 L117.509913,18.305913 C117.509913,18.6650435 117.305565,18.8702609 116.945565,18.8702609 L115.148174,18.8702609 C114.789043,18.8702609 114.583826,18.6650435 114.583826,18.305913 L114.583826,1.46330435 C114.583826,1.10417391 114.789043,0.898956522 115.148174,0.898956522 L125.521217,0.898956522 C125.880348,0.898956522 126.085565,1.10417391 126.085565,1.46330435 L126.085565,3.10678261 C126.085565,3.46591304 125.880348,3.67113043 125.521217,3.67113043" id="Fill-21" fill="#FFFFFF"></path>
                        <path d="M127.211913,18.306 L127.211913,6.29034783 C127.211913,5.93121739 127.41713,5.72513043 127.776261,5.72513043 L129.471043,5.72513043 C129.831043,5.72513043 130.036261,5.93121739 130.036261,6.29034783 L130.036261,7.086 C130.651913,6.05991304 131.936261,5.41730435 133.501478,5.41730435 C133.912783,5.41730435 134.271913,5.44252174 134.580609,5.51991304 C134.913652,5.59730435 135.042348,5.85382609 135.042348,6.16165217 L135.042348,7.88165217 C135.042348,8.26773913 134.811043,8.44686957 134.425826,8.37034783 C134.067565,8.29295652 133.707565,8.24165217 133.373652,8.24165217 C131.499739,8.24165217 130.626696,9.31991304 130.036261,10.3468696 L130.036261,18.306 C130.036261,18.6651304 129.831043,18.8703478 129.471043,18.8703478 L127.776261,18.8703478 C127.41713,18.8703478 127.211913,18.6651304 127.211913,18.306" id="Fill-23" fill="#FFFFFF"></path>
                        <g id="Group-27" transform="translate(135.652174, 5.265826)">
                            <mask id="mask-10" fill="white">
                                <use xlink:href="#path-9"></use>
                            </mask>
                            <g id="Clip-26"></g>
                            <path d="M3.11121739,6.54478261 C3.11121739,7.0326087 3.16252174,7.46826087 3.26513043,7.90478261 L9.14426087,3.92565217 C8.606,3.00130435 7.60426087,2.77 6.8086087,2.77 C4.60078261,2.77 3.11121739,4.33608696 3.11121739,6.54478261 M12.3538261,8.88130435 C12.7138261,8.49521739 13.0207826,8.59782609 13.0207826,9.11173913 L13.0207826,11.3717391 C13.0207826,11.6534783 12.9451304,11.8586957 12.7138261,12.0647826 C11.5581739,13.0404348 9.68426087,13.9134783 7.39904348,13.9134783 C3.13643478,13.9134783 0.312956522,11.1917391 0.312956522,6.57 C0.312956522,2.8473913 3.11121739,0.150869565 6.8086087,0.150869565 C9.27295652,0.150869565 11.4807826,1.1273913 12.586,3.92565217 C12.7138261,4.25956522 12.6364348,4.49 12.3538261,4.69608696 L4.47208696,10.0613043 C5.26773913,10.7804348 6.29556522,11.1656522 7.50165217,11.1656522 C9.47904348,11.1656522 11.0964348,10.2413043 12.3538261,8.88130435" id="Fill-25" fill="#FFFFFF" mask="url(#mask-10)"></path>
                        </g>
                        <g id="Group-30" transform="translate(150.434783, 5.265826)">
                            <mask id="mask-12" fill="white">
                                <use xlink:href="#path-11"></use>
                            </mask>
                            <g id="Clip-29"></g>
                            <path d="M2.80469565,6.54478261 C2.80469565,7.0326087 2.85686957,7.46826087 2.95947826,7.90478261 L8.83773913,3.92565217 C8.29947826,3.00130435 7.29773913,2.77 6.50208696,2.77 C4.29426087,2.77 2.80469565,4.33608696 2.80469565,6.54478261 M12.0481739,8.88130435 C12.4073043,8.49521739 12.7151304,8.59782609 12.7151304,9.11173913 L12.7151304,11.3717391 C12.7151304,11.6534783 12.6386087,11.8586957 12.4073043,12.0647826 C11.2516522,13.0404348 9.37773913,13.9134783 7.09252174,13.9134783 C2.82991304,13.9134783 0.00643478261,11.1917391 0.00643478261,6.57 C0.00643478261,2.8473913 2.80469565,0.150869565 6.50208696,0.150869565 C8.96730435,0.150869565 11.1751304,1.1273913 12.2786087,3.92565217 C12.4073043,4.25956522 12.329913,4.49 12.0481739,4.69608696 L4.16556522,10.0613043 C4.96121739,10.7804348 5.98904348,11.1656522 7.19513043,11.1656522 C9.17252174,11.1656522 10.789913,10.2413043 12.0481739,8.88130435" id="Fill-28" fill="#FFFFFF" mask="url(#mask-12)"></path>
                        </g>
                    </g>
                </g>
            </g>
        </g>
    </g>
</svg>