<?xml version="1.0" encoding="UTF-8"?>
<svg width="322px" height="137px" viewBox="0 0 322 137" version="1.1" xmlns="http://www.w3.org/2000/svg" xmlns:xlink="http://www.w3.org/1999/xlink">
    <!-- Generator: sketchtool 51.2 (57519) - http://www.bohemiancoding.com/sketch -->
    <title>4D165EB2-2119-40A1-89F1-20C7F4D9723F</title>
    <desc>Created with sketchtool.</desc>
    <defs>
        <polygon id="path-1" points="0 0.281 12.0597 0.281 12.0597 16.36 0 16.36"></polygon>
    </defs>
    <g id="Page-1" stroke="none" stroke-width="1" fill="none" fill-rule="evenodd">
        <g id="Logged-out" transform="translate(-27.000000, -231.000000)">
            <g id="Group-142" transform="translate(27.000000, 231.000000)">
                <path d="M36.0142,4.6797 L26.6552,4.6797 L26.6552,10.0197 C27.2542,9.8397 27.9452,9.7497 28.6642,9.7497 C29.6242,9.7497 30.2852,9.9297 30.9142,10.1097 C31.4542,10.2597 31.9942,10.4097 32.7142,10.4097 C33.4942,10.4097 34.2442,10.3197 35.2042,10.0497 C35.6542,9.8997 35.9542,10.1097 35.9542,10.5897 L35.9542,12.4497 C35.9542,12.8097 35.7742,13.0797 35.4142,13.1997 C34.6342,13.4397 33.7642,13.5897 32.7142,13.5897 C31.7242,13.5897 31.1242,13.4397 30.5552,13.2597 C30.0142,13.0797 29.5042,12.9897 28.7242,12.9897 C27.8252,12.9897 27.1642,13.1097 26.6552,13.4087 L26.6552,19.1997 L36.0142,19.1997 C36.4342,19.1997 36.6742,19.4387 36.6742,19.8587 L36.6742,21.7787 C36.6742,22.1987 36.4342,22.4387 36.0142,22.4387 L23.8952,22.4387 C23.4742,22.4387 23.2352,22.1987 23.2352,21.7787 L23.2352,2.0997 C23.2352,1.6797 23.4742,1.4397 23.8952,1.4397 L36.0142,1.4397 C36.4342,1.4397 36.6742,1.6797 36.6742,2.0997 L36.6742,4.0197 C36.6742,4.4397 36.4342,4.6797 36.0142,4.6797" id="Fill-1" fill="#FEFEFE"></path>
                <path d="M49.874,7.0796 L52.154,7.0796 C52.634,7.0796 52.844,7.3796 52.664,7.8596 L47.024,21.9296 C46.874,22.2586 46.634,22.4386 46.274,22.4386 L44.084,22.4386 C43.724,22.4386 43.484,22.2586 43.334,21.9296 L37.695,7.8596 C37.515,7.3796 37.725,7.0796 38.205,7.0796 L40.484,7.0796 C40.844,7.0796 41.145,7.2596 41.265,7.5896 L45.164,17.6996 L49.094,7.5896 C49.214,7.2596 49.514,7.0796 49.874,7.0796" id="Fill-3" fill="#FEFEFE"></path>
                <path d="M57.0146,14.1895 C57.0146,14.7595 57.0746,15.2695 57.1946,15.7795 L64.0646,11.1295 C63.4346,10.0495 62.2646,9.7795 61.3346,9.7795 C58.7546,9.7795 57.0146,11.6095 57.0146,14.1895 M67.8136,16.9195 C68.2346,16.4695 68.5946,16.5895 68.5946,17.1895 L68.5946,19.8295 C68.5946,20.1595 68.5046,20.3985 68.2346,20.6395 C66.8846,21.7785 64.6946,22.7985 62.0246,22.7985 C57.0446,22.7985 53.7446,19.6195 53.7446,14.2195 C53.7446,9.8695 57.0146,6.7195 61.3346,6.7195 C64.2146,6.7195 66.7946,7.8595 68.0846,11.1295 C68.2346,11.5195 68.1436,11.7895 67.8136,12.0295 L58.6046,18.2995 C59.5346,19.1395 60.7346,19.5885 62.1446,19.5885 C64.4546,19.5885 66.3446,18.5095 67.8136,16.9195" id="Fill-5" fill="#FEFEFE"></path>
                <path d="M71.4155,21.7788 L71.4155,7.7398 C71.4155,7.3198 71.6555,7.0798 72.0755,7.0798 L74.0555,7.0798 C74.4755,7.0798 74.7155,7.3198 74.7155,7.7398 L74.7155,8.6698 C75.4355,7.4698 76.9355,6.7198 78.7655,6.7198 C79.2455,6.7198 79.6655,6.7498 80.0245,6.8398 C80.4155,6.9298 80.5645,7.2298 80.5645,7.5898 L80.5645,9.5998 C80.5645,10.0498 80.2955,10.2588 79.8455,10.1698 C79.4255,10.0798 79.0055,10.0198 78.6155,10.0198 C76.4255,10.0198 75.4055,11.2788 74.7155,12.4798 L74.7155,21.7788 C74.7155,22.1988 74.4755,22.4388 74.0555,22.4388 L72.0755,22.4388 C71.6555,22.4388 71.4155,22.1988 71.4155,21.7788" id="Fill-7" fill="#FEFEFE"></path>
                <path d="M94.8452,7.0796 L97.0652,7.0796 C97.5442,7.0796 97.7542,7.4096 97.5742,7.8596 L89.0852,27.9286 C88.9352,28.2586 88.6952,28.4386 88.3352,28.4386 L86.1162,28.4386 C85.6352,28.4386 85.4252,28.1086 85.6052,27.6586 L87.8852,22.2586 L81.9152,7.8596 C81.7362,7.4096 81.9462,7.0796 82.4252,7.0796 L84.8252,7.0796 C85.1852,7.0796 85.4552,7.2596 85.6052,7.5896 L89.7152,17.9386 L94.0952,7.5896 C94.2442,7.2596 94.4852,7.0796 94.8452,7.0796" id="Fill-9" fill="#FEFEFE"></path>
                <path d="M107.5054,21.7788 L107.5054,7.7398 C107.5054,7.3198 107.7454,7.0798 108.1654,7.0798 L110.1154,7.0798 C110.5354,7.0798 110.7754,7.2898 110.7754,7.6798 L110.7754,8.2798 C111.5254,7.1998 112.9354,6.7198 114.2844,6.7198 C116.1754,6.7198 117.5844,7.7698 118.0654,8.9098 C119.1454,7.4398 120.7654,6.7198 122.5044,6.7198 C125.5344,6.7198 127.7844,8.7898 127.7844,11.8798 L127.7844,21.7788 C127.7844,22.1988 127.5444,22.4388 127.1244,22.4388 L125.1454,22.4388 C124.7254,22.4388 124.4844,22.1988 124.4844,21.7788 L124.4844,12.2998 C124.4844,10.6498 123.4354,9.8098 121.9044,9.8098 C120.8854,9.8098 119.8054,10.3798 119.2944,11.4888 L119.2944,21.7788 C119.2944,22.1988 119.0554,22.4388 118.6354,22.4388 L116.6544,22.4388 C116.2344,22.4388 115.9944,22.1988 115.9944,21.7788 L115.9944,12.2998 C115.9944,10.7698 114.7954,9.8098 113.4444,9.8098 C112.4254,9.8098 111.3154,10.3798 110.8054,11.4888 L110.8054,21.7788 C110.8054,22.1988 110.5654,22.4388 110.1454,22.4388 L108.1654,22.4388 C107.7454,22.4388 107.5054,22.1988 107.5054,21.7788" id="Fill-11" fill="#FEFEFE"></path>
                <path d="M142.7847,14.7593 C142.7847,12.0293 141.1947,9.8993 138.4047,9.8993 C135.6147,9.8993 133.9647,12.0293 133.9647,14.7593 C133.9647,17.4893 135.6147,19.6193 138.4047,19.6193 C141.1947,19.6193 142.7847,17.4893 142.7847,14.7593 M130.6047,14.7593 C130.6047,9.6593 134.4447,6.7193 138.4047,6.7193 C142.3647,6.7193 146.1437,9.6593 146.1437,14.7593 C146.1437,19.8593 142.3647,22.7993 138.4047,22.7993 C134.4447,22.7993 130.6047,19.8593 130.6047,14.7593" id="Fill-13" fill="#FEFEFE"></path>
                <path d="M162.7349,12.6895 L162.7349,21.7785 C162.7349,22.1985 162.4949,22.4395 162.0749,22.4395 L160.0939,22.4395 C159.6739,22.4395 159.4349,22.1985 159.4349,21.7785 L159.4349,13.1095 C159.4349,10.8595 158.1449,9.8095 156.1649,9.8095 C154.4849,9.8095 153.1649,10.6795 152.4449,12.2395 L152.4449,21.7785 C152.4449,22.1985 152.2049,22.4395 151.7849,22.4395 L149.8049,22.4395 C149.3849,22.4395 149.1449,22.1985 149.1449,21.7785 L149.1449,7.7395 C149.1449,7.3195 149.3849,7.0795 149.8049,7.0795 L151.7559,7.0795 C152.1749,7.0795 152.4149,7.3195 152.4149,7.7395 L152.4149,8.6395 C153.2549,7.4995 154.8149,6.7195 156.7349,6.7195 C160.4849,6.7195 162.7349,8.9395 162.7349,12.6895" id="Fill-15" fill="#FEFEFE"></path>
                <path d="M172.3354,19.709 C172.6944,19.709 173.1754,19.679 173.7154,19.589 C174.1654,19.499 174.4354,19.709 174.4354,20.159 L174.4354,21.839 C174.4354,22.229 174.2554,22.469 173.8644,22.559 C173.2054,22.739 172.5454,22.799 171.8554,22.799 C168.8554,22.799 167.1754,21.179 167.1754,18.239 L167.1754,10.529 L165.8254,10.77 C165.4054,10.83 165.1054,10.649 165.0454,10.23 L164.7754,8.609 C164.7154,8.189 164.8954,7.89 165.3144,7.83 L167.1754,7.5 L167.1754,3.39 C167.1754,2.97 167.4154,2.73 167.8354,2.73 L169.8144,2.73 C170.2344,2.73 170.4754,2.97 170.4754,3.39 L170.4754,6.93 L173.4444,6.39 C173.8644,6.3 174.1654,6.51 174.2254,6.93 L174.4944,8.549 C174.5554,8.97 174.3754,9.27 173.9554,9.33 L170.4754,9.959 L170.4754,17.789 C170.4754,19.109 171.1354,19.709 172.3354,19.709" id="Fill-17" fill="#FEFEFE"></path>
                <path d="M191.0239,12.6895 L191.0239,21.7785 C191.0239,22.1985 190.7839,22.4395 190.3639,22.4395 L188.3829,22.4395 C187.9629,22.4395 187.7239,22.1985 187.7239,21.7785 L187.7239,13.1095 C187.7239,10.8595 186.4939,9.8095 184.5139,9.8095 C182.7129,9.8095 181.4239,10.7395 180.7339,12.2395 L180.7339,21.7785 C180.7339,22.1985 180.4939,22.4395 180.0739,22.4395 L178.0939,22.4395 C177.6739,22.4395 177.4339,22.1985 177.4339,21.7785 L177.4339,0.6595 C177.4339,0.2395 177.6739,0.0005 178.0939,0.0005 L180.0449,0.0005 C180.4639,0.0005 180.7039,0.2395 180.7039,0.6595 L180.7039,8.6395 C181.5439,7.4995 183.1039,6.7195 185.0239,6.7195 C188.7439,6.7195 191.0239,8.9695 191.0239,12.6895" id="Fill-19" fill="#FEFEFE"></path>
                <path d="M220.8433,7.0796 L223.0633,7.0796 C223.5433,7.0796 223.7533,7.3496 223.6033,7.8296 L218.8033,21.8986 C218.6833,22.2886 218.4133,22.4386 218.0533,22.4386 L216.0433,22.4386 C215.6833,22.4386 215.4133,22.2886 215.2933,21.8986 L212.2033,12.8096 L209.0833,21.8986 C208.9633,22.2886 208.6943,22.4386 208.3333,22.4386 L206.3233,22.4386 C205.9633,22.4386 205.6943,22.2886 205.5733,21.8986 L200.7743,7.8296 C200.6233,7.3496 200.8333,7.0796 201.3143,7.0796 L203.5333,7.0796 C203.9233,7.0796 204.1633,7.2296 204.2833,7.6196 L207.4043,17.4296 L210.5833,7.6196 C210.7033,7.2296 210.9443,7.0796 211.3333,7.0796 L213.0433,7.0796 C213.4333,7.0796 213.6733,7.2296 213.7933,7.6196 L216.9433,17.4296 L220.0933,7.6196 C220.2133,7.2296 220.4523,7.0796 220.8433,7.0796" id="Fill-21" fill="#FEFEFE"></path>
                <path d="M227.9546,14.1895 C227.9546,14.7595 228.0156,15.2695 228.1356,15.7795 L235.0046,11.1295 C234.3746,10.0495 233.2046,9.7795 232.2746,9.7795 C229.6946,9.7795 227.9546,11.6095 227.9546,14.1895 M238.7546,16.9195 C239.1746,16.4695 239.5346,16.5895 239.5346,17.1895 L239.5346,19.8295 C239.5346,20.1595 239.4436,20.3985 239.1746,20.6395 C237.8246,21.7785 235.6346,22.7985 232.9646,22.7985 C227.9846,22.7985 224.6846,19.6195 224.6846,14.2195 C224.6846,9.8695 227.9546,6.7195 232.2746,6.7195 C235.1546,6.7195 237.7346,7.8595 239.0236,11.1295 C239.1746,11.5195 239.0846,11.7895 238.7546,12.0295 L229.5446,18.2995 C230.4756,19.1395 231.6746,19.5885 233.0846,19.5885 C235.3936,19.5885 237.2846,18.5095 238.7546,16.9195" id="Fill-23" fill="#FEFEFE"></path>
                <path d="M261.1343,14.7593 C261.1343,11.9993 259.3043,9.8993 256.7243,9.8993 C255.0143,9.8993 253.6953,10.5593 252.9143,11.6393 L252.9143,17.8793 C253.6953,18.9593 255.0143,19.6193 256.7243,19.6193 C259.3043,19.6193 261.1343,17.5193 261.1343,14.7593 M264.4943,14.7593 C264.4943,19.4393 261.6443,22.7993 256.9053,22.7993 C255.1343,22.7993 253.8153,22.2293 252.9143,21.3893 L252.9143,27.7793 C252.9143,28.1983 252.6743,28.4393 252.2543,28.4393 L250.2753,28.4393 C249.8553,28.4393 249.6143,28.1983 249.6143,27.7793 L249.6143,7.7393 C249.6143,7.3203 249.8553,7.0793 250.2753,7.0793 L252.2543,7.0793 C252.6743,7.0793 252.9143,7.2593 252.9143,7.5893 L252.9143,8.0993 C253.8743,7.2893 255.2543,6.7193 257.0253,6.7193 C261.6443,6.7193 264.4943,10.0793 264.4943,14.7593" id="Fill-25" fill="#FEFEFE"></path>
                <path d="M278.2339,17.8794 L278.2339,11.6394 C277.4549,10.5594 276.1339,9.8994 274.4239,9.8994 C271.8439,9.8994 270.0139,11.9994 270.0139,14.7594 C270.0139,17.5194 271.8439,19.6194 274.4239,19.6194 C276.1339,19.6194 277.4549,18.9594 278.2339,17.8794 M278.8939,7.0794 L280.8749,7.0794 C281.2949,7.0794 281.5339,7.3194 281.5339,7.7394 L281.5339,21.7784 C281.5339,22.1984 281.2949,22.4394 280.8749,22.4394 L278.8939,22.4394 C278.4739,22.4394 278.2339,22.2294 278.2339,21.8994 L278.2339,21.3894 C277.3349,22.2294 276.0139,22.7984 274.2449,22.7984 C269.5049,22.7984 266.6549,19.4394 266.6549,14.7594 C266.6549,10.0794 269.5049,6.7194 274.1249,6.7194 C275.8939,6.7194 277.2739,7.2894 278.2339,8.0994 L278.2339,7.5894 C278.2339,7.2594 278.4739,7.0794 278.8939,7.0794" id="Fill-27" fill="#FEFEFE"></path>
                <path d="M297.1343,7.0796 L299.3543,7.0796 C299.8333,7.0796 300.0433,7.4096 299.8633,7.8596 L291.3743,27.9286 C291.2243,28.2586 290.9843,28.4386 290.6243,28.4386 L288.4053,28.4386 C287.9243,28.4386 287.7143,28.1086 287.8943,27.6586 L290.1743,22.2586 L284.2043,7.8596 C284.0253,7.4096 284.2353,7.0796 284.7143,7.0796 L287.1143,7.0796 C287.4743,7.0796 287.7443,7.2596 287.8943,7.5896 L292.0043,17.9386 L296.3843,7.5896 C296.5333,7.2596 296.7743,7.0796 297.1343,7.0796" id="Fill-29" fill="#FEFEFE"></path>
                <g id="Group-33" transform="translate(0.000000, 42.439000)">
                    <mask id="mask-2" fill="white">
                        <use xlink:href="#path-1"></use>
                    </mask>
                    <g id="Clip-32"></g>
                    <path d="M0.4497,14.77 C0.1797,14.56 0.0597,14.32 0.0597,13.99 L0.0597,11.71 C0.0597,11.14 0.4197,10.99 0.8697,11.38 C2.6097,12.94 4.2897,13.36 5.7597,13.36 C7.6197,13.36 8.6397,12.73 8.6397,11.71 C8.6397,10.69 7.9797,10.15 6.2397,9.82 L4.6497,9.52 C1.2297,8.89 -0.0003,7.3 -0.0003,4.931 C-0.0003,2.051 2.1597,0.281 5.6397,0.281 C7.4997,0.281 8.8197,0.611 10.2897,1.48 C10.6197,1.661 10.7397,1.9 10.7397,2.261 L10.7397,4.36 C10.7397,4.9 10.3797,5.081 9.9297,4.721 C8.4297,3.61 7.2297,3.28 5.6397,3.28 C4.2897,3.28 3.3597,3.911 3.3597,4.871 C3.3597,5.681 3.9297,6.22 5.3697,6.49 L6.8697,6.76 C10.4997,7.39 12.0597,8.89 12.0597,11.71 C12.0597,14.5 9.5397,16.36 5.7897,16.36 C3.9597,16.36 2.1297,16.03 0.4497,14.77" id="Fill-31" fill="#FEFEFE" mask="url(#mask-2)"></path>
                </g>
                <path d="M26.0688,50.7593 C26.0688,48.0293 24.4788,45.8993 21.6888,45.8993 C18.8998,45.8993 17.2498,48.0293 17.2498,50.7593 C17.2498,53.4893 18.8998,55.6193 21.6888,55.6193 C24.4788,55.6193 26.0688,53.4893 26.0688,50.7593 M13.8898,50.7593 C13.8898,45.6593 17.7298,42.7193 21.6888,42.7193 C25.6488,42.7193 29.4288,45.6593 29.4288,50.7593 C29.4288,55.8593 25.6488,58.7993 21.6888,58.7993 C17.7298,58.7993 13.8898,55.8593 13.8898,50.7593" id="Fill-34" fill="#FEFEFE"></path>
                <path d="M32.4292,57.7788 L32.4292,43.7398 C32.4292,43.3198 32.6692,43.0798 33.0892,43.0798 L35.0392,43.0798 C35.4592,43.0798 35.6992,43.2898 35.6992,43.6798 L35.6992,44.2798 C36.4492,43.1998 37.8592,42.7198 39.2092,42.7198 C41.0982,42.7198 42.5092,43.7698 42.9892,44.9098 C44.0692,43.4398 45.6882,42.7198 47.4292,42.7198 C50.4582,42.7198 52.7082,44.7898 52.7082,47.8798 L52.7082,57.7788 C52.7082,58.1988 52.4682,58.4388 52.0482,58.4388 L50.0682,58.4388 C49.6482,58.4388 49.4082,58.1988 49.4082,57.7788 L49.4082,48.2998 C49.4082,46.6498 48.3582,45.8098 46.8282,45.8098 C45.8082,45.8098 44.7282,46.3798 44.2192,47.4888 L44.2192,57.7788 C44.2192,58.1988 43.9782,58.4388 43.5582,58.4388 L41.5782,58.4388 C41.1582,58.4388 40.9192,58.1988 40.9192,57.7788 L40.9192,48.2998 C40.9192,46.7698 39.7192,45.8098 38.3692,45.8098 C37.3492,45.8098 36.2392,46.3798 35.7292,47.4888 L35.7292,57.7788 C35.7292,58.1988 35.4892,58.4388 35.0692,58.4388 L33.0892,58.4388 C32.6692,58.4388 32.4292,58.1988 32.4292,57.7788" id="Fill-36" fill="#FEFEFE"></path>
                <path d="M58.7983,50.1895 C58.7983,50.7595 58.8583,51.2695 58.9783,51.7795 L65.8483,47.1295 C65.2183,46.0495 64.0483,45.7795 63.1183,45.7795 C60.5383,45.7795 58.7983,47.6095 58.7983,50.1895 M69.5983,52.9195 C70.0183,52.4695 70.3783,52.5895 70.3783,53.1895 L70.3783,55.8295 C70.3783,56.1595 70.2873,56.3985 70.0183,56.6395 C68.6683,57.7785 66.4783,58.7985 63.8083,58.7985 C58.8283,58.7985 55.5283,55.6195 55.5283,50.2195 C55.5283,45.8695 58.7983,42.7195 63.1183,42.7195 C65.9983,42.7195 68.5783,43.8595 69.8673,47.1295 C70.0183,47.5195 69.9283,47.7895 69.5983,48.0295 L60.3883,54.2995 C61.3183,55.1395 62.5183,55.5885 63.9283,55.5885 C66.2373,55.5885 68.1283,54.5095 69.5983,52.9195" id="Fill-38" fill="#FEFEFE"></path>
                <path d="M84.6284,50.7593 C84.6284,48.0293 83.0384,45.8993 80.2484,45.8993 C77.4584,45.8993 75.8084,48.0293 75.8084,50.7593 C75.8084,53.4893 77.4584,55.6193 80.2484,55.6193 C83.0384,55.6193 84.6284,53.4893 84.6284,50.7593 M72.4484,50.7593 C72.4484,45.6593 76.2884,42.7193 80.2484,42.7193 C84.2084,42.7193 87.9874,45.6593 87.9874,50.7593 C87.9874,55.8593 84.2084,58.7993 80.2484,58.7993 C76.2884,58.7993 72.4484,55.8593 72.4484,50.7593" id="Fill-40" fill="#FEFEFE"></path>
                <path d="M104.5786,48.6895 L104.5786,57.7785 C104.5786,58.1985 104.3386,58.4395 103.9186,58.4395 L101.9376,58.4395 C101.5176,58.4395 101.2786,58.1985 101.2786,57.7785 L101.2786,49.1095 C101.2786,46.8595 99.9886,45.8095 98.0086,45.8095 C96.3286,45.8095 95.0086,46.6795 94.2886,48.2395 L94.2886,57.7785 C94.2886,58.1985 94.0486,58.4395 93.6286,58.4395 L91.6486,58.4395 C91.2286,58.4395 90.9886,58.1985 90.9886,57.7785 L90.9886,43.7395 C90.9886,43.3195 91.2286,43.0795 91.6486,43.0795 L93.5996,43.0795 C94.0186,43.0795 94.2586,43.3195 94.2586,43.7395 L94.2586,44.6395 C95.0986,43.4995 96.6586,42.7195 98.5786,42.7195 C102.3286,42.7195 104.5786,44.9395 104.5786,48.6895" id="Fill-42" fill="#FEFEFE"></path>
                <path d="M110.6685,50.1895 C110.6685,50.7595 110.7295,51.2695 110.8495,51.7795 L117.7185,47.1295 C117.0885,46.0495 115.9185,45.7795 114.9885,45.7795 C112.4085,45.7795 110.6685,47.6095 110.6685,50.1895 M121.4685,52.9195 C121.8885,52.4695 122.2485,52.5895 122.2485,53.1895 L122.2485,55.8295 C122.2485,56.1595 122.1585,56.3985 121.8885,56.6395 C120.5385,57.7785 118.3485,58.7985 115.6785,58.7985 C110.6985,58.7985 107.3985,55.6195 107.3985,50.2195 C107.3985,45.8695 110.6685,42.7195 114.9885,42.7195 C117.8685,42.7195 120.4485,43.8595 121.7375,47.1295 C121.8885,47.5195 121.7985,47.7895 121.4685,48.0295 L112.2585,54.2995 C113.1895,55.1395 114.3885,55.5885 115.7985,55.5885 C118.1075,55.5885 119.9985,54.5095 121.4685,52.9195" id="Fill-44" fill="#FEFEFE"></path>
                <path d="M129.5991,39.69 C129.5991,42.75 127.6191,44.819 124.4391,45.06 C123.9891,45.089 123.7491,44.85 123.7491,44.43 L123.7491,43.379 C123.7491,42.96 123.9891,42.75 124.4101,42.72 C125.5491,42.6 126.5091,42.18 127.0191,41.43 C126.8091,41.46 126.6291,41.49 126.4191,41.49 C125.0391,41.49 123.8991,40.35 123.8991,38.97 C123.8991,37.59 125.0391,36.45 126.5991,36.45 C128.4291,36.45 129.5991,37.77 129.5991,39.69" id="Fill-46" fill="#FEFEFE"></path>
                <path d="M130.3501,57.209 C130.0791,56.999 129.9591,56.759 129.9591,56.429 L129.9591,54.149 C129.9591,53.579 130.3201,53.429 130.7701,53.819 C132.5091,55.379 134.1901,55.799 135.6601,55.799 C137.5201,55.799 138.5391,55.169 138.5391,54.149 C138.5391,53.129 137.8791,52.589 136.1391,52.259 L134.5491,51.959 C131.1291,51.329 129.9001,49.739 129.9001,47.37 C129.9001,44.49 132.0601,42.72 135.5391,42.72 C137.4001,42.72 138.7191,43.05 140.1891,43.919 C140.5191,44.1 140.6391,44.339 140.6391,44.7 L140.6391,46.799 C140.6391,47.339 140.2801,47.52 139.8291,47.16 C138.3291,46.049 137.1291,45.719 135.5391,45.719 C134.1901,45.719 133.2591,46.35 133.2591,47.31 C133.2591,48.12 133.8291,48.659 135.2701,48.929 L136.7701,49.199 C140.3991,49.829 141.9591,51.329 141.9591,54.149 C141.9591,56.939 139.4401,58.799 135.6901,58.799 C133.8601,58.799 132.0301,58.469 130.3501,57.209" id="Fill-48" fill="#FEFEFE"></path>
                <path d="M151.8892,57.7788 L151.8892,43.7398 C151.8892,43.3198 152.1292,43.0798 152.5492,43.0798 L154.5292,43.0798 C154.9492,43.0798 155.1892,43.3198 155.1892,43.7398 L155.1892,44.6698 C155.9092,43.4698 157.4092,42.7198 159.2392,42.7198 C159.7192,42.7198 160.1392,42.7498 160.4982,42.8398 C160.8892,42.9298 161.0382,43.2298 161.0382,43.5898 L161.0382,45.5998 C161.0382,46.0498 160.7692,46.2588 160.3192,46.1698 C159.8992,46.0798 159.4792,46.0198 159.0882,46.0198 C156.8992,46.0198 155.8792,47.2788 155.1892,48.4798 L155.1892,57.7788 C155.1892,58.1988 154.9492,58.4388 154.5292,58.4388 L152.5492,58.4388 C152.1292,58.4388 151.8892,58.1988 151.8892,57.7788" id="Fill-50" fill="#FEFEFE"></path>
                <path d="M165.3892,50.1895 C165.3892,50.7595 165.4502,51.2695 165.5702,51.7795 L172.4392,47.1295 C171.8092,46.0495 170.6392,45.7795 169.7092,45.7795 C167.1292,45.7795 165.3892,47.6095 165.3892,50.1895 M176.1892,52.9195 C176.6092,52.4695 176.9692,52.5895 176.9692,53.1895 L176.9692,55.8295 C176.9692,56.1595 176.8792,56.3985 176.6092,56.6395 C175.2592,57.7785 173.0692,58.7985 170.3992,58.7985 C165.4192,58.7985 162.1192,55.6195 162.1192,50.2195 C162.1192,45.8695 165.3892,42.7195 169.7092,42.7195 C172.5892,42.7195 175.1692,43.8595 176.4582,47.1295 C176.6092,47.5195 176.5192,47.7895 176.1892,48.0295 L166.9792,54.2995 C167.9102,55.1395 169.1092,55.5885 170.5192,55.5885 C172.8282,55.5885 174.7192,54.5095 176.1892,52.9195" id="Fill-52" fill="#FEFEFE"></path>
                <path d="M193.3794,48.6895 L193.3794,57.7785 C193.3794,58.1985 193.1394,58.4395 192.7194,58.4395 L190.7384,58.4395 C190.3184,58.4395 190.0794,58.1985 190.0794,57.7785 L190.0794,49.1095 C190.0794,46.8595 188.7894,45.8095 186.8094,45.8095 C185.1294,45.8095 183.8094,46.6795 183.0894,48.2395 L183.0894,57.7785 C183.0894,58.1985 182.8494,58.4395 182.4294,58.4395 L180.4494,58.4395 C180.0294,58.4395 179.7894,58.1985 179.7894,57.7785 L179.7894,43.7395 C179.7894,43.3195 180.0294,43.0795 180.4494,43.0795 L182.4004,43.0795 C182.8194,43.0795 183.0594,43.3195 183.0594,43.7395 L183.0594,44.6395 C183.8994,43.4995 185.4594,42.7195 187.3794,42.7195 C191.1294,42.7195 193.3794,44.9395 193.3794,48.6895" id="Fill-54" fill="#FEFEFE"></path>
                <path d="M202.98,55.709 C203.339,55.709 203.82,55.679 204.36,55.589 C204.81,55.499 205.08,55.709 205.08,56.159 L205.08,57.839 C205.08,58.229 204.9,58.469 204.509,58.559 C203.85,58.739 203.19,58.799 202.5,58.799 C199.5,58.799 197.82,57.179 197.82,54.239 L197.82,46.529 L196.47,46.77 C196.05,46.83 195.75,46.649 195.69,46.23 L195.42,44.609 C195.36,44.189 195.54,43.89 195.959,43.83 L197.82,43.5 L197.82,39.39 C197.82,38.97 198.06,38.73 198.48,38.73 L200.459,38.73 C200.879,38.73 201.12,38.97 201.12,39.39 L201.12,42.93 L204.089,42.39 C204.509,42.3 204.81,42.51 204.87,42.93 L205.139,44.549 C205.2,44.97 205.02,45.27 204.6,45.33 L201.12,45.959 L201.12,53.789 C201.12,55.109 201.78,55.709 202.98,55.709" id="Fill-56" fill="#FEFEFE"></path>
                <path d="M214.9185,51.1494 L214.9185,49.4694 C214.9185,49.0494 215.1575,48.8094 215.5775,48.8094 L222.3275,48.8094 C222.7475,48.8094 222.9875,49.0494 222.9875,49.4694 L222.9875,51.1494 C222.9875,51.5694 222.7475,51.8094 222.3275,51.8094 L215.5775,51.8094 C215.1575,51.8094 214.9185,51.5694 214.9185,51.1494" id="Fill-58" fill="#FEFEFE"></path>
                <path d="M244.4087,50.7593 C244.4087,48.0293 242.8187,45.8993 240.0287,45.8993 C237.2387,45.8993 235.5887,48.0293 235.5887,50.7593 C235.5887,53.4893 237.2387,55.6193 240.0287,55.6193 C242.8187,55.6193 244.4087,53.4893 244.4087,50.7593 M232.2287,50.7593 C232.2287,45.6593 236.0687,42.7193 240.0287,42.7193 C243.9887,42.7193 247.7677,45.6593 247.7677,50.7593 C247.7677,55.8593 243.9887,58.7993 240.0287,58.7993 C236.0687,58.7993 232.2287,55.8593 232.2287,50.7593" id="Fill-60" fill="#FEFEFE"></path>
                <path d="M264.3579,48.6895 L264.3579,57.7785 C264.3579,58.1985 264.1179,58.4395 263.6979,58.4395 L261.7169,58.4395 C261.2969,58.4395 261.0579,58.1985 261.0579,57.7785 L261.0579,49.1095 C261.0579,46.8595 259.7679,45.8095 257.7879,45.8095 C256.1079,45.8095 254.7879,46.6795 254.0679,48.2395 L254.0679,57.7785 C254.0679,58.1985 253.8279,58.4395 253.4079,58.4395 L251.4279,58.4395 C251.0079,58.4395 250.7679,58.1985 250.7679,57.7785 L250.7679,43.7395 C250.7679,43.3195 251.0079,43.0795 251.4279,43.0795 L253.3789,43.0795 C253.7979,43.0795 254.0379,43.3195 254.0379,43.7395 L254.0379,44.6395 C254.8779,43.4995 256.4379,42.7195 258.3579,42.7195 C262.1079,42.7195 264.3579,44.9395 264.3579,48.6895" id="Fill-62" fill="#FEFEFE"></path>
                <path d="M267.1782,50.7593 C267.1782,45.9293 270.4182,42.7193 275.2782,42.7193 C276.9882,42.7193 278.4882,43.0193 279.7472,43.7393 C280.0772,43.9193 280.1982,44.1593 280.1982,44.5193 L280.1982,46.7393 C280.1982,47.2793 279.8672,47.4293 279.4172,47.0993 C278.2472,46.2293 277.0772,45.8993 275.4882,45.8993 C272.5482,45.8993 270.5682,47.8493 270.5682,50.7593 C270.5682,53.6693 272.5182,55.6193 275.4282,55.6193 C277.1982,55.6193 278.6082,55.2293 279.9882,54.1793 C280.4382,53.8193 280.7672,53.9993 280.7672,54.5393 L280.7672,56.6393 C280.7672,56.9693 280.6772,57.2093 280.4382,57.3893 C279.0282,58.3493 277.4672,58.7993 275.3082,58.7993 C270.4182,58.7993 267.1782,55.5893 267.1782,50.7593" id="Fill-64" fill="#FEFEFE"></path>
                <path d="M285.7485,50.1895 C285.7485,50.7595 285.8095,51.2695 285.9295,51.7795 L292.7985,47.1295 C292.1685,46.0495 290.9985,45.7795 290.0685,45.7795 C287.4885,45.7795 285.7485,47.6095 285.7485,50.1895 M296.5485,52.9195 C296.9685,52.4695 297.3285,52.5895 297.3285,53.1895 L297.3285,55.8295 C297.3285,56.1595 297.2385,56.3985 296.9685,56.6395 C295.6185,57.7785 293.4285,58.7985 290.7585,58.7985 C285.7785,58.7985 282.4785,55.6195 282.4785,50.2195 C282.4785,45.8695 285.7485,42.7195 290.0685,42.7195 C292.9485,42.7195 295.5285,43.8595 296.8175,47.1295 C296.9685,47.5195 296.8785,47.7895 296.5485,48.0295 L287.3385,54.2995 C288.2695,55.1395 289.4685,55.5885 290.8785,55.5885 C293.1875,55.5885 295.0785,54.5095 296.5485,52.9195" id="Fill-66" fill="#FEFEFE"></path>
                <path d="M318.1479,53.8794 L318.1479,47.6394 C317.3689,46.5594 316.0479,45.8994 314.3379,45.8994 C311.7579,45.8994 309.9279,47.9994 309.9279,50.7594 C309.9279,53.5194 311.7579,55.6194 314.3379,55.6194 C316.0479,55.6194 317.3689,54.9594 318.1479,53.8794 M318.8079,43.0794 L320.7889,43.0794 C321.2089,43.0794 321.4479,43.3194 321.4479,43.7394 L321.4479,57.7784 C321.4479,58.1984 321.2089,58.4394 320.7889,58.4394 L318.8079,58.4394 C318.3879,58.4394 318.1479,58.2294 318.1479,57.8994 L318.1479,57.3894 C317.2489,58.2294 315.9279,58.7984 314.1589,58.7984 C309.4189,58.7984 306.5689,55.4394 306.5689,50.7594 C306.5689,46.0794 309.4189,42.7194 314.0389,42.7194 C315.8079,42.7194 317.1879,43.2894 318.1479,44.0994 L318.1479,43.5894 C318.1479,43.2594 318.3879,43.0794 318.8079,43.0794" id="Fill-68" fill="#FEFEFE"></path>
                <path d="M13.4995,79.0796 L15.7195,79.0796 C16.1995,79.0796 16.4095,79.4096 16.2295,79.8596 L7.7395,99.9296 C7.5895,100.2586 7.3505,100.4386 6.9905,100.4386 L4.7705,100.4386 C4.2905,100.4386 4.0805,100.1086 4.2605,99.6586 L6.5405,94.2586 L0.5705,79.8596 C0.3905,79.4096 0.6005,79.0796 1.0805,79.0796 L3.4795,79.0796 C3.8405,79.0796 4.1105,79.2596 4.2605,79.5896 L8.3705,89.9386 L12.7495,79.5896 C12.8995,79.2596 13.1395,79.0796 13.4995,79.0796" id="Fill-70" fill="#FEFEFE"></path>
                <path d="M20.6099,86.1895 C20.6099,86.7595 20.6699,87.2695 20.7899,87.7795 L27.6599,83.1295 C27.0299,82.0495 25.8599,81.7795 24.9299,81.7795 C22.3499,81.7795 20.6099,83.6095 20.6099,86.1895 M31.4099,88.9195 C31.8299,88.4695 32.1899,88.5895 32.1899,89.1895 L32.1899,91.8295 C32.1899,92.1595 32.0999,92.3985 31.8299,92.6395 C30.4799,93.7785 28.2899,94.7985 25.6199,94.7985 C20.6399,94.7985 17.3399,91.6195 17.3399,86.2195 C17.3399,81.8695 20.6099,78.7195 24.9299,78.7195 C27.8099,78.7195 30.3899,79.8595 31.6799,83.1295 C31.8299,83.5195 31.7399,83.7895 31.4099,84.0295 L22.1999,90.2995 C23.1299,91.1395 24.3299,91.5885 25.7399,91.5885 C28.0499,91.5885 29.9399,90.5095 31.4099,88.9195" id="Fill-72" fill="#FEFEFE"></path>
                <path d="M45.8394,89.8794 L45.8394,83.6394 C45.0594,82.5594 43.7394,81.8994 42.0294,81.8994 C39.4494,81.8994 37.6194,83.9994 37.6194,86.7594 C37.6194,89.5194 39.4494,91.6194 42.0294,91.6194 C43.7394,91.6194 45.0594,90.9594 45.8394,89.8794 M46.4994,79.0794 L48.4794,79.0794 C48.8994,79.0794 49.1394,79.3194 49.1394,79.7394 L49.1394,93.7784 C49.1394,94.1984 48.8994,94.4394 48.4794,94.4394 L46.4994,94.4394 C46.0794,94.4394 45.8394,94.2294 45.8394,93.8994 L45.8394,93.3894 C44.9394,94.2294 43.6194,94.7984 41.8494,94.7984 C37.1094,94.7984 34.2594,91.4394 34.2594,86.7594 C34.2594,82.0794 37.1094,78.7194 41.7294,78.7194 C43.4994,78.7194 44.8794,79.2894 45.8394,80.0994 L45.8394,79.5894 C45.8394,79.2594 46.0794,79.0794 46.4994,79.0794" id="Fill-74" fill="#FEFEFE"></path>
                <path d="M52.9795,93.7788 L52.9795,79.7398 C52.9795,79.3198 53.2195,79.0798 53.6395,79.0798 L55.6195,79.0798 C56.0395,79.0798 56.2795,79.3198 56.2795,79.7398 L56.2795,80.6698 C56.9995,79.4698 58.4995,78.7198 60.3295,78.7198 C60.8095,78.7198 61.2295,78.7498 61.5895,78.8398 C61.9795,78.9298 62.1285,79.2298 62.1285,79.5898 L62.1285,81.5998 C62.1285,82.0498 61.8585,82.2588 61.4095,82.1698 C60.9895,82.0798 60.5695,82.0198 60.1795,82.0198 C57.9895,82.0198 56.9695,83.2788 56.2795,84.4798 L56.2795,93.7788 C56.2795,94.1988 56.0395,94.4388 55.6195,94.4388 L53.6395,94.4388 C53.2195,94.4388 52.9795,94.1988 52.9795,93.7788" id="Fill-76" fill="#FEFEFE"></path>
                <path d="M90.8081,79.0796 L93.0281,79.0796 C93.5081,79.0796 93.7181,79.3496 93.5681,79.8296 L88.7681,93.8986 C88.6481,94.2886 88.3781,94.4386 88.0181,94.4386 L86.0081,94.4386 C85.6481,94.4386 85.3781,94.2886 85.2581,93.8986 L82.1681,84.8096 L79.0481,93.8986 C78.9281,94.2886 78.6591,94.4386 78.2981,94.4386 L76.2881,94.4386 C75.9281,94.4386 75.6591,94.2886 75.5381,93.8986 L70.7391,79.8296 C70.5881,79.3496 70.7981,79.0796 71.2791,79.0796 L73.4981,79.0796 C73.8881,79.0796 74.1281,79.2296 74.2481,79.6196 L77.3691,89.4296 L80.5481,79.6196 C80.6681,79.2296 80.9091,79.0796 81.2981,79.0796 L83.0081,79.0796 C83.3981,79.0796 83.6381,79.2296 83.7581,79.6196 L86.9081,89.4296 L90.0581,79.6196 C90.1781,79.2296 90.4171,79.0796 90.8081,79.0796" id="Fill-78" fill="#FEFEFE"></path>
                <path d="M97.9185,86.1895 C97.9185,86.7595 97.9795,87.2695 98.0995,87.7795 L104.9685,83.1295 C104.3385,82.0495 103.1685,81.7795 102.2385,81.7795 C99.6585,81.7795 97.9185,83.6095 97.9185,86.1895 M108.7185,88.9195 C109.1385,88.4695 109.4985,88.5895 109.4985,89.1895 L109.4985,91.8295 C109.4985,92.1595 109.4085,92.3985 109.1385,92.6395 C107.7885,93.7785 105.5985,94.7985 102.9285,94.7985 C97.9485,94.7985 94.6485,91.6195 94.6485,86.2195 C94.6485,81.8695 97.9185,78.7195 102.2385,78.7195 C105.1185,78.7195 107.6985,79.8595 108.9875,83.1295 C109.1385,83.5195 109.0485,83.7895 108.7185,84.0295 L99.5085,90.2995 C100.4395,91.1395 101.6385,91.5885 103.0485,91.5885 C105.3575,91.5885 107.2485,90.5095 108.7185,88.9195" id="Fill-80" fill="#FEFEFE"></path>
                <path d="M131.0981,86.7593 C131.0981,83.9993 129.2681,81.8993 126.6881,81.8993 C124.9781,81.8993 123.6591,82.5593 122.8781,83.6393 L122.8781,89.8793 C123.6591,90.9593 124.9781,91.6193 126.6881,91.6193 C129.2681,91.6193 131.0981,89.5193 131.0981,86.7593 M134.4571,86.7593 C134.4571,91.4393 131.6081,94.7993 126.8691,94.7993 C125.0981,94.7993 123.7791,94.2293 122.8781,93.3893 L122.8781,99.7793 C122.8781,100.1983 122.6381,100.4393 122.2181,100.4393 L120.2391,100.4393 C119.8191,100.4393 119.5781,100.1983 119.5781,99.7793 L119.5781,79.7393 C119.5781,79.3203 119.8191,79.0793 120.2391,79.0793 L122.2181,79.0793 C122.6381,79.0793 122.8781,79.2593 122.8781,79.5893 L122.8781,80.0993 C123.8381,79.2893 125.2181,78.7193 126.9891,78.7193 C131.6081,78.7193 134.4571,82.0793 134.4571,86.7593" id="Fill-82" fill="#FEFEFE"></path>
                <path d="M148.1978,89.8794 L148.1978,83.6394 C147.4188,82.5594 146.0978,81.8994 144.3878,81.8994 C141.8078,81.8994 139.9778,83.9994 139.9778,86.7594 C139.9778,89.5194 141.8078,91.6194 144.3878,91.6194 C146.0978,91.6194 147.4188,90.9594 148.1978,89.8794 M148.8578,79.0794 L150.8388,79.0794 C151.2588,79.0794 151.4978,79.3194 151.4978,79.7394 L151.4978,93.7784 C151.4978,94.1984 151.2588,94.4394 150.8388,94.4394 L148.8578,94.4394 C148.4378,94.4394 148.1978,94.2294 148.1978,93.8994 L148.1978,93.3894 C147.2988,94.2294 145.9778,94.7984 144.2088,94.7984 C139.4688,94.7984 136.6188,91.4394 136.6188,86.7594 C136.6188,82.0794 139.4688,78.7194 144.0888,78.7194 C145.8578,78.7194 147.2378,79.2894 148.1978,80.0994 L148.1978,79.5894 C148.1978,79.2594 148.4378,79.0794 148.8578,79.0794" id="Fill-84" fill="#FEFEFE"></path>
                <path d="M167.0981,79.0796 L169.3181,79.0796 C169.7971,79.0796 170.0071,79.4096 169.8271,79.8596 L161.3381,99.9296 C161.1881,100.2586 160.9481,100.4386 160.5881,100.4386 L158.3691,100.4386 C157.8881,100.4386 157.6781,100.1086 157.8581,99.6586 L160.1381,94.2586 L154.1681,79.8596 C153.9891,79.4096 154.1991,79.0796 154.6781,79.0796 L157.0781,79.0796 C157.4381,79.0796 157.7081,79.2596 157.8581,79.5896 L161.9681,89.9386 L166.3481,79.5896 C166.4971,79.2596 166.7381,79.0796 167.0981,79.0796" id="Fill-86" fill="#FEFEFE"></path>
                <path d="M179.7886,93.209 C179.5176,92.999 179.3976,92.759 179.3976,92.429 L179.3976,90.149 C179.3976,89.579 179.7586,89.429 180.2086,89.819 C181.9476,91.379 183.6286,91.799 185.0986,91.799 C186.9576,91.799 187.9776,91.169 187.9776,90.149 C187.9776,89.129 187.3176,88.589 185.5776,88.259 L183.9876,87.959 C180.5676,87.329 179.3386,85.739 179.3386,83.37 C179.3386,80.49 181.4986,78.72 184.9776,78.72 C186.8386,78.72 188.1576,79.05 189.6276,79.919 C189.9576,80.1 190.0776,80.339 190.0776,80.7 L190.0776,82.799 C190.0776,83.339 189.7186,83.52 189.2676,83.16 C187.7676,82.049 186.5676,81.719 184.9776,81.719 C183.6286,81.719 182.6976,82.35 182.6976,83.31 C182.6976,84.12 183.2676,84.659 184.7086,84.929 L186.2086,85.199 C189.8386,85.829 191.3976,87.329 191.3976,90.149 C191.3976,92.939 188.8776,94.799 185.1286,94.799 C183.2986,94.799 181.4686,94.469 179.7886,93.209" id="Fill-88" fill="#FEFEFE"></path>
                <path d="M205.4077,86.7593 C205.4077,84.0293 203.8177,81.8993 201.0277,81.8993 C198.2377,81.8993 196.5877,84.0293 196.5877,86.7593 C196.5877,89.4893 198.2377,91.6193 201.0277,91.6193 C203.8177,91.6193 205.4077,89.4893 205.4077,86.7593 M193.2277,86.7593 C193.2277,81.6593 197.0677,78.7193 201.0277,78.7193 C204.9877,78.7193 208.7667,81.6593 208.7667,86.7593 C208.7667,91.8593 204.9877,94.7993 201.0277,94.7993 C197.0677,94.7993 193.2277,91.8593 193.2277,86.7593" id="Fill-90" fill="#FEFEFE"></path>
                <path d="M211.7681,93.7788 L211.7681,79.7398 C211.7681,79.3198 212.0081,79.0798 212.4281,79.0798 L214.3781,79.0798 C214.7981,79.0798 215.0381,79.2898 215.0381,79.6798 L215.0381,80.2798 C215.7881,79.1998 217.1981,78.7198 218.5471,78.7198 C220.4381,78.7198 221.8481,79.7698 222.3281,80.9098 C223.4081,79.4398 225.0281,78.7198 226.7671,78.7198 C229.7971,78.7198 232.0471,80.7898 232.0471,83.8798 L232.0471,93.7788 C232.0471,94.1988 231.8071,94.4388 231.3871,94.4388 L229.4081,94.4388 C228.9881,94.4388 228.7471,94.1988 228.7471,93.7788 L228.7471,84.2998 C228.7471,82.6498 227.6981,81.8098 226.1671,81.8098 C225.1481,81.8098 224.0681,82.3798 223.5571,83.4888 L223.5571,93.7788 C223.5571,94.1988 223.3181,94.4388 222.8981,94.4388 L220.9171,94.4388 C220.4971,94.4388 220.2571,94.1988 220.2571,93.7788 L220.2571,84.2998 C220.2571,82.7698 219.0581,81.8098 217.7071,81.8098 C216.6881,81.8098 215.5781,82.3798 215.0681,83.4888 L215.0681,93.7788 C215.0681,94.1988 214.8281,94.4388 214.4081,94.4388 L212.4281,94.4388 C212.0081,94.4388 211.7681,94.1988 211.7681,93.7788" id="Fill-92" fill="#FEFEFE"></path>
                <path d="M238.1372,86.1895 C238.1372,86.7595 238.1982,87.2695 238.3182,87.7795 L245.1872,83.1295 C244.5572,82.0495 243.3872,81.7795 242.4572,81.7795 C239.8772,81.7795 238.1372,83.6095 238.1372,86.1895 M248.9372,88.9195 C249.3572,88.4695 249.7172,88.5895 249.7172,89.1895 L249.7172,91.8295 C249.7172,92.1595 249.6272,92.3985 249.3572,92.6395 C248.0072,93.7785 245.8172,94.7985 243.1472,94.7985 C238.1672,94.7985 234.8672,91.6195 234.8672,86.2195 C234.8672,81.8695 238.1372,78.7195 242.4572,78.7195 C245.3372,78.7195 247.9172,79.8595 249.2062,83.1295 C249.3572,83.5195 249.2672,83.7895 248.9372,84.0295 L239.7272,90.2995 C240.6582,91.1395 241.8572,91.5885 243.2672,91.5885 C245.5762,91.5885 247.4672,90.5095 248.9372,88.9195" id="Fill-94" fill="#FEFEFE"></path>
                <path d="M263.9673,86.7593 C263.9673,84.0293 262.3773,81.8993 259.5873,81.8993 C256.7973,81.8993 255.1473,84.0293 255.1473,86.7593 C255.1473,89.4893 256.7973,91.6193 259.5873,91.6193 C262.3773,91.6193 263.9673,89.4893 263.9673,86.7593 M251.7873,86.7593 C251.7873,81.6593 255.6273,78.7193 259.5873,78.7193 C263.5473,78.7193 267.3263,81.6593 267.3263,86.7593 C267.3263,91.8593 263.5473,94.7993 259.5873,94.7993 C255.6273,94.7993 251.7873,91.8593 251.7873,86.7593" id="Fill-96" fill="#FEFEFE"></path>
                <path d="M283.9175,84.6895 L283.9175,93.7785 C283.9175,94.1985 283.6775,94.4395 283.2575,94.4395 L281.2765,94.4395 C280.8565,94.4395 280.6175,94.1985 280.6175,93.7785 L280.6175,85.1095 C280.6175,82.8595 279.3275,81.8095 277.3475,81.8095 C275.6675,81.8095 274.3475,82.6795 273.6275,84.2395 L273.6275,93.7785 C273.6275,94.1985 273.3875,94.4395 272.9675,94.4395 L270.9875,94.4395 C270.5675,94.4395 270.3275,94.1985 270.3275,93.7785 L270.3275,79.7395 C270.3275,79.3195 270.5675,79.0795 270.9875,79.0795 L272.9385,79.0795 C273.3575,79.0795 273.5975,79.3195 273.5975,79.7395 L273.5975,80.6395 C274.4375,79.4995 275.9975,78.7195 277.9175,78.7195 C281.6675,78.7195 283.9175,80.9395 283.9175,84.6895" id="Fill-98" fill="#FEFEFE"></path>
                <path d="M290.0073,86.1895 C290.0073,86.7595 290.0683,87.2695 290.1883,87.7795 L297.0573,83.1295 C296.4273,82.0495 295.2573,81.7795 294.3273,81.7795 C291.7473,81.7795 290.0073,83.6095 290.0073,86.1895 M300.8073,88.9195 C301.2273,88.4695 301.5873,88.5895 301.5873,89.1895 L301.5873,91.8295 C301.5873,92.1595 301.4963,92.3985 301.2273,92.6395 C299.8773,93.7785 297.6873,94.7985 295.0173,94.7985 C290.0373,94.7985 286.7373,91.6195 286.7373,86.2195 C286.7373,81.8695 290.0073,78.7195 294.3273,78.7195 C297.2073,78.7195 299.7873,79.8595 301.0763,83.1295 C301.2273,83.5195 301.1373,83.7895 300.8073,84.0295 L291.5973,90.2995 C292.5283,91.1395 293.7273,91.5885 295.1373,91.5885 C297.4463,91.5885 299.3373,90.5095 300.8073,88.9195" id="Fill-100" fill="#FEFEFE"></path>
                <path d="M308.938,75.69 C308.938,78.75 306.958,80.819 303.778,81.06 C303.329,81.089 303.088,80.85 303.088,80.43 L303.088,79.379 C303.088,78.96 303.329,78.75 303.749,78.72 C304.888,78.6 305.848,78.18 306.358,77.43 C306.148,77.46 305.968,77.49 305.758,77.49 C304.378,77.49 303.238,76.35 303.238,74.97 C303.238,73.59 304.378,72.45 305.938,72.45 C307.768,72.45 308.938,73.77 308.938,75.69" id="Fill-102" fill="#FEFEFE"></path>
                <path d="M309.689,93.209 C309.418,92.999 309.298,92.759 309.298,92.429 L309.298,90.149 C309.298,89.579 309.659,89.429 310.109,89.819 C311.848,91.379 313.529,91.799 314.999,91.799 C316.858,91.799 317.878,91.169 317.878,90.149 C317.878,89.129 317.218,88.589 315.478,88.259 L313.888,87.959 C310.468,87.329 309.239,85.739 309.239,83.37 C309.239,80.49 311.399,78.72 314.878,78.72 C316.739,78.72 318.058,79.05 319.528,79.919 C319.858,80.1 319.978,80.339 319.978,80.7 L319.978,82.799 C319.978,83.339 319.619,83.52 319.168,83.16 C317.668,82.049 316.468,81.719 314.878,81.719 C313.529,81.719 312.598,82.35 312.598,83.31 C312.598,84.12 313.168,84.659 314.609,84.929 L316.109,85.199 C319.739,85.829 321.298,87.329 321.298,90.149 C321.298,92.939 318.778,94.799 315.029,94.799 C313.199,94.799 311.369,94.469 309.689,93.209" id="Fill-104" fill="#FEFEFE"></path>
                <path d="M13.0049,129.7788 L13.0049,115.7398 C13.0049,115.3198 13.2449,115.0798 13.6649,115.0798 L15.6449,115.0798 C16.0649,115.0798 16.3049,115.3198 16.3049,115.7398 L16.3049,116.6698 C17.0249,115.4688 18.5249,114.7188 20.3549,114.7188 C20.8349,114.7188 21.2549,114.7498 21.6149,114.8398 C22.0049,114.9288 22.1539,115.2298 22.1539,115.5898 L22.1539,117.5988 C22.1539,118.0498 21.8839,118.2588 21.4349,118.1698 C21.0149,118.0798 20.5949,118.0188 20.2049,118.0188 C18.0149,118.0188 16.9949,119.2798 16.3049,120.4788 L16.3049,129.7788 C16.3049,130.1988 16.0649,130.4388 15.6449,130.4388 L13.6649,130.4388 C13.2449,130.4388 13.0049,130.1988 13.0049,129.7788" id="Fill-106" fill="#FEFEFE"></path>
                <path d="M26.5049,122.189 C26.5049,122.759 26.5649,123.269 26.6849,123.779 L33.5549,119.129 C32.9249,118.049 31.7549,117.78 30.8249,117.78 C28.2449,117.78 26.5049,119.61 26.5049,122.189 M37.3049,124.919 C37.7249,124.469 38.0849,124.589 38.0849,125.189 L38.0849,127.829 C38.0849,128.159 37.9949,128.399 37.7249,128.639 C36.3749,129.779 34.1849,130.799 31.5149,130.799 C26.5349,130.799 23.2349,127.619 23.2349,122.219 C23.2349,117.87 26.5049,114.719 30.8249,114.719 C33.7049,114.719 36.2849,115.86 37.5749,119.129 C37.7249,119.519 37.6349,119.79 37.3049,120.03 L28.0949,126.299 C29.0249,127.139 30.2249,127.589 31.6349,127.589 C33.9449,127.589 35.8349,126.509 37.3049,124.919" id="Fill-108" fill="#FEFEFE"></path>
                <path d="M54.4941,120.689 L54.4941,129.779 C54.4941,130.199 54.2541,130.439 53.8341,130.439 L51.8541,130.439 C51.4341,130.439 51.1941,130.199 51.1941,129.779 L51.1941,121.109 C51.1941,118.86 49.9041,117.809 47.9241,117.809 C46.2441,117.809 44.9251,118.679 44.2041,120.24 L44.2041,129.779 C44.2041,130.199 43.9651,130.439 43.5441,130.439 L41.5651,130.439 C41.1451,130.439 40.9051,130.199 40.9051,129.779 L40.9051,115.74 C40.9051,115.32 41.1451,115.08 41.5651,115.08 L43.5151,115.08 C43.9341,115.08 44.1751,115.32 44.1751,115.74 L44.1751,116.639 C45.0151,115.5 46.5751,114.719 48.4941,114.719 C52.2441,114.719 54.4941,116.94 54.4941,120.689" id="Fill-110" fill="#FEFEFE"></path>
                <path d="M64.0952,127.7095 C64.4542,127.7095 64.9352,127.6795 65.4752,127.5895 C65.9252,127.4995 66.1952,127.7095 66.1952,128.1585 L66.1952,129.8395 C66.1952,130.2295 66.0152,130.4695 65.6242,130.5595 C64.9652,130.7385 64.3052,130.7995 63.6152,130.7995 C60.6152,130.7995 58.9352,129.1795 58.9352,126.2385 L58.9352,118.5295 L57.5852,118.7695 C57.1652,118.8295 56.8652,118.6495 56.8052,118.2295 L56.5352,116.6095 C56.4752,116.1895 56.6552,115.8895 57.0752,115.8295 L58.9352,115.4995 L58.9352,111.3905 C58.9352,110.9705 59.1752,110.7305 59.5952,110.7305 L61.5752,110.7305 C61.9952,110.7305 62.2352,110.9705 62.2352,111.3905 L62.2352,114.9295 L65.2042,114.3895 C65.6242,114.2995 65.9252,114.5095 65.9852,114.9295 L66.2542,116.5495 C66.3152,116.9695 66.1352,117.2695 65.7152,117.3295 L62.2352,117.9595 L62.2352,125.7895 C62.2352,127.1085 62.8952,127.7095 64.0952,127.7095" id="Fill-112" fill="#FEFEFE"></path>
                <path d="M85.2134,117.3296 L81.8544,117.9296 L81.8544,129.7786 C81.8544,130.1986 81.6134,130.4386 81.1934,130.4386 L79.2144,130.4386 C78.7944,130.4386 78.5544,130.1986 78.5544,129.7786 L78.5544,118.4996 L77.0844,118.7686 C76.6644,118.8596 76.3634,118.6496 76.3044,118.2286 L76.0344,116.6096 C75.9744,116.1896 76.1534,115.8896 76.5744,115.8296 L78.5544,115.4696 L78.5544,112.8596 C78.5544,109.9196 80.2344,108.3006 83.2344,108.3006 C83.9534,108.3006 84.6134,108.3906 85.3044,108.6006 C85.6634,108.7206 85.8144,108.9896 85.8144,109.3506 L85.8144,111.1806 C85.8144,111.6596 85.5144,111.8096 85.0644,111.6296 C84.5244,111.4196 84.0734,111.3906 83.7144,111.3906 C82.5144,111.3906 81.8544,111.9896 81.8544,113.3096 L81.8544,114.8996 L84.7034,114.3896 C85.1234,114.2996 85.4244,114.4796 85.4844,114.9296 L85.7534,116.5496 C85.8144,116.9696 85.6344,117.2686 85.2134,117.3296" id="Fill-114" fill="#FEFEFE"></path>
                <path d="M99.2847,122.7593 C99.2847,120.0303 97.6947,117.9003 94.9047,117.9003 C92.1147,117.9003 90.4647,120.0303 90.4647,122.7593 C90.4647,125.4883 92.1147,127.6183 94.9047,127.6183 C97.6947,127.6183 99.2847,125.4883 99.2847,122.7593 M87.1047,122.7593 C87.1047,117.6593 90.9447,114.7193 94.9047,114.7193 C98.8647,114.7193 102.6437,117.6593 102.6437,122.7593 C102.6437,127.8593 98.8647,130.7993 94.9047,130.7993 C90.9447,130.7993 87.1047,127.8593 87.1047,122.7593" id="Fill-116" fill="#FEFEFE"></path>
                <path d="M105.645,129.7788 L105.645,115.7398 C105.645,115.3198 105.885,115.0798 106.305,115.0798 L108.285,115.0798 C108.705,115.0798 108.945,115.3198 108.945,115.7398 L108.945,116.6698 C109.665,115.4688 111.165,114.7188 112.995,114.7188 C113.475,114.7188 113.895,114.7498 114.254,114.8398 C114.645,114.9288 114.794,115.2298 114.794,115.5898 L114.794,117.5988 C114.794,118.0498 114.525,118.2588 114.075,118.1698 C113.655,118.0798 113.235,118.0188 112.844,118.0188 C110.655,118.0188 109.635,119.2798 108.945,120.4788 L108.945,129.7788 C108.945,130.1988 108.705,130.4388 108.285,130.4388 L106.305,130.4388 C105.885,130.4388 105.645,130.1988 105.645,129.7788" id="Fill-118" fill="#FEFEFE"></path>
                <path d="M135.314,125.8794 L135.314,119.6394 C134.535,118.5594 133.214,117.9004 131.504,117.9004 C128.924,117.9004 127.094,119.9994 127.094,122.7594 C127.094,125.5194 128.924,127.6184 131.504,127.6184 C133.214,127.6184 134.535,126.9594 135.314,125.8794 M135.974,115.0794 L137.955,115.0794 C138.375,115.0794 138.614,115.3194 138.614,115.7394 L138.614,129.7784 C138.614,130.1984 138.375,130.4394 137.955,130.4394 L135.974,130.4394 C135.554,130.4394 135.314,130.2294 135.314,129.8994 L135.314,129.3894 C134.415,130.2294 133.094,130.7994 131.325,130.7994 C126.585,130.7994 123.735,127.4394 123.735,122.7594 C123.735,118.0794 126.585,114.7194 131.205,114.7194 C132.974,114.7194 134.354,115.2894 135.314,116.0994 L135.314,115.5894 C135.314,115.2594 135.554,115.0794 135.974,115.0794" id="Fill-120" fill="#FEFEFE"></path>
                <path d="M168.6138,115.0796 L170.8338,115.0796 C171.3128,115.0796 171.5238,115.3496 171.3738,115.8296 L166.5738,129.8986 C166.4538,130.2886 166.1838,130.4386 165.8238,130.4386 L163.8138,130.4386 C163.4538,130.4386 163.1838,130.2886 163.0638,129.8986 L159.9738,120.8086 L156.8538,129.8986 C156.7338,130.2886 156.4648,130.4386 156.1038,130.4386 L154.0938,130.4386 C153.7338,130.4386 153.4648,130.2886 153.3438,129.8986 L148.5448,115.8296 C148.3938,115.3496 148.6038,115.0796 149.0848,115.0796 L151.3038,115.0796 C151.6938,115.0796 151.9338,115.2296 152.0538,115.6196 L155.1748,125.4296 L158.3538,115.6196 C158.4738,115.2296 158.7148,115.0796 159.1038,115.0796 L160.8138,115.0796 C161.2038,115.0796 161.4438,115.2296 161.5638,115.6196 L164.7138,125.4296 L167.8638,115.6196 C167.9838,115.2296 168.2228,115.0796 168.6138,115.0796" id="Fill-122" fill="#FEFEFE"></path>
                <path d="M187.6343,120.689 L187.6343,129.779 C187.6343,130.199 187.3943,130.439 186.9743,130.439 L184.9933,130.439 C184.5733,130.439 184.3343,130.199 184.3343,129.779 L184.3343,121.109 C184.3343,118.86 183.1043,117.809 181.1243,117.809 C179.3243,117.809 178.0343,118.74 177.3443,120.24 L177.3443,129.779 C177.3443,130.199 177.1043,130.439 176.6843,130.439 L174.7043,130.439 C174.2843,130.439 174.0443,130.199 174.0443,129.779 L174.0443,108.66 C174.0443,108.24 174.2843,108 174.7043,108 L176.6553,108 C177.0743,108 177.3143,108.24 177.3143,108.66 L177.3143,116.639 C178.1543,115.5 179.7143,114.719 181.6343,114.719 C185.3543,114.719 187.6343,116.969 187.6343,120.689" id="Fill-124" fill="#FEFEFE"></path>
                <path d="M202.6343,122.7593 C202.6343,120.0303 201.0443,117.9003 198.2543,117.9003 C195.4643,117.9003 193.8143,120.0303 193.8143,122.7593 C193.8143,125.4883 195.4643,127.6183 198.2543,127.6183 C201.0443,127.6183 202.6343,125.4883 202.6343,122.7593 M190.4543,122.7593 C190.4543,117.6593 194.2943,114.7193 198.2543,114.7193 C202.2143,114.7193 205.9933,117.6593 205.9933,122.7593 C205.9933,127.8593 202.2143,130.7993 198.2543,130.7993 C194.2943,130.7993 190.4543,127.8593 190.4543,122.7593" id="Fill-126" fill="#FEFEFE"></path>
                <path d="M208.8149,126.2388 L208.8149,108.6598 C208.8149,108.2398 209.0539,107.9998 209.4749,107.9998 L211.4549,107.9998 C211.8749,107.9998 212.1149,108.2398 212.1149,108.6598 L212.1149,125.7898 C212.1149,127.1088 212.7749,127.7098 213.9739,127.7098 C214.3349,127.7098 214.8139,127.6788 215.3539,127.5898 C215.8039,127.4998 216.0749,127.7098 216.0749,128.1588 L216.0749,129.8398 C216.0749,130.2288 215.8939,130.4688 215.5039,130.5588 C214.8439,130.7388 214.1839,130.7998 213.4949,130.7998 C210.4949,130.7998 208.8149,129.1788 208.8149,126.2388" id="Fill-128" fill="#FEFEFE"></path>
                <path d="M220.2739,122.189 C220.2739,122.759 220.3349,123.269 220.4549,123.779 L227.3239,119.129 C226.6939,118.049 225.5239,117.78 224.5939,117.78 C222.0139,117.78 220.2739,119.61 220.2739,122.189 M231.0739,124.919 C231.4939,124.469 231.8539,124.589 231.8539,125.189 L231.8539,127.829 C231.8539,128.159 231.7639,128.399 231.4939,128.639 C230.1439,129.779 227.9539,130.799 225.2839,130.799 C220.3039,130.799 217.0039,127.619 217.0039,122.219 C217.0039,117.87 220.2739,114.719 224.5939,114.719 C227.4739,114.719 230.0539,115.86 231.3429,119.129 C231.4939,119.519 231.4039,119.79 231.0739,120.03 L221.8639,126.299 C222.7949,127.139 223.9939,127.589 225.4039,127.589 C227.7129,127.589 229.6039,126.509 231.0739,124.919" id="Fill-130" fill="#FEFEFE"></path>
                <path d="M253.6938,115.0796 L255.9138,115.0796 C256.3928,115.0796 256.6028,115.4096 256.4228,115.8596 L247.9338,135.9296 C247.7838,136.2586 247.5438,136.4386 247.1838,136.4386 L244.9648,136.4386 C244.4838,136.4386 244.2738,136.1086 244.4538,135.6586 L246.7338,130.2596 L240.7638,115.8596 C240.5848,115.4096 240.7948,115.0796 241.2738,115.0796 L243.6738,115.0796 C244.0338,115.0796 244.3038,115.2596 244.4538,115.5896 L248.5638,125.9386 L252.9438,115.5896 C253.0928,115.2596 253.3338,115.0796 253.6938,115.0796" id="Fill-132" fill="#FEFEFE"></path>
                <path d="M260.8042,122.189 C260.8042,122.759 260.8652,123.269 260.9852,123.779 L267.8542,119.129 C267.2242,118.049 266.0542,117.78 265.1242,117.78 C262.5442,117.78 260.8042,119.61 260.8042,122.189 M271.6042,124.919 C272.0242,124.469 272.3842,124.589 272.3842,125.189 L272.3842,127.829 C272.3842,128.159 272.2932,128.399 272.0242,128.639 C270.6742,129.779 268.4842,130.799 265.8142,130.799 C260.8342,130.799 257.5342,127.619 257.5342,122.219 C257.5342,117.87 260.8042,114.719 265.1242,114.719 C268.0042,114.719 270.5842,115.86 271.8732,119.129 C272.0242,119.519 271.9342,119.79 271.6042,120.03 L262.3942,126.299 C263.3252,127.139 264.5242,127.589 265.9342,127.589 C268.2432,127.589 270.1342,126.509 271.6042,124.919" id="Fill-134" fill="#FEFEFE"></path>
                <path d="M286.0337,125.8794 L286.0337,119.6394 C285.2547,118.5594 283.9337,117.9004 282.2237,117.9004 C279.6437,117.9004 277.8137,119.9994 277.8137,122.7594 C277.8137,125.5194 279.6437,127.6184 282.2237,127.6184 C283.9337,127.6184 285.2547,126.9594 286.0337,125.8794 M286.6937,115.0794 L288.6747,115.0794 C289.0947,115.0794 289.3337,115.3194 289.3337,115.7394 L289.3337,129.7784 C289.3337,130.1984 289.0947,130.4394 288.6747,130.4394 L286.6937,130.4394 C286.2737,130.4394 286.0337,130.2294 286.0337,129.8994 L286.0337,129.3894 C285.1347,130.2294 283.8137,130.7994 282.0447,130.7994 C277.3047,130.7994 274.4547,127.4394 274.4547,122.7594 C274.4547,118.0794 277.3047,114.7194 281.9247,114.7194 C283.6937,114.7194 285.0737,115.2894 286.0337,116.0994 L286.0337,115.5894 C286.0337,115.2594 286.2737,115.0794 286.6937,115.0794" id="Fill-136" fill="#FEFEFE"></path>
                <path d="M293.1743,129.7788 L293.1743,115.7398 C293.1743,115.3198 293.4143,115.0798 293.8343,115.0798 L295.8143,115.0798 C296.2343,115.0798 296.4743,115.3198 296.4743,115.7398 L296.4743,116.6698 C297.1943,115.4688 298.6943,114.7188 300.5243,114.7188 C301.0043,114.7188 301.4243,114.7498 301.7833,114.8398 C302.1743,114.9288 302.3233,115.2298 302.3233,115.5898 L302.3233,117.5988 C302.3233,118.0498 302.0543,118.2588 301.6043,118.1698 C301.1843,118.0798 300.7643,118.0188 300.3733,118.0188 C298.1843,118.0188 297.1643,119.2798 296.4743,120.4788 L296.4743,129.7788 C296.4743,130.1988 296.2343,130.4388 295.8143,130.4388 L293.8343,130.4388 C293.4143,130.4388 293.1743,130.1988 293.1743,129.7788" id="Fill-138" fill="#FEFEFE"></path>
                <path d="M305.3247,123.4497 L304.9337,110.0997 C304.9337,109.6497 305.1437,109.4397 305.5637,109.4397 L308.1437,109.4397 C308.5637,109.4397 308.7737,109.6497 308.7737,110.0997 L308.3847,123.4497 C308.3847,123.8987 308.1137,124.1087 307.6937,124.1087 L306.0137,124.1087 C305.5947,124.1087 305.3247,123.8987 305.3247,123.4497 M304.1247,128.0687 C304.1247,126.5687 305.3537,125.3397 306.8537,125.3397 C308.3537,125.3397 309.5847,126.5687 309.5847,128.0687 C309.5847,129.5687 308.3537,130.7997 306.8537,130.7997 C305.3537,130.7997 304.1247,129.5687 304.1247,128.0687" id="Fill-140" fill="#FEFEFE"></path>
            </g>
        </g>
    </g>
</svg>