<?xml version="1.0" encoding="UTF-8"?>
<svg width="102px" height="31px" viewBox="0 0 102 31" version="1.1" xmlns="http://www.w3.org/2000/svg" xmlns:xlink="http://www.w3.org/1999/xlink">
    <!-- Generator: sketchtool 51.2 (57519) - http://www.bohemiancoding.com/sketch -->
    <title>18F471FA-D206-46D7-B750-8AC5907757B1</title>
    <desc>Created with sketchtool.</desc>
    <defs></defs>
    <g id="Page-1" stroke="none" stroke-width="1" fill="none" fill-rule="evenodd">
        <g id="Hompage-amends-v2" transform="translate(-751.000000, -1703.000000)">
            <g id="Group-10" transform="translate(237.000000, 1578.000000)">
                <g id="Group-16" transform="translate(90.000000, 112.000000)">
                    <g id="Group-14" transform="translate(424.000000, 0.000000)">
                        <g id="Logo---Metro" transform="translate(0.000000, 13.000000)">
                            <rect id="Background" x="0" y="0" width="101.923077" height="30.5769231"></rect>
                            <g id="Page-1">
                                <polygon id="Fill-1" fill="#FEFEFE" points="0 30.1699615 101.393077 30.1699615 101.393077 0.000346153846 0 0.000346153846"></polygon>
                                <polygon id="Fill-2" fill="#005EA6" points="0 29.6668846 101.393077 29.6668846 101.393077 0.4215 0 0.4215"></polygon>
                                <polygon id="Fill-3" fill="#FEFEFE" points="20.8785 4.64388462 25.4713846 4.64388462 27.8898462 25.2302308 22.5111923 25.2302308 21.1721538 16.9369615 21.1144615 16.9369615 17.3667692 25.5221538 12.9763846 17.0344615 12.9181154 17.0344615 11.9736923 25.2302308 6.31753846 25.2302308 9.36542308 4.64388462 13.6594615 4.64388462 17.1896538 12.2656154"></polygon>
                                <polygon id="Fill-4" fill="#EC202D" points="0 0.421673077 0 17.5320577 19.1475 0.421673077"></polygon>
                                <polygon id="Fill-5" fill="#005EA6" points="0.480288462 9.76471154 3.62336538 13.3589423 4.46682692 12.5466346 3.38913462 11.3143269 4.26432692 10.54875 3.60721154 9.79875 2.73259615 10.5643269 2.06682692 9.80278846 3.27375 8.74701923 2.35413462 8.12625"></polygon>
                                <g id="Group-28" transform="translate(0.000000, 0.746885)">
                                    <path d="M5.10242308,8.05488462 C5.50280769,7.75026923 5.68973077,7.36776923 5.32223077,6.94892308 C4.95126923,6.52373077 4.58203846,6.72796154 4.233,7.06026923 L5.10242308,8.05488462 Z M2.6955,7.08046154 L3.69588462,6.20584615 C4.52376923,5.48180769 5.38338462,5.24123077 6.08896154,6.04834615 C6.41088462,6.41642308 6.54761538,7.00084615 6.303,7.45257692 L8.44280769,7.96546154 L7.80126923,9.03046154 L5.29915385,8.25796154 L5.28819231,8.26719231 L6.64684615,9.82084615 L5.83915385,10.6729615 L2.6955,7.08046154 Z" id="Fill-6" fill="#005EA6"></path>
                                    <polygon id="Fill-8" fill="#005EA6" points="8.76426923 8.04051923 5.65811538 4.48898077 7.66638462 2.73225 8.47811538 3.34725 7.19446154 4.47051923 7.73330769 5.08609615 8.65061538 4.28532692 9.306 5.03532692 8.39042308 5.83782692 8.98753846 6.52090385 10.3808077 5.30186538 10.8204231 6.24282692"></polygon>
                                    <polygon id="Fill-10" fill="#005EA6" points="11.3533846 5.77678846 8.24607692 2.22467308 10.2555 0.467365385 11.0672308 1.08294231 9.783 2.20505769 10.3224231 2.82178846 11.2385769 2.01986538 11.8956923 2.77101923 10.9795385 3.57294231 11.5772308 4.25601923 12.9710769 3.03813462 13.4095385 3.97851923"></polygon>
                                    <polygon id="Fill-12" fill="#FEFEFE" points="2.73248077 9.81721154 3.60709615 9.05163462 4.26421154 9.80221154 3.38901923 10.5677885 4.46728846 11.8000962 3.62325 12.6118269 0.480173077 9.01817308 2.35459615 7.37913462 3.27363462 8.00048077 2.06671154 9.05567308"></polygon>
                                    <path d="M5.10242308,8.05488462 C5.50280769,7.75026923 5.68973077,7.36776923 5.32223077,6.94892308 C4.95126923,6.52373077 4.58203846,6.72796154 4.233,7.06026923 L5.10242308,8.05488462 Z M2.6955,7.08046154 L3.69588462,6.20584615 C4.52376923,5.48180769 5.38338462,5.24123077 6.08896154,6.04834615 C6.41088462,6.41642308 6.54761538,7.00084615 6.303,7.45257692 L8.44280769,7.96546154 L7.80126923,9.03046154 L5.29915385,8.25796154 L5.28819231,8.26719231 L6.64684615,9.82084615 L5.83915385,10.6729615 L2.6955,7.08046154 Z" id="Fill-14" fill="#FEFEFE"></path>
                                    <polygon id="Fill-16" fill="#FEFEFE" points="8.76426923 8.04051923 5.65811538 4.48898077 7.66638462 2.73225 8.47811538 3.34725 7.19446154 4.47051923 7.73330769 5.08609615 8.65061538 4.28532692 9.306 5.03532692 8.39042308 5.83782692 8.98753846 6.52090385 10.3808077 5.30186538 10.8204231 6.24282692"></polygon>
                                    <polygon id="Fill-18" fill="#FEFEFE" points="11.3533846 5.77678846 8.24607692 2.22467308 10.2555 0.467365385 11.0672308 1.08294231 9.783 2.20505769 10.3224231 2.82178846 11.2385769 2.01986538 11.8956923 2.77101923 10.9795385 3.57294231 11.5772308 4.25601923 12.9710769 3.03813462 13.4095385 3.97851923"></polygon>
                                    <polygon id="Fill-20" fill="#FEFEFE" points="29.8749231 24.4834038 29.8749231 3.89705769 40.7816538 3.89705769 41.6603077 9.41878846 35.1860769 9.41878846 35.1860769 11.4587885 39.2816538 11.4587885 39.2816538 17.0780192 35.0891538 17.0780192 35.0891538 19.0741731 42.3116538 19.0741731 40.9506923 24.4834038"></polygon>
                                    <polygon id="Fill-22" fill="#FEFEFE" points="43.947 3.897 56.4956538 3.897 57.0593077 9.27565385 53.0635385 9.27565385 53.0635385 24.4833462 47.5262308 24.4833462 47.5262308 9.27565385 43.4162308 9.27565385"></polygon>
                                    <path d="M58.7233269,24.4834038 L64.23525,24.4834038 L64.22025,16.2605192 L64.3442885,16.2605192 L67.6835192,24.4834038 L73.7325577,24.4834038 L69.9115962,15.5710962 C71.7208269,14.6399423 72.5856346,12.8393654 72.5856346,10.6187885 C72.5856346,7.07821154 70.6131346,3.89705769 65.66775,3.89705769 L58.7233269,3.89705769 L58.7233269,24.4834038 Z M64.0287115,8.60821154 L64.9114038,8.60821154 C66.5464038,8.60821154 67.2664038,9.62821154 67.2664038,11.0387885 C67.2664038,12.4782115 66.5464038,13.4993654 64.9114038,13.4993654 L64.0287115,13.4993654 L64.0287115,8.60821154 Z" id="Fill-24" fill="#FEFEFE"></path>
                                    <path d="M84.5885192,3.42432692 C77.6094808,3.42432692 74.0187115,8.94663462 74.0187115,14.1972115 C74.0187115,19.4495192 77.6094808,24.9706731 84.5885192,24.9706731 C91.5692885,24.9706731 95.1589038,19.4495192 95.1589038,14.1972115 C95.1589038,8.94663462 91.5692885,3.42432692 84.5885192,3.42432692 M84.5885192,8.98067308 C87.7292885,8.98067308 89.5806346,11.53875 89.5806346,14.1972115 C89.5806346,16.8568269 87.7292885,19.4143269 84.5885192,19.4143269 C81.44775,19.4143269 79.5964038,16.8568269 79.5964038,14.1972115 C79.5964038,11.53875 81.44775,8.98067308 84.5885192,8.98067308" id="Fill-26" fill="#FEFEFE"></path>
                                </g>
                            </g>
                        </g>
                    </g>
                </g>
            </g>
        </g>
    </g>
</svg>