<svg xmlns="http://www.w3.org/2000/svg" xmlns:xlink="http://www.w3.org/1999/xlink" version="1.1" viewBox="11 3 98 40">
    <title>mindful-employer</title>
    <g id="Page-1" stroke="none" stroke-width="1" fill="none" fill-rule="evenodd">
        <g id="mindful-employer">
            <rect id="bounds" x="0" y="0" width="120" height="45"/>
            <g id="logo" transform="translate(11.000000, 3.000000)" fill="#040869" fill-rule="nonzero">
                <path d="M39.8928309,39.6152627 C34.8278812,36.6599725 30.1228988,32.9056125 24.9647811,27.6968608 C21.3608746,24.0566536 18.3752647,20.543283 15.605635,16.6874538 C14.966164,15.7995984 13.5008859,13.6137829 13.0435158,12.8696755 C12.8698846,12.5864074 12.7174279,12.3538738 12.7047232,12.3538738 C12.6920185,12.3538738 12.5437967,12.670965 12.3701655,13.0641581 C10.7566657,16.7128211 9.27444795,18.843674 7.85575386,19.5497305 C7.40261873,19.7780361 7.21628279,19.8160871 6.60645607,19.8118592 C6.19143512,19.8076313 5.93310574,19.7864919 5.65360183,19.7188458 C4.03163217,19.3467921 2.31225963,18.2010358 0.520893652,16.2984885 L0,15.7446359 L0.457370036,15.5882042 C0.707229592,15.5036465 1.10531092,15.3387591 1.34246575,15.2246063 C3.38792619,14.260649 4.94637224,12.0790614 7.06382611,7.21699609 C8.57145326,3.75013212 9.18551489,2.13508086 9.71911326,0.24944509 L9.78687179,0 L10.1553088,0.355142163 C11.0742837,1.23876969 12.5607364,2.35070289 15.1863792,4.11373005 L16.2662806,4.84092591 L16.9142215,6.13465807 C19.552569,11.3899165 23.1014217,16.8650248 27.7174712,22.7756051 C32.8417095,29.3457351 37.7669072,34.4741571 41.8112441,37.4632703 L42.1754462,37.7338548 L41.9340564,38.0763133 C41.8027743,38.266568 41.447042,38.7781418 41.1421287,39.2136138 C40.8414502,39.6448578 40.5831209,40 40.5704161,40 C40.5577114,40 40.2527981,39.8266568 39.8928309,39.6152627 Z" id="shape" transform="translate(21.087723, 20.000000) scale(-1, 1) rotate(-180.000000) translate(-21.087723, -20.000000) "/>
                <path d="M41.5020958,11.1573829 L41.5020958,6.67582708 L42.3702519,6.67582708 L43.238408,6.67582708 L43.2426429,10.2187929 L43.2426429,13.7575309 L44.1065641,10.3752246 C44.5808738,8.51495614 44.9916598,6.92104429 45.0170693,6.83648663 L45.0636533,6.67582708 L45.948749,6.67582708 L46.8380796,6.67582708 L46.867724,6.7942078 C46.8804287,6.85762604 47.2827449,8.43885424 47.7528197,10.3118064 L48.608271,13.7152521 L48.6125059,10.1976535 L48.6167408,6.67582708 L49.4848969,6.67582708 L50.353053,6.67582708 L50.353053,11.1573829 L50.353053,15.6389388 L48.9555335,15.6389388 C48.1890152,15.6389388 47.5580139,15.630483 47.5580139,15.6220273 C47.5580139,15.5839763 45.9868631,9.69030758 45.9614537,9.62688934 C45.9402792,9.57615474 45.6692451,10.506289 45.1907005,12.2904556 C44.7841493,13.7955819 44.4157124,15.1654159 44.3691284,15.3345312 L44.2886651,15.6389388 L42.8953805,15.6389388 L41.5020958,15.6389388 L41.5020958,11.1573829 Z" id="shape" transform="translate(45.927574, 11.157383) scale(-1, 1) rotate(-180.000000) translate(-45.927574, -11.157383) "/>
                <polygon id="shape" transform="translate(53.021045, 11.157383) scale(-1, 1) rotate(-180.000000) translate(-53.021045, -11.157383) " points="52.0893652 11.1573829 52.0893652 6.67582708 53.0210449 6.67582708 53.9527246 6.67582708 53.9527246 11.1573829 53.9527246 15.6389388 53.0210449 15.6389388 52.0893652 15.6389388"/>
                <path d="M55.816084,11.1573829 L55.816084,6.67582708 L56.6630656,6.67582708 L57.5100471,6.67582708 L57.5185169,9.60152204 L57.5312216,12.527217 L59.0727281,10.0539055 C59.9239445,8.6967551 60.7412817,7.38188352 60.8937384,7.13243843 L61.1732423,6.68005496 L62.1176267,6.67582708 L63.0577762,6.67582708 L63.0577762,11.1573829 L63.0577762,15.6389388 L62.1896202,15.6389388 L61.3214641,15.6389388 L61.3129943,12.6582814 L61.3002895,9.67762393 L59.4538698,12.6455977 L57.6116849,15.6177994 L56.7138844,15.630483 L55.816084,15.6389388 L55.816084,11.1573829 Z" id="shape" transform="translate(59.436930, 11.157383) scale(-1, 1) rotate(-180.000000) translate(-59.436930, -11.157383) "/>
                <path d="M64.9634847,11.1573829 L64.9634847,6.67582708 L66.9115423,6.67582708 C69.4821313,6.67582708 69.9183268,6.72656167 70.7187243,7.12821055 C71.7012229,7.61864496 72.387278,8.72635028 72.5820837,10.1215516 C72.6413725,10.5316563 72.6413725,11.6224501 72.5863187,12.0875172 C72.3788082,13.7786703 71.5318266,14.9793891 70.227475,15.4317725 C69.7065814,15.6135715 69.3000302,15.6389388 67.0724688,15.6389388 L64.9634847,15.6389388 L64.9634847,11.1573829 Z M69.037466,14.0577106 C69.9013871,13.9012789 70.3418176,13.4742628 70.6043818,12.527217 C70.68908,12.2270373 70.6975498,12.0875172 70.6975498,11.1573829 C70.7017847,10.2187929 70.6933149,10.0877286 70.6043818,9.74949794 C70.4773346,9.24215199 70.3248779,8.93351654 70.0665486,8.67984357 C69.676937,8.28665046 69.2492114,8.19786492 67.7754635,8.19786492 L66.8268441,8.19786492 L66.8268441,11.1573829 L66.8268441,14.116901 L67.7712286,14.116901 C68.3725855,14.1126731 68.8299555,14.0915337 69.037466,14.0577106 Z" id="shape" transform="translate(68.795290, 11.157383) scale(-1, 1) rotate(-180.000000) translate(-68.795290, -11.157383) "/>
                <polygon id="shape" transform="translate(77.329415, 11.157383) scale(-1, 1) rotate(-180.000000) translate(-77.329415, -11.157383) " points="74.1955836 11.1573829 74.1955836 6.67582708 75.1272633 6.67582708 76.058943 6.67582708 76.058943 8.57837438 76.058943 10.4809217 77.9646515 10.4809217 79.87036 10.4809217 79.87036 11.2419406 79.87036 12.0029595 77.9646515 12.0029595 76.058943 12.0029595 76.058943 13.0599302 76.058943 14.116901 78.261095 14.116901 80.4632471 14.116901 80.4632471 14.8779199 80.4632471 15.6389388 77.3294153 15.6389388 74.1955836 15.6389388"/>
                <path d="M82.0005186,12.6692489 C82.0132233,10.7032833 82.0386327,9.46874154 82.0682771,9.29539834 C82.1529752,8.80073604 82.2376734,8.51746789 82.4155395,8.15809784 C82.8178558,7.34211645 83.588609,6.87704933 84.8209671,6.7121619 C85.37574,6.63606 86.6673869,6.6867946 87.1120522,6.79671955 C88.1623093,7.06307618 88.8441295,7.68457496 89.0982239,8.61893708 C89.2549155,9.1812455 89.2718551,9.60403379 89.3014995,12.7115277 L89.3269089,15.7640592 L88.3909943,15.7640592 L87.4550797,15.7640592 L87.442375,12.6481095 C87.4254354,9.63785686 87.4212005,9.51947613 87.3365023,9.24466375 C87.2221598,8.86838217 87.0697031,8.64430438 86.8240785,8.48787271 C86.5276349,8.30184586 86.2227216,8.22574397 85.7357072,8.22574397 C84.8040275,8.22151609 84.2577244,8.5386073 83.9697507,9.24889163 L83.8723478,9.48565307 L83.8596431,12.6269701 L83.8469383,15.7640592 L82.9152586,15.7640592 L81.979344,15.7640592 L82.0005186,12.6692489 Z" id="shape" transform="translate(85.653126, 11.219943) scale(-1, 1) rotate(-180.000000) translate(-85.653126, -11.219943) "/>
                <polygon id="shape" transform="translate(94.438443, 11.157383) scale(-1, 1) rotate(-180.000000) translate(-94.438443, -11.157383) " points="91.2199127 11.1573829 91.2199127 6.67582708 94.4384426 6.67582708 97.6569725 6.67582708 97.6569725 7.436846 97.6569725 8.19786492 95.3616525 8.20632068 93.0620976 8.21900433 93.0493929 11.9310855 93.040923 15.6389388 92.1304179 15.6389388 91.2199127 15.6389388"/>
                <path d="M66.8480187,30.7277862 C65.5394322,30.5375315 64.4680005,29.8061078 63.8878182,28.7026303 C63.4982066,27.9585229 63.3372802,27.2228713 63.3372802,26.1659006 C63.3330452,25.1216135 63.4727972,24.4409244 63.8454691,23.6883612 C64.582343,22.2043743 66.1069098,21.4264439 68.0549674,21.532141 C69.7658701,21.6251544 70.9685839,22.3481224 71.6419342,23.6925891 C71.9553174,24.3140879 72.1162439,25.0201443 72.1501232,25.899544 C72.2517609,28.533515 70.9516443,30.3430489 68.6859686,30.7108747 C68.254008,30.7785208 67.2757443,30.7869766 66.8480187,30.7277862 Z M68.4572836,29.1423302 C69.3085001,28.9351639 69.8802126,28.3052093 70.138542,27.2862896 C70.2190052,26.9649705 70.23171,26.7916273 70.23171,26.1659006 C70.23171,25.5401739 70.2190052,25.3668307 70.138542,25.0497395 C69.8971522,24.094238 69.359319,23.4642834 68.5504516,23.2021547 C68.2963571,23.117597 68.1566052,23.1006855 67.7373493,23.1006855 C66.9750659,23.1006855 66.5388704,23.2740287 66.0391513,23.7729189 C65.4462642,24.3690504 65.1709952,25.2653615 65.2302839,26.4195736 C65.2811028,27.3497078 65.5606067,28.1064988 66.0222117,28.5800217 C66.5854544,29.1507859 67.521369,29.3664079 68.4572836,29.1423302 Z" id="shape" transform="translate(67.746429, 26.144994) scale(-1, 1) rotate(-180.000000) translate(-67.746429, -26.144994) "/>
                <polygon id="shape" transform="translate(31.719459, 26.124088) scale(-1, 1) rotate(-180.000000) translate(-31.719459, -26.124088) " points="28.2468346 26.1240884 28.2468346 21.6425325 31.719459 21.6425325 35.1920833 21.6425325 35.1920833 22.4035514 35.1920833 23.1645703 32.6511387 23.1645703 30.110194 23.1645703 30.110194 24.369517 30.110194 25.5744636 32.3970442 25.5744636 34.6838944 25.5744636 34.6838944 26.3354825 34.6838944 27.0965014 32.3970442 27.0965014 30.110194 27.0965014 30.110194 28.0900539 30.110194 29.0836064 32.5664405 29.0836064 35.022687 29.0836064 35.022687 29.8446253 35.022687 30.6056442 31.6347608 30.6056442 28.2468346 30.6056442"/>
                <path d="M36.7166501,26.1240884 L36.7166501,21.6425325 L37.5636316,21.6425325 L38.4106132,21.6425325 L38.4106132,25.1643589 C38.4106132,27.1176408 38.4275528,28.6523623 38.4487274,28.6185393 C38.4826066,28.5635768 40.2316235,21.7397738 40.2316235,21.6678998 C40.2316235,21.6552162 40.6381747,21.6425325 41.1378938,21.6425325 L42.044164,21.6425325 L42.8996154,25.0798013 C43.3739251,26.9654371 43.7762413,28.5508931 43.7931809,28.5973999 C43.8101206,28.6439066 43.8270602,27.0965014 43.8270602,25.1643589 L43.8312951,21.6425325 L44.6782767,21.6425325 L45.5252582,21.6425325 L45.5252582,26.1240884 L45.5252582,30.6056442 L44.1446783,30.5971885 L42.7598634,30.5845048 L42.0483989,27.8997992 C41.6587874,26.424268 41.2945854,25.0586619 41.2437665,24.8641793 C41.1929476,24.6739245 41.1421287,24.5259486 41.129424,24.5386323 C41.1167192,24.547088 40.7440474,25.9126942 40.2951471,27.5700243 L39.4820449,30.5845048 L38.1014649,30.5971885 L36.7166501,30.6056442 L36.7166501,26.1240884 Z" id="shape" transform="translate(41.120954, 26.124088) scale(-1, 1) rotate(-180.000000) translate(-41.120954, -26.124088) "/>
                <path d="M47.3886176,26.1198605 L47.3886176,21.6340767 L48.3202973,21.6340767 L49.251977,21.6340767 L49.251977,23.3252299 L49.251977,25.016383 L50.3869323,25.016383 C52.3519295,25.016383 52.9278769,25.1559032 53.6012273,25.7900856 C54.1517653,26.3143431 54.3889201,26.9231582 54.3889201,27.8279252 C54.3889201,28.4451961 54.3126918,28.7918825 54.0755369,29.2484938 C53.8510868,29.6797379 53.4318309,30.0813867 52.9956355,30.288553 C52.4578022,30.542226 52.284171,30.5591375 49.709347,30.5845048 L47.3886176,30.6056442 L47.3886176,26.1198605 Z M51.6108206,28.9736814 C52.3519295,28.73692 52.7076617,27.9209386 52.3646342,27.2360216 C52.2206473,26.9442976 51.9707878,26.749815 51.6108206,26.644118 C51.3482563,26.5637882 50.5309191,26.5003699 49.7940452,26.4961421 L49.251977,26.4961421 L49.251977,27.7898742 L49.251977,29.0836064 L50.3234087,29.062467 C51.1492157,29.0497833 51.4414243,29.0286439 51.6108206,28.9736814 Z" id="shape" transform="translate(50.888769, 26.119860) scale(-1, 1) rotate(-180.000000) translate(-50.888769, -26.119860) "/>
                <polygon id="shape" transform="translate(59.161661, 26.124088) scale(-1, 1) rotate(-180.000000) translate(-59.161661, -26.124088) " points="55.9431312 26.1240884 55.9431312 21.6425325 59.1616611 21.6425325 62.380191 21.6425325 62.380191 22.4035514 62.380191 23.1645703 60.0721663 23.1645703 57.7641416 23.1645703 57.7641416 26.8851073 57.7641416 30.6056442 56.8536364 30.6056442 55.9431312 30.6056442"/>
                <path d="M71.83674,30.5464539 C71.8494447,30.5126308 72.5990234,29.3415072 73.5052936,27.9378501 L75.1484378,25.3842089 L75.1484378,23.5239404 L75.1484378,21.6636719 L76.0716477,21.6509883 L76.9906227,21.6425325 L76.9906227,23.5154846 L76.9906227,25.3884367 L78.6252971,27.9209386 C79.5230975,29.3119121 80.2769111,30.4872635 80.2980856,30.5295423 C80.3361998,30.6014163 80.2896158,30.6056442 79.2817078,30.6056442 L78.2187459,30.6056442 L77.1727237,28.8510728 C76.5967763,27.8871155 76.1139968,27.0965014 76.1012921,27.0965014 C76.0885874,27.0965014 75.6058079,27.8871155 75.0213906,28.8510728 L73.9626637,30.6056442 L72.8869971,30.6056442 C71.9891967,30.6056442 71.8198004,30.5971885 71.83674,30.5464539 Z" id="shape" transform="translate(76.071184, 26.124088) scale(-1, 1) rotate(-180.000000) translate(-76.071184, -26.124088) "/>
                <polygon id="shape" transform="translate(84.740504, 26.124088) scale(-1, 1) rotate(-180.000000) translate(-84.740504, -26.124088) " points="81.2678795 26.1240884 81.2678795 21.6425325 84.7405039 21.6425325 88.2131282 21.6425325 88.2131282 22.4035514 88.2131282 23.1645703 85.6721836 23.1645703 83.1312389 23.1645703 83.1312389 24.369517 83.1312389 25.5744636 85.4180891 25.5744636 87.7049393 25.5744636 87.7049393 26.3354825 87.7049393 27.0965014 85.4180891 27.0965014 83.1312389 27.0965014 83.1312389 28.0900539 83.1312389 29.0836064 85.60866 29.0836064 88.086081 29.0836064 88.086081 29.8446253 88.086081 30.6056442 84.6769803 30.6056442 81.2678795 30.6056442"/>
                <path d="M89.8223932,26.1198605 L89.8223932,21.6340767 L90.7328983,21.6340767 L91.6434035,21.6340767 L91.6434035,23.4985731 L91.6434035,25.3630694 L92.2066462,25.34193 C93.2823128,25.3038791 93.2865477,25.3038791 94.9042824,22.9278089 L95.7766734,21.6552162 L96.8862193,21.6425325 L98,21.6340767 L97.9364764,21.7482296 C97.8009593,22.0019025 96.5220172,23.9763239 96.2806275,24.3018708 C95.933365,24.7711658 95.5606931,25.1389916 95.1753165,25.379981 L94.8534635,25.5871472 L95.0440344,25.6167424 C95.9121905,25.739351 96.6914135,26.2551527 97.0132665,26.9189303 C97.4409922,27.7856463 97.3308846,28.8722122 96.7422324,29.6712821 C96.4457889,30.0771589 95.8994858,30.3773385 95.2430751,30.4957193 C94.9000475,30.5591375 94.4723219,30.5718212 92.3336934,30.5845048 L89.8223932,30.6056442 L89.8223932,26.1198605 Z M94.3664492,29.0328718 C94.7264163,28.9821372 94.9381617,28.8722122 95.1287326,28.6523623 C95.475995,28.2464856 95.4421157,27.5404291 95.060974,27.1556918 C94.7560607,26.8512842 94.603604,26.8259169 93.0112787,26.8047775 L91.6434035,26.7836381 L91.6434035,27.9293944 L91.6434035,29.0751506 L92.8630569,29.0751506 C93.5321723,29.0751506 94.2097576,29.0540112 94.3664492,29.0328718 Z" id="shape" transform="translate(93.911197, 26.119860) scale(-1, 1) rotate(-180.000000) translate(-93.911197, -26.119860) "/>
            </g>
        </g>
    </g>
</svg>