<?xml version="1.0" encoding="UTF-8"?>
<svg width="100px" height="111px" viewBox="0 0 100 111" version="1.1" xmlns="http://www.w3.org/2000/svg" xmlns:xlink="http://www.w3.org/1999/xlink">
    <title>positive-energy</title>
    <defs>
        <path d="M6.20100095,0 C5.55796197,0 4.98071433,0.21797478 4.4701162,0.65421115 L4.4701162,0.65421115 C3.95894597,1.09044752 3.66603142,1.65029853 3.58994228,2.33319057 L3.58994228,2.33319057 L0.014039084,28.9674142 C-0.0611919009,29.7638826 0.165931301,30.465704 0.695408688,31.0728785 L0.695408688,31.0728785 C1.22517213,31.680053 1.88737642,31.9834969 2.68202158,31.9834969 L2.68202158,31.9834969 L15.8503044,31.9834969 L10.7417487,53.6091763 C10.5526701,54.4440771 10.7134298,55.2026867 11.224314,55.8855787 L11.224314,55.8855787 C11.7351982,56.5687576 12.4257213,56.910347 13.2958835,56.910347 L13.2958835,56.910347 C13.7878885,56.910347 14.2326952,56.7961971 14.6297318,56.5687576 L14.6297318,56.5687576 C15.0270543,56.3410313 15.3582995,56.0183713 15.6228952,55.6010643 L15.6228952,55.6010643 L35.1483393,21.7966176 C35.4890241,21.2273019 35.59286,20.6204142 35.4604191,19.9753809 L35.4604191,19.9753809 C35.3279783,19.3303477 35.0161845,18.7991776 34.5241795,18.3821574 L34.5241795,18.3821574 C34.0324607,17.9642768 33.4646527,17.7557667 32.8213276,17.7557667 L32.8213276,17.7557667 L20.0506534,17.7557667 L24.7613145,3.35767204 C24.9884377,2.52305808 24.8368315,1.75469698 24.3073541,1.05258874 L24.3073541,1.05258874 C23.7775907,0.350767311 23.0773418,0 22.2071796,0 L22.2071796,0 L6.20100095,0 Z" id="path-1"></path>
    </defs>
    <g id="—-Main" stroke="none" stroke-width="1" fill="none" fill-rule="evenodd">
        <g id="positive-energy">
            <path d="M92.977774,88.5092331 C96.8400126,86.2732708 100,80.7854689 100,76.313831 L100,34.6858105 C100,30.2144594 96.8400126,24.7266575 92.977774,22.490982 L57.022226,1.67697176 C53.1599874,-0.558990588 46.8400126,-0.558990588 42.977774,1.67697176 L7.02222604,22.490982 C3.15998741,24.7266575 0,30.2144594 0,34.6858105 L0,76.313831 C0,80.7854689 3.15998741,86.2732708 7.02222604,88.5092331 L42.977774,109.323243 C46.8400126,111.558919 53.1599874,111.558919 57.022226,109.323243 L92.977774,88.5092331 Z" id="Fill-1" fill="#FF9600"></path>
            <g id="Group-5" transform="translate(32.241803, 30.644271)">
                <mask id="mask-2" fill="white">
                    <use xlink:href="#path-1"></use>
                </mask>
                <g id="Clip-4"></g>
                <polygon id="Fill-3" fill="#FFFFFF" mask="url(#mask-2)" points="-2.83787316 59.7557783 38.3540946 59.7557783 38.3540946 -2.84543131 -2.83787316 -2.84543131"></polygon>
            </g>
        </g>
    </g>
</svg>