<svg version="1.1" xmlns="http://www.w3.org/2000/svg" x="0" y="0" viewBox="0 0 140 35" enable-background="new 0 0 140 35" xml:space="preserve"><path opacity="0.5" fill="#FFFFFF" d="M38.9 21.9l-0.2 0.3 -12.3-5.8 -12.9 6.2 -0.2-0.2c0.1-0.2 0.2-0.3 0.4-0.4l3.1-2.3v-4.3c0-0.2 0.1-0.3 0.3-0.3h2.1c0.2 0 0.3 0.1 0.3 0.3v2.3l6.1-4.4c0.4-0.3 1.1-0.3 1.6 0L38.9 21.9zM49.5 8.1c-0.4-0.3-1.1-0.3-1.6 0l-6.1 4.4v-2.3c0-0.2-0.1-0.3-0.3-0.3h-2.1c-0.2 0-0.3 0.1-0.3 0.3v4.3l-3.1 2.3c-0.1 0.1-0.3 0.3-0.4 0.4l0.2 0.2 12.9-6.2L61.2 17l0.2-0.3L49.5 8.1zM72 2.9c-0.4-0.3-1.1-0.3-1.6 0l-6.1 4.4V5c0-0.2-0.1-0.3-0.3-0.3H62c-0.2 0-0.3 0.1-0.3 0.3v4.3l-3.1 2.3c-0.1 0.1-0.3 0.3-0.4 0.4l0.2 0.2L71.4 6l12.3 5.8 0.2-0.3L72 2.9z"/><path fill="#FFFFFF" d="M7.8 31.9H5.3c-0.1 0-0.2-0.1-0.3-0.3l-1.6-3.2 -0.1-0.1c-0.1 0-0.6 0-0.7 0v3.2c0 0.1-0.1 0.3-0.3 0.3H0.3c-0.1 0-0.3-0.1-0.3-0.3V23c0-0.6 0.2-0.8 0.8-0.9C1.3 22.1 2.6 22 3.5 22c2.4 0 4.1 0.8 4.1 3.2v0.2c0 1.4-0.8 2.2-1.6 2.6l1.9 3.6c0 0.1 0 0.1 0 0.1C8 31.8 7.9 31.9 7.8 31.9zM5 25.2c0-0.6-0.4-0.9-1.3-0.9 -0.1 0-0.9 0-1 0v2.1c0.1 0 0.9 0 1 0 1 0 1.4-0.4 1.4-1V25.2zM15.1 31.9h-1.8c-0.1 0-0.3-0.1-0.3-0.3v-0.3c-0.5 0.4-1.2 0.7-1.9 0.7 -1 0-2.2-0.6-2.2-2.4v-0.2c0-1.6 1.2-2.1 3.4-2.1h0.6V27c0-0.6-0.4-0.8-0.9-0.8 -0.8 0-1.7 0-2.3 0.1h0c-0.1 0-0.2-0.1-0.2-0.3v-1.3c0-0.1 0.1-0.3 0.3-0.3 0.4-0.1 1.6-0.3 2.4-0.3 1.9 0 3.3 0.7 3.3 2.8v4.6C15.3 31.8 15.2 31.9 15.1 31.9zM12.9 28.7h-0.6c-0.7 0-0.9 0.2-0.9 0.8v0.1c0 0.4 0.3 0.6 0.7 0.6 0.3 0 0.7-0.1 0.9-0.2V28.7zM19 31.9h-2c-0.1 0-0.3-0.1-0.3-0.3v-7.1c0-0.1 0.1-0.3 0.3-0.3h2c0.1 0 0.3 0.1 0.3 0.3v7.1C19.3 31.7 19.2 31.9 19 31.9zM23.3 32c-0.9 0-1.8-0.1-2.4-0.3 -0.2 0-0.2-0.1-0.2-0.3V30c0-0.2 0.1-0.3 0.3-0.3 0 0 0 0 0.1 0 0.8 0.1 1.8 0.2 2.3 0.2 0.5 0 0.6-0.1 0.6-0.4 0-0.1-0.1-0.3-0.4-0.4l-1.6-0.9c-0.8-0.4-1.2-1.1-1.2-2.1 0-1.3 0.9-2.1 2.9-2.1 1 0 1.8 0.2 2.4 0.3 0.2 0 0.3 0.1 0.3 0.3v1.4c0 0.2-0.1 0.3-0.2 0.3 0 0 0 0 0 0 -0.4-0.1-1.7-0.2-2.3-0.2 -0.3 0-0.5 0.1-0.5 0.3 0 0.1 0.1 0.2 0.3 0.3l1.5 0.8c1.1 0.6 1.4 1.3 1.4 2C26.4 31 25.5 32 23.3 32zM34 28.8h-4.1v0c0 0.7 0.3 1.1 1.2 1.1 0.7 0 2-0.1 2.5-0.1 0 0 0 0 0.1 0 0.1 0 0.2 0.1 0.2 0.2v1.2c0 0.2-0.1 0.3-0.3 0.4 -0.8 0.3-1.7 0.4-2.9 0.4 -1.8 0-3.4-0.9-3.4-3.4v-0.9c0-2.3 1.3-3.6 3.5-3.6 2.3 0 3.4 1.5 3.4 3.6v0.8C34.3 28.7 34.2 28.8 34 28.8zM31.9 27.3c0-0.8-0.3-1.3-1-1.3 -0.6 0-1 0.5-1 1.3v0L31.9 27.3 31.9 27.3z"/><path fill="#FFFFFF" d="M39.7 24.9l-0.1 0.4c0 0.1-0.2 0.3-0.3 0.3H38l-0.8 4.6c0 0.2 0 0.3 0 0.4 0 0.4 0.2 0.4 0.6 0.4h0.8c0.1 0 0.2 0 0.2 0.1 0 0 0 0 0 0.1l-0.1 0.5c0 0.1-0.1 0.2-0.3 0.2 -0.3 0-0.6 0.1-0.8 0.1 -0.9 0-1.6-0.3-1.6-1.2 0-0.2 0-0.3 0.1-0.5l0.8-4.6 -1.2-0.1c-0.1 0-0.2-0.1-0.2-0.2 0 0 0 0 0 0l0.1-0.4c0-0.1 0.1-0.2 0.3-0.2H37l0.2-1.3c0-0.1 0.1-0.2 0.3-0.3l0.7-0.1c0 0 0 0 0 0 0.1 0 0.2 0.1 0.2 0.2 0 0 0 0 0 0l-0.2 1.4h1.4C39.7 24.7 39.7 24.8 39.7 24.9 39.7 24.9 39.7 24.9 39.7 24.9zM46.1 27.2l-0.8 4.4c0 0.1-0.2 0.3-0.3 0.3h-0.6c-0.1 0-0.2-0.1-0.2-0.2 0 0 0 0 0 0v0l0.8-4.4c0-0.2 0.1-0.4 0.1-0.5 0-0.8-0.4-1.1-1.5-1.1 -0.5 0-1.1 0.1-1.5 0.2l-1 5.9c0 0.1-0.2 0.3-0.3 0.3h-0.6c-0.1 0-0.2-0.1-0.2-0.2 0 0 0 0 0 0v0l1.6-9.4c0-0.1 0.1-0.2 0.3-0.2h0.7c0.1 0 0.2 0.1 0.2 0.2 0 0 0 0 0 0v0l-0.4 2.5c0.5-0.1 1-0.2 1.5-0.2 1.7 0 2.5 0.9 2.5 2.1C46.2 26.8 46.2 27 46.1 27.2zM53.4 27.8l-0.1 0.6c0 0.2-0.1 0.3-0.3 0.3h-4.4l0 0.2c-0.1 0.3-0.1 0.6-0.1 0.8 0 1 0.6 1.4 1.6 1.4 0.8 0 1.7-0.1 2.3-0.2 0 0 0 0 0 0 0 0 0 0 0.1 0 0.1 0 0.2 0 0.2 0.1 0 0 0 0 0 0v0l-0.1 0.4c0 0.2-0.1 0.3-0.3 0.3C51.5 31.9 50.8 32 50 32c-1.3 0-2.6-0.7-2.6-2.4 0-0.2 0-0.5 0.1-0.8l0.2-0.9c0.4-2.1 1.6-3.2 3.5-3.2 1.6 0 2.4 1.1 2.4 2.4C53.5 27.3 53.5 27.5 53.4 27.8zM50.9 25.6c-1.1 0-1.9 0.9-2.1 2.1l0 0.1h3.5l0-0.1c0.1-0.3 0.1-0.5 0.1-0.7C52.3 26 51.9 25.6 50.9 25.6z"/><path fill="#FFFFFF" d="M62.5 31.9h-2.4c-0.1 0-0.2-0.1-0.3-0.3l-1.6-3.2 -0.1-0.1c-0.1 0-0.6 0-0.7 0v3.2c0 0.1-0.1 0.3-0.3 0.3H55c-0.1 0-0.3-0.1-0.3-0.3V23c0-0.6 0.2-0.8 0.8-0.9 0.5-0.1 1.8-0.2 2.8-0.2 2.4 0 4.1 0.8 4.1 3.2v0.2c0 1.4-0.8 2.2-1.6 2.6l1.9 3.6c0 0.1 0 0.1 0 0.1C62.8 31.8 62.7 31.9 62.5 31.9zM59.8 25.2c0-0.6-0.4-0.9-1.3-0.9 -0.1 0-0.9 0-1 0v2.1c0.1 0 0.9 0 1 0 1 0 1.4-0.4 1.4-1V25.2zM66.8 32c-2.2 0-3.5-1.2-3.5-3.6v-0.8c0-2.3 1.3-3.6 3.5-3.6 2.2 0 3.4 1.2 3.4 3.6v0.8C70.3 30.8 69 32 66.8 32zM67.8 27.7c0-1-0.3-1.4-0.9-1.4 -0.6 0-0.9 0.4-0.9 1.4v0.8c0 1 0.3 1.5 0.9 1.5 0.6 0 0.9-0.4 0.9-1.5V27.7zM74.8 32c-2.2 0-3.5-1.2-3.5-3.6v-0.8c0-2.3 1.3-3.6 3.5-3.6 2.2 0 3.4 1.2 3.4 3.6v0.8C78.2 30.8 77 32 74.8 32zM75.7 27.7c0-1-0.3-1.4-0.9-1.4 -0.6 0-0.9 0.4-0.9 1.4v0.8c0 1 0.3 1.5 0.9 1.5 0.6 0 0.9-0.4 0.9-1.5V27.7zM83.5 26.1h-1v5.5c0 0.1-0.1 0.3-0.3 0.3h-2c-0.1 0-0.3-0.1-0.3-0.3v-5.5l-0.9-0.2c-0.1 0-0.3-0.1-0.3-0.3v-1.1c0-0.1 0.1-0.3 0.3-0.3H80v-0.4c0-2 0.9-2.4 2.3-2.4 0.4 0 0.8 0.1 1.2 0.1 0.2 0 0.3 0.1 0.3 0.3v1.2c0 0.1-0.1 0.3-0.3 0.3h-0.6c-0.3 0-0.4 0.1-0.4 0.5v0.4h1c0.1 0 0.3 0.1 0.3 0.3v1.3C83.8 26 83.7 26.1 83.5 26.1z"/></svg>