<?xml version="1.0" encoding="UTF-8"?>
<svg width="80px" height="51px" viewBox="0 0 80 51" version="1.1" xmlns="http://www.w3.org/2000/svg" xmlns:xlink="http://www.w3.org/1999/xlink">
    <!-- Generator: sketchtool 51.2 (57519) - http://www.bohemiancoding.com/sketch -->
    <title>AA17D2DE-2238-4B13-99C4-4DF6E2205518</title>
    <desc>Created with sketchtool.</desc>
    <defs>
        <polygon id="path-1" points="0.0198809955 0.0356634121 7.96732293 0.0356634121 7.96732293 9.35294118 0.0198809955 9.35294118"></polygon>
        <polygon id="path-3" points="0 50.9615385 79.8574502 50.9615385 79.8574502 0.0398499246 0 0.0398499246"></polygon>
    </defs>
    <g id="Page-1" stroke="none" stroke-width="1" fill="none" fill-rule="evenodd">
        <g id="Hompage-amends-v2" transform="translate(-1048.000000, -1690.000000)">
            <g id="Group-10" transform="translate(237.000000, 1578.000000)">
                <g id="Group-16" transform="translate(90.000000, 112.000000)">
                    <g id="Group-14" transform="translate(424.000000, 0.000000)">
                        <g id="Logo---Refinery-29" transform="translate(297.000000, 0.000000)">
                            <rect id="Background" x="0" y="0" width="80.5192308" height="50.9615385"></rect>
                            <path d="M25.4580504,16.4329178 C25.4467789,24.3939095 31.9190541,30.8822127 39.8925964,30.9031569 C47.8702555,30.924181 54.364794,24.4488281 54.3882163,16.4504646 C54.4114787,8.49922549 47.921257,1.99625339 39.9519516,1.98590121 C31.9554267,1.97550905 25.4693618,8.44058974 25.4580504,16.4329178 Z M40.7292449,0.0398499246 C41.0987661,0.0793401207 41.468527,0.116871795 41.8378483,0.158640271 C43.9115232,0.393063348 45.8746017,0.995808446 47.697386,2.00800452 C51.8468543,4.31214555 54.5851477,7.75023077 55.8012299,12.3447232 C57.7217404,19.6001275 54.3016816,27.3608703 47.6768415,30.8913258 C45.9689704,31.8014789 44.1619742,32.4047436 42.2483385,32.6804555 C33.9116703,33.8817089 25.9597517,28.4900181 23.9833234,20.3011184 C22.1506665,12.7079691 25.9139063,4.89086878 32.9968407,1.58140649 C34.8739041,0.704348416 36.8461356,0.198410256 38.9159335,0.0772217195 C38.9879192,0.072984917 39.0589855,0.0526802413 39.1304516,0.0398499246 L40.7292449,0.0398499246 Z" id="Fill-1" fill="#231F20"></path>
                            <path d="M1.80916259,45.2526111 C2.20146652,45.2526111 2.5793813,45.2569678 2.9571362,45.2511322 C3.21594087,45.2470952 3.47790317,45.2510523 3.73243107,45.2121616 C4.19288356,45.1418547 4.48402383,44.7499904 4.4794273,44.2503275 C4.4747908,43.7467076 4.18297104,43.3346986 3.72619578,43.2896526 C3.21817919,43.2395704 2.70372745,43.2549587 2.19203363,43.2432076 C2.06764751,43.2402898 1.94318145,43.2427679 1.80916259,43.2427679 L1.80916259,45.2526111 Z M7.99396672e-06,41.6484512 C1.23195822,41.6501299 2.46450799,41.6293856 3.69569879,41.6602423 C4.78711508,41.6876216 5.60577722,42.1984361 6.0589552,43.2106322 C6.66094087,44.5551775 6.00507587,46.1156797 4.63131267,46.6539934 C4.60049593,46.6660244 4.57063846,46.6804535 4.50808567,46.7078728 C5.65873725,48.1177687 6.80271388,49.5194708 7.97586848,50.9569459 L7.08046425,50.9569459 C6.7075457,50.9569459 6.33430739,50.9482725 5.96186848,50.9611028 C5.80962338,50.9663788 5.72081041,50.9099014 5.63019879,50.7967868 C4.65185716,49.5758283 3.6625638,48.3636232 2.69265581,47.1360696 C2.5209454,46.9187137 2.34859548,46.8065983 2.07568145,46.849286 C1.99322368,46.8621963 1.90704872,46.8512845 1.80548537,46.8512845 L1.80548537,50.9614225 L7.99396672e-06,50.9614413 L7.99396672e-06,41.6484512 Z" id="Fill-3" fill="#231F20"></path>
                            <path d="M29.2391048,41.6479516 C29.6465972,41.6479516 30.0326658,41.642116 30.4181749,41.6537472 C30.4818468,41.6556258 30.5561508,41.7227351 30.6038747,41.7783732 C32.238561,43.6838551 33.8706892,45.5915753 35.5032971,47.4988558 C35.5548182,47.5590903 35.6077382,47.6180858 35.702107,47.7256446 L35.702107,41.6564252 L37.5028679,41.6564252 L37.5028679,50.9557668 C37.0922578,50.9557668 36.682647,50.9599237 36.2733159,50.9504908 C36.2221146,50.9493317 36.1642382,50.8836612 36.1233891,50.8360172 C34.5156025,48.960113 32.9094946,47.0828498 31.3029871,45.2058664 C31.2300821,45.1206906 31.1554984,45.0368739 31.0436628,44.9089704 L31.0436628,50.9428566 L29.2391048,50.9428566 L29.2391048,41.6479516 Z" id="Fill-5" fill="#231F20"></path>
                            <g id="Group-9" transform="translate(48.363499, 41.608597)">
                                <mask id="mask-2" fill="white">
                                    <use xlink:href="#path-1"></use>
                                </mask>
                                <g id="Clip-8"></g>
                                <path d="M1.79969774,3.6440138 C2.02816531,3.6440138 2.23389005,3.64685166 2.43949487,3.64341425 C2.85146395,3.63653944 3.26699035,3.65684412 3.67448281,3.60943989 C4.16846998,3.55188333 4.4635273,3.17792557 4.46664495,2.69161259 C4.47020226,2.12939691 4.18014118,1.71730792 3.66313137,1.67513974 C3.05515023,1.62553718 2.44121357,1.64899947 1.82983499,1.64204472 C1.82000241,1.64192481 1.80993002,1.65819253 1.79969774,1.66690596 L1.79969774,3.6440138 Z M1.80105671,5.24268725 L1.80105671,9.33563824 L0.0198809955,9.33563824 L0.0198809955,0.0508456259 C0.0532158371,0.0468086727 0.0846321267,0.0397340121 0.116048416,0.0397739819 C1.30794887,0.0410130468 2.50024902,0.0242656863 3.69162986,0.0506457768 C4.67121056,0.0723094268 5.45026259,0.493431599 5.94277089,1.36477398 C6.72166305,2.74245422 6.11016456,4.45392255 4.63735611,5.04327775 C4.60126335,5.05770686 4.56668944,5.07589314 4.51133122,5.10171365 C5.66050392,6.50953115 6.8034813,7.90991425 7.96732293,9.33567821 C7.87902956,9.34127398 7.82295189,9.34778906 7.76691418,9.347869 C7.16760649,9.34862843 6.56817888,9.34143386 5.96907104,9.35282526 C5.80327617,9.35594291 5.70427089,9.29926569 5.6043463,9.17392029 C4.62976184,7.95020385 3.64426561,6.73512089 2.67535686,5.5069678 C2.51863514,5.30835769 2.36203333,5.20095875 2.10938401,5.24040897 C2.01957179,5.25447836 1.92572262,5.24268725 1.80105671,5.24268725 Z" id="Fill-7" fill="#231F20" mask="url(#mask-2)"></path>
                            </g>
                            <path d="M45.8431374,43.2423323 L42.0800974,43.2423323 L42.0800974,45.1694379 L44.9144383,45.1694379 L44.9144383,46.7740668 L44.67366,46.7740668 C43.8746231,46.7740668 43.0755462,46.7785035 42.2765891,46.7705495 C42.108516,46.7688707 42.0629504,46.8223104 42.0646691,46.9859869 C42.0724632,47.7183541 42.072703,48.4509213 42.0645492,49.1832885 C42.0627106,49.3498428 42.1133923,49.397367 42.2786276,49.3964876 C43.4305982,49.3900925 44.5825288,49.3931302 45.7344594,49.3931302 L45.9863094,49.3931302 L45.9863094,50.9454786 L40.2727415,50.9454786 L40.2727415,41.661925 L45.8431374,41.661925 L45.8431374,43.2423323 Z" id="Fill-10" fill="#231F20"></path>
                            <path d="M9.25553469,41.655326 L14.8222934,41.655326 L14.8222934,43.2414889 L11.0583341,43.2414889 L11.0583341,45.169314 L13.8953529,45.169314 L13.8953529,46.7740628 C13.8120558,46.7740628 13.7342745,46.7740229 13.6564932,46.7740229 C12.8572564,46.7740628 12.0579796,46.7781397 11.2588228,46.7707453 C11.0963454,46.7692265 11.0401878,46.8115545 11.0421863,46.9813863 C11.0507398,47.7139135 11.0521787,48.4466805 11.0414268,49.1791676 C11.0387089,49.3647076 11.1054985,49.397363 11.2721727,49.3964836 C12.4243831,49.3901284 13.5766335,49.3931262 14.7288839,49.3931262 L14.9721003,49.3931262 L14.9721003,50.9431563 L9.25553469,50.9431563 L9.25553469,41.655326 Z" id="Fill-12" fill="#231F20"></path>
                            <path d="M76.4825893,46.3322283 C77.406532,46.3322683 78.1566059,45.5877502 78.1671179,44.6600503 C78.1775101,43.7377464 77.4093299,42.9640903 76.482989,42.9640103 C75.555449,42.9639304 74.7918653,43.73299 74.7997394,44.6593308 C74.8076534,45.5859915 75.5582469,46.3321483 76.4825893,46.3322283 M74.7643661,50.9567781 C75.3539211,49.9459809 75.922452,48.9711167 76.501495,47.978306 C76.2309392,47.9444515 75.9762514,47.9260654 75.7269596,47.8792207 C74.1014664,47.5737313 72.9640048,46.0366114 73.1367145,44.3873361 C73.3046677,42.7833067 74.3913276,41.5892079 75.9798087,41.3595013 C77.9565169,41.073637 80.0028525,42.5174673 79.8492884,44.8283233 C79.8065606,45.4715578 79.5750154,46.0625518 79.2600931,46.6146551 C78.4525026,48.0305465 77.6295637,49.4376845 76.8081836,50.8456619 C76.7780863,50.897223 76.6997054,50.9513022 76.6431881,50.9520216 C76.03117,50.9596159 75.4190719,50.9567781 74.7643661,50.9567781" id="Fill-14" fill="#231F20"></path>
                            <path d="M65.2584843,44.2340078 C65.2966555,43.5493646 65.5057777,42.9616081 65.9177068,42.4591474 C66.7218998,41.4780878 67.7826593,41.1482967 68.9947045,41.3929121 C70.1678192,41.6296534 70.9849225,42.3372793 71.3107965,43.5124324 C71.5576502,44.4025606 71.4314655,45.2824965 70.9816849,46.0818133 C70.6999775,46.5824754 70.3350929,47.0398103 69.9790017,47.4941873 C69.5273425,48.0705523 69.0465454,48.6240546 68.5789383,49.187909 C68.5420462,49.2324354 68.5101502,49.2810388 68.453473,49.3583005 L71.7395529,49.3583005 L71.7395529,50.9429845 L64.9183011,50.9429845 C64.968783,50.8762348 65.0055552,50.8239143 65.0460047,50.7746315 C66.3081721,49.2347537 67.5722581,47.6963947 68.8322671,46.1547982 C69.1713712,45.7399513 69.4675477,45.2982047 69.571749,44.7582522 C69.6704745,44.2468781 69.6440145,43.7597258 69.2557875,43.3590682 C68.9008154,42.9927047 68.4676223,42.8572469 67.9799504,43.0096519 C67.4757709,43.1672929 67.1649255,43.5277808 67.0716759,44.0502265 C67.0464949,44.1912401 67.0120009,44.2398035 66.8654315,44.2373653 C66.3406276,44.2287318 65.8155839,44.2340078 65.2584843,44.2340078" id="Fill-16" fill="#231F20"></path>
                            <polygon id="Fill-18" fill="#231F20" points="22.9343511 41.6655543 22.9343511 43.2341305 19.1626376 43.2341305 19.1626376 45.1661523 22.0070909 45.1661523 22.0070909 46.7679834 19.152925 46.7679834 19.152925 50.9451109 17.3646746 50.9451109 17.3646746 41.6655543"></polygon>
                            <path d="M60.1262617,44.9315254 C60.7795686,43.8771612 61.4128107,42.8613678 62.0372195,41.8401385 C62.1232345,41.6994447 62.2122074,41.6395699 62.3821991,41.6428874 C62.9742722,41.6544787 63.5667451,41.647364 64.1982685,41.647364 C64.1505045,41.7293022 64.1177692,41.7888173 64.0819163,41.8463339 C63.0965799,43.4272607 62.1092051,45.0069885 61.1293446,46.5912328 C61.0640739,46.6967532 61.025463,46.8370073 61.0247436,46.9613535 C61.0171493,48.2064937 61.0201071,49.451634 61.0201071,50.6967743 L61.0201071,50.9444673 L59.2269404,50.9444673 C59.2228635,50.8729213 59.2147896,50.7967788 59.2147496,50.7206363 C59.2139902,49.475496 59.2177474,48.2303158 59.2091538,46.9852155 C59.2081946,46.8483188 59.1669057,46.6938354 59.09504,46.5780028 C58.119856,45.0065488 57.1359186,43.4405307 56.1542594,41.8730337 C56.1160083,41.8119198 56.079276,41.7498067 56.0250769,41.6605541 C56.1096131,41.6551581 56.1708869,41.6480035 56.2322006,41.6478836 C56.7715535,41.6469643 57.3109864,41.6528399 57.8501795,41.6438067 C58.0003462,41.6413286 58.0860415,41.6846559 58.1676599,41.8163565 C58.770365,42.7891423 59.3829827,43.7556928 59.9926425,44.7241619 C60.0306938,44.7845563 60.0699442,44.8441913 60.1262617,44.9315254" id="Fill-20" fill="#231F20"></path>
                            <mask id="mask-4" fill="white">
                                <use xlink:href="#path-3"></use>
                            </mask>
                            <g id="Clip-23"></g>
                            <polygon id="Fill-22" fill="#231F20" mask="url(#mask-4)" points="24.8686312 50.9501071 26.636537 50.9501071 26.636537 41.6609578 24.8686312 41.6609578"></polygon>
                            <path d="M44.306641,14.2731398 C44.319911,15.8750508 45.5784811,16.8879264 47.0871425,16.510851 C47.9819472,16.2872198 48.5744201,15.5708404 48.6637526,14.5327839 C48.8002097,12.9459814 47.6318115,11.7478457 45.9818167,12.0668449 C44.9776946,12.2609385 44.2974879,13.1680139 44.306641,14.2731398 M46.6263703,18.5087831 C45.2025249,18.5071843 44.0356456,18.0320229 43.1296493,16.9530772 C42.3904072,17.8607922 41.448678,18.4234075 40.3533846,18.7896911 C41.4125053,20.1586979 42.4568771,21.508679 43.519635,22.8824023 C44.5542941,21.4257416 45.5767624,19.986308 46.6263703,18.5087831 M31.9021229,8.50785098 L31.9021229,6.56743544 L32.1182398,6.56743544 C33.9235173,6.56743544 35.7287949,6.56016094 37.5339925,6.56991357 C38.8101094,6.57682836 40.0552496,6.76360739 41.2183318,7.32546335 C42.6150377,8.00011418 43.5564472,9.07798069 44.0413213,10.5527077 C44.0559103,10.5969143 44.0696199,10.6414008 44.0850483,10.6852876 C44.0892851,10.6973585 44.0982783,10.7077107 44.1144661,10.7341308 C44.2646727,10.6563095 44.4136802,10.5730124 44.5676041,10.5002273 C46.5994306,9.54015189 49.4143062,10.1678382 50.4567994,12.6143517 C50.9762873,13.8335116 50.8823582,15.0418796 50.3456433,16.2329807 C49.9852353,17.032817 49.4822549,17.7448796 48.9871885,18.4631376 C47.6232979,20.4419641 46.2671614,22.4261066 44.9039103,24.4054128 C44.8290068,24.5141308 44.8374005,24.5815998 44.9159012,24.6823238 C45.5013793,25.433317 46.0804623,26.1893065 46.6613039,26.943897 C46.7083084,27.0049309 46.7536742,27.0672839 46.8190649,27.1548178 C46.7401244,27.1605335 46.6961576,27.166409 46.6522308,27.166449 C45.8861689,27.1670086 45.1200671,27.1629317 44.3540852,27.170486 C44.2174683,27.1718449 44.1525973,27.1036164 44.0813311,27.0105667 C42.1216501,24.4518578 40.1595309,21.8949475 38.2027677,19.3340003 C38.1104774,19.2132115 38.0196659,19.1724023 37.871178,19.1759995 C37.3851448,19.1877507 36.898632,19.1781179 36.4125588,19.1889498 C36.3335385,19.1907084 36.224141,19.2326768 36.1823326,19.2931112 C35.44373,20.3607054 34.7134012,21.4339754 33.9817934,22.506406 C33.9712413,22.5218744 33.9669646,22.5416195 33.9481388,22.5881843 L39.071632,22.5881843 L39.071632,24.5388721 L30.3432594,24.5388721 C31.5581825,22.7596549 32.7573575,21.0034603 33.980914,19.2116526 L31.9070392,19.2116526 L31.9070392,17.2680395 L32.1355068,17.2680395 C33.1280377,17.2680395 34.1206086,17.2651617 35.1131395,17.2712771 C35.2559517,17.2721564 35.3432858,17.230268 35.4213469,17.1091994 C35.886276,16.3879837 36.3718695,15.6797582 36.8233288,14.9503087 C37.0596305,14.5684769 37.1840566,14.1381617 37.1783409,13.6781089 C37.1661501,12.7024452 36.5946214,12.0820335 35.619917,12.0380667 C35.3270181,12.0248766 35.0160528,12.0609294 34.737583,12.1500222 C34.1041011,12.3527891 33.7784668,12.8315478 33.6891342,13.4798985 C33.6783824,13.5579995 33.6740256,13.6369799 33.665552,13.7276715 L31.5786071,13.7276715 C31.6129012,13.4715848 31.6208552,13.2125802 31.684687,12.9681247 C32.090141,11.4154566 33.1121697,10.4932725 34.6610807,10.1668789 C35.5462926,9.98033967 36.4279472,10.0763472 37.264356,10.4327582 C38.3965415,10.9152341 39.0076003,11.8021647 39.2074495,12.9997409 C39.3388303,13.7870267 39.201454,14.5289468 38.821141,15.2184664 C38.509816,15.7828804 38.1581214,16.3250312 37.8227745,16.8761353 C37.7547459,16.987851 37.6796425,17.0952899 37.5731229,17.2575674 C37.9255769,17.2334256 38.227589,17.2241127 38.5268032,17.1898585 C39.1739148,17.1158344 39.7915287,16.9384083 40.3602594,16.6130139 C41.2765279,16.0886896 41.8494955,15.2998449 42.1129367,14.2869694 C42.3572722,13.3477982 42.3626682,12.4001934 42.1103386,11.4629807 C41.6954118,9.92206365 40.6533982,9.02617979 39.1283891,8.67728311 C38.6777692,8.5742009 38.2066448,8.52076124 37.7441938,8.51628462 C35.8791614,8.49825822 34.0138891,8.50825068 32.1486968,8.50785098 C32.0705158,8.50785098 31.9923348,8.50785098 31.9021229,8.50785098" id="Fill-24" fill="#231F20" mask="url(#mask-4)"></path>
                            <path d="M46.6263743,18.5087711 C45.5767664,19.986296 44.5542981,21.4257296 43.519599,22.8823903 C42.4568811,21.508707 41.4125093,20.1587259 40.3533886,18.7896791 C41.448682,18.4233956 42.3904112,17.8607802 43.1296533,16.9530652 C44.0356495,18.0320109 45.2025289,18.5071723 46.6263743,18.5087711" id="Fill-25" fill="#FEFEFE" mask="url(#mask-4)"></path>
                        </g>
                    </g>
                </g>
            </g>
        </g>
    </g>
</svg>