<?xml version="1.0" encoding="utf-8"?>
<!-- Generator: Adobe Illustrator 22.1.0, SVG Export Plug-In . SVG Version: 6.00 Build 0)  -->
<svg version="1.1" id="Layer_1" xmlns="http://www.w3.org/2000/svg" xmlns:xlink="http://www.w3.org/1999/xlink" x="0px" y="0px"
	 viewBox="0 0 1000 168" style="enable-background:new 0 0 1000 168;" xml:space="preserve">
<style type="text/css">
	.st0{fill:#00b67a;}
	.st1{fill:#14C7F5;}
</style>
<g>
	<path class="st0" d="M718.1,65.8c-19.5,0-36.8,13.9-36.8,37.6s17.3,37.6,36.8,37.6s36.8-13.9,36.8-37.6
		C754.6,79.7,737.7,65.8,718.1,65.8z M718.1,125.2c-12.4,0-20.3-9.4-20.3-22.2s7.9-22.2,20.3-22.2c12.8,0,19.9,9.4,19.9,22.2
		S730.5,125.2,718.1,125.2z"/>
	<path class="st0" d="M801.9,65.8c-19.5,0-36.8,13.9-36.8,37.6s17.3,37.6,36.8,37.6s36.8-13.9,36.8-37.6S821.4,65.8,801.9,65.8z
		 M801.9,125.2c-12.4,0-20.3-9.4-20.3-22.2s7.9-22.2,20.3-22.2c12.8,0,19.9,9.4,19.9,22.2S814.7,125.2,801.9,125.2z"/>
	<path class="st0" d="M252.3,81.6l-9-1.5c-10.9-2.3-15-5.6-15-12.4c0-7.1,6.8-12,16.5-12c10.5,0,17.7,3,24.8,9.4
		c2.3,1.9,3.8,1.1,3.8-1.5V49.7c0-1.5-0.4-2.6-1.9-3.8c-7.1-4.5-15.4-6.8-26.3-6.8c-20.3,0-33.8,11.3-33.8,28.2s8.6,25.9,29.3,29.3
		l9,1.1c11.3,1.9,16.5,5.6,16.5,13.1c0,8.3-8.3,13.9-20.7,13.9s-22.2-5.3-30.8-15.4c-1.9-2.3-3.8-1.5-3.8,1.1v15.4
		c0,1.5,0.4,2.6,1.5,3.8c7.1,6.4,18.8,10.9,32.7,10.9c22.9,0,37.9-11.6,37.9-30.1C283.1,94.8,273.3,85.8,252.3,81.6z"/>
	<path class="st0" d="M647.5,99.7c14.7-2.6,24-12.8,24-28.9c0-18.8-13.5-29.7-33.1-29.7h-34.5c-1.9,0-3,1.1-3,3v92c0,1.9,1.1,3,3,3
		h11.3c1.9,0,3-1.1,3-3V57.2h20.7c8.3,0,15,4.9,15,13.5s-6.8,13.5-15,13.5h-11.6c-1.9,0-3,1.1-3,3v7.5c0,1.5,0.4,2.6,1.5,3.8
		l31.9,38.7c1.1,1.1,2.3,1.9,3.8,1.9h15.4c2.6,0,3.4-1.9,1.5-3.8L647.5,99.7z"/>
	<path class="st0" d="M924,65.8c-8.3,0-15.8,3-20.7,9.4c-2.6-4.9-9.4-9.4-17.7-9.4c-6.8,0-12.8,2.3-16.2,6.8V70c0-1.5-1.1-2.6-3-2.6
		h-10.1c-1.9,0-3,1.1-3,3v65.7c0,1.9,1.1,3,3,3h10.1c1.9,0,3-1.1,3-3V87.6c2.6-4.5,7.1-6.8,11.6-6.8c6.4,0,11.6,4.1,11.6,11.6V136
		c0,1.9,1.1,3,3,3H906c1.9,0,3-1.1,3-3V88c2.6-4.5,7.1-6.8,11.6-6.8c7.1,0,12,3.8,12,11.6v43.6c0,1.9,1.1,3,3,3h10.5
		c1.9,0,3-1.1,3-3V90.3C948.8,75.6,938.7,65.8,924,65.8z"/>
	<path class="st0" d="M507,66.2c-1.9-0.4-4.1-0.4-6.4-0.4c-8.6,0-15.4,3.4-18.8,9v-4.5c0-1.9-1.1-3-3-3h-10.1c-1.9,0-3,1.1-3,3V136
		c0,1.9,1.1,3,3,3h10.1c1.9,0,3-1.1,3-3V93.3c3.4-6,7.9-11.6,18.4-11.6c1.9,0,4.1,0.4,6,0.8c2.3,0.4,3.4-0.4,3.4-2.6V69.6
		C509.2,68.1,508.5,66.6,507,66.2z"/>
	<path class="st0" d="M444.3,67.3h-10.5c-1.9,0-3,1.1-3,3v1.5c-4.5-3.8-10.9-6-18.8-6c-21.8,0-35.7,15.4-35.7,37.6
		s13.5,37.6,36.1,37.6c7.9,0,14.3-2.6,18.4-6.4v2.3c0,1.5,1.1,2.3,3,2.3h10.5c1.9,0,3-1.1,3-3V70.3
		C447.3,68.5,446.1,67.3,444.3,67.3z M430.7,117.3c-3.8,4.9-9.8,8.3-17.3,8.3c-12,0-20.3-9.4-20.3-22.2s8.3-22.2,20.3-22.2
		c7.5,0,13.5,3,17.3,8.3V117.3z"/>
	<path class="st0" d="M330.8,65.8c-7.9,0-14.3,2.3-18.8,6v-2.3c0-1.5-1.1-2.3-3-2.3h-10.1c-1.9,0-3,1.1-3,3v93.5c0,1.9,1.1,3,3,3
		H309c1.9,0,3-1.1,3-3V134c4.1,3.8,10.5,6.4,18.4,6.4c22.2,0,36.1-15.4,36.1-37.6C366.1,81.2,352.2,65.8,330.8,65.8z M329.3,125.2
		c-7.5,0-13.9-3-17.3-8.3V89.1c3.8-4.9,9.8-8.3,17.3-8.3c12,0,20.3,9.4,20.3,22.2S341.3,125.2,329.3,125.2z"/>
	<path class="st0" d="M581.4,113.2c-7.1,7.1-16.2,12-27,12c-6,0-11.3-1.5-15-4.9l42.1-28.6c1.5-1.1,1.9-2.3,1.5-4.1
		c-5.6-15.4-17.7-21.8-31.9-21.8c-21,0-36.1,14.7-36.1,35.3c0,25.2,15.8,39.8,39.4,39.8c12.8,0,22.5-4.5,29.3-9.8
		c1.1-1.1,1.5-2.3,1.5-3.8v-12.8C584.8,111.7,583.3,110.9,581.4,113.2z M531,100.8c0-11.6,8.3-19.9,19.5-19.9
		c4.5,0,9.8,1.1,12.8,5.6l-31.6,21.4C531,105.7,531,103.4,531,100.8z"/>
	<path class="st1" d="M161.7,44L109.1,0.8c-1.5-1.1-2.6-1.1-4.1,0L52.8,44c-1.1,1.2-1.9,2.3-1.9,3.8v88.3c0,1.9,1.1,3,3,3h106.3
		c1.9,0,3-1.1,3-3V47.8C163.6,46.3,162.9,45.2,161.7,44z M146.3,124.4H68.2V83.9c2.6-5.6,7.9-9,15-9c8.6,0,13.9,5.3,16.5,14.3
		c4.5,16.2,15,24.8,30.1,24.8c7.1,0,12.8-1.5,16.9-4.5v15L146.3,124.4L146.3,124.4z M146.3,89.1c-2.6,5.6-7.9,9-15,9
		c-9,0-14.3-5.3-16.5-14.3c-4.1-16.5-14.7-25.2-30.1-25.2c-7.1,0-12.8,1.5-16.9,4.5v-9.8l39.1-32.5l39.4,32.7V89.1z"/>
</g>
</svg>
