<?xml version="1.0" encoding="UTF-8"?>
<svg width="183px" height="23px" viewBox="0 0 183 23" version="1.1" xmlns="http://www.w3.org/2000/svg" xmlns:xlink="http://www.w3.org/1999/xlink">
    <!-- Generator: sketchtool 51.3 (57544) - http://www.bohemiancoding.com/sketch -->
    <title>319E2AF3-EEA8-43DA-8125-E95A31A6D77C</title>
    <desc>Created with sketchtool.</desc>
    <defs>
        <polygon id="path-1" points="0 0.129832051 12.4873571 0.129832051 12.4873571 18.0524346 0 18.0524346"></polygon>
        <polygon id="path-3" points="0.558571429 0.654939744 12.7732143 0.654939744 12.7732143 18.5769231 0.558571429 18.5769231"></polygon>
    </defs>
    <g id="Page-1" stroke="none" stroke-width="1" fill="none" fill-rule="evenodd">
        <g id="Hompage-amends-v2" transform="translate(-967.000000, -2343.000000)">
            <g id="New-Footer" transform="translate(0.000000, 1801.000000)">
                <g id="SpareRoom.com" transform="translate(967.000000, 542.000000)">
                    <g id="Group-3">
                        <mask id="mask-2" fill="white">
                            <use xlink:href="#path-1"></use>
                        </mask>
                        <g id="Clip-2"></g>
                        <path d="M0.270660714,16.0956654 C0.0735178571,15.8975115 -0.000410714286,15.6993577 -0.000410714286,15.4268962 L-0.000410714286,12.8777295 C-0.000410714286,12.3823449 0.319946429,12.2584987 0.640303571,12.6548064 C2.14146429,14.4608962 3.89110714,15.3773577 6.00833929,15.3773577 C8.22619643,15.3773577 9.680125,14.3886526 9.680125,12.828191 C9.680125,11.4658833 8.74164286,10.7228064 6.69833929,10.4028705 L5.14789286,10.1551782 C1.62601786,9.5854859 0.122803571,8.07456282 0.122803571,5.10431923 C0.122803571,2.10930641 2.46182143,0.129832051 5.96110714,0.129832051 C7.83191071,0.129832051 9.30842857,0.548844872 10.5405714,1.34146026 C10.787,1.51484487 10.8855714,1.73776795 10.8855714,2.01022949 L10.8855714,4.21262692 C10.8855714,4.68324231 10.5898571,4.80708846 10.2202143,4.48508846 C8.990125,3.34776795 7.73333929,2.80284487 5.93441071,2.80284487 C4.13753571,2.80284487 2.93003571,3.71724231 2.93003571,5.10431923 C2.93003571,6.31801154 3.74325,7.03425513 5.63869643,7.40785769 L7.19119643,7.70508846 C10.8116429,8.39656282 12.4873571,10.0065628 12.4873571,12.828191 C12.4873571,15.9965885 9.94914286,18.0524346 6.00833929,18.0524346 C3.57075,18.0524346 1.57673214,17.2598192 0.270660714,16.0956654" id="Fill-1" fill="#FEFEFE" mask="url(#mask-2)"></path>
                    </g>
                    <g id="Group-6" transform="translate(14.153846, 4.423077)">
                        <mask id="mask-4" fill="white">
                            <use xlink:href="#path-3"></use>
                        </mask>
                        <g id="Clip-5"></g>
                        <path d="M10.0152679,7.28896538 C10.0152679,5.01019615 8.51410714,3.2784141 6.39482143,3.2784141 C4.99017857,3.2784141 3.90589286,3.82333718 3.26723214,4.71502949 L3.26723214,9.86290128 C3.90589286,10.7545936 4.99017857,11.2995167 6.39482143,11.2995167 C8.51410714,11.2995167 10.0152679,9.56773462 10.0152679,7.28896538 M12.7732143,7.28896538 C12.7732143,11.1509013 10.4341964,13.922991 6.54267857,13.922991 C5.09080357,13.922991 4.00651786,13.4523756 3.26723214,12.7588372 L3.26723214,18.0326192 C3.26723214,18.3793885 3.07008929,18.5775423 2.72508929,18.5775423 L1.09866071,18.5775423 C0.753660714,18.5775423 0.558571429,18.3793885 0.558571429,18.0326192 L0.558571429,1.49502949 C0.558571429,1.14826026 0.753660714,0.952170513 1.09866071,0.952170513 L2.72508929,0.952170513 C3.07008929,0.952170513 3.26723214,1.09872179 3.26723214,1.37324744 L3.26723214,1.79226026 C4.05580357,1.12555513 5.18732143,0.654939744 6.64125,0.654939744 C10.4341964,0.654939744 12.7732143,3.42702949 12.7732143,7.28896538" id="Fill-4" fill="#FEFEFE" mask="url(#mask-4)"></path>
                    </g>
                    <path d="M38.8305701,13.631857 L38.8305701,8.4835276 C38.1809399,7.59175602 37.083648,7.0467845 35.6594589,7.0467845 C33.5127645,7.0467845 31.9886322,8.7787205 31.9886322,11.0576923 C31.9886322,13.3345998 33.5127645,15.0686001 35.6594589,15.0686001 C37.083648,15.0686001 38.1809399,14.5236286 38.8305701,13.631857 M39.3802571,4.72033412 L41.0293182,4.72033412 C41.379119,4.72033412 41.5769231,4.91644129 41.5769231,5.26324135 L41.5769231,16.8521433 C41.5769231,17.1989433 41.379119,17.3950505 41.0293182,17.3950505 L39.3802571,17.3950505 C39.0304563,17.3950505 38.8305701,17.2216505 38.8305701,16.9491647 L38.8305701,16.5280504 C38.083079,17.2216505 36.9837049,17.6923077 35.5095443,17.6923077 C31.5638741,17.6923077 29.1923077,14.9199715 29.1923077,11.0576923 C29.1923077,7.1954131 31.5638741,4.42307692 35.4096012,4.42307692 C36.8816797,4.42307692 38.0310253,4.89373414 38.8305701,5.56049854 L38.8305701,5.14144847 C38.8305701,4.86689843 39.0304563,4.72033412 39.3802571,4.72033412" id="Fill-7" fill="#FEFEFE"></path>
                    <path d="M45.1153846,17.1349367 L45.1153846,5.28446851 C45.1153846,4.92977786 45.324326,4.72709748 45.6899735,4.72709748 L47.4137402,4.72709748 C47.7772112,4.72709748 47.9861526,4.92977786 47.9861526,5.28446851 L47.9861526,6.06985497 C48.6129768,5.05645309 49.9188607,4.42307692 51.5098625,4.42307692 C51.9277453,4.42307692 52.2933928,4.44841197 52.6068049,4.52441711 C52.9463347,4.60042225 53.0769231,4.85377272 53.0769231,5.15779328 L53.0769231,6.85313016 C53.0769231,7.23526712 52.841864,7.41261245 52.4500988,7.33449605 C52.0844514,7.25849091 51.7188039,7.20782082 51.3792741,7.20782082 C49.4748602,7.20782082 48.5868591,8.27189279 47.9861526,9.28529466 L47.9861526,17.1349367 C47.9861526,17.4896273 47.7772112,17.6923077 47.4137402,17.6923077 L45.6899735,17.6923077 C45.324326,17.6923077 45.1153846,17.4896273 45.1153846,17.1349367" id="Fill-9" fill="#FEFEFE"></path>
                    <path d="M55.8054184,10.5870351 C55.8054184,11.0576923 55.8554826,11.4788067 55.9556108,11.899921 L61.6837823,8.06241324 C61.1581089,7.17064166 60.1839442,6.94769877 59.4079501,6.94769877 C57.2551923,6.94769877 55.8054184,8.45875616 55.8054184,10.5870351 M64.8107047,12.8391712 C65.1611537,12.469664 65.4615385,12.5666854 65.4615385,13.0641784 L65.4615385,15.2420001 C65.4615385,15.5144859 65.3864423,15.7126574 65.1611537,15.9108288 C64.0367966,16.8521433 62.2094557,17.6923077 59.9816017,17.6923077 C55.8304505,17.6923077 53.0769231,15.0686001 53.0769231,10.6118065 C53.0769231,7.02201307 55.8054184,4.42307692 59.4079501,4.42307692 C61.8089426,4.42307692 63.9617004,5.36439136 65.0359933,8.06241324 C65.1611537,8.38444186 65.0860574,8.60738476 64.8107047,8.80555622 L57.130032,13.9786571 C57.9060261,14.6722572 58.9073088,15.0438287 60.083816,15.0438287 C62.0091992,15.0438287 63.5862194,14.1520571 64.8107047,12.8391712" id="Fill-11" fill="#FEFEFE"></path>
                    <path d="M82.1109627,17.009565 C82.4035365,17.3635797 82.2816307,17.6923077 81.8183889,17.6923077 L79.4310681,17.6923077 C79.1628755,17.6923077 78.9434451,17.6164474 78.7727771,17.3888665 L72.9964766,10.3359658 C72.8258086,10.1104922 72.7546969,9.93348481 72.7546969,9.65533038 L72.7546969,8.44156558 C72.7546969,8.08755085 72.9477143,7.88525672 73.2890504,7.88525672 L75.2883046,7.88525672 C76.7247606,7.88525672 77.9681992,6.97704035 77.9681992,5.35868729 C77.9681992,3.74244146 76.7003795,2.80683109 75.2883046,2.80683109 L71.7794509,2.80683109 L71.7794509,17.1359988 C71.7794509,17.4900136 71.5844018,17.6923077 71.2430657,17.6923077 L69.538417,17.6923077 C69.197081,17.6923077 69,17.4900136 69,17.1359988 L69,0.556308865 C69,0.202294133 69.197081,0 69.538417,0 L75.2883046,0 C78.5289656,0 80.8187618,1.89650749 80.8187618,5.35868729 C80.8187618,8.31513175 79.1872566,10.1104922 76.6759983,10.5635467 L82.1109627,17.009565 Z" id="Fill-13" fill="#FEFEFE"></path>
                    <path d="M93.5548044,11.0576923 C93.5548044,8.80555622 92.1964863,7.0467845 89.815158,7.0467845 C87.4316941,7.0467845 86.0242544,8.80555622 86.0242544,11.0576923 C86.0242544,13.3098284 87.4316941,15.0686001 89.815158,15.0686001 C92.1964863,15.0686001 93.5548044,13.3098284 93.5548044,11.0576923 M83.1538462,11.0576923 C83.1538462,6.84861304 86.4343127,4.42307692 89.815158,4.42307692 C93.1960034,4.42307692 96.4230769,6.84861304 96.4230769,11.0576923 C96.4230769,15.2667716 93.1960034,17.6923077 89.815158,17.6923077 C86.4343127,17.6923077 83.1538462,15.2667716 83.1538462,11.0576923" id="Fill-15" fill="#FEFEFE"></path>
                    <path d="M107.708651,11.0576923 C107.708651,8.80555622 106.350332,7.0467845 103.969004,7.0467845 C101.58554,7.0467845 100.178101,8.80555622 100.178101,11.0576923 C100.178101,13.3098284 101.58554,15.0686001 103.969004,15.0686001 C106.350332,15.0686001 107.708651,13.3098284 107.708651,11.0576923 M97.3076923,11.0576923 C97.3076923,6.84861304 100.588159,4.42307692 103.969004,4.42307692 C107.34985,4.42307692 110.576923,6.84861304 110.576923,11.0576923 C110.576923,15.2667716 107.34985,17.6923077 103.969004,17.6923077 C100.588159,17.6923077 97.3076923,15.2667716 97.3076923,11.0576923" id="Fill-17" fill="#FEFEFE"></path>
                    <path d="M112.346154,17.1349367 L112.346154,5.28446851 C112.346154,4.92977786 112.545184,4.72709748 112.893487,4.72709748 L114.508535,4.72709748 C114.856838,4.72709748 115.055868,4.90444281 115.055868,5.23379842 L115.055868,5.74049936 C115.677838,4.82843767 116.847141,4.42307692 117.964613,4.42307692 C119.531976,4.42307692 120.701279,5.30980356 121.09934,6.27042409 C121.992903,5.03111805 123.336357,4.42307692 124.779327,4.42307692 C127.290011,4.42307692 129.153846,6.17119515 129.153846,8.77859372 L129.153846,17.1349367 C129.153846,17.4896273 128.956889,17.6923077 128.608586,17.6923077 L126.966586,17.6923077 C126.618283,17.6923077 126.419253,17.4896273 126.419253,17.1349367 L126.419253,9.13328438 C126.419253,7.7398568 125.550569,7.03047549 124.281751,7.03047549 C123.435872,7.03047549 122.540236,7.51184138 122.117297,8.44923811 L122.117297,17.1349367 C122.117297,17.4896273 121.920339,17.6923077 121.572037,17.6923077 L119.930037,17.6923077 C119.581734,17.6923077 119.382703,17.4896273 119.382703,17.1349367 L119.382703,9.13328438 C119.382703,7.84119699 118.389625,7.03047549 117.27008,7.03047549 C116.424201,7.03047549 115.503686,7.51184138 115.080747,8.44923811 L115.080747,17.1349367 C115.080747,17.4896273 114.881717,17.6923077 114.533414,17.6923077 L112.893487,17.6923077 C112.545184,17.6923077 112.346154,17.4896273 112.346154,17.1349367" id="Fill-19" fill="#FEFEFE"></path>
                    <path d="M131.807692,15.4817823 C131.807692,14.2660946 132.804556,13.2692308 134.018218,13.2692308 C135.233905,13.2692308 136.230769,14.2660946 136.230769,15.4817823 C136.230769,16.69747 135.233905,17.6923077 134.018218,17.6923077 C132.804556,17.6923077 131.807692,16.69747 131.807692,15.4817823" id="Fill-21" fill="#FEFEFE"></path>
                    <path d="M137.115385,11.0576923 C137.115385,7.07155593 139.645648,4.42307692 143.442021,4.42307692 C144.778469,4.42307692 145.948838,4.67079125 146.93359,5.26324135 C147.191501,5.41393423 147.285286,5.61004141 147.285286,5.9072986 L147.285286,7.74038462 C147.285286,8.1862704 147.027375,8.31012757 146.677632,8.03764181 C145.76322,7.31927026 144.848809,7.0467845 143.606146,7.0467845 C141.310347,7.0467845 139.762881,8.65486334 139.762881,11.0576923 C139.762881,13.4605213 141.286901,15.0686001 143.559253,15.0686001 C144.942594,15.0686001 146.044578,14.7465715 147.121161,13.8795713 C147.472858,13.5823142 147.730769,13.7309428 147.730769,14.1768285 L147.730769,15.9108288 C147.730769,16.1812503 147.66043,16.381486 147.472858,16.5280504 C146.370875,17.3207362 145.153613,17.6923077 143.465467,17.6923077 C139.645648,17.6923077 137.115385,15.0438287 137.115385,11.0576923" id="Fill-23" fill="#FEFEFE"></path>
                    <path d="M160.785574,11.0576923 C160.785574,8.80555622 159.427256,7.0467845 157.045927,7.0467845 C154.662463,7.0467845 153.255024,8.80555622 153.255024,11.0576923 C153.255024,13.3098284 154.662463,15.0686001 157.045927,15.0686001 C159.427256,15.0686001 160.785574,13.3098284 160.785574,11.0576923 M150.384615,11.0576923 C150.384615,6.84861304 153.665082,4.42307692 157.045927,4.42307692 C160.426773,4.42307692 163.653846,6.84861304 163.653846,11.0576923 C163.653846,15.2667716 160.426773,17.6923077 157.045927,17.6923077 C153.665082,17.6923077 150.384615,15.2667716 150.384615,11.0576923" id="Fill-25" fill="#FEFEFE"></path>
                    <path d="M165.423077,17.1349367 L165.423077,5.28446851 C165.423077,4.92977786 165.622107,4.72709748 165.97041,4.72709748 L167.585458,4.72709748 C167.933761,4.72709748 168.132791,4.90444281 168.132791,5.23379842 L168.132791,5.74049936 C168.754761,4.82843767 169.924064,4.42307692 171.041536,4.42307692 C172.608899,4.42307692 173.776129,5.30980356 174.176263,6.27042409 C175.069826,5.03111805 176.41328,4.42307692 177.85625,4.42307692 C180.366934,4.42307692 182.230769,6.17119515 182.230769,8.77859372 L182.230769,17.1349367 C182.230769,17.4896273 182.033812,17.6923077 181.685509,17.6923077 L180.043509,17.6923077 C179.695206,17.6923077 179.496176,17.4896273 179.496176,17.1349367 L179.496176,9.13328438 C179.496176,7.7398568 178.625419,7.03047549 177.358674,7.03047549 C176.512795,7.03047549 175.617159,7.51184138 175.196293,8.44923811 L175.196293,17.1349367 C175.196293,17.4896273 174.995189,17.6923077 174.646886,17.6923077 L173.00696,17.6923077 C172.658657,17.6923077 172.459627,17.4896273 172.459627,17.1349367 L172.459627,9.13328438 C172.459627,7.84119699 171.466548,7.03047549 170.347003,7.03047549 C169.501124,7.03047549 168.580609,7.51184138 168.15767,8.44923811 L168.15767,17.1349367 C168.15767,17.4896273 167.95864,17.6923077 167.61241,17.6923077 L165.97041,17.6923077 C165.622107,17.6923077 165.423077,17.4896273 165.423077,17.1349367" id="Fill-27" fill="#FEFEFE"></path>
                </g>
            </g>
        </g>
    </g>
</svg>