<?xml version="1.0" encoding="UTF-8"?>
<svg width="164px" height="20px" viewBox="0 0 164 20" version="1.1" xmlns="http://www.w3.org/2000/svg" xmlns:xlink="http://www.w3.org/1999/xlink">
    <!-- Generator: sketchtool 51.3 (57544) - http://www.bohemiancoding.com/sketch -->
    <title>580F070E-FDCA-4712-96C0-D5286172E148</title>
    <desc>Created with sketchtool.</desc>
    <defs>
        <polygon id="path-1" points="0.205315789 0.0421578947 10.5474211 0.0421578947 10.5474211 15.2631579 0.205315789 15.2631579"></polygon>
    </defs>
    <g id="Page-1" stroke="none" stroke-width="1" fill="none" fill-rule="evenodd">
        <g id="Hompage-amends-v2" transform="translate(-261.000000, -2344.000000)">
            <g id="New-Footer" transform="translate(0.000000, 1801.000000)">
                <g id="SpeedFlatmating" transform="translate(261.000000, 543.000000)">
                    <path d="M0.229473684,14.1998421 C0.0626315789,14.0324737 0,13.8656316 0,13.6366842 L0,11.4887895 C0,11.0719474 0.271052632,10.9672105 0.542105263,11.3014211 C1.81421053,12.8235263 3.29473684,13.5951053 5.08736842,13.5951053 C6.96421053,13.5951053 8.19473684,12.7608947 8.19473684,11.4472105 C8.19473684,10.3003684 7.40210526,9.67510526 5.67157895,9.40405263 L4.35789474,9.19510526 C1.37631579,8.71563158 0.104210526,7.44405263 0.104210526,4.94142105 C0.104210526,2.41878947 2.08526316,0.750894737 5.04578947,0.750894737 C6.63052632,0.750894737 7.88157895,1.10510526 8.92421053,1.77247368 C9.13315789,1.91826316 9.21578947,2.10615789 9.21578947,2.33563158 L9.21578947,4.19142105 C9.21578947,4.58721053 8.96578947,4.69142105 8.65315789,4.42036842 C7.61052632,3.46142105 6.54684211,3.003 5.02526316,3.003 C3.50315789,3.003 2.48157895,3.77352632 2.48157895,4.94142105 C2.48157895,5.96352632 3.16947368,6.56826316 4.77473684,6.88089474 L6.08842105,7.13142105 C9.15368421,7.71510526 10.5710526,9.06984211 10.5710526,11.4472105 C10.5710526,14.1161579 8.42368421,15.8466842 5.08736842,15.8466842 C3.02368421,15.8466842 1.33473684,15.1793158 0.229473684,14.1998421" id="Fill-1" fill="#FEFEFE"></path>
                    <path d="M20.6412105,10.2586842 C20.6412105,8.34026316 19.3691053,6.88131579 17.5759474,6.88131579 C16.3875263,6.88131579 15.4701579,7.33973684 14.9280526,8.09026316 L14.9280526,12.4271053 C15.4701579,13.1781579 16.3875263,13.6365789 17.5759474,13.6365789 C19.3691053,13.6365789 20.6412105,12.1771053 20.6412105,10.2586842 M22.9764737,10.2586842 C22.9764737,13.5113158 20.9959474,15.8465789 17.7012105,15.8465789 C16.4712105,15.8465789 15.5533158,15.4502632 14.9280526,14.8671053 L14.9280526,19.3076316 C14.9280526,19.5997368 14.7612105,19.7665789 14.4696316,19.7665789 L13.0927895,19.7665789 C12.8012105,19.7665789 12.6343684,19.5997368 12.6343684,19.3076316 L12.6343684,5.37921053 C12.6343684,5.08763158 12.8012105,4.92078947 13.0927895,4.92078947 L14.4696316,4.92078947 C14.7612105,4.92078947 14.9280526,5.04605263 14.9280526,5.27552632 L14.9280526,5.62973684 C15.5954211,5.06657895 16.5543684,4.67078947 17.7848947,4.67078947 C20.9959474,4.67078947 22.9764737,7.00605263 22.9764737,10.2586842" id="Fill-3" fill="#FEFEFE"></path>
                    <path d="M26.7493158,9.86236842 C26.7493158,10.2586842 26.7908947,10.6134211 26.8745789,10.9676316 L31.6487895,7.73552632 C31.2114211,6.985 30.3982632,6.79763158 29.7514211,6.79763158 C27.9587895,6.79763158 26.7493158,8.06973684 26.7493158,9.86236842 M34.2556316,11.7597368 C34.5472105,11.4471053 34.7977368,11.5307895 34.7977368,11.9476316 L34.7977368,13.7823684 C34.7977368,14.0118421 34.7351053,14.1781579 34.5472105,14.3460526 C33.6093158,15.1376316 32.0872105,15.8465789 30.2314211,15.8465789 C26.7703684,15.8465789 24.4766842,13.6365789 24.4766842,9.88342105 C24.4766842,6.86026316 26.7493158,4.67078947 29.7514211,4.67078947 C31.753,4.67078947 33.5466842,5.46289474 34.443,7.73552632 C34.5472105,8.00657895 34.4851053,8.19447368 34.2556316,8.36131579 L27.8545789,12.7192105 C28.5008947,13.3028947 29.3345789,13.6155263 30.3145789,13.6155263 C31.9198421,13.6155263 33.2335263,12.865 34.2556316,11.7597368" id="Fill-5" fill="#FEFEFE"></path>
                    <path d="M38.5078947,9.86236842 C38.5078947,10.2586842 38.5494737,10.6134211 38.6331579,10.9676316 L43.4073684,7.73552632 C42.97,6.985 42.1568421,6.79763158 41.51,6.79763158 C39.7168421,6.79763158 38.5078947,8.06973684 38.5078947,9.86236842 M46.0142105,11.7597368 C46.3057895,11.4471053 46.5563158,11.5307895 46.5563158,11.9476316 L46.5563158,13.7823684 C46.5563158,14.0118421 46.4931579,14.1781579 46.3057895,14.3460526 C45.3673684,15.1376316 43.8457895,15.8465789 41.99,15.8465789 C38.5289474,15.8465789 36.2352632,13.6365789 36.2352632,9.88342105 C36.2352632,6.86026316 38.5078947,4.67078947 41.51,4.67078947 C43.5115789,4.67078947 45.3052632,5.46289474 46.2015789,7.73552632 C46.3057895,8.00657895 46.2436842,8.19447368 46.0142105,8.36131579 L39.6126316,12.7192105 C40.2594737,13.3028947 41.0931579,13.6155263 42.0731579,13.6155263 C43.6784211,13.6155263 44.9921053,12.865 46.0142105,11.7597368" id="Fill-7" fill="#FEFEFE"></path>
                    <path d="M56.0415789,8.09015789 C55.4994737,7.33963158 54.5821053,6.88121053 53.3931579,6.88121053 C51.6005263,6.88121053 50.3284211,8.34068421 50.3284211,10.2585789 C50.3284211,12.177 51.6005263,13.6364737 53.3931579,13.6364737 C54.5821053,13.6364737 55.4994737,13.1780526 56.0415789,12.427 L56.0415789,8.09015789 Z M56.5,0.000157894737 L57.8763158,0.000157894737 C58.1684211,0.000157894737 58.3347368,0.166473684 58.3347368,0.458578947 L58.3347368,15.1380526 C58.3347368,15.4296316 58.1684211,15.5964737 57.8763158,15.5964737 L56.5,15.5964737 C56.2078947,15.5964737 56.0415789,15.4501579 56.0415789,15.2212105 L56.0415789,14.867 C55.4157895,15.4501579 54.4984211,15.8464737 53.2684211,15.8464737 C49.9736842,15.8464737 47.9931579,13.5112105 47.9931579,10.2585789 C47.9931579,7.00594737 49.9736842,4.67068421 53.1852632,4.67068421 C54.4152632,4.67068421 55.3742105,5.06647368 56.0415789,5.62963158 L56.0415789,0.458578947 C56.0415789,0.166473684 56.2078947,0.000157894737 56.5,0.000157894737 Z" id="Fill-9" fill="#FEFEFE"></path>
                    <path d="M69.9272632,3.25257895 L63.422,3.25257895 L63.422,6.96415789 C63.8388421,6.83889474 64.3183158,6.77678947 64.8188421,6.77678947 C65.4862105,6.77678947 65.9446316,6.90205263 66.3825263,7.02678947 C66.7577895,7.13152632 67.1330526,7.23521053 67.6341053,7.23521053 C68.1756842,7.23521053 68.6972632,7.17257895 69.3646316,6.98468421 C69.6767368,6.881 69.8856842,7.02678947 69.8856842,7.36047368 L69.8856842,8.65310526 C69.8856842,8.90363158 69.7604211,9.091 69.5104211,9.17415789 C68.9683158,9.341 68.3635789,9.44573684 67.6341053,9.44573684 C66.9456842,9.44573684 66.5283158,9.341 66.1325263,9.21626316 C65.7572632,9.091 65.4025263,9.02836842 64.8604211,9.02836842 C64.2351579,9.02836842 63.7762105,9.11152632 63.422,9.32047368 L63.422,15.1378421 C63.422,15.4299474 63.2551579,15.5962632 62.9630526,15.5962632 L61.5035789,15.5962632 C61.2114737,15.5962632 61.0446316,15.4299474 61.0446316,15.1378421 L61.0446316,1.45942105 C61.0446316,1.16784211 61.2114737,1.001 61.5035789,1.001 L69.9272632,1.001 C70.2193684,1.001 70.3856842,1.16784211 70.3856842,1.45942105 L70.3856842,2.79415789 C70.3856842,3.08573684 70.2193684,3.25257895 69.9272632,3.25257895" id="Fill-11" fill="#FEFEFE"></path>
                    <path d="M72.4277895,12.6774737 L72.4277895,0.459052632 C72.4277895,0.166421053 72.5946316,0.000105263158 72.8862105,0.000105263158 L74.2625263,0.000105263158 C74.5546316,0.000105263158 74.7214737,0.166421053 74.7214737,0.459052632 L74.7214737,12.3648421 C74.7214737,13.2822105 75.1804211,13.6990526 76.0141053,13.6990526 C76.2646316,13.6990526 76.5977895,13.678 76.9730526,13.6153684 C77.2856842,13.5532632 77.4735789,13.6990526 77.4735789,14.0116842 L77.4735789,15.1795789 C77.4735789,15.4506316 77.3488421,15.6174737 77.0772632,15.6801053 C76.6188421,15.8048421 76.1598947,15.8464211 75.6804211,15.8464211 C73.5956842,15.8464211 72.4277895,14.7206316 72.4277895,12.6774737" id="Fill-13" fill="#FEFEFE"></path>
                    <path d="M86.168,12.4271579 L86.168,8.09031579 C85.6258947,7.33926316 84.7085263,6.88084211 83.5201053,6.88084211 C81.7269474,6.88084211 80.4548421,8.34031579 80.4548421,10.2587368 C80.4548421,12.1766316 81.7269474,13.6366316 83.5201053,13.6366316 C84.7085263,13.6366316 85.6258947,13.1782105 86.168,12.4271579 M86.6264211,4.92084211 L88.0027368,4.92084211 C88.2948421,4.92084211 88.4611579,5.08768421 88.4611579,5.37926316 L88.4611579,15.1376842 C88.4611579,15.4297895 88.2948421,15.5961053 88.0027368,15.5961053 L86.6264211,15.5961053 C86.3348421,15.5961053 86.168,15.4503158 86.168,15.2213684 L86.168,14.8671579 C85.5427368,15.4503158 84.6248421,15.8466316 83.3948421,15.8466316 C80.1001053,15.8466316 78.1195789,13.5113684 78.1195789,10.2587368 C78.1195789,7.00610526 80.1001053,4.67084211 83.3116842,4.67084211 C84.5416842,4.67084211 85.5006316,5.06663158 86.168,5.62978947 L86.168,5.27557895 C86.168,5.04610526 86.3348421,4.92084211 86.6264211,4.92084211" id="Fill-15" fill="#FEFEFE"></path>
                    <path d="M95.6745789,13.6992632 C95.9251053,13.6992632 96.2582632,13.6782105 96.6340526,13.6155789 C96.9461579,13.5534737 97.1335263,13.6992632 97.1335263,14.0118947 L97.1335263,15.1797895 C97.1335263,15.4503158 97.0093158,15.6176842 96.7382632,15.6803158 C96.2793158,15.8050526 95.8203684,15.8466316 95.3414211,15.8466316 C93.2561579,15.8466316 92.0887895,14.7203158 92.0887895,12.6776842 L92.0887895,7.31873684 L91.1503684,7.48557895 C90.8577368,7.52715789 90.6498421,7.40242105 90.6082632,7.10978947 L90.4203684,5.984 C90.3782632,5.69242105 90.5040526,5.484 90.7956316,5.44242105 L92.0887895,5.21242105 L92.0887895,2.35610526 C92.0887895,2.06452632 92.2551053,1.89715789 92.5472105,1.89715789 L93.923,1.89715789 C94.2156316,1.89715789 94.3819474,2.06452632 94.3819474,2.35610526 L94.3819474,4.81663158 L96.4461579,4.44136842 C96.7382632,4.37873684 96.9461579,4.52452632 96.9877368,4.81663158 L97.1766842,5.94294737 C97.2182632,6.23452632 97.0919474,6.44294737 96.8003684,6.48452632 L94.3819474,6.92294737 L94.3819474,12.3650526 C94.3819474,13.2824211 94.8408947,13.6992632 95.6745789,13.6992632" id="Fill-17" fill="#FEFEFE"></path>
                    <path d="M99.3438947,15.1378947 L99.3438947,5.37947368 C99.3438947,5.08736842 99.5107368,4.92105263 99.8028421,4.92105263 L101.157579,4.92105263 C101.449158,4.92105263 101.616526,5.06684211 101.616526,5.33789474 L101.616526,5.75473684 C102.137579,5.00473684 103.118105,4.67052632 104.056526,4.67052632 C105.369684,4.67052632 106.349684,5.40052632 106.682842,6.19315789 C107.433368,5.17105263 108.560211,4.67052632 109.769158,4.67052632 C111.874947,4.67052632 113.439158,6.10947368 113.439158,8.25684211 L113.439158,15.1378947 C113.439158,15.43 113.272316,15.5963158 112.980211,15.5963158 L111.604421,15.5963158 C111.312316,15.5963158 111.145474,15.43 111.145474,15.1378947 L111.145474,8.54894737 C111.145474,7.40210526 110.415474,6.81789474 109.351789,6.81789474 C108.643368,6.81789474 107.892316,7.21421053 107.537579,7.98578947 L107.537579,15.1378947 C107.537579,15.43 107.371789,15.5963158 107.079158,15.5963158 L105.702842,15.5963158 C105.411263,15.5963158 105.244947,15.43 105.244947,15.1378947 L105.244947,8.54894737 C105.244947,7.48526316 104.410211,6.81789474 103.471789,6.81789474 C102.763368,6.81789474 101.991263,7.21421053 101.637579,7.98578947 L101.637579,15.1378947 C101.637579,15.43 101.470737,15.5963158 101.178632,15.5963158 L99.8028421,15.5963158 C99.5107368,15.5963158 99.3438947,15.43 99.3438947,15.1378947" id="Fill-19" fill="#FEFEFE"></path>
                    <path d="M123.445474,12.4271579 L123.445474,8.09031579 C122.903368,7.33926316 121.985474,6.88084211 120.798105,6.88084211 C119.004421,6.88084211 117.732842,8.34031579 117.732842,10.2587368 C117.732842,12.1766316 119.004421,13.6366316 120.798105,13.6366316 C121.985474,13.6366316 122.903368,13.1782105 123.445474,12.4271579 M123.904421,4.92084211 L125.280211,4.92084211 C125.572316,4.92084211 125.739158,5.08768421 125.739158,5.37926316 L125.739158,15.1376842 C125.739158,15.4297895 125.572316,15.5961053 125.280211,15.5961053 L123.904421,15.5961053 C123.612316,15.5961053 123.445474,15.4503158 123.445474,15.2213684 L123.445474,14.8671579 C122.820211,15.4503158 121.902316,15.8466316 120.671789,15.8466316 C117.378105,15.8466316 115.397053,13.5113684 115.397053,10.2587368 C115.397053,7.00610526 117.378105,4.67084211 120.589158,4.67084211 C121.819158,4.67084211 122.777579,5.06663158 123.445474,5.62978947 L123.445474,5.27557895 C123.445474,5.04610526 123.612316,4.92084211 123.904421,4.92084211" id="Fill-21" fill="#FEFEFE"></path>
                    <path d="M132.952053,13.6992632 C133.202579,13.6992632 133.535737,13.6782105 133.911526,13.6155789 C134.223632,13.5534737 134.412053,13.6992632 134.412053,14.0118947 L134.412053,15.1797895 C134.412053,15.4503158 134.286263,15.6176842 134.015737,15.6803158 C133.556789,15.8050526 133.097842,15.8466316 132.618368,15.8466316 C130.533105,15.8466316 129.366263,14.7203158 129.366263,12.6776842 L129.366263,7.31873684 L128.427842,7.48557895 C128.135211,7.52715789 127.927316,7.40242105 127.885737,7.10978947 L127.697316,5.984 C127.655737,5.69242105 127.781526,5.484 128.073105,5.44242105 L129.366263,5.21242105 L129.366263,2.35610526 C129.366263,2.06452632 129.532579,1.89715789 129.824158,1.89715789 L131.200474,1.89715789 C131.493105,1.89715789 131.659421,2.06452632 131.659421,2.35610526 L131.659421,4.81663158 L133.723105,4.44136842 C134.015737,4.37873684 134.223632,4.52452632 134.265211,4.81663158 L134.453632,5.94294737 C134.495211,6.23452632 134.369421,6.44294737 134.077842,6.48452632 L131.659421,6.92294737 L131.659421,12.3650526 C131.659421,13.2824211 132.117842,13.6992632 132.952053,13.6992632" id="Fill-23" fill="#FEFEFE"></path>
                    <path d="M136.954421,15.1378947 L136.954421,5.37947368 C136.954421,5.08736842 137.121263,4.92105263 137.413368,4.92105263 L138.789158,4.92105263 C139.081263,4.92105263 139.248105,5.08736842 139.248105,5.37947368 L139.248105,15.1378947 C139.248105,15.43 139.081263,15.5963158 138.789158,15.5963158 L137.413368,15.5963158 C137.121263,15.5963158 136.954421,15.43 136.954421,15.1378947 M136.349684,2.02263158 C136.349684,1.06315789 137.141789,0.271052632 138.101789,0.271052632 C139.061263,0.271052632 139.853368,1.06315789 139.853368,2.02263158 C139.853368,2.98157895 139.061263,3.77368421 138.101789,3.77368421 C137.141789,3.77368421 136.349684,2.98157895 136.349684,2.02263158" id="Fill-25" fill="#FEFEFE"></path>
                    <path d="M151.403421,8.81978947 L151.403421,15.1376842 C151.403421,15.4297895 151.236579,15.5961053 150.944474,15.5961053 L149.568684,15.5961053 C149.276579,15.5961053 149.109737,15.4297895 149.109737,15.1376842 L149.109737,9.11189474 C149.109737,7.54821053 148.212895,6.81821053 146.836579,6.81821053 C145.669211,6.81821053 144.751316,7.42294737 144.251842,8.50715789 L144.251842,15.1376842 C144.251842,15.4297895 144.085,15.5961053 143.792895,15.5961053 L142.417105,15.5961053 C142.125,15.5961053 141.958158,15.4297895 141.958158,15.1376842 L141.958158,5.37926316 C141.958158,5.08768421 142.125,4.92084211 142.417105,4.92084211 L143.771842,4.92084211 C144.063947,4.92084211 144.230789,5.08768421 144.230789,5.37926316 L144.230789,6.00505263 C144.814474,5.21242105 145.898684,4.67084211 147.232895,4.67084211 C149.839737,4.67084211 151.403421,6.21347368 151.403421,8.81978947" id="Fill-27" fill="#FEFEFE"></path>
                    <g id="Group-31" transform="translate(153.157895, 4.628526)">
                        <mask id="mask-2" fill="white">
                            <use xlink:href="#path-1"></use>
                        </mask>
                        <g id="Clip-30"></g>
                        <path d="M8.25373684,3.46163158 C7.71163158,2.71110526 6.79478947,2.25268421 5.60636842,2.25268421 C3.81268421,2.25268421 2.54110526,3.71215789 2.54110526,5.52584211 C2.54110526,7.34005263 3.81268421,8.79952632 5.60636842,8.79952632 C6.79478947,8.79952632 7.71163158,8.34110526 8.25373684,7.59057895 L8.25373684,3.46163158 Z M8.71268421,0.292684211 L10.0884737,0.292684211 C10.3805789,0.292684211 10.5474211,0.459 10.5474211,0.751105263 L10.5474211,10.6968947 C10.5474211,13.5326842 8.52426316,15.2632105 5.16742105,15.2632105 C3.64531579,15.2632105 2.26952632,14.9505789 1.31005263,14.1579474 C1.12215789,13.9916316 1.06057895,13.8242632 1.06057895,13.5953158 L1.06057895,12.0311053 C1.06057895,11.6347895 1.31005263,11.5305789 1.62268421,11.7811053 C2.77005263,12.7195263 4.04163158,13.0532105 5.16742105,13.0532105 C7.10636842,13.0532105 8.25373684,12.219 8.25373684,10.6968947 L8.25373684,10.0295263 C7.62847368,10.6132105 6.71057895,11.0095263 5.48005263,11.0095263 C2.18636842,11.0095263 0.205315789,8.67426316 0.205315789,5.52584211 C0.205315789,2.37742105 2.18636842,0.0421578947 5.39742105,0.0421578947 C6.62742105,0.0421578947 7.58584211,0.437947368 8.25373684,1.00110526 L8.25373684,0.646894737 C8.25373684,0.417421053 8.42057895,0.292684211 8.71268421,0.292684211 Z" id="Fill-29" fill="#FEFEFE" mask="url(#mask-2)"></path>
                    </g>
                </g>
            </g>
        </g>
    </g>
</svg>