<svg xmlns="http://www.w3.org/2000/svg" width="222" height="24"><g fill="none"><g><path fill="#00B67A" d="M0 0H24.375V24H0z"/><path fill="#00B67A" d="M26.406 0H50.781V24H26.406z"/><path fill="#00B67A" d="M52.813 0H77.188V24H52.813z"/><path fill="#00B67A" d="M79.219 0H103.594V24H79.219z"/><g transform="translate(105.625)"><path fill="#DCDCE6" d="M12.188 0H24.376V24H12.188z"/><path fill="#00B67A" d="M0 0H12.188V24H0z"/></g><path fill="#FFF" d="M12.188 16.175l3.707-.925 1.548 4.7-5.256-3.775zm8.53-6.075h-6.525l-2.005-6.05-2.006 6.05H3.656l5.281 3.75-2.005 6.05 5.28-3.75 3.25-2.3 5.257-3.75zm17.876 6.075l3.707-.925 1.549 4.7-5.256-3.775zm8.531-6.075H40.6l-2.006-6.05-2.006 6.05h-6.526l5.282 3.75-2.006 6.05 5.281-3.75 3.25-2.3 5.256-3.75zM65 16.175l3.707-.925 1.549 4.7L65 16.175zm8.531-6.075h-6.525L65 4.05l-2.006 6.05H56.47l5.281 3.75-2.006 6.05 5.281-3.75 3.25-2.3 5.256-3.75zm17.875 6.075l3.707-.925 1.55 4.7-5.257-3.775zm8.531-6.075h-6.525l-2.006-6.05L89.4 10.1h-6.525l5.281 3.75-2.006 6.05 5.282-3.75 3.25-2.3 5.255-3.75zm17.876 6.075l3.707-.925 1.548 4.7-5.255-3.775zm8.53-6.075h-6.525l-2.005-6.05-2.006 6.05h-6.526l5.281 3.75-2.005 6.05 5.28-3.75 3.25-2.3 5.257-3.75z"/></g><g transform="translate(142 2)"><path fill="#191919" d="M21.02 7.088h8.099v1.538h-3.185v8.649h-1.75V8.626h-3.171V7.088h.007zm7.753 2.81h1.497v1.424h.028c.05-.2.141-.395.275-.582.135-.187.297-.367.488-.518.19-.158.402-.28.635-.38.233-.094.473-.144.713-.144.184 0 .318.007.389.014.07.007.14.022.219.029v1.567a5.012 5.012 0 0 0-.346-.05 2.881 2.881 0 0 0-.346-.022 1.761 1.761 0 0 0-1.384.647 2.46 2.46 0 0 0-.424.79 3.407 3.407 0 0 0-.155 1.086v3.509h-1.596v-7.37h.007zm11.58 7.377h-1.568v-1.028h-.028a2.197 2.197 0 0 1-.876.891 2.363 2.363 0 0 1-1.186.338c-.953 0-1.645-.237-2.069-.719-.423-.481-.635-1.207-.635-2.178v-4.68h1.596v4.522c0 .647.12 1.107.367 1.373.24.266.586.403 1.024.403.339 0 .614-.05.84-.159a1.42 1.42 0 0 0 .544-.424 1.64 1.64 0 0 0 .303-.632 3.17 3.17 0 0 0 .092-.798V9.906h1.596v7.369zm2.718-2.365c.05.474.226.805.53.999.31.187.678.288 1.108.288.149 0 .318-.015.509-.036.19-.022.374-.072.536-.137.17-.065.304-.165.417-.295.106-.13.155-.294.148-.503a.7.7 0 0 0-.226-.51 1.585 1.585 0 0 0-.536-.324 5.311 5.311 0 0 0-.749-.208c-.282-.058-.565-.123-.854-.187a7.996 7.996 0 0 1-.862-.245 2.613 2.613 0 0 1-.741-.388 1.699 1.699 0 0 1-.522-.618c-.135-.252-.198-.56-.198-.935 0-.402.099-.733.29-1.006.19-.273.437-.49.727-.654.296-.166.621-.28.981-.353.36-.064.706-.1 1.031-.1.374 0 .734.043 1.073.122.34.079.65.208.925.395.276.18.502.417.685.705.184.287.297.64.346 1.05h-1.666c-.078-.389-.247-.655-.523-.784a2.108 2.108 0 0 0-.946-.202c-.113 0-.247.008-.402.03a2.17 2.17 0 0 0-.438.107.948.948 0 0 0-.346.23.562.562 0 0 0-.141.396c0 .2.07.359.204.481.135.122.311.223.53.31.219.078.466.15.748.208.283.057.572.122.869.187.29.064.572.15.854.244.283.094.53.223.749.388.219.166.395.367.53.611.133.245.204.554.204.913 0 .439-.099.806-.297 1.115a2.366 2.366 0 0 1-.762.74c-.31.187-.664.33-1.045.417-.381.086-.763.13-1.137.13-.459 0-.883-.05-1.27-.159a3.07 3.07 0 0 1-1.01-.474 2.342 2.342 0 0 1-.671-.798c-.163-.316-.248-.697-.262-1.136h1.61v-.014zm5.268-5.011h1.207V7.685h1.596v2.214h1.44v1.215h-1.44v3.94c0 .172.007.316.021.445a.83.83 0 0 0 .099.317c.05.086.127.15.233.194.106.043.24.064.424.064.113 0 .226 0 .338-.007.113-.007.226-.021.34-.05v1.258c-.177.021-.354.036-.516.057-.17.022-.339.03-.515.03-.424 0-.763-.044-1.017-.123a1.315 1.315 0 0 1-.6-.36 1.256 1.256 0 0 1-.297-.589 4.51 4.51 0 0 1-.092-.812v-4.35h-1.207v-1.23h-.014zm5.373 0h1.511v1h.028c.226-.432.537-.734.94-.921.402-.187.833-.28 1.306-.28.572 0 1.066.1 1.49.309a2.92 2.92 0 0 1 1.059.84c.282.36.487.777.628 1.252.141.474.212.985.212 1.524 0 .496-.064.978-.19 1.438a3.88 3.88 0 0 1-.573 1.236c-.254.36-.579.64-.974.856-.395.215-.854.323-1.391.323-.233 0-.466-.021-.7-.064a3.037 3.037 0 0 1-.67-.209 2.414 2.414 0 0 1-1.052-.884h-.028v3.68h-1.596V9.9zm5.578 3.695c0-.33-.042-.654-.127-.97a2.64 2.64 0 0 0-.381-.834 1.956 1.956 0 0 0-.629-.583 1.737 1.737 0 0 0-.868-.223c-.67 0-1.18.238-1.518.712-.34.475-.509 1.107-.509 1.898 0 .374.043.719.135 1.035.091.317.218.59.402.82.177.23.388.41.635.54.248.136.537.2.862.2.367 0 .67-.079.925-.23.254-.15.459-.352.621-.59.163-.244.283-.517.353-.826.064-.31.1-.625.1-.949zm2.817-6.506h1.596v1.538h-1.596V7.088zm0 2.81h1.596v7.377h-1.596V9.899zm3.023-2.81h1.595v10.187H65.13V7.088zm6.488 10.388c-.579 0-1.094-.1-1.546-.295a3.413 3.413 0 0 1-1.15-.805 3.52 3.52 0 0 1-.714-1.229c-.162-.475-.247-1-.247-1.567 0-.561.085-1.079.247-1.553a3.52 3.52 0 0 1 .713-1.23c.31-.345.7-.61 1.151-.805a3.885 3.885 0 0 1 1.546-.294c.58 0 1.095.1 1.547.294.452.194.833.468 1.15.806.311.345.551.754.714 1.229.162.474.247.992.247 1.553 0 .568-.085 1.092-.247 1.567a3.52 3.52 0 0 1-.713 1.23c-.31.344-.7.61-1.151.804a3.885 3.885 0 0 1-1.547.295zm0-1.287c.354 0 .664-.079.925-.23.262-.15.474-.352.643-.596.17-.245.29-.525.374-.834.078-.31.12-.626.12-.95 0-.316-.042-.625-.12-.941a2.48 2.48 0 0 0-.374-.834 1.96 1.96 0 0 0-.643-.59 1.824 1.824 0 0 0-.925-.23c-.353 0-.663.08-.925.23a2.041 2.041 0 0 0-.642.59c-.17.244-.29.518-.374.834-.078.316-.12.625-.12.942 0 .323.042.64.12.949.077.309.204.59.374.834s.381.445.642.596c.262.158.572.23.925.23zm4.124-6.29h1.207V7.685h1.596v2.214h1.44v1.215h-1.44v3.94c0 .172.007.316.021.445a.83.83 0 0 0 .1.317c.049.086.126.15.232.194.106.043.24.064.424.064.113 0 .226 0 .339-.007.113-.007.226-.021.339-.05v1.258c-.177.021-.353.036-.516.057-.17.022-.339.03-.515.03-.424 0-.763-.044-1.017-.123a1.315 1.315 0 0 1-.6-.36 1.256 1.256 0 0 1-.297-.589 4.51 4.51 0 0 1-.091-.812v-4.35h-1.208v-1.23h-.014z"/><path fill="#00B67A" d="M19.156 7.088L11.841 7.088 9.582 0 7.315 7.088 0 7.081 5.924 11.467 3.658 18.548 9.582 14.17 15.499 18.548 13.239 11.467 19.156 7.088 19.156 7.088z"/><path fill="#005128" d="M13.748 13.07L13.239 11.467 9.582 14.17z"/></g></g></svg>