<?xml version="1.0" encoding="utf-8"?>
<!-- Generator: Adobe Illustrator 26.5.0, SVG Export Plug-In . SVG Version: 6.00 Build 0)  -->
<svg version="1.1" id="Layer_1" xmlns="http://www.w3.org/2000/svg" xmlns:xlink="http://www.w3.org/1999/xlink" x="0px" y="0px"
	 viewBox="0 0 130.2 24" style="enable-background:new 0 0 130.2 24;" xml:space="preserve">
<style type="text/css">
	.st0{fill:#00B67A;}
	.st1{fill:#FFFFFF;}
</style>
<g>
	<g>
		<path class="st0" d="M0,0h24.4v24H0V0z"/>
		<path class="st0" d="M26.4,0h24.4v24H26.4V0z"/>
		<path class="st0" d="M52.8,0h24.4v24H52.8V0z"/>
		<path class="st0" d="M79.2,0h24.4v24H79.2V0z"/>
		<path class="st0" d="M105.6,0H130v24h-24.4V0z"/>
		<path class="st1" d="M12.2,16.2l3.7-0.9l1.5,4.7L12.2,16.2L12.2,16.2z M20.7,10.1h-6.5l-2-6.1l-2,6.1H3.7l5.3,3.8l-2,6.1l5.3-3.8
			l3.2-2.3L20.7,10.1L20.7,10.1z M38.6,16.2l3.7-0.9l1.5,4.7L38.6,16.2z M47.1,10.1h-6.5l-2-6.1l-2,6.1h-6.5l5.3,3.8l-2,6.1l5.3-3.8
			l3.2-2.3C41.9,13.8,47.1,10.1,47.1,10.1z M65,16.2l3.7-0.9l1.5,4.7L65,16.2z M73.5,10.1H67l-2-6l-2,6.1h-6.5l5.3,3.8l-2,6.1
			l5.3-3.8l3.2-2.3L73.5,10.1L73.5,10.1z M91.4,16.2l3.7-0.9l1.6,4.7C96.7,19.9,91.4,16.2,91.4,16.2z M99.9,10.1h-6.5l-2-6.1l-2,6.1
			h-6.5l5.3,3.8l-2,6.1l5.3-3.8l3.2-2.3C94.7,13.9,99.9,10.1,99.9,10.1z M117.8,16.2l3.7-0.9l1.5,4.7L117.8,16.2z M126.3,10.1h-6.5
			l-2-6.1l-2,6.1h-6.5l5.3,3.8l-2,6.1l5.3-3.8l3.2-2.3L126.3,10.1L126.3,10.1z"/>
	</g>
</g>
</svg>
