<?xml version="1.0" encoding="UTF-8"?>
<svg width="105px" height="35px" viewBox="0 0 105 35" version="1.1" xmlns="http://www.w3.org/2000/svg" xmlns:xlink="http://www.w3.org/1999/xlink">
    <!-- Generator: sketchtool 51.2 (57519) - http://www.bohemiancoding.com/sketch -->
    <title>D9C3D433-3176-428F-8819-AC4C9CC4AA7D</title>
    <desc>Created with sketchtool.</desc>
    <defs>
        <polygon id="path-1" points="0.076098446 0.0232775835 14.6890828 0.0232775835 14.6890828 19.0033897 0.076098446 19.0033897"></polygon>
        <polygon id="path-3" points="0.00913295018 0.00302783605 14.4993739 0.00302783605 14.4993739 19.6021756 0.00913295018 19.6021756"></polygon>
    </defs>
    <g id="Page-1" stroke="none" stroke-width="1" fill="none" fill-rule="evenodd">
        <g id="Hompage-amends-v2" transform="translate(-327.000000, -1698.000000)">
            <g id="Group-10" transform="translate(237.000000, 1578.000000)">
                <g id="Group-16" transform="translate(90.000000, 112.000000)">
                    <g id="Group-15" transform="translate(0.000000, 8.000000)">
                        <g id="Logo---The-Guardian">
                            <rect id="Background" x="0" y="0" width="105.347692" height="34.6538462"></rect>
                            <g id="Page-1">
                                <path d="M25.820292,34.5894215 C26.3289859,34.5468918 26.7758105,34.5203763 27.2200098,34.4704958 C28.5653842,34.3191915 29.9103209,34.1630742 31.253595,33.9943555 C31.3669201,33.9800914 31.4665937,33.8569652 31.5725679,33.7845072 C31.4839206,33.6852712 31.4133878,33.5512938 31.3029505,33.4937124 C31.046022,33.3598225 30.776317,33.2414219 30.4996988,33.1560999 C30.167337,33.053626 30.0782521,32.8678429 30.0801773,32.5179791 C30.1008296,28.7862149 30.100392,25.0542757 30.1030173,21.322424 C30.1034549,20.8086545 30.0635504,20.7533484 29.5499559,20.8182806 C28.8287884,20.9093782 28.113659,21.0472935 27.3959919,21.1653441 C26.4493118,21.3211114 25.5012316,21.4683027 24.5578769,21.6421845 C24.4170737,21.6681749 24.2994607,21.8199167 24.1710839,21.9133771 C24.2717201,22.0316027 24.3497788,22.1941958 24.4774554,22.258953 C24.7612494,22.4027314 25.0654332,22.5114185 25.3697045,22.6081167 C25.6443975,22.6954514 25.7438085,22.8383548 25.7422333,23.1438512 C25.7276192,25.9719026 25.7330448,28.8000415 25.7332198,31.6280928 C25.7332198,32.4299443 25.5963546,32.652394 24.8348451,32.8934833 C24.4932947,33.0016453 24.1227786,33.0708655 23.766089,33.0681527 C22.9877776,33.0621145 22.5422657,32.6831974 22.3912239,31.9276386 C22.3234039,31.5884509 22.3056394,31.2344741 22.3053769,30.8872356 C22.3031891,28.2923976 22.3091398,25.6975596 22.3172782,23.1028091 C22.3191159,22.5053803 22.3537697,21.907864 22.3465064,21.3107852 C22.3408183,20.8386703 22.1699993,20.7066182 21.6976219,20.767875 C21.3803992,20.808917 21.0653642,20.8671985 20.7498917,20.9209295 C19.4164187,21.1478422 18.0819831,21.3702043 16.7513104,21.6124312 C16.61182,21.637809 16.4942944,21.7831627 16.3666177,21.8728601 C16.4746922,22.0007118 16.5586141,22.173981 16.6958293,22.2470517 C17.0024633,22.4104323 17.3475141,22.502055 17.6521354,22.6682359 C17.7720237,22.7336932 17.8922621,22.917201 17.8982127,23.051966 C17.9215778,23.5899757 17.8933997,24.1299106 17.8964625,24.669058 C17.909239,26.9135946 17.8861364,29.1593563 17.954919,31.4022303 C18.0093501,33.179465 19.2002697,34.3695096 20.9711163,34.5725321 C22.563268,34.7549899 23.9561601,34.2697485 25.212187,33.3170303 C25.3848437,33.1860282 25.5662513,33.0665775 25.820292,32.8877951 L25.820292,34.5894215 Z" id="Fill-1" fill="#FEFEFE"></path>
                                <path d="M35.4153819,2.64414972 C35.2987315,2.62988564 35.2149847,2.6106335 35.1311504,2.61072101 C30.7280117,2.61387136 26.3247855,2.61920945 21.9215593,2.62227229 C21.6156253,2.62244731 21.3097789,2.60590797 21.0037574,2.59794459 C20.793034,2.59243148 20.7063119,2.6655896 20.7007113,2.90606629 C20.6808466,3.76541166 20.6149518,4.62370693 20.5917617,5.48296479 C20.5721595,6.20640759 20.5877362,6.93072548 20.5877362,7.78517031 C20.8043228,7.59912466 21.0185466,7.47048538 21.1589996,7.28575238 C22.1204689,6.02149956 23.063561,4.74342021 24.0217049,3.47662961 C24.1203283,3.34624014 24.2711075,3.18478472 24.4115606,3.17008309 C24.8089422,3.12842847 25.2135872,3.15546897 25.6008176,3.15546897 C25.6224325,3.23440273 25.6364341,3.26161825 25.6364341,3.28883377 C25.6384468,7.9545016 25.6423847,12.6201694 25.6276831,17.2857498 C25.6271581,17.4403794 25.4712157,17.6504902 25.3283999,17.7375624 C24.9696976,17.9563367 24.5849174,18.1387069 24.1955867,18.2991997 C23.8342591,18.4481413 23.7119205,18.6691033 23.8549989,19.0418072 L32.24473,19.0418072 C32.3430909,18.6799545 32.2033379,18.4575923 31.8994167,18.3199395 C31.5682799,18.1699479 31.2416937,18.0056922 30.9005808,17.882566 C30.4722208,17.7280238 30.3243294,17.4430922 30.370272,17.0036184 C30.406501,16.6566424 30.4082512,16.3052034 30.4086012,15.9556896 C30.411139,12.8500574 30.4122766,9.74442526 30.4087763,6.63870557 C30.4077261,5.7496944 30.4071136,4.86007066 30.3754351,3.97184708 C30.3489196,3.2296772 30.3294925,3.23002724 31.0861014,3.23160242 C31.2318926,3.23186495 31.3789964,3.24271615 31.5232124,3.22705191 C31.8027185,3.19651102 31.969512,3.31736194 32.1342928,3.54444964 C33.0843857,4.85289486 34.0476926,6.15197654 35.0248261,7.44038204 C35.1357884,7.58669828 35.361651,7.64585485 35.6400194,7.80652268 C35.5616107,6.00452268 35.4895902,4.34918896 35.4153819,2.64414972" id="Fill-3" fill="#FEFEFE"></path>
                                <path d="M50.4619682,24.6752712 C50.4365903,24.6705456 50.4113,24.6658201 50.3860097,24.6610946 C50.3860097,23.5404452 50.361157,22.4190957 50.3958983,21.2994965 C50.4148004,20.6915665 50.2595582,20.6958545 49.7540146,20.7888773 C48.1370976,21.0861478 46.5221059,21.394357 44.9089518,21.7115797 C44.7637732,21.7401954 44.6373217,21.8646342 44.5022067,21.9445306 C44.6320711,22.0407913 44.7486341,22.1757312 44.8942502,22.2256993 C45.2606534,22.3514507 45.6402705,22.4387854 46.0306513,22.5458973 L46.0306513,22.9631436 C46.0306513,26.0258085 46.0033483,29.088911 46.0506036,32.1508759 C46.0618923,32.8831571 45.9082253,33.3396953 45.1695558,33.5332668 C44.8227548,33.6241894 44.6921028,33.8879436 44.7990396,34.2838376 L51.7474858,34.2838376 C51.8683368,33.927323 51.7591246,33.7207126 51.4481151,33.5921608 C51.2472803,33.5092016 51.0699856,33.3629729 50.8654754,33.296203 C50.6055716,33.2113186 50.5556911,33.0584391 50.5570037,32.8050985 C50.5674174,30.6905138 50.5633044,28.5757541 50.5633919,26.4610819 C50.5634794,25.2398838 50.6170354,25.1758267 51.8419963,24.939813 C51.8562604,24.9370127 51.8708745,24.9354375 51.8854011,24.9343874 C52.7488595,24.8736557 53.6123178,24.8129239 54.5316073,24.7482543 L54.5316073,21.7772995 C54.5316949,20.7438098 54.4631747,20.6862284 53.4199715,20.8468963 C53.3625651,20.8558222 53.3062963,20.8724491 53.2495901,20.8858381 C52.1164268,21.1539678 51.4812813,21.9623826 51.0545839,22.9639312 C50.8185702,23.5179552 50.6570273,24.1037452 50.4619682,24.6752712" id="Fill-5" fill="#FEFEFE"></path>
                                <path d="M76.8367392,34.2996331 C76.9296745,33.9005013 76.8294759,33.6741137 76.4934386,33.5497624 C76.3038926,33.4796671 76.1378866,33.3472649 75.9492157,33.2734067 C75.6777606,33.1671699 75.5963765,32.9894377 75.5972516,32.7011807 C75.609328,28.8682553 75.6039899,25.0352424 75.6214918,21.2023169 C75.6233295,20.8024851 75.4497978,20.7162005 75.1224239,20.7554924 C74.7186541,20.8039727 74.3143592,20.8535907 73.9137398,20.9230735 C72.5954935,21.1515613 71.2777722,21.3830245 69.9635514,21.6329522 C69.8262486,21.6591176 69.7137986,21.81576 69.5897974,21.9118457 C69.7016348,22.0397849 69.7900196,22.2122665 69.9302977,22.2862998 C70.1980774,22.4275404 70.4901848,22.5303643 70.7818547,22.6162114 C71.0763249,22.7029335 71.1423947,22.8812783 71.1416946,23.1694478 C71.1352189,26.0695196 71.1092285,28.9702916 71.1645346,31.8694009 C71.181249,32.7500986 71.0690615,33.4106219 70.1013791,33.6309714 C70.0743386,33.6371846 70.0349593,33.6541615 70.0283085,33.6747262 C69.9788655,33.8276932 69.8938936,33.9873109 69.9094703,34.1354649 C69.9170837,34.2077479 70.1158182,34.3130221 70.2282682,34.3132846 C72.0935378,34.3172225 73.9588073,34.3066339 75.8240768,34.2998081 C76.1560886,34.298583 76.4881005,34.2996331 76.8367392,34.2996331" id="Fill-7" fill="#FEFEFE"></path>
                                <path d="M73.269187,15.1411142 C71.9166369,15.1362137 70.8961861,16.1040711 70.8883102,17.3993024 C70.8805219,18.6779068 71.8672814,19.6807681 73.13871,19.6863687 C74.5231137,19.6924944 75.6324743,18.6907707 75.6450757,17.4233675 C75.6576771,16.1628776 74.5988971,15.1459273 73.269187,15.1411142" id="Fill-9" fill="#FEFEFE"></path>
                                <path d="M8.75097125e-06,23.8026155 C0.100907449,23.3052979 0.182729031,22.8032546 0.305767686,22.3115376 C1.15496194,18.9170358 3.39319785,16.9525303 6.73615638,16.211673 C9.37912472,15.6259705 12.0065163,15.8702101 14.6024044,16.5793014 C14.9099136,16.6633107 15.0685687,16.8006134 15.0656809,17.1440015 C15.0536045,18.6143397 15.0606053,20.0847654 15.0606053,21.5873947 C14.7912504,21.6829553 14.6010918,21.6054217 14.4104081,21.293187 C13.5909672,19.9505255 12.7273338,18.634992 11.8991419,17.2975811 C11.6631282,16.9165638 11.3373296,16.7240424 10.9194707,16.6428334 C9.02514793,16.2748551 7.57913744,16.9884968 6.73536879,18.7199639 C5.97893484,20.2724737 5.74913433,21.9479347 5.69715356,23.6418602 C5.62548311,25.9751317 5.65217357,28.3154914 6.22754993,30.5947694 C6.42287161,31.3687053 6.75190813,32.154105 7.20232062,32.8088526 C8.05133985,34.0432646 9.29126497,34.0269878 10.5359156,33.7100277 C10.6392646,33.6836872 10.7673788,33.4853027 10.7682539,33.3661145 C10.7820804,31.3390395 10.782343,29.311877 10.7667662,27.284802 C10.7656286,27.1444365 10.6487156,26.9566406 10.5285648,26.874819 C10.2171177,26.6628705 9.88064288,26.4836506 9.5411052,26.3183448 C9.27726341,26.1898805 9.05761403,25.9976217 9.16840133,25.7236288 C9.22248233,25.5897389 9.53856741,25.4964535 9.73616435,25.4962785 C11.7044328,25.4942658 13.6727888,25.5163182 15.6410572,25.5297947 C16.1339994,25.5332076 16.6269416,25.5303198 17.1226842,25.5303198 C17.2659376,25.955442 17.1591757,26.2018693 16.7625817,26.3911528 C15.5604608,26.964954 15.5667615,26.978518 15.5669365,28.2949266 C15.5671115,29.9283829 15.562736,31.5618392 15.5728872,33.195208 C15.5743748,33.4454858 15.5270321,33.6115792 15.2633653,33.6871001 C12.2230154,34.5584343 9.15291211,34.9237874 6.03555362,34.1514266 C2.83541095,33.3585886 0.990968735,31.2490795 0.264463102,28.0882287 C0.177478448,27.7095742 0.0882185412,27.3313572 8.75097125e-06,26.9529652 L8.75097125e-06,23.8026155 Z" id="Fill-11" fill="#231F20"></path>
                                <g id="Group-15" transform="translate(35.528943, 0.064232)">
                                    <mask id="mask-2" fill="white">
                                        <use xlink:href="#path-1"></use>
                                    </mask>
                                    <g id="Clip-14"></g>
                                    <path d="M5.77560602,0.0232513306 C5.76475482,1.48028804 5.7511033,2.93732476 5.74410253,4.39436147 C5.73902696,5.42785118 5.74313992,6.46134088 5.74313992,7.57770228 C5.92183475,7.44171219 6.04181057,7.35105213 6.16117382,7.25951697 C7.51424899,6.22208933 9.04120596,5.75645015 10.7404696,5.90171627 C12.3834644,6.04225687 13.4408443,7.22206281 13.4635093,9.0257255 C13.4976381,11.7517405 13.4907248,14.4788057 13.460884,17.2049958 C13.4555459,17.6996007 13.5732465,18.0049221 14.033285,18.1770537 C14.1818765,18.2326223 14.339569,18.3035052 14.4490437,18.4119297 C14.5579057,18.5198292 14.6113742,18.6835599 14.6890828,18.8228754 C14.5620187,18.8842197 14.4351296,18.9982448 14.3077155,18.9989449 C12.5581338,19.0078709 10.8083771,19.0010451 9.05870791,18.9983323 C8.71068178,18.9978948 8.36265565,18.9983323 8.01314186,18.9983323 C7.8666506,18.6354296 7.97691284,18.410092 8.31312516,18.2986922 C8.97356096,18.0799179 9.18358427,17.6975005 9.15943159,16.9471922 C9.08111039,14.5147722 9.10963856,12.0779768 9.13956688,9.64336905 C9.15680629,8.24513886 8.61582125,7.41038371 6.6907826,7.79463886 C6.6196372,7.80881543 6.54770422,7.82272948 6.47865905,7.84478193 C5.77726871,8.06898181 5.73675171,8.14922821 5.73963953,8.8897354 C5.74812797,11.0331983 5.74646529,13.1766612 5.74103969,15.3201241 C5.73928949,16.0484674 5.69500958,16.7773358 5.71478677,17.5047166 C5.71933728,17.6764106 5.86950394,17.8875716 6.01468256,18.0019467 C6.22820625,18.1700529 6.51095014,18.2477615 6.73698772,18.4035288 C6.84724996,18.4794872 6.89581785,18.6447931 6.97230134,18.769757 C6.8574886,18.8318889 6.74425103,18.9438138 6.62768809,18.9474892 C6.14760981,18.9626284 5.66648141,18.9405759 5.18570305,18.9399634 C3.5399954,18.9379506 1.89437525,18.9391758 0.229677991,18.9391758 C0.127904196,18.6112769 0.233965967,18.3651121 0.544100389,18.2875784 C1.40957145,18.0712544 1.51720839,17.5034914 1.51117022,16.697527 C1.4749412,11.9005946 1.49585602,7.10322462 1.50924501,2.30602969 C1.51029512,1.93743878 1.39390721,1.73231602 1.02811661,1.65557 C0.801816492,1.60805222 0.573241123,1.53988216 0.367768318,1.43697074 C0.248055031,1.37711409 0.171834071,1.2302728 0.076098446,1.12263585 C0.189511033,1.05332816 0.295397786,0.943590977 0.417473834,0.920750942 C1.89008728,0.645007838 3.36506348,0.382916249 4.83881455,0.113823883 C4.92054862,0.0989472319 4.99685709,0.0541422591 5.07552832,0.0232513306 L5.77560602,0.0232513306 Z" id="Fill-13" fill="#231F20" mask="url(#mask-2)"></path>
                                </g>
                                <path d="M105.01162,34.2162713 C104.873792,34.2514502 104.736052,34.316645 104.597962,34.3173451 C102.557673,34.3276712 100.517384,34.334497 98.4770948,34.3241708 C98.3089886,34.3233832 98.0496973,34.2353485 97.9933411,34.1135349 C97.8837789,33.8768212 98.0183688,33.6703858 98.294637,33.5907519 C99.0796866,33.3641893 99.2885723,32.8661715 99.2659948,32.0432302 C99.1974747,29.5523537 99.2412296,27.0583269 99.2410545,24.5655252 C99.2410545,24.4052074 99.2440299,24.2446271 99.2372916,24.0845718 C99.1914365,23.0027768 98.6777545,22.4780685 97.6095235,22.4437647 C97.3491821,22.4353638 97.08254,22.4584664 96.8268366,22.5082594 C95.8183747,22.7049812 95.7287647,22.8218067 95.7283272,23.8377069 C95.727102,26.7824088 95.7291148,29.7271106 95.7185261,32.6717249 C95.7175635,32.9405547 95.7868712,33.1029728 96.0418745,33.2119224 C96.2948651,33.3200844 96.5502184,33.4484611 96.7593666,33.6221679 C96.8650783,33.7099401 96.8962318,33.9160255 96.9056828,34.0719678 C96.9082206,34.1130974 96.7052856,34.208308 96.596511,34.2085705 C94.4974156,34.213646 92.3981451,34.2116333 90.2991371,34.1963191 C90.1779361,34.195444 89.947173,34.0427396 89.9560115,34.0040603 C89.9954784,33.8321037 90.086751,33.5476096 90.1898375,33.5339581 C91.2008372,33.3998932 91.253168,32.7522338 91.2410041,31.9110905 C91.1972493,28.9087198 91.2200893,25.9052989 91.2348785,22.9023156 C91.2362786,22.6322607 91.1415056,22.5474637 90.9109175,22.4918951 C90.6289612,22.424075 90.3410543,22.351442 90.0830756,22.2249905 C89.9504984,22.1599707 89.825272,21.986789 89.7886054,21.8395102 C89.7245483,21.5820566 89.9322089,21.5578164 90.136019,21.5213249 C91.6964922,21.2416438 93.2540776,20.945686 94.8147258,20.6664425 C95.0776925,20.6193622 95.3508978,20.6287258 95.6572693,20.6096487 L95.6572693,22.2890476 C95.8468153,22.15297 95.9680163,22.0650227 96.0902673,21.9783881 C97.6895949,20.8447873 99.4457398,20.3131658 101.405782,20.6522659 C102.649295,20.8673648 103.403191,21.671404 103.595975,22.9355693 C103.655044,23.3229748 103.688736,23.7180812 103.689698,24.1097746 C103.697049,26.9523526 103.698974,29.7951056 103.684798,32.6375961 C103.683048,32.9759087 103.773095,33.1697427 104.089093,33.3123835 C104.413754,33.4589623 104.705511,33.6785242 105.01162,33.8662325 L105.01162,34.2162713 Z" id="Fill-16" fill="#231F20"></path>
                                <path d="M25.820292,34.5894215 L25.820292,32.8877951 C25.5662513,33.0665775 25.3848437,33.1860282 25.212187,33.3170303 C23.9561601,34.2697485 22.563268,34.7549899 20.9711163,34.5725321 C19.2002697,34.3695096 18.0093501,33.179465 17.954919,31.4022303 C17.8861364,29.1593563 17.909239,26.9135946 17.8964625,24.669058 C17.8933997,24.1299106 17.9215778,23.5899757 17.8982127,23.051966 C17.8922621,22.917201 17.7720237,22.7336932 17.6521354,22.6682359 C17.3475141,22.502055 17.0024633,22.4104323 16.6958293,22.2470517 C16.5586141,22.173981 16.4746922,22.0007118 16.3666177,21.8728601 C16.4942944,21.7831627 16.61182,21.637809 16.7513104,21.6124312 C18.0819831,21.3702043 19.4164187,21.1478422 20.7498917,20.9209295 C21.0653642,20.8671985 21.3803992,20.808917 21.6976219,20.767875 C22.1699993,20.7066182 22.3408183,20.8386703 22.3465064,21.3107852 C22.3537697,21.907864 22.3191159,22.5053803 22.3172782,23.1028091 C22.3091398,25.6975596 22.3031891,28.2923976 22.3053769,30.8872356 C22.3056394,31.2344741 22.3234039,31.5884509 22.3912239,31.9276386 C22.5422657,32.6831974 22.9877776,33.0621145 23.766089,33.0681527 C24.1227786,33.0708655 24.4932947,33.0016453 24.8348451,32.8934833 C25.5963546,32.652394 25.7332198,32.4299443 25.7332198,31.6280928 C25.7330448,28.8000415 25.7276192,25.9719026 25.7422333,23.1438512 C25.7438085,22.8383548 25.6443975,22.6954514 25.3697045,22.6081167 C25.0654332,22.5114185 24.7612494,22.4027314 24.4774554,22.258953 C24.3497788,22.1941958 24.2717201,22.0316027 24.1710839,21.9133771 C24.2994607,21.8199167 24.4170737,21.6681749 24.5578769,21.6421845 C25.5012316,21.4683027 26.4493118,21.3211114 27.3959919,21.1653441 C28.113659,21.0472935 28.8287884,20.9093782 29.5499559,20.8182806 C30.0635504,20.7533484 30.1034549,20.8086545 30.1030173,21.322424 C30.100392,25.0542757 30.1008296,28.7862149 30.0801773,32.5179791 C30.0782521,32.8678429 30.167337,33.053626 30.4996988,33.1560999 C30.776317,33.2414219 31.046022,33.3598225 31.3029505,33.4937124 C31.4133878,33.5512938 31.4839206,33.6852712 31.5725679,33.7845072 C31.4665937,33.8569652 31.3669201,33.9800914 31.253595,33.9943555 C29.9103209,34.1630742 28.5653842,34.3191915 27.2200098,34.4704958 C26.7758105,34.5203763 26.3289859,34.5468918 25.820292,34.5894215" id="Fill-18" fill="#231F20"></path>
                                <path d="M35.4153819,2.64414972 C35.4895902,4.34918896 35.5616107,6.00452268 35.6400194,7.80652268 C35.361651,7.64585485 35.1357884,7.58669828 35.0248261,7.44038204 C34.0476926,6.15197654 33.0843857,4.85289486 32.1342928,3.54444964 C31.969512,3.31736194 31.8027185,3.19651102 31.5232124,3.22705191 C31.3789964,3.24271615 31.2318926,3.23186495 31.0861014,3.23160242 C30.3294925,3.23002724 30.3489196,3.2296772 30.3754351,3.97184708 C30.4071136,4.86007066 30.4077261,5.7496944 30.4087763,6.63870557 C30.4122766,9.74442526 30.411139,12.8500574 30.4086012,15.9556896 C30.4082512,16.3052034 30.406501,16.6566424 30.370272,17.0036184 C30.3243294,17.4430922 30.4722208,17.7280238 30.9005808,17.882566 C31.2416937,18.0056922 31.5682799,18.1699479 31.8994167,18.3199395 C32.2033379,18.4575923 32.3430909,18.6799545 32.24473,19.0418072 L23.8549989,19.0418072 C23.7119205,18.6691033 23.8342591,18.4481413 24.1955867,18.2991997 C24.5849174,18.1387069 24.9696976,17.9563367 25.3283999,17.7375624 C25.4712157,17.6504902 25.6271581,17.4403794 25.6276831,17.2857498 C25.6423847,12.6201694 25.6384468,7.9545016 25.6364341,3.28883377 C25.6364341,3.26161825 25.6224325,3.23440273 25.6008176,3.15546897 C25.2135872,3.15546897 24.8089422,3.12842847 24.4115606,3.17008309 C24.2711075,3.18478472 24.1203283,3.34624014 24.0217049,3.47662961 C23.063561,4.74342021 22.1204689,6.02149956 21.1589996,7.28575238 C21.0185466,7.47048538 20.8043228,7.59912466 20.5877362,7.78517031 C20.5877362,6.93072548 20.5721595,6.20640759 20.5917617,5.48296479 C20.6149518,4.62370693 20.6808466,3.76541166 20.7007113,2.90606629 C20.7063119,2.6655896 20.793034,2.59243148 21.0037574,2.59794459 C21.3097789,2.60590797 21.6156253,2.62244731 21.9215593,2.62227229 C26.3247855,2.61920945 30.7280117,2.61387136 35.1311504,2.61072101 C35.2149847,2.6106335 35.2987315,2.62988564 35.4153819,2.64414972" id="Fill-20" fill="#231F20"></path>
                                <path d="M50.4619682,24.6752712 C50.6570273,24.1037452 50.8185702,23.5179552 51.0545839,22.9639312 C51.4812813,21.9623826 52.1164268,21.1539678 53.2495901,20.8858381 C53.3062963,20.8724491 53.3625651,20.8558222 53.4199715,20.8468963 C54.4631747,20.6862284 54.5316949,20.7438098 54.5316073,21.7772995 L54.5316073,24.7482543 C53.6123178,24.8129239 52.7488595,24.8736557 51.8854011,24.9343874 C51.8708745,24.9354375 51.8562604,24.9370127 51.8419963,24.939813 C50.6170354,25.1758267 50.5634794,25.2398838 50.5633919,26.4610819 C50.5633044,28.5757541 50.5674174,30.6905138 50.5570037,32.8050985 C50.5556911,33.0584391 50.6055716,33.2113186 50.8654754,33.296203 C51.0699856,33.3629729 51.2472803,33.5092016 51.4481151,33.5921608 C51.7591246,33.7207126 51.8683368,33.927323 51.7474858,34.2838376 L44.7990396,34.2838376 C44.6921028,33.8879436 44.8227548,33.6241894 45.1695558,33.5332668 C45.9082253,33.3396953 46.0618923,32.8831571 46.0506036,32.1508759 C46.0033483,29.088911 46.0306513,26.0258085 46.0306513,22.9631436 L46.0306513,22.5458973 C45.6402705,22.4387854 45.2606534,22.3514507 44.8942502,22.2256993 C44.7486341,22.1757312 44.6320711,22.0407913 44.5022067,21.9445306 C44.6373217,21.8646342 44.7637732,21.7401954 44.9089518,21.7115797 C46.5221059,21.394357 48.1370976,21.0861478 49.7540146,20.7888773 C50.2595582,20.6958545 50.4148004,20.6915665 50.3958983,21.2994965 C50.361157,22.4190957 50.3860097,23.5404452 50.3860097,24.6610946 C50.4113,24.6658201 50.4365903,24.6705456 50.4619682,24.6752712" id="Fill-22" fill="#231F20"></path>
                                <path d="M76.8367392,34.2996331 C76.4881005,34.2996331 76.1560886,34.298583 75.8240768,34.2998081 C73.9588073,34.3066339 72.0935378,34.3172225 70.2282682,34.3132846 C70.1158182,34.3130221 69.9170837,34.2077479 69.9094703,34.1354649 C69.8938936,33.9873109 69.9788655,33.8276932 70.0283085,33.6747262 C70.0349593,33.6541615 70.0743386,33.6371846 70.1013791,33.6309714 C71.0690615,33.4106219 71.181249,32.7500986 71.1645346,31.8694009 C71.1092285,28.9702916 71.1352189,26.0695196 71.1416946,23.1694478 C71.1423947,22.8812783 71.0763249,22.7029335 70.7818547,22.6162114 C70.4901848,22.5303643 70.1980774,22.4275404 69.9302977,22.2862998 C69.7900196,22.2122665 69.7016348,22.0397849 69.5897974,21.9118457 C69.7137986,21.81576 69.8262486,21.6591176 69.9635514,21.6329522 C71.2777722,21.3830245 72.5954935,21.1515613 73.9137398,20.9230735 C74.3143592,20.8535907 74.7186541,20.8039727 75.1224239,20.7554924 C75.4497978,20.7162005 75.6233295,20.8024851 75.6214918,21.2023169 C75.6039899,25.0352424 75.609328,28.8682553 75.5972516,32.7011807 C75.5963765,32.9894377 75.6777606,33.1671699 75.9492157,33.2734067 C76.1378866,33.3472649 76.3038926,33.4796671 76.4934386,33.5497624 C76.8294759,33.6741137 76.9296745,33.9005013 76.8367392,34.2996331" id="Fill-24" fill="#231F20"></path>
                                <path d="M73.269187,15.1411142 C74.5988971,15.1459273 75.6576771,16.1628776 75.6450757,17.4233675 C75.6324743,18.6907707 74.5231137,19.6924944 73.13871,19.6863687 C71.8672814,19.6807681 70.8805219,18.6779068 70.8883102,17.3993024 C70.8961861,16.1040711 71.9166369,15.1362137 73.269187,15.1411142" id="Fill-26" fill="#231F20"></path>
                                <path d="M83.2947722,32.7326229 C82.4111866,33.1620331 81.4201391,32.7873165 81.1386204,31.8527128 C80.8233229,30.8059216 80.7718672,29.7316524 81.080864,28.6673592 C81.3566946,27.7175288 81.9360089,27.3153342 83.1180901,27.2173233 C83.2768327,27.2041968 83.4376756,27.2155731 83.6743018,27.2155731 L83.6743018,29.1534757 C83.6743018,30.1440856 83.6616129,31.1349581 83.6815651,32.1251305 C83.6879533,32.440953 83.5534509,32.6068715 83.2947722,32.7326229 M89.1774376,33.5027084 C88.9176213,33.4111732 88.6385528,33.3717064 88.383812,33.269845 C88.2855386,33.2305532 88.1678381,33.0789864 88.1677505,32.9786127 C88.1675755,30.2673868 88.1908531,27.5561609 88.190153,24.844935 C88.189628,22.727375 87.1963052,21.4223426 85.1417522,20.9580161 C82.6879799,20.403292 80.2776998,20.8060992 77.8977857,21.4609344 C77.7890986,21.4907752 77.6395445,21.6486427 77.6378819,21.7489289 C77.6196798,22.912108 77.6263306,24.0755496 77.6263306,25.2389912 L77.7408808,25.3436528 C77.9060991,25.2287526 78.1164725,25.1470185 78.22936,24.993614 C79.0579895,23.867364 79.8520526,22.7152986 80.6965213,21.6013 C80.8459004,21.4043156 81.1755495,21.2533614 81.4293277,21.2418101 C82.5595156,21.1904419 83.2875089,21.6811088 83.4656787,22.790732 C83.6602128,24.002479 83.6688762,25.2440668 83.7605864,26.5004437 C83.4321625,26.5495367 83.2175886,26.5696639 83.0084404,26.6147314 C81.7037581,26.8962502 80.360134,27.0659315 79.1060323,27.4962167 C77.2606275,28.1293495 76.4538754,29.5617085 76.6753625,31.4997861 C76.8104775,32.6816923 77.359776,33.625747 78.4798128,34.1580686 C79.9105966,34.8381066 82.2911233,34.607606 83.4045094,33.2658196 C83.5027828,33.147419 83.6315971,33.0543086 83.7335459,32.9611108 C83.8025036,32.9956771 83.8348821,33.0024154 83.8521216,33.0223676 C83.8993768,33.0771487 83.9515326,33.1320172 83.982161,33.1962494 C84.3443637,33.9526833 85.0075123,34.2948463 85.7768977,34.4437003 C86.9717553,34.6748135 88.1242582,34.4730161 89.2311686,33.9942504 C89.3250665,33.9536459 89.4390041,33.8088174 89.4301657,33.7241955 C89.4215022,33.6404487 89.280524,33.5390249 89.1774376,33.5027084" id="Fill-28" fill="#231F20"></path>
                                <path d="M38.175657,32.7547979 C37.2768448,33.1456163 36.346704,32.7706371 36.0683356,31.8397088 C35.7593389,30.8062191 35.7327359,29.7507645 35.9975403,28.6934721 C36.2574441,27.6556944 37.0333052,27.3261329 37.9784976,27.2246216 C38.1646308,27.2046694 38.3547019,27.2217338 38.60813,27.2217338 L38.60813,29.5607809 C38.60813,30.4055997 38.5898405,31.251031 38.6167935,32.0950622 C38.6282573,32.4528019 38.4704773,32.6265962 38.175657,32.7547979 M44.1266675,33.5415977 C43.9093809,33.4620514 43.6818557,33.3895933 43.4531928,33.3662282 C43.1146177,33.3317494 43.0511732,33.174407 43.0526608,32.8489583 C43.0668374,30.021257 43.0837268,27.1931181 43.0440849,24.3659418 C43.0243952,22.9625486 42.3164416,21.9415727 41.0346868,21.3402935 C40.162215,20.9310106 39.2305866,20.7847819 38.2792685,20.749778 C36.6516754,20.6898338 35.0563733,20.9191968 33.4816361,21.3152657 C32.5619965,21.5464664 32.5619965,21.5462914 32.562084,22.5040852 C32.562084,23.4189117 32.562084,24.3337382 32.562084,25.3823671 C32.8137619,25.2427016 33.0260605,25.1929961 33.1243339,25.0594563 C33.9270605,23.9689978 34.7221737,22.8722385 35.4891089,21.7564022 C35.7709776,21.3461567 36.1018519,21.1861014 36.5906811,21.2342317 C37.6224206,21.335918 38.2329759,21.7373251 38.3931187,22.7565507 C38.5858151,23.9829993 38.6014793,25.237276 38.6952022,26.4971534 C38.2321883,26.5776623 37.8879251,26.6243925 37.5497001,26.6987757 C36.4017476,26.9515038 35.2221167,27.1155845 34.1167815,27.4947641 C32.2548374,28.1334975 31.4393344,29.4889354 31.6030651,31.449328 C31.6919749,32.5142337 32.138887,33.4099831 33.0687652,34.0060993 C34.5860961,34.9787697 37.2906713,34.6452702 38.2934451,33.3195856 C38.3933812,33.1874459 38.535497,33.0873348 38.6773502,32.9542325 C38.7754486,33.0909227 38.8571827,33.1762447 38.9057506,33.2775809 C39.1765931,33.8430687 39.648708,34.1752555 40.2201464,34.3534253 C41.5797848,34.7770598 42.8961059,34.5546101 44.1765481,34.0134501 C44.2581946,33.9789713 44.35148,33.8395683 44.3424665,33.7599344 C44.3331029,33.6778503 44.2177651,33.5750264 44.1266675,33.5415977" id="Fill-30" fill="#231F20"></path>
                                <g id="Group-34" transform="translate(54.781080, 15.028393)">
                                    <mask id="mask-4" fill="white">
                                        <use xlink:href="#path-3"></use>
                                    </mask>
                                    <g id="Clip-33"></g>
                                    <path d="M8.18486217,17.6694886 C7.21534206,18.1402033 6.04288694,17.7836888 5.49577621,16.8330708 C5.07196668,16.0968516 4.90884857,15.2822236 4.85966811,14.4502688 C4.75281875,12.6463436 4.64640694,10.8349801 5.07747979,9.05730775 C5.22974669,8.42916303 5.44782089,7.79428007 5.76215578,7.2332553 C6.27286246,6.32219169 7.18926417,6.10350491 8.13839451,6.54070344 C8.44984158,6.68413186 8.59370755,6.87350287 8.58906953,7.24261884 C8.56832973,8.87476249 8.58014354,10.5073437 8.58014354,12.1398374 C8.58014354,13.7722436 8.56902981,15.4048247 8.58924455,17.0369684 C8.59335751,17.3731807 8.45938014,17.5362113 8.18486217,17.6694886 M14.2492852,18.2616668 C14.0635896,18.1592805 13.8382521,18.1150881 13.6241159,18.0806967 C13.1488506,18.0045633 13.0202113,17.7519227 13.022049,17.2701818 C13.0436639,11.8317157 13.0391134,6.39307455 13.0414762,0.95452094 C13.0416512,0.683853399 13.0414762,0.413185859 13.0414762,0.00302783605 C11.0032,0.353504235 9.06240957,0.687091259 6.97215257,1.04640614 C7.14612188,1.2478535 7.22461809,1.41298432 7.35220726,1.47179085 C7.66785479,1.61723199 8.01246804,1.69879105 8.33117841,1.83871908 C8.43767773,1.88544926 8.57183012,2.03019033 8.57314276,2.13161408 C8.58941957,3.41240624 8.58390646,4.69337341 8.58390646,6.02842158 C7.47358323,5.63681562 6.38426233,5.56330746 5.27061372,5.71364915 C3.21929855,5.9907049 1.66757633,6.9611001 0.775677341,8.87957552 C0.320801855,9.85793411 0.115766599,10.8957993 0.0421709305,11.9622802 C-0.0736044192,13.6416791 0.0995773019,15.2814361 0.80639325,16.8306205 C2.10477485,19.6761738 5.67788393,20.4964899 8.08326339,18.5110695 C8.27578476,18.3520644 8.48432041,18.2123989 8.77380253,17.9983501 C8.73608585,18.4616265 8.7113206,18.7939884 8.68112975,19.1257377 C8.65391423,19.4240583 8.77485265,19.5698495 9.0834119,19.5307327 C9.29982342,19.5032546 9.5158849,19.4720137 9.73247144,19.4452357 C11.2205741,19.2614653 12.7095519,19.0832955 14.1959043,18.8859611 C14.3127298,18.8704719 14.5085765,18.7105041 14.499038,18.6403213 C14.4803984,18.5017935 14.3712738,18.3290493 14.2492852,18.2616668" id="Fill-32" fill="#231F20" mask="url(#mask-4)"></path>
                                </g>
                                <path d="M53.8815939,12.3413635 C53.8770434,10.6772788 53.9761044,9.0906402 54.8038588,7.65058037 C55.0891405,7.1544003 55.4145891,6.65078191 56.098215,6.71510154 C56.7554129,6.7768834 57.0262555,7.31218031 57.1893736,7.83181299 C57.405085,8.51858921 57.5404625,9.23739399 57.6377733,9.95234834 C57.7178447,10.5403261 57.6940421,11.142743 57.7120691,11.7387716 C57.7181948,11.9377687 57.7007803,12.1083251 57.4246872,12.1234643 C56.264921,12.1869964 55.1060298,12.264705 53.8815939,12.3413635 Z M61.689123,12.9685456 C61.6988366,11.6518745 61.5762355,10.3857839 61.1161969,9.169924 C60.5281316,7.615664 59.4061696,6.67782241 57.7931031,6.31273189 C56.8297962,6.09474519 55.8592259,6.05580337 54.886643,6.22434708 C52.6499823,6.6120151 51.017051,7.77781949 50.2270133,9.95821149 C49.5320987,11.8763369 49.5676277,13.8163397 50.2233379,15.7367403 C50.7658981,17.3255667 51.8643201,18.4035988 53.4437829,18.9501845 C54.0569634,19.162308 54.7084732,19.3070491 55.3538574,19.3750441 C57.5332867,19.6049322 59.4514121,19.0213299 60.9772315,17.3891862 C61.1506757,17.2035781 61.2095698,16.9108581 61.3216697,16.6678437 C61.2813277,16.6269766 61.2408982,16.5861096 61.2005563,16.5452426 C59.6610854,17.4696952 58.0655208,18.0257319 56.3025501,17.2973885 C54.8665158,16.7040727 53.8885072,14.864181 53.9866931,12.9685456 L61.689123,12.9685456 Z" id="Fill-35" fill="#231F20"></path>
                            </g>
                        </g>
                    </g>
                </g>
            </g>
        </g>
    </g>
</svg>