<?xml version="1.0" encoding="UTF-8"?>
<svg width="87px" height="41px" viewBox="0 0 87 41" version="1.1" xmlns="http://www.w3.org/2000/svg" xmlns:xlink="http://www.w3.org/1999/xlink">
    <!-- Generator: sketchtool 51.2 (57519) - http://www.bohemiancoding.com/sketch -->
    <title>EBBE88CC-DBEB-45E7-8697-A4F83940C2CE</title>
    <desc>Created with sketchtool.</desc>
    <defs></defs>
    <g id="Page-1" stroke="none" stroke-width="1" fill="none" fill-rule="evenodd">
        <g id="Hompage-amends-v2" transform="translate(-935.000000, -1695.000000)">
            <g id="Group-10" transform="translate(237.000000, 1578.000000)">
                <g id="Group-16" transform="translate(90.000000, 112.000000)">
                    <g id="Group-14" transform="translate(424.000000, 0.000000)">
                        <g id="Logo---Time-Out" transform="translate(184.773751, 5.000000)">
                            <rect id="Background" x="0" y="0" width="86.1978022" height="40.7692308"></rect>
                            <g id="Page-1">
                                <polygon id="Fill-2" fill="#231F20" points="0 40.3212172 85.6203625 40.3212172 85.6203625 0 0 0"></polygon>
                                <g id="Group-35" transform="translate(1.493378, 3.982342)" fill="#FEFEFE">
                                    <path d="M2.27552724,2.09718616 L2.22446942,2.09718616 C1.93396802,2.10158333 1.86442374,2.97310238 1.79047793,3.91321728 L1.78167486,4.01874935 C1.7147715,4.85772934 1.67251676,5.65977311 1.7623081,6.26130594 C1.82128869,6.65529235 1.92428464,6.93319348 2.10562794,6.99915103 C3.63560198,7.55319442 4.49742281,8.09316687 4.99127519,8.66391951 C5.57139769,9.33404818 5.65854811,9.98394988 5.64358288,10.7024474 C5.55907338,14.7839004 5.58724322,18.8635945 5.61541305,22.9441681 C5.63125858,25.215746 5.64710411,27.4926005 5.64710411,29.0773405 C5.64710411,30.1484911 5.79235481,30.8696269 6.08021529,31.3084645 C6.31261641,31.6619969 6.68322578,31.8387631 7.18764185,31.887132 C7.21405106,31.8888909 7.2422209,31.8915292 7.27127104,31.8924086 L7.27479227,31.8924086 C7.57673766,31.9056001 7.84963292,31.8246922 8.05034298,31.6145075 C8.30563209,31.3454007 8.49137692,30.8696269 8.56180151,30.1265052 C8.57060458,30.0271292 8.57764704,29.9189588 8.58292888,29.8011146 C8.71937651,26.6501028 8.6454307,23.4920554 8.57148489,20.3348875 C8.49313754,16.9772087 8.41479019,13.6204093 8.58292888,10.2697659 C8.63750793,9.18894158 9.11287386,8.38162121 9.83912736,7.77217348 C10.5019987,7.21637122 11.359418,6.84876782 12.2740573,6.59812914 C12.599771,6.50930631 12.5777633,5.52873745 12.5495935,4.23596954 C12.5460722,4.06096218 12.542551,3.88067822 12.5390298,3.68456445 L12.5390298,3.68104671 L12.5363889,3.49196841 C12.5275858,2.79721558 12.519663,2.20007993 12.407864,2.18952672 C9.78630893,1.93361144 7.12425972,1.99341295 4.46661205,2.05409389 C3.74299947,2.07080314 3.01938689,2.08751238 2.27552724,2.09718616 M2.20598297,0.505410695 L2.25704079,0.504531261 C2.96832907,0.495736921 3.70250534,0.479027676 4.4358013,0.462318431 C7.14010525,0.400758054 9.84881074,0.339197677 12.5566359,0.603907298 C14.0822084,0.752531636 14.0989343,2.00924276 14.118301,3.4735003 L14.120942,3.65906086 C14.1235829,3.83582709 14.1271041,4.02226709 14.1315056,4.20430992 C14.175521,6.20678103 14.2080924,7.72380461 12.6904426,8.13977687 C11.9659497,8.33852894 11.3101208,8.61027404 10.8497201,8.99546611 C10.4535818,9.32789214 10.1938912,9.76585026 10.1648411,10.3453972 C9.99846298,13.6591044 10.07593,16.9780881 10.1533971,20.2970719 C10.2282232,23.4894171 10.302169,26.6817624 10.1648411,29.8705899 C10.1586789,30.0060228 10.1489955,30.1414556 10.1366712,30.276009 C10.0292737,31.4113582 9.68419328,32.2019693 9.19122121,32.7190765 C8.64455039,33.2942263 7.95086826,33.5176025 7.20700861,33.4850635 L7.19028277,33.4841841 L7.18852215,33.4841841 L7.18500092,33.4833046 L7.18236,33.4833046 L7.18059939,33.4833046 L7.17619785,33.4824252 C7.13218249,33.4806663 7.0855262,33.4771486 7.03886992,33.4727514 C6.04236208,33.3777725 5.2826569,32.985545 4.75975438,32.1887778 C4.29319152,31.4799541 4.05902978,30.4712433 4.05902978,29.0773405 C4.05902978,26.5753509 4.04582517,24.7654758 4.03350087,22.9503241 C4.00533104,18.8565591 3.97716121,14.7619146 4.06167071,10.6716672 C4.06959347,10.3075816 4.03438118,9.99010591 3.79405729,9.71220478 C3.46746329,9.33404818 2.81163437,8.94621781 1.57216173,8.49682706 C0.729707662,8.19254291 0.337090616,7.46261272 0.19360053,6.49787367 C0.0800408912,5.74156047 0.12581687,4.83222576 0.200642988,3.89386973 L0.208565754,3.78833765 C0.34237246,2.09630672 0.466495786,0.529155412 2.20598297,0.505410695" id="Fill-3"></path>
                                    <path d="M13.3305141,10.7244333 L13.3305141,10.727951 L13.3278731,10.727951 L13.3278731,10.7244333 C12.9528622,10.7244333 12.6086621,10.8818519 12.3586548,11.1333701 C12.1086476,11.3840087 11.9545938,11.7296263 11.9545938,12.1077829 L11.9572347,12.1077829 L11.9572347,12.1086623 L11.9572347,30.3103069 L11.9572347,30.3111863 L11.9545938,30.3111863 C11.9545938,30.6893429 12.1104082,31.0358399 12.3604154,31.2882375 C12.6095424,31.5388761 12.9528622,31.694536 13.3296337,31.694536 L13.3296337,31.6910182 L13.3305141,31.6910182 L13.3313944,31.6910182 L13.3313944,31.694536 C13.7072856,31.694536 14.0506054,31.5371173 14.301493,31.2855992 C14.5506199,31.0349605 14.705554,30.6893429 14.705554,30.3103069 L14.7020328,30.3103069 L14.7020328,12.1086623 L14.7020328,12.1069034 L14.705554,12.1069034 C14.705554,11.7296263 14.5488593,11.3831293 14.2988521,11.1307318 C14.0497251,10.8800931 13.7072856,10.7244333 13.3305141,10.7244333 Z M13.3305141,9.12914007 L13.3305141,9.13265781 C14.1456786,9.13265781 14.886017,9.46772214 15.4212438,10.0076946 C15.95471,10.5441493 16.2865859,11.2881504 16.2865859,12.1069034 L16.2901071,12.1069034 L16.2901071,12.1086623 L16.2901071,30.3103069 L16.2865859,30.3103069 C16.2865859,31.1308188 15.9538297,31.8756994 15.4177226,32.4147924 C14.8842564,32.9521265 14.1456786,33.285432 13.3313944,33.2863114 L13.3313944,33.2889497 L13.3305141,33.2889497 L13.3296337,33.2889497 L13.3296337,33.2863114 C12.5144692,33.285432 11.7741308,32.9503676 11.238904,32.4112746 C10.7045574,31.8748199 10.3735619,31.1308188 10.3726816,30.3111863 L10.3691604,30.3111863 L10.3691604,30.3103069 L10.3691604,12.1086623 L10.3691604,12.1077829 L10.3726816,12.1077829 C10.3726816,11.2881504 10.7063181,10.5423904 11.2415449,10.0041769 C11.7750111,9.46684271 12.5144692,9.13265781 13.3278731,9.13265781 L13.3278731,9.12914007 L13.3305141,9.12914007 Z" id="Fill-5"></path>
                                    <path d="M18.2650765,12.1119162 L18.1708836,30.6917174 C18.1673624,31.4392363 18.4921958,31.8991802 18.9094614,32.089138 C19.0731986,32.1638899 19.2474994,32.202585 19.4165184,32.2043438 C19.5908193,32.2061027 19.7668807,32.1718048 19.9297376,32.10145 C20.3249955,31.9308399 20.6339834,31.5219031 20.6392652,30.8755191 L20.7334581,18.3092873 C20.7299369,18.2380532 20.7352187,18.1659396 20.7519446,18.0929466 C21.6604217,14.1478058 22.7951377,14.0862455 24.1552125,17.907386 L24.1534519,17.9082654 C24.1833823,17.9918117 24.1992279,18.0823934 24.1992279,18.1764928 L24.1992279,30.6899585 L24.2018688,30.6899585 C24.2018688,31.5139882 24.5566326,32.0179038 25.016153,32.2254502 C25.2045388,32.3089965 25.411411,32.3494504 25.6200438,32.3450533 C25.8313175,32.3415355 26.0452322,32.2931667 26.242421,32.1999467 C26.7529993,31.9581023 27.1517785,31.3926263 27.1385739,30.5087952 L26.9501881,18.326876 C26.9449062,18.2503652 26.9501881,18.1720956 26.9686745,18.0929466 C27.9378929,13.8672664 29.1263077,13.75294 30.5356796,17.7499673 C30.5814556,17.8502228 30.6069845,17.9627903 30.6069845,18.0815139 L30.6069845,30.5000008 L30.6034633,30.5000008 C30.6034633,31.442754 30.9494241,32.028457 31.3983808,32.2650248 C31.5568361,32.3476916 31.7302566,32.3881455 31.9045574,32.3855072 C32.0797386,32.3837483 32.258441,32.3371383 32.4265797,32.2447978 C32.9415594,31.9624995 33.3517826,31.2642289 33.3517826,30.1200853 L33.3517826,14.1944158 C33.3517826,12.7934775 32.7549343,11.8401711 32.0242792,11.3309789 C31.886071,11.2333617 31.7425809,11.1533332 31.5999711,11.0891345 C31.4626432,11.0275742 31.321794,10.9792053 31.1809449,10.9475457 L31.1783039,10.9466662 C30.6985365,10.8358575 30.2275721,10.9167655 29.7407622,11.1577304 C29.1808867,11.4338726 28.5831581,11.9245968 27.9220473,12.5824134 L27.9220473,12.581534 C27.8850744,12.6184702 27.8428197,12.6518887 27.7988043,12.6817894 C27.4317162,12.9227543 26.9396244,12.8198606 26.7001808,12.4513777 C25.9519196,11.3010781 25.2318283,10.7224106 24.5363855,10.6775594 C23.8383019,10.6309494 23.0618709,11.1084821 22.2106137,12.0705828 L22.2097334,12.0705828 L22.1956485,12.0864126 C21.8954637,12.4065266 21.3945689,12.4223564 21.0758976,12.1207106 C20.3971807,11.475206 19.7783247,11.0565955 19.2677465,10.8807087 C19.0230211,10.796283 18.8267125,10.7734177 18.6893846,10.8156306 C18.598713,10.8446519 18.5177247,10.9229215 18.4508213,11.055716 C18.3328602,11.2905249 18.2668371,11.6396602 18.2650765,12.1119162 M16.5889714,30.6864408 L16.6831643,12.1057602 C16.6866856,11.3740711 16.8116892,10.7857298 17.0361675,10.3380979 C17.3081825,9.79724605 17.7131238,9.45074907 18.2245824,9.29245096 C18.6902649,9.14822379 19.2158084,9.17636567 19.7765641,9.36984114 C20.3302774,9.56067831 20.93945,9.9203668 21.5741516,10.4392328 C22.5847443,9.47977039 23.6041401,9.01718813 24.63498,9.08490454 C25.6429318,9.15174152 26.5910227,9.71809699 27.4783725,10.8147511 C28.0056765,10.3539277 28.5224169,9.98632435 29.0461997,9.72777076 C29.8622446,9.32411058 30.6738879,9.19395435 31.5321875,9.39182699 L31.5348284,9.39270643 C31.7689901,9.44723133 32.0075534,9.52813926 32.2443561,9.63455077 C32.4767572,9.73832397 32.7047568,9.86672133 32.9239533,10.0197428 C34.0331404,10.7927653 34.9398569,12.1928241 34.9398569,14.1944158 L34.9398569,30.1200853 C34.9398569,31.9308399 34.1625456,33.1075225 33.1827636,33.6430978 C32.785745,33.860318 32.3535142,33.9720061 31.9230439,33.9781621 C31.490813,33.9843181 31.0612231,33.8823038 30.6668454,33.6756368 C29.7372409,33.1866716 29.0224314,32.1190387 29.0224314,30.5000008 L29.0189102,30.5000008 L29.0189102,18.2187056 C28.834926,17.7649177 28.6729494,17.8132866 28.5338609,18.3655711 L28.7196057,30.490327 C28.7451346,32.0926557 27.9405338,33.1541325 26.9114546,33.6422183 C26.5126754,33.8312966 26.0778036,33.9297932 25.6446924,33.9377081 C25.2089403,33.9456231 24.7723079,33.8594385 24.3717681,33.680034 C23.3796618,33.234161 22.6137944,32.2404006 22.6137944,30.6899585 L22.6173157,30.6899585 L22.6173157,18.3321526 C22.4984742,18.0560103 22.3972389,18.0709607 22.31449,18.3778832 L22.2211774,30.8816752 C22.2106137,32.2632659 21.4817193,33.1664446 20.5494739,33.5683459 C20.1894282,33.7240057 19.7976915,33.8005165 19.4041941,33.7969987 C19.0062952,33.7926015 18.6110373,33.7081759 18.2518719,33.5437217 C17.3143446,33.114558 16.581929,32.1647693 16.5889714,30.6864408" id="Fill-7"></path>
                                    <path d="M40.1003943,24.0362492 L40.0951124,24.0573556 L40.0933518,24.0564762 C39.8653522,25.0176975 39.9058464,25.8672307 40.1276838,26.4019265 C40.1901856,26.5505509 40.2579693,26.6560829 40.3275135,26.7062107 C40.3354363,26.7123667 40.3468803,26.715005 40.3592046,26.7123667 C40.5106175,26.6815865 40.7148487,26.5241678 40.9727788,26.2058127 C41.3108168,25.7863228 41.9481592,25.103882 42.6647294,24.8849029 C43.6216234,24.5929309 44.5547491,24.9148037 44.9966633,26.8108633 C45.1401534,27.4291054 45.1841688,28.0306382 45.1454353,28.6031497 C45.0626864,29.8431516 44.5890811,30.9398057 43.8971595,31.7831829 C43.196435,32.640631 42.2650699,33.2412844 41.2844075,33.4716961 C40.9023542,33.5622778 40.5114978,33.5974552 40.1206413,33.5710721 C36.7913192,33.3432987 34.7243577,30.2010812 33.8458111,26.6930192 C33.6811936,26.0334437 33.5570703,25.363315 33.476082,24.7011012 C33.3950937,24.052079 33.3554799,23.3907447 33.3545996,22.7364458 L33.3510784,22.7364458 L33.3510784,22.7258926 L33.3545996,22.7258926 C33.3545996,19.1791354 34.0914168,14.0740213 36.358208,11.2325702 C36.8291724,10.64247 37.3670402,10.143831 37.9788537,9.7691921 C38.6065128,9.38400003 39.3037162,9.13072305 40.0783866,9.04190022 L40.0810275,9.04190022 L40.0863093,9.04102079 C40.3636061,9.00936117 40.6347408,9.00848173 40.8997133,9.03398532 C42.5564516,9.19756003 43.7281405,10.4208527 44.5274596,12.08738 C45.256354,13.6061625 45.6789015,15.5127753 45.87521,17.2575722 C46.0319047,18.65939 46.044229,19.9750232 45.9535573,20.9081026 C45.8831328,21.6274796 45.582948,22.6300343 45.0177907,23.1946309 C44.8743006,23.3379786 44.7158453,23.4567022 44.5424248,23.5437662 C44.3531587,23.638745 44.1445259,23.6976671 43.9165263,23.7108586 L43.9165263,23.7099792 L43.9068429,23.7108586 L43.881314,23.711738 L43.881314,23.7108586 L43.8654685,23.711738 L40.3864941,23.8040786 C40.2799769,23.8067169 40.1972281,23.8603624 40.1479309,23.9342348 C40.1329656,23.9562207 40.1232822,23.9720505 40.1188807,23.9834831 C40.1135989,23.9940363 40.1091973,24.005469 40.1056761,24.0160222 L40.1003943,24.0362492 Z M38.5572156,23.6704047 L38.5624974,23.6492982 C38.5686596,23.6237947 38.5765824,23.5991705 38.5845051,23.5745464 C38.6091537,23.4918796 38.6382039,23.4118511 38.6725359,23.3344609 C38.7209528,23.2262905 38.7746515,23.1277939 38.8327518,23.0416094 C39.1487821,22.5684739 39.6760862,22.2298918 40.3495212,22.2123032 L43.8135304,22.1199626 L43.8284956,22.1190832 L43.8284956,22.1182037 C43.8311365,22.1182037 43.8293759,22.1173243 43.8346577,22.1138065 C43.8575457,22.1032533 43.8795534,22.0856647 43.9006808,22.0645582 C44.1779776,21.788416 44.3346723,21.1974364 44.3778073,20.7524428 C44.4587956,19.9231366 44.445591,18.7297447 44.3003403,17.4325796 C44.1207576,15.8408041 43.7439861,14.1197519 43.1013618,12.7794945 C42.529162,11.5878615 41.7553719,10.7198602 40.7447792,10.6204842 C40.5951269,10.6055338 40.4340307,10.6064132 40.2606102,10.6266402 L40.2579693,10.6266402 L40.2579693,10.6275196 C39.7201015,10.68908 39.2368128,10.8640874 38.8037016,11.1296764 C38.3556252,11.4049393 37.9524445,11.7804576 37.5923988,12.2316072 C35.5879392,14.7450294 34.9365118,19.437689 34.9365118,22.7258926 L34.940033,22.7258926 L34.940033,22.7364458 L34.9365118,22.7364458 C34.9373921,23.2957658 34.9752453,23.892022 35.0509517,24.5076258 C35.1257778,25.1117969 35.2366966,25.715968 35.3837079,26.3051888 C36.111722,29.211718 37.7244449,31.8086865 40.2271585,31.9784172 C40.4569187,31.9951265 40.6910804,31.9722612 40.9252422,31.9177363 C41.5731483,31.7647148 42.1964059,31.3575369 42.6761734,30.7718338 C43.1665045,30.1720599 43.5036622,29.3876048 43.5644034,28.4967382 C43.5925732,28.0790071 43.5591216,27.6348929 43.4517241,27.1731901 C43.3073537,26.5505509 43.1999562,26.3852173 43.1242498,26.4080826 C42.8090998,26.5048203 42.4200039,26.9392607 42.2008074,27.2101263 C41.6893489,27.8424393 41.1655661,28.1792625 40.6699531,28.2786386 C40.1963478,28.3744969 39.7667578,28.2680854 39.3970287,27.9989786 C39.0880409,27.7738435 38.8389139,27.4352614 38.6646131,27.0140126 C38.3256948,26.1996567 38.2464671,24.9833995 38.5572156,23.6800784 L38.5589762,23.6704047 L38.5572156,23.6704047 Z" id="Fill-9"></path>
                                    <path d="M39.5995874,19.0799353 C39.0942911,18.9656089 38.6374116,18.6833106 38.4243772,18.2374376 C38.329304,18.0386855 38.2597598,17.8241036 38.2157444,17.6024862 C38.1065863,17.0537195 38.1373971,16.4117327 38.3046554,15.8559304 C38.4948018,15.2236174 38.8671718,14.6730917 39.4252866,14.4022261 L39.4252866,14.4039849 L39.4279275,14.4022261 C39.5608539,14.3380274 39.6955409,14.2914174 39.830228,14.2641549 C40.0186137,14.2263393 40.2043585,14.2307365 40.3857018,14.2711904 C40.8258555,14.3714459 41.156851,14.6748506 41.3918931,15.0925817 C41.5679545,15.4047808 41.6929582,15.7838168 41.7695449,16.1734061 C41.9007107,16.8277049 41.9051122,17.5699472 41.7941935,18.0659479 C41.7008809,18.4810408 41.428866,18.7721334 41.0617778,18.9497791 C40.8390601,19.0579494 40.5828907,19.1195098 40.3249606,19.1370985 C40.088158,19.1529283 39.8363901,19.1335808 39.5995874,19.0799353 M39.8513553,17.5444436 C39.8663206,17.5769827 39.8777645,17.5101457 39.9464285,17.5250961 C40.0318183,17.5444436 40.1268915,17.5514791 40.2193238,17.5444436 C40.2395708,17.5435642 40.2598179,17.5409259 40.2783044,17.539167 C40.3082348,17.2480744 40.2871074,16.8584851 40.2131616,16.4856051 C40.1673856,16.2569523 40.1057641,16.0502853 40.0282971,15.9034198 C39.9473088,15.9913632 39.8777645,16.140867 39.8240658,16.3176332 C39.7307532,16.6298323 39.7122668,16.9877619 39.773008,17.2902872 C39.7932551,17.3914221 39.8196643,17.4784861 39.8513553,17.5444436" id="Fill-11"></path>
                                    <path d="M54.0898854,1.36373824 C54.1418235,1.36109993 54.2104875,1.35934107 54.2958773,1.35846163 C54.3310896,1.3575822 54.3671822,1.3575822 54.4023945,1.35846163 C57.5970296,1.38572409 59.4993736,3.87188388 60.5953562,7.2392365 C61.6191535,10.3788157 61.9369445,14.3186798 61.9677552,17.6077628 C61.9712764,17.9656925 61.9712764,18.3157072 61.9677552,18.6560481 C61.9369445,22.4490468 61.1745983,27.8777926 58.7880853,30.9505348 C58.2898314,31.5916422 57.7229135,32.1342529 57.0811695,32.545828 L57.0794089,32.5431897 C56.4191784,32.965318 55.6841219,33.2511341 54.8671967,33.364581 L54.8663164,33.3628222 L54.856633,33.364581 L54.836386,33.3672193 C54.8152586,33.3716165 54.7941312,33.3760137 54.7712432,33.3777725 C51.5695656,33.7691207 49.6989127,31.5652592 48.5985286,28.5268148 C47.5870555,25.7319737 47.2481372,22.2133585 47.1055274,19.5425175 C47.0676742,18.8231406 47.0456666,18.1002459 47.0386241,17.3782306 C46.9937284,12.8640961 47.6020208,9.00601932 48.7323353,6.23668179 C49.9436381,3.26683332 51.7746772,1.48861786 54.0898854,1.36373824 Z M54.3082016,2.95023709 C54.2791514,2.95023709 54.2324952,2.9528754 54.1699933,2.9555137 C52.5299809,3.04433653 51.1672652,4.4628635 50.1962863,6.84173235 C49.1434388,9.42199158 48.5782815,13.0637276 48.619656,17.3659185 C48.6266984,18.0325294 48.6487061,18.7316794 48.6874396,19.4624891 C48.8238873,22.019883 49.1434388,25.3766824 50.0871282,27.9833247 C50.9419066,30.3463637 52.3231087,32.0691748 54.5854984,31.7921531 C54.6031045,31.7903943 54.621591,31.7886354 54.6383168,31.787756 L54.6497608,31.7859971 L54.6497608,31.7851177 C55.2360455,31.7042097 55.7615889,31.5001811 56.231673,31.1994146 L56.2334336,31.1985352 L56.231673,31.1958969 C56.7202435,30.8836978 57.1551153,30.4650873 57.5406899,29.969966 C59.6745547,27.2243732 60.3567929,22.1887343 60.385843,18.643736 C60.3893643,18.31131 60.3893643,17.9700896 60.385843,17.6200749 C60.3567929,14.4664248 60.0548475,10.6998091 59.0882701,7.73259895 C58.1956385,4.99228274 56.7360891,2.97046407 54.3900702,2.95023709 L54.3082016,2.95023709 Z" id="Fill-13"></path>
                                    <path d="M54.4939464,9.41645114 C54.4437689,9.50879171 54.3935914,9.62751529 54.3425336,9.76734529 C53.8125886,11.242156 53.5379327,14.4177921 53.6294847,18.426252 C53.6629364,19.897545 53.742164,21.8305409 53.9736848,23.3326141 C54.1224568,24.2938354 54.2448195,25.0466309 54.2782711,25.1530424 C54.2958773,25.1292976 54.3222865,25.0897231 54.3548579,25.0369571 C54.452572,24.8742618 54.5458846,24.6473678 54.6312744,24.3712256 C55.1321692,22.7697763 55.2932654,19.9503111 55.3003079,17.9531166 C55.3020685,17.3726901 55.297667,16.7394977 55.2835821,16.0825605 C55.2466091,14.3993239 55.1409723,12.5841723 54.9032893,11.1761985 C54.7597992,10.324027 54.6180698,9.66972812 54.4939464,9.41645114 M54.306441,7.71474644 C54.3328502,7.71298757 54.36102,7.7112287 54.3883096,7.71034927 C54.4543326,7.70946984 54.5124329,7.7112287 54.564371,7.71650531 C55.5846471,7.83171115 56.163009,9.12184077 56.466715,10.9141272 C56.715842,12.3915762 56.8267607,14.2911536 56.8654942,16.0509009 C56.8795791,16.7113558 56.8839807,17.3568603 56.8822201,17.9531166 C56.8742973,20.0699141 56.6964752,23.0793371 56.1445226,24.8461199 C56.0212795,25.2401063 55.8760288,25.5866033 55.7061295,25.8671427 C55.4904543,26.2233135 55.2237212,26.4871437 54.9015287,26.6322503 C54.833745,26.662151 54.7712432,26.6867752 54.7166642,26.7017256 L54.7157839,26.7008461 L54.7131429,26.7017256 C53.3953229,27.0790027 52.72805,25.6270573 52.4111394,23.5762173 C52.1646534,21.9853212 52.0819045,19.9793324 52.0475725,18.4570322 C51.951619,14.2594939 52.2614872,10.8710349 52.853934,9.22473454 C52.9939028,8.83690417 53.1549991,8.52206681 53.3363424,8.28989625 L53.338103,8.29077568 C53.6057164,7.94779644 53.9287892,7.75080323 54.306441,7.71474644" id="Fill-15"></path>
                                    <path d="M61.0463376,27.4852133 L60.6695661,11.7477426 C60.6369947,10.390776 61.4336728,9.5043066 62.4821187,9.10328471 L62.4821187,9.10416415 L62.48564,9.10328471 C62.8747358,8.95378094 63.3025651,8.87639075 63.7356763,8.87199358 C64.164386,8.86759641 64.5966168,8.93531283 64.9945157,9.07690169 C66.0860967,9.4656115 66.9496782,10.3731873 66.9611222,11.8207356 L67.0544347,24.3342014 C67.0570757,24.645521 67.0826046,24.8803299 67.1222184,25.0474223 C67.2049673,24.8284433 67.2604266,24.4977761 67.2604266,24.053662 L67.2604266,12.10919 C67.2604266,10.6352587 68.046541,9.69426433 69.0360064,9.27301547 C69.398693,9.11911452 69.7895495,9.0382066 70.177765,9.03117113 L70.186568,9.03117113 C70.581826,9.02501509 70.9735627,9.0927315 71.3318478,9.23519981 C72.2649735,9.6054415 72.9824239,10.4426626 72.9885861,11.7266362 L73.082779,30.1173591 C73.0889411,31.1964246 72.8125246,31.9641704 72.3767725,32.4786393 C71.9955995,32.9289095 71.5105502,33.1777893 70.9841264,33.2639738 C70.504359,33.3440023 69.9955414,33.2842008 69.5140133,33.1215055 C68.9858289,32.9429804 68.4752507,32.6316608 68.0685487,32.2411921 C67.5817388,32.6211076 67.0024966,32.9289095 66.3889224,33.1109523 C65.6433022,33.3325696 64.8395816,33.3747825 64.0789961,33.1452502 C63.3008045,32.9095619 62.5815935,32.4003697 62.0349227,31.5262123 C61.4680048,30.6195159 61.0903529,29.3091593 61.0463376,27.4852133 M62.2514782,11.7108064 L62.6282498,27.4473976 C62.6643424,28.9573857 62.9486816,29.9968766 63.3747503,30.6775585 C63.6960625,31.191148 64.1018841,31.4848789 64.5314741,31.6150351 C64.9813111,31.7513474 65.4734029,31.7205672 65.9426067,31.5816166 C66.58259,31.3916589 67.1644732,31.0064668 67.5403644,30.5561966 C67.8203021,30.218494 68.3211969,30.1745223 68.656594,30.4568206 C68.745505,30.5315725 68.814169,30.6221542 68.8617056,30.7224097 C69.0879446,31.1128783 69.5342603,31.4479427 70.0166687,31.610638 C70.2649154,31.6941842 70.5122817,31.7276027 70.7297176,31.6915459 C70.9013775,31.663404 71.0571919,31.5860138 71.1733925,31.4488221 C71.3758632,31.2087366 71.504388,30.7857289 71.5017471,30.1235151 L71.4075542,11.7327922 C71.4049133,11.2051319 71.1214544,10.8665498 70.7543662,10.7205638 C70.5835866,10.6528473 70.3978418,10.6203083 70.2112166,10.6229466 L70.2076954,10.6229466 C70.0184293,10.6255849 69.828283,10.6651594 69.6504609,10.7399113 C69.2041451,10.9307485 68.8476207,11.3810187 68.8476207,12.10919 L68.8476207,24.053662 C68.8476207,25.2549688 68.4717295,26.1001048 68.0016454,26.5134387 C67.7463563,26.7376944 67.4540942,26.8599357 67.1503882,26.8748861 L67.1275002,26.8757655 C66.8105896,26.8845599 66.5077639,26.7807867 66.2427914,26.5574104 C65.8114409,26.1942042 65.4813256,25.4537208 65.4725226,24.3403574 L65.37921,11.8277711 C65.3739282,11.1752311 64.9733883,10.7610177 64.468092,10.5816132 C64.2392121,10.5007053 63.9918457,10.4611307 63.7471203,10.463769 C63.5067964,10.4664073 63.2655922,10.510379 63.0455154,10.5939253 L63.0455154,10.5948047 C62.5877556,10.7706915 62.2382736,11.1462098 62.2514782,11.7108064" id="Fill-17"></path>
                                    <path d="M73.6801555,11.8487016 C73.6713524,11.8671698 73.6801555,11.8487016 73.6854373,11.8399073 L73.6801555,11.8487016 Z M80.0482983,9.57360599 L80.0526999,9.82160637 C80.058862,10.1478764 80.0606226,9.59647128 80.0747076,9.4856626 L80.0482983,9.57360599 Z M76.4628068,3.71481698 C76.1001202,3.83617886 75.8193022,4.07978207 75.8149006,4.43595282 L75.8149006,4.44298829 L75.7198275,9.75125165 C75.7057425,10.6060615 75.0147013,11.0114805 74.3218995,11.4168996 C74.0349193,11.5848715 73.7479392,11.7537228 73.6880783,11.8355101 L73.687198,11.8399073 L73.6854373,11.8390279 C73.460959,12.4009862 73.3817313,13.0623205 73.4794454,13.675286 C73.4970516,13.7799386 73.5225805,13.894265 73.5577928,14.0173858 C73.5868429,14.1176412 73.618534,14.2099818 73.6537463,14.2952869 C73.6590281,14.3058401 73.6634297,14.3172728 73.6687115,14.327826 L73.6766343,14.3471735 C73.7048041,14.3726771 73.9187188,14.4667765 74.1414365,14.5643937 C74.9090645,14.9012169 75.7233487,15.2591465 75.7233487,16.4692476 L75.7198275,16.4692476 L75.7198275,27.6556476 L75.7233487,27.6556476 C75.7233487,27.8702295 75.7400745,28.0733787 75.770005,28.2650953 C75.9170163,29.1902598 76.3826988,30.0688143 77.0165201,30.7178366 C77.6177699,31.3325609 78.3581084,31.7274268 79.0975665,31.7274268 C79.216408,31.7274268 79.3246858,31.7195119 79.4206393,31.7036821 C79.7595576,31.6491572 80.0694257,31.5154832 80.3370391,31.3281638 C80.6750771,31.091596 80.9391693,30.7706026 81.1020262,30.412673 C81.2596012,30.0644172 81.322103,29.6818634 81.2622421,29.3098628 C81.2226282,29.0653802 81.1266748,28.8191387 80.9655785,28.5852093 C80.9488527,28.5614645 80.8449764,28.5377198 80.677718,28.448897 C79.8150169,27.9951091 78.5447335,27.3267393 78.5658609,25.3743959 L78.6591735,16.3689922 C78.675019,14.8739544 79.316763,14.6022094 80.0236497,14.3032018 C80.3880969,14.1493009 80.7974398,13.9751729 80.7322971,12.329752 C80.6909227,11.304332 80.0650242,11.1214098 79.6389555,10.9965301 C78.9822462,10.8048135 78.4857529,10.6597069 78.4707877,9.84623052 L78.3774751,4.44298829 C78.3704327,4.07978207 78.0816919,3.83266113 77.7102022,3.71129924 C77.5130134,3.64710056 77.2982184,3.6145615 77.0843037,3.61544094 C76.8888755,3.61544094 76.6943276,3.64182396 76.5165055,3.69546943 C76.4988994,3.7025049 76.4812933,3.70954037 76.4628068,3.71481698 Z M74.2329885,4.39198112 C74.2593977,3.24695811 75.0076589,2.51878679 75.9671938,2.1977934 C75.9918424,2.18987849 76.0156107,2.18284302 76.0411396,2.17756642 C76.3738958,2.07555208 76.7304202,2.02454491 77.0843037,2.02366548 C77.4663571,2.02278604 77.8492908,2.07994925 78.2005334,2.19427566 C79.1759138,2.51351019 79.9382599,3.25135528 79.9593873,4.41748471 L80.0482983,9.57360599 L80.0747076,9.4856626 C80.0755879,9.47335052 80.0782288,9.46719448 80.0799894,9.46719448 C80.949733,9.7213509 82.2270589,10.0951103 82.3142093,12.2673122 C82.4233674,15.0146639 81.4787977,15.4139269 80.6372239,15.7700976 C80.4329926,15.8571616 80.2463675,15.9363107 80.2410856,16.3813042 L80.1477731,25.3875874 C80.1372094,26.3681563 80.8942736,26.7674193 81.4092534,27.0374055 C81.7710597,27.2282427 82.0686035,27.3856613 82.2684333,27.6741157 C82.5677378,28.1067972 82.7490811,28.5781738 82.8256678,29.0601036 C82.9357062,29.7487004 82.8247875,30.4469709 82.5404482,31.0740074 C82.2605105,31.69137 81.8124341,32.2401368 81.241995,32.6402792 C80.7912777,32.955996 80.2595721,33.1820106 79.6688859,33.2769894 C79.4672955,33.308649 79.2762689,33.3253583 79.0975665,33.3253583 C77.9144335,33.3253583 76.7744356,32.743173 75.8879661,31.8355972 C75.0349484,30.9614398 74.4072893,29.7733245 74.2074596,28.5148545 C74.159923,28.2211236 74.1361547,27.9326693 74.1361547,27.6556476 L74.1387956,27.6556476 L74.1387956,16.4692476 L74.1361547,16.4692476 C74.1361547,16.3003963 73.8122016,16.157928 73.5084956,16.0251335 C72.9873537,15.7956012 72.4882194,15.5766222 72.2294091,14.992678 L72.2276485,14.9891603 L72.2258879,14.9900397 L72.2179651,14.9715716 C72.2109227,14.9566212 72.2047605,14.9416709 72.1994787,14.9275999 C72.1325753,14.7684224 72.0771159,14.6110037 72.0322203,14.453585 C71.9864443,14.293528 71.9477108,14.1158824 71.9169,13.9250452 C71.7734099,13.0271431 71.8887302,12.0615247 72.2170848,11.2436511 L72.2179651,11.2410128 L72.2170848,11.2410128 L72.2267682,11.2190269 C72.23205,11.204956 72.2390925,11.1900056 72.2461349,11.1759347 L72.2531774,11.1618637 C72.5031847,10.6377211 73.0164038,10.3369547 73.5278623,10.0370677 C73.8342093,9.85766316 74.1379153,9.77411693 74.1387956,9.7266275 L74.2329885,4.41748471 L74.2329885,4.39198112 Z" id="Fill-19"></path>
                                </g>
                            </g>
                        </g>
                    </g>
                </g>
            </g>
        </g>
    </g>
</svg>