<svg xmlns="http://www.w3.org/2000/svg" xmlns:xlink="http://www.w3.org/1999/xlink" version="1.1" viewBox="36.17 11.8 126.4 126.4">
    <title>trustpilot</title>
    <g id="—-Main" stroke="none" stroke-width="1" fill="none" fill-rule="evenodd">
        <g id="trustpilot">
            <rect id="bounds" x="0" y="0" width="198.75" height="150"/>
            <g id="graphic" transform="translate(39.375000, 15.000000)" fill-rule="nonzero">
                <circle id="shape" stroke="#000032" stroke-width="6.4" fill="#000032" cx="60" cy="60" r="60"/>
                <g id="Trustpilot_brandmark_gr-wht_RGB" transform="translate(25.035971, 78.561151)">
                    <g id="Type" transform="translate(17.807163, 6.045715)" fill="#FFFFFF">
                        <path d="M0.00598358991,0 L6.86916118,0 L6.86916118,1.31215307 L4.17056215,1.31215307 L4.17056215,8.68841543 L2.68663185,8.68841543 L2.68663185,1.31215307 L0,1.31215307 L0,0 L0.00598358991,0 Z M6.57596528,2.39743855 L7.84448633,2.39743855 L7.84448633,3.61148671 L7.86842068,3.61148671 C7.91030583,3.43980315 7.98809249,3.27425112 8.10178071,3.11483065 C8.21546889,2.95541019 8.35309146,2.80212128 8.51464838,2.67335859 C8.67620531,2.53846435 8.85571303,2.43422789 9.0531715,2.3483861 C9.25062994,2.26867587 9.45407202,2.22575497 9.65751406,2.22575497 C9.81308738,2.22575497 9.9267756,2.23188653 9.9866115,2.23801809 C10.0464474,2.24414964 10.1062833,2.25641275 10.1721028,2.26254431 L10.1721028,3.59922361 C10.0763654,3.58082894 9.98062791,3.56856584 9.87890689,3.5563027 C9.77718587,3.5440396 9.68144841,3.53790803 9.58571099,3.53790803 C9.35833456,3.53790803 9.14292533,3.58696051 8.93948329,3.67893383 C8.73604121,3.77090718 8.56251713,3.91193298 8.41292736,4.08974811 C8.26333763,4.27369482 8.14366582,4.49443083 8.05391196,4.76421932 C7.96415814,5.03400781 7.92227299,5.34058564 7.92227299,5.69008434 L7.92227299,8.68228386 L6.56998168,8.68228386 L6.56998168,2.39743855 L6.57596528,2.39743855 Z M16.3890527,8.68841543 L15.0606957,8.68841543 L15.0606957,7.81160285 L15.0367614,7.81160285 C14.8692209,8.13044378 14.6238937,8.3818376 14.2947962,8.57191584 C13.9656988,8.76199411 13.6306178,8.860099 13.2895531,8.860099 C12.4817685,8.860099 11.8953767,8.65775765 11.5363613,8.24694337 C11.1773459,7.83612908 10.9978382,7.21684189 10.9978382,6.38908179 L10.9978382,2.39743855 L12.3501295,2.39743855 L12.3501295,6.25418753 C12.3501295,6.80602761 12.4518505,7.19844722 12.6612762,7.4253148 C12.8647182,7.65218238 13.1579141,7.76868197 13.5288967,7.76868197 C13.816109,7.76868197 14.049469,7.72576106 14.2409439,7.63378771 C14.4324188,7.54181439 14.5879921,7.4253148 14.7016803,7.2720259 C14.8213521,7.12486854 14.9051224,6.94092183 14.9589747,6.73244892 C15.012827,6.52397601 15.0367614,6.29710843 15.0367614,6.05184618 L15.0367614,2.40357011 L16.3890527,2.40357011 L16.3890527,8.68841543 Z M18.6927348,6.67113338 C18.7346199,7.07581609 18.8842097,7.35786769 19.141504,7.52341972 C19.404782,7.68284019 19.7159286,7.76868197 20.0809276,7.76868197 C20.206583,7.76868197 20.3501892,7.75641883 20.5117461,7.73802416 C20.673303,7.71962949 20.8288764,7.67670862 20.9664989,7.62152461 C21.1101051,7.5663406 21.2237933,7.48049881 21.3195307,7.37013079 C21.4092846,7.25976277 21.4511697,7.11873697 21.4451861,6.94092183 C21.4392025,6.7631067 21.3733831,6.61594937 21.2537112,6.50558134 C21.1340395,6.38908179 20.9844497,6.30323997 20.7989584,6.22966132 C20.6134671,6.16221417 20.4040415,6.10089863 20.1646979,6.05184618 C19.9253543,6.00279371 19.6860107,5.94760969 19.4406835,5.89242572 C19.1893727,5.83724171 18.9440455,5.76366302 18.7106855,5.68395277 C18.4773256,5.60424256 18.2678999,5.49387454 18.0824086,5.35284874 C17.8969173,5.21795451 17.7473276,5.04013938 17.639623,4.8255349 C17.5259348,4.61093042 17.4720825,4.3472735 17.4720825,4.02843257 C17.4720825,3.6850654 17.5558527,3.4030138 17.7174096,3.17001466 C17.8789666,2.93701552 18.0883922,2.75306882 18.3337194,2.61204303 C18.5850302,2.47101723 18.8602753,2.37291233 19.1654384,2.31159676 C19.4706015,2.25641275 19.7637974,2.22575497 20.0390425,2.22575497 C20.3561728,2.22575497 20.6613358,2.26254431 20.9485481,2.32999143 C21.2357605,2.39743855 21.4990384,2.50780657 21.7323984,2.66722704 C21.9657584,2.82051594 22.1572333,3.02285731 22.3128067,3.26811956 C22.46838,3.51338183 22.5641174,3.81382809 22.6060025,4.16332679 L21.1938753,4.16332679 C21.1280559,3.83222276 20.9844497,3.60535518 20.7510897,3.49498716 C20.5177297,3.37848758 20.2484681,3.32330357 19.9492886,3.32330357 C19.8535512,3.32330357 19.739863,3.32943513 19.608224,3.3478298 C19.4765851,3.36622446 19.3569132,3.39688225 19.2372415,3.43980315 C19.1235533,3.48272402 19.0278158,3.55017117 18.9440455,3.63601295 C18.8662589,3.72185474 18.8243738,3.83222276 18.8243738,3.97324856 C18.8243738,4.14493212 18.8842097,4.27982639 18.9978978,4.38406284 C19.1115861,4.48829929 19.2611758,4.57414108 19.4466671,4.64771976 C19.6321584,4.71516687 19.841584,4.77648242 20.0809276,4.8255349 C20.3202712,4.87458734 20.5655984,4.92977135 20.8169092,4.98495536 C21.0622364,5.04013938 21.3015799,5.11371802 21.5409236,5.19342827 C21.7802672,5.27313849 21.9896928,5.38350651 22.1751841,5.52453231 C22.3606754,5.6655581 22.5102651,5.83724171 22.6239533,6.04571462 C22.7376415,6.25418753 22.7974774,6.51784445 22.7974774,6.82442228 C22.7974774,7.19844722 22.7137072,7.51115658 22.5461666,7.7748135 C22.3786262,8.03233889 22.1632169,8.24694337 21.8999389,8.40636384 C21.636661,8.5657843 21.3374815,8.68841543 21.0143676,8.76199411 C20.6912538,8.83557279 20.3681399,8.8723621 20.0510097,8.8723621 C19.6620763,8.8723621 19.3030609,8.82944122 18.9739635,8.73746787 C18.644866,8.64549452 18.3576537,8.51060029 18.1183102,8.33278515 C17.8789666,8.14883845 17.6874917,7.92197087 17.5498691,7.65218238 C17.4122465,7.38239389 17.3404435,7.05742142 17.3284763,6.68339648 L18.6927348,6.68339648 L18.6927348,6.67113338 Z M23.1564928,2.39743855 L24.1796867,2.39743855 L24.1796867,0.508919181 L25.531978,0.508919181 L25.531978,2.39743855 L26.7526303,2.39743855 L26.7526303,3.43367158 L25.531978,3.43367158 L25.531978,6.7937645 C25.531978,6.94092183 25.5379616,7.06355296 25.5499288,7.17392098 C25.561896,7.27815744 25.5918139,7.37013079 25.633699,7.44370947 C25.6755842,7.51728815 25.7414037,7.57247216 25.8311575,7.6092615 C25.9209114,7.64605085 26.0345996,7.66444552 26.1901729,7.66444552 C26.2859103,7.66444552 26.3816478,7.66444552 26.4773852,7.65831395 C26.5731227,7.65218238 26.6688601,7.63991928 26.7645975,7.61539304 L26.7645975,8.68841543 C26.6150078,8.7068101 26.465418,8.7190732 26.3277955,8.73746787 C26.1841893,8.75586254 26.0405831,8.76199411 25.8909934,8.76199411 C25.531978,8.76199411 25.2447657,8.72520477 25.0293565,8.65775765 C24.8139472,8.59031051 24.6404231,8.48607405 24.5207513,8.35117982 C24.3950959,8.21628556 24.3173093,8.05073356 24.2694405,7.84839219 C24.2275554,7.64605085 24.1976375,7.4130517 24.1916539,7.15552631 L24.1916539,3.44593471 L23.16846,3.44593471 L23.16846,2.39743855 L23.1564928,2.39743855 Z M27.7100047,2.39743855 L28.990493,2.39743855 L28.990493,3.24972489 L29.0144273,3.24972489 C29.2059022,2.88183151 29.4691801,2.62430614 29.8102448,2.46488567 C30.1513094,2.30546521 30.5163084,2.22575497 30.9172089,2.22575497 C31.4018797,2.22575497 31.820731,2.31159676 32.1797464,2.4894119 C32.5387618,2.66109548 32.8379413,2.90022618 33.0772849,3.206804 C33.3166284,3.51338183 33.4901525,3.8690121 33.6098243,4.27369482 C33.7294962,4.67837753 33.789332,5.11371802 33.789332,5.57358479 C33.789332,5.99666217 33.7354797,6.40747642 33.6277751,6.79989604 C33.5200705,7.19844722 33.3585136,7.54794593 33.1431043,7.85452376 C32.9276951,8.16110159 32.6524499,8.40023227 32.3173689,8.58417897 C31.9822879,8.76812564 31.5933546,8.860099 31.1386017,8.860099 C30.9411433,8.860099 30.7436848,8.84170433 30.5462263,8.80491498 C30.3487678,8.76812564 30.157293,8.7068101 29.9777853,8.62709985 C29.7982776,8.54738963 29.6247535,8.44315318 29.4751637,8.31439048 C29.3195904,8.18562779 29.193935,8.03847043 29.0862304,7.87291843 L29.062296,7.87291843 L29.062296,11.0122753 L27.7100047,11.0122753 L27.7100047,2.39743855 Z M32.4370407,5.54905855 C32.4370407,5.26700696 32.4011392,4.9910869 32.3293361,4.72129844 C32.257533,4.45150995 32.1498284,4.21851081 32.0062222,4.0100379 C31.8626161,3.80156495 31.6831084,3.63601295 31.4736828,3.51338183 C31.2582735,3.39075069 31.0129463,3.32330357 30.7377012,3.32330357 C30.1692602,3.32330357 29.7384417,3.52564493 29.4512294,3.93032765 C29.1640171,4.33501036 29.0204109,4.87458734 29.0204109,5.54905855 C29.0204109,5.86789948 29.0563124,6.16221417 29.1340991,6.43200266 C29.2118858,6.70179115 29.3195904,6.9347903 29.4751637,7.13100011 C29.6247535,7.32720991 29.8042612,7.48049881 30.0136868,7.59086683 C30.2231125,7.70736639 30.4684397,7.7625504 30.7436848,7.7625504 C31.0548315,7.7625504 31.3121258,7.69510329 31.5275351,7.5663406 C31.7429443,7.4375779 31.9164684,7.26589433 32.054091,7.06355296 C32.1917135,6.85508005 32.2934346,6.6220809 32.3532705,6.35842398 C32.4071228,6.09476706 32.4370407,5.82497857 32.4370407,5.54905855 Z M34.8244932,0 L36.1767844,0 L36.1767844,1.31215307 L34.8244932,1.31215307 L34.8244932,0 Z M34.8244932,2.39743855 L36.1767844,2.39743855 L36.1767844,8.68841543 L34.8244932,8.68841543 L34.8244932,2.39743855 Z M37.3854694,0 L38.7377609,0 L38.7377609,8.68841543 L37.3854694,8.68841543 L37.3854694,0 Z M42.8843886,8.860099 C42.3937342,8.860099 41.9569322,8.77425721 41.5739825,8.60870518 C41.1910328,8.44315318 40.8679187,8.21015403 40.5986573,7.92197087 C40.3353793,7.62765618 40.1319372,7.27815744 39.9943147,6.87347472 C39.8566922,6.468792 39.7848893,6.02118838 39.7848893,5.53679544 C39.7848893,5.05853405 39.8566922,4.61706195 39.9943147,4.21237924 C40.1319372,3.80769652 40.3353793,3.45819782 40.5986573,3.1638831 C40.8619354,2.8695684 41.1910328,2.64270081 41.5739825,2.47714879 C41.9569322,2.31159676 42.3937342,2.22575497 42.8843886,2.22575497 C43.3750429,2.22575497 43.811845,2.31159676 44.194795,2.47714879 C44.5777447,2.64270081 44.9008584,2.87569995 45.1701201,3.1638831 C45.4333978,3.45819782 45.63684,3.80769652 45.7744625,4.21237924 C45.912085,4.61706195 45.9838882,5.05853405 45.9838882,5.53679544 C45.9838882,6.02118838 45.912085,6.468792 45.7744625,6.87347472 C45.63684,7.27815744 45.4333978,7.62765618 45.1701201,7.92197087 C44.906842,8.21628556 44.5777447,8.44315318 44.194795,8.60870518 C43.811845,8.77425721 43.3750429,8.860099 42.8843886,8.860099 Z M42.8843886,7.7625504 C43.1835681,7.7625504 43.4468462,7.69510329 43.6682388,7.5663406 C43.8896318,7.4375779 44.0691394,7.26589433 44.2127455,7.05742142 C44.3563517,6.84894851 44.4580727,6.6098178 44.529876,6.34616088 C44.5956952,6.08250396 44.631597,5.81271547 44.631597,5.53679544 C44.631597,5.26700696 44.5956952,5.00335003 44.529876,4.73356155 C44.4640564,4.46377306 44.3563517,4.23077391 44.2127455,4.022301 C44.0691394,3.81382809 43.8896318,3.64827605 43.6682388,3.51951336 C43.4468462,3.39075069 43.1835681,3.32330357 42.8843886,3.32330357 C42.585209,3.32330357 42.3219313,3.39075069 42.1005383,3.51951336 C41.8791456,3.64827605 41.6996377,3.81995962 41.5560316,4.022301 C41.4124254,4.23077391 41.3107044,4.46377306 41.2389015,4.73356155 C41.1730819,5.00335003 41.1371804,5.26700696 41.1371804,5.53679544 C41.1371804,5.81271547 41.1730819,6.08250396 41.2389015,6.34616088 C41.3047211,6.6098178 41.4124254,6.84894851 41.5560316,7.05742142 C41.6996377,7.26589433 41.8791456,7.4375779 42.1005383,7.5663406 C42.3219313,7.70123486 42.585209,7.7625504 42.8843886,7.7625504 Z M46.3788051,2.39743855 L47.401999,2.39743855 L47.401999,0.508919181 L48.7542905,0.508919181 L48.7542905,2.39743855 L49.9749428,2.39743855 L49.9749428,3.43367158 L48.7542905,3.43367158 L48.7542905,6.7937645 C48.7542905,6.94092183 48.7602738,7.06355296 48.772241,7.17392098 C48.7842083,7.27815744 48.8141261,7.37013079 48.8560112,7.44370947 C48.8978966,7.51728815 48.9637159,7.57247216 49.0534697,7.6092615 C49.1432238,7.64605085 49.2569118,7.66444552 49.4124852,7.66444552 C49.5082226,7.66444552 49.60396,7.66444552 49.6996974,7.65831395 C49.7954349,7.65218238 49.8911723,7.63991928 49.9869097,7.61539304 L49.9869097,8.68841543 C49.8373199,8.7068101 49.6877302,8.7190732 49.5501077,8.73746787 C49.4065015,8.75586254 49.2628954,8.76199411 49.1133057,8.76199411 C48.7542905,8.76199411 48.4670779,8.72520477 48.2516689,8.65775765 C48.0362595,8.59031051 47.8627355,8.48607405 47.7430636,8.35117982 C47.6174083,8.21628556 47.5396215,8.05073356 47.4917528,7.84839219 C47.4498677,7.64605085 47.4199499,7.4130517 47.4139662,7.15552631 L47.4139662,3.44593471 L46.3907724,3.44593471 L46.3907724,2.39743855 L46.3788051,2.39743855 Z" id="Shape"/>
                    </g>
                    <g id="Star">
                        <polygon id="Shape" fill="#00B67A" points="16.2334793 6.04571461 10.0344802 6.04571461 8.11973145 0 6.19899911 6.04571461 0 6.03958304 5.02023192 9.77983245 3.09949956 15.8194155 8.11973145 12.0852977 13.1339798 15.8194155 11.219231 9.77983245 16.2334793 6.04571461"/>
                        <polygon id="Shape" fill="#005128" points="11.6500495 11.1471695 11.219231 9.77983245 8.11973145 12.0852977"/>
                    </g>
                </g>
                <path d="M29.422445,39.1648511 L32.0202596,39.1648511 C32.4035456,39.1648511 32.7726303,39.1361909 33.1275248,39.0788701 C33.4824192,39.0215493 33.7947215,38.9104914 34.0644415,38.7456937 C34.3341615,38.5808959 34.5506437,38.3480329 34.7138951,38.0470979 C34.8771466,37.746163 34.9587711,37.3520873 34.9587711,36.864859 C34.9587711,36.3776307 34.8771466,35.983555 34.7138951,35.6826201 C34.5506437,35.3816851 34.3341615,35.1488221 34.0644415,34.9840244 C33.7947215,34.8192266 33.4824192,34.7081687 33.1275248,34.6508479 C32.7726303,34.5935271 32.4035456,34.5648669 32.0202596,34.5648669 L29.422445,34.5648669 L29.422445,39.1648511 Z M26.0793558,31.942446 L32.9358827,31.942446 C33.8869998,31.942446 34.6961471,32.0821638 35.3633488,32.3616035 C36.0305504,32.6410432 36.5735307,33.0100413 36.9923063,33.468609 C37.4110819,33.9271768 37.7162863,34.4502225 37.9079294,35.0377625 C38.0995725,35.6253025 38.1953925,36.2343285 38.1953925,36.864859 C38.1953925,37.4810592 38.0995725,38.086503 37.9079294,38.6812079 C37.7162863,39.2759128 37.4110819,39.8025413 36.9923063,40.261109 C36.5735307,40.7196768 36.0305504,41.0886748 35.3633488,41.3681145 C34.6961471,41.6475542 33.8869998,41.787272 32.9358827,41.787272 L29.422445,41.787272 L29.422445,47.2900568 L26.0793558,47.2900568 L26.0793558,31.942446 Z M47.3729177,40.5405473 C47.2309598,39.7667143 46.9789886,39.1791831 46.6169963,38.7779365 C46.255004,38.3766899 45.7049257,38.1760695 44.9667452,38.1760695 C44.4840886,38.1760695 44.0830642,38.2584671 43.763659,38.4232649 C43.4442538,38.5880626 43.1887339,38.7922654 42.9970908,39.0358796 C42.8054477,39.2794937 42.6705899,39.537434 42.5925131,39.8097087 C42.5144362,40.0819834 42.4683007,40.3255937 42.4541049,40.5405473 L47.3729177,40.5405473 Z M42.4541049,42.4751201 C42.4966924,43.4639067 42.7451146,44.1804079 43.1993796,44.6246454 C43.6536446,45.0688829 44.3066406,45.2909982 45.1583873,45.2909982 C45.7688056,45.2909982 46.2940417,45.1369506 46.7341109,44.8288503 C47.17418,44.52075 47.4438958,44.1947421 47.5432662,43.8508163 L50.2049615,43.8508163 C49.7790882,45.1835287 49.1260921,46.1364753 48.2459538,46.7096849 C47.3658155,47.2828946 46.3011482,47.5694951 45.0519195,47.5694951 C44.185977,47.5694951 43.405221,47.4297773 42.7096277,47.1503376 C42.0140344,46.8708979 41.4249187,46.4732396 40.942262,45.9573511 C40.4596054,45.4414625 40.0869719,44.8252715 39.82435,44.1087593 C39.5617281,43.3922471 39.4304191,42.6040958 39.4304191,41.7442815 C39.4304191,40.9131277 39.5652768,40.1393063 39.8349968,39.4227941 C40.1047168,38.7062823 40.487997,38.0865086 40.9848491,37.5634547 C41.4817013,37.0404009 42.0743664,36.6284126 42.7628616,36.3274777 C43.4513568,36.0265427 44.2143686,35.8760774 45.0519195,35.8760774 C45.9888408,35.8760774 46.8050858,36.0587853 47.5006791,36.4242063 C48.1962724,36.7896274 48.767644,37.280431 49.2148109,37.8966312 C49.6619778,38.5128314 49.9849271,39.2150027 50.1836679,40.003166 C50.3824088,40.7913292 50.4533865,41.6153057 50.3966035,42.4751201 L42.4541049,42.4751201 Z M54.8682516,41.7442815 C54.8682516,42.1885189 54.9108383,42.6220021 54.9960129,43.0447443 C55.0811875,43.4674865 55.226692,43.8472322 55.432531,44.1839927 C55.6383699,44.5207532 55.9116344,44.7894414 56.2523331,44.9900647 C56.5930318,45.190688 57.0188989,45.2909982 57.5299468,45.2909982 C58.0409947,45.2909982 58.4704108,45.190688 58.8182073,44.9900647 C59.1660038,44.7894414 59.4428173,44.5207532 59.6486562,44.1839927 C59.8544952,43.8472322 59.9999997,43.4674865 60.0851742,43.0447443 C60.1703488,42.6220021 60.2129356,42.1885189 60.2129356,41.7442815 C60.2129356,41.300044 60.1703488,40.8629782 60.0851742,40.433071 C59.9999997,40.0031639 59.8544952,39.6234181 59.6486562,39.2938226 C59.4428173,38.9642271 59.1660038,38.6955392 58.8182073,38.4877506 C58.4704108,38.279962 58.0409947,38.1760695 57.5299468,38.1760695 C57.0188989,38.1760695 56.5930318,38.279962 56.2523331,38.4877506 C55.9116344,38.6955392 55.6383699,38.9642271 55.432531,39.2938226 C55.226692,39.6234181 55.0811875,40.0031639 54.9960129,40.433071 C54.9108383,40.8629782 54.8682516,41.300044 54.8682516,41.7442815 Z M51.8445658,41.7442815 C51.8445658,40.8558065 51.9794235,40.0497427 52.2491434,39.3260655 C52.5188634,38.6023883 52.9021437,37.9861973 53.3989958,37.4774737 C53.8958479,36.9687501 54.4920617,36.5746745 55.187655,36.2952348 C55.8832483,36.0157951 56.6640043,35.8760774 57.5299468,35.8760774 C58.3958893,35.8760774 59.1801944,36.0157951 59.8828854,36.2952348 C60.5855764,36.5746745 61.1853393,36.9687501 61.6821914,37.4774737 C62.1790435,37.9861973 62.5623238,38.6023883 62.8320437,39.3260655 C63.1017637,40.0497427 63.2366214,40.8558065 63.2366214,41.7442815 C63.2366214,42.6327564 63.1017637,43.4352376 62.8320437,44.1517498 C62.5623238,44.8682617 62.1790435,45.4808704 61.6821914,45.989594 C61.1853393,46.4983175 60.5855764,46.8888105 59.8828854,47.1610853 C59.1801944,47.43336 58.3958893,47.5694951 57.5299468,47.5694951 C56.6640043,47.5694951 55.8832483,47.43336 55.187655,47.1610853 C54.4920617,46.8888105 53.8958479,46.4983175 53.3989958,45.989594 C52.9021437,45.4808704 52.5188634,44.8682617 52.2491434,44.1517498 C51.9794235,43.4352376 51.8445658,42.6327564 51.8445658,41.7442815 Z M70.7532488,45.2909982 C71.2501009,45.2909982 71.6653215,45.190688 71.9989222,44.9900647 C72.3325228,44.7894414 72.6022386,44.5279185 72.8080775,44.205488 C73.0139165,43.8830574 73.159421,43.5068943 73.2445956,43.0769872 C73.3297702,42.64708 73.3723569,42.2100142 73.3723569,41.7657767 C73.3723569,41.3215393 73.3262215,40.8844735 73.2339488,40.4545663 C73.1416761,40.0246591 72.9890739,39.6413307 72.7761372,39.3045702 C72.5632005,38.9678097 72.2899357,38.6955392 71.9563351,38.4877506 C71.6227344,38.279962 71.2146119,38.1760695 70.7319552,38.1760695 C70.2351031,38.1760695 69.8198825,38.279962 69.4862819,38.4877506 C69.1526812,38.6955392 68.8829654,38.9642271 68.6771265,39.2938226 C68.4712876,39.6234181 68.3257831,40.0031639 68.2406085,40.433071 C68.1554339,40.8629782 68.1128471,41.307209 68.1128471,41.7657767 C68.1128471,42.2100142 68.1589826,42.64708 68.2512553,43.0769872 C68.343528,43.5068943 68.4925811,43.8830574 68.6984201,44.205488 C68.904259,44.5279185 69.1775235,44.7894414 69.5182222,44.9900647 C69.8589209,45.190688 70.2705922,45.2909982 70.7532488,45.2909982 Z M65.1956291,36.1770109 L68.07026,36.1770109 L68.07026,37.5956976 L68.1128471,37.5956976 C68.4819375,36.9938274 68.950391,36.5567619 69.5182222,36.2844872 C70.0860534,36.0122124 70.7106582,35.8760774 71.3920557,35.8760774 C72.2579982,35.8760774 73.0032655,36.0408727 73.6278797,36.3704682 C74.2524938,36.7000637 74.7706322,37.1371295 75.1823097,37.6816786 C75.5939872,38.2262277 75.899192,38.8603314 76.0979329,39.5840085 C76.2966737,40.3076857 76.3960427,41.0635945 76.3960427,41.8517577 C76.3960427,42.5969302 76.2966737,43.3134314 76.0979329,44.001283 C75.899192,44.6891347 75.5975362,45.2981607 75.1929565,45.8283796 C74.7883767,46.3585984 74.2844342,46.7813343 73.6811136,47.0965995 C73.077793,47.4118647 72.3715637,47.5694951 71.5624042,47.5694951 C70.8810067,47.5694951 70.2528529,47.4297773 69.6779239,47.1503376 C69.102995,46.8708979 68.6309924,46.4589097 68.261902,45.9143606 L68.2193149,45.9143606 L68.2193149,51.1806976 L65.1956291,51.1806976 L65.1956291,36.1770109 Z M78.2911697,31.942446 L81.3148555,31.942446 L81.3148555,47.2900568 L78.2911697,47.2900568 L78.2911697,31.942446 Z M91.1098941,40.5405473 C90.9679362,39.7667143 90.7159649,39.1791831 90.3539726,38.7779365 C89.9919803,38.3766899 89.441902,38.1760695 88.7037216,38.1760695 C88.2210649,38.1760695 87.8200405,38.2584671 87.5006353,38.4232649 C87.1812301,38.5880626 86.9257102,38.7922654 86.7340671,39.0358796 C86.542424,39.2794937 86.4075663,39.537434 86.3294894,39.8097087 C86.2514125,40.0819834 86.2052771,40.3255937 86.1910812,40.5405473 L91.1098941,40.5405473 Z M86.1910812,42.4751201 C86.2336687,43.4639067 86.4820909,44.1804079 86.9363559,44.6246454 C87.3906209,45.0688829 88.0436169,45.2909982 88.8953636,45.2909982 C89.505782,45.2909982 90.031018,45.1369506 90.4710872,44.8288503 C90.9111564,44.52075 91.1808721,44.1947421 91.2802426,43.8508163 L93.9419378,43.8508163 C93.5160645,45.1835287 92.8630684,46.1364753 91.9829301,46.7096849 C91.1027918,47.2828946 90.0381245,47.5694951 88.7888958,47.5694951 C87.9229533,47.5694951 87.1421973,47.4297773 86.446604,47.1503376 C85.7510107,46.8708979 85.161895,46.4732396 84.6792383,45.9573511 C84.1965817,45.4414625 83.8239482,44.8252715 83.5613263,44.1087593 C83.2987045,43.3922471 83.1673954,42.6040958 83.1673954,41.7442815 C83.1673954,40.9131277 83.3022532,40.1393063 83.5719731,39.4227941 C83.8416931,38.7062823 84.2249734,38.0865086 84.7218255,37.5634547 C85.2186776,37.0404009 85.8113427,36.6284126 86.4998379,36.3274777 C87.1883331,36.0265427 87.951345,35.8760774 88.7888958,35.8760774 C89.7258171,35.8760774 90.5420621,36.0587853 91.2376554,36.4242063 C91.9332487,36.7896274 92.5046203,37.280431 92.9517872,37.8966312 C93.3989541,38.5128314 93.7219034,39.2150027 93.9206442,40.003166 C94.1193851,40.7913292 94.1903628,41.6153057 94.1335799,42.4751201 L86.1910812,42.4751201 Z M25.0359712,53.4376992 L28.059657,53.4376992 L28.059657,68.7853099 L25.0359712,68.7853099 L25.0359712,53.4376992 Z M33.1275248,63.2395346 C33.1275248,63.6837721 33.1701115,64.1172552 33.2552861,64.5399974 C33.3404608,64.9627396 33.4859654,65.3424853 33.6918042,65.6792458 C33.8976431,66.0160063 34.1709076,66.2846945 34.5116063,66.4853178 C34.852305,66.6859411 35.2781721,66.7862514 35.78922,66.7862514 C36.300268,66.7862514 36.729684,66.6859411 37.0774805,66.4853178 C37.425277,66.2846945 37.7020905,66.0160063 37.9079294,65.6792458 C38.1137684,65.3424853 38.2592729,64.9627396 38.3444475,64.5399974 C38.4296221,64.1172552 38.4722088,63.6837721 38.4722088,63.2395346 C38.4722088,62.7952971 38.4296221,62.3582313 38.3444475,61.9283242 C38.2592729,61.498417 38.1137684,61.1186713 37.9079294,60.7890757 C37.7020905,60.4594802 37.425277,60.1907924 37.0774805,59.9830038 C36.729684,59.7752151 36.300268,59.6713226 35.78922,59.6713226 C35.2781721,59.6713226 34.852305,59.7752151 34.5116063,59.9830038 C34.1709076,60.1907924 33.8976431,60.4594802 33.6918042,60.7890757 C33.4859654,61.1186713 33.3404608,61.498417 33.2552861,61.9283242 C33.1701115,62.3582313 33.1275248,62.7952971 33.1275248,63.2395346 Z M30.103839,63.2395346 C30.103839,62.3510597 30.2386969,61.5449958 30.5084167,60.8213186 C30.7781364,60.0976415 31.1614168,59.4814504 31.658269,58.9727269 C32.1551213,58.4640033 32.751335,58.0699276 33.4469282,57.7904879 C34.1425215,57.5110482 34.9232775,57.3713305 35.78922,57.3713305 C36.6551625,57.3713305 37.4394676,57.5110482 38.1421586,57.7904879 C38.8448497,58.0699276 39.4446125,58.4640033 39.9414646,58.9727269 C40.4383167,59.4814504 40.821597,60.0976415 41.091317,60.8213186 C41.3610369,61.5449958 41.4958946,62.3510597 41.4958946,63.2395346 C41.4958946,64.1280095 41.3610369,64.9304908 41.091317,65.647003 C40.821597,66.3635148 40.4383167,66.9761235 39.9414646,67.4848471 C39.4446125,67.9935707 38.8448497,68.3840637 38.1421586,68.6563384 C37.4394676,68.9286131 36.6551625,69.0647482 35.78922,69.0647482 C34.9232775,69.0647482 34.1425215,68.9286131 33.4469282,68.6563384 C32.751335,68.3840637 32.1551213,67.9935707 31.658269,67.4848471 C31.1614168,66.9761235 30.7781364,66.3635148 30.5084167,65.647003 C30.2386969,64.9304908 30.103839,64.1280095 30.103839,63.2395346 Z M49.5448611,68.7853099 L46.1804783,68.7853099 L42.4115178,57.672264 L45.5842585,57.672264 L47.9052568,65.2600884 L47.9478439,65.2600884 L50.2688422,57.672264 L53.2712344,57.672264 L49.5448611,68.7853099 Z M61.9377141,62.0358004 C61.7957562,61.2619674 61.543785,60.6744363 61.1817927,60.2731897 C60.8198004,59.8719431 60.2697221,59.6713226 59.5315416,59.6713226 C59.048885,59.6713226 58.6478606,59.7537202 58.3284554,59.918518 C58.0090502,60.0833158 57.7535303,60.2875185 57.5618872,60.5311327 C57.370244,60.7747469 57.2353863,61.0326871 57.1573095,61.3049618 C57.0792326,61.5772366 57.0330971,61.8208468 57.0189013,62.0358004 L61.9377141,62.0358004 Z M57.0189013,63.9703732 C57.0614888,64.9591598 57.309911,65.6756611 57.764176,66.1198985 C58.218441,66.564136 58.871437,66.7862514 59.7231837,66.7862514 C60.333602,66.7862514 60.8588381,66.6322037 61.2989073,66.3241034 C61.7389764,66.0160032 62.0086922,65.6899952 62.1080626,65.3460694 L64.7697579,65.3460694 C64.3438846,66.6787818 63.6908885,67.6317284 62.8107502,68.2049381 C61.9306119,68.7781478 60.8659446,69.0647482 59.6167159,69.0647482 C58.7507734,69.0647482 57.9700174,68.9250305 57.2744241,68.6455908 C56.5788308,68.3661511 55.9897151,67.9684928 55.5070584,67.4526042 C55.0244018,66.9367157 54.6517683,66.3205246 54.3891464,65.6040124 C54.1265245,64.8875006 53.9952155,64.099349 53.9952155,63.2395346 C53.9952155,62.4083808 54.1300732,61.6345595 54.3997932,60.9180473 C54.6695132,60.2015354 55.0527934,59.5817617 55.5496455,59.0587079 C56.0464977,58.535654 56.6391628,58.1236658 57.327658,57.8227308 C58.0161532,57.5217959 58.779165,57.3713305 59.6167159,57.3713305 C60.5536371,57.3713305 61.3698822,57.5540384 62.0654755,57.9194595 C62.7610688,58.2848805 63.3324404,58.7756841 63.7796073,59.3918843 C64.2267741,60.0080845 64.5497235,60.7102558 64.7484643,61.4984191 C64.9472052,62.2865824 65.0181829,63.1105589 64.9613999,63.9703732 L57.0189013,63.9703732 Z M82.9970469,68.7853099 L80.1224161,68.7853099 L80.1224161,67.2376517 L80.0585354,67.2376517 C79.6752495,67.8825125 79.1784044,68.3482385 78.567986,68.6348431 C77.9575677,68.9214478 77.3329626,69.0647482 76.6941526,69.0647482 C75.8849931,69.0647482 75.2213506,68.957273 74.7032045,68.7423194 C74.1850585,68.5273658 73.776936,68.2228528 73.4788247,67.8287711 C73.1807135,67.4346895 72.9713286,66.9546336 72.8506647,66.3885892 C72.7300007,65.8225448 72.6696694,65.1956062 72.6696694,64.5077545 L72.6696694,57.672264 L75.6933552,57.672264 L75.6933552,63.948878 C75.6933552,64.8660135 75.835311,65.5502722 76.1192264,66.0016746 C76.4031419,66.4530771 76.9070847,66.6787751 77.6310693,66.6787751 C78.4544243,66.6787751 79.0506381,66.4315822 79.4197285,65.9371889 C79.7888189,65.4427956 79.9733611,64.6295667 79.9733611,63.4974776 L79.9733611,57.672264 L82.9970469,57.672264 L82.9970469,68.7853099 Z M87.6390435,65.1741074 C87.6390435,65.5037029 87.7064725,65.786721 87.8413323,66.0231699 C87.9761921,66.2596187 88.1500879,66.4530742 88.3630246,66.6035417 C88.5759612,66.7540092 88.8208347,66.8650671 89.0976525,66.9367181 C89.3744702,67.0083692 89.6619304,67.0441944 89.9600417,67.0441944 C90.1729784,67.0441944 90.3965587,67.0191168 90.6307889,66.968961 C90.8650191,66.9188052 91.0779527,66.8399902 91.2695958,66.7325132 C91.4612389,66.6250363 91.6209388,66.4817362 91.7487009,66.3026082 C91.876463,66.1234801 91.940343,65.8977824 91.940343,65.6255077 C91.940343,65.16694 91.6386872,64.8230194 91.0353666,64.5937356 C90.432046,64.3644517 89.5909587,64.1351713 88.5120795,63.9058874 C88.0720103,63.8055758 87.6425946,63.687353 87.223819,63.5512158 C86.8050434,63.4150786 86.4324099,63.235953 86.105907,63.0138344 C85.7794041,62.7917159 85.516786,62.5122801 85.3180452,62.1755196 C85.1193044,61.8387591 85.0199353,61.4267708 85.0199353,60.9395425 C85.0199353,60.2230307 85.1583421,59.6354995 85.4351598,59.1769318 C85.7119775,58.718364 86.0775132,58.3565309 86.5317782,58.0914215 C86.9860432,57.8263121 87.4970835,57.6400219 88.0649147,57.5325449 C88.6327459,57.4250679 89.2147639,57.3713305 89.8109868,57.3713305 C90.4072097,57.3713305 90.9856789,57.4286506 91.5464121,57.5432925 C92.1071452,57.6579345 92.607539,57.8513896 93.0476082,58.1236644 C93.4876774,58.3959391 93.8532131,58.7577722 94.1442266,59.2091746 C94.4352402,59.6605771 94.609136,60.2301956 94.6659189,60.9180473 L91.791288,60.9180473 C91.7487006,60.3305073 91.5286693,59.9328493 91.1311876,59.7250607 C90.7337059,59.5172721 90.2652521,59.4133795 89.7258125,59.4133795 C89.5554633,59.4133795 89.3709208,59.4241272 89.1721799,59.4456224 C88.9734391,59.4671177 88.7924455,59.5136905 88.6291941,59.5853416 C88.4659426,59.6569926 88.3275359,59.7608856 88.2139696,59.8970227 C88.1004034,60.0331599 88.0436211,60.2158678 88.0436211,60.4451517 C88.0436211,60.7174264 88.1429902,60.9395418 88.341731,61.1115045 C88.5404718,61.2834673 88.7995408,61.423185 89.118946,61.530662 C89.4383512,61.6381389 89.8038869,61.7348665 90.2155645,61.8208479 C90.627242,61.9068293 91.0460113,61.9999745 91.4718846,62.1002862 C91.9119538,62.2005978 92.3413695,62.322403 92.7601451,62.4657055 C93.1789207,62.609008 93.5515542,62.7988809 93.8780571,63.0353297 C94.20456,63.2717785 94.4671781,63.5655443 94.6659189,63.9166351 C94.8646598,64.2677259 94.9640288,64.7012093 94.9640288,65.2170979 C94.9640288,65.94794 94.8185243,66.5605487 94.5275108,67.054942 C94.2364972,67.5493353 93.856766,67.9469936 93.3883052,68.2479286 C92.9198444,68.5488635 92.3839619,68.7602316 91.7806413,68.8820385 C91.1773206,69.0038455 90.5633623,69.0647482 89.9387481,69.0647482 C89.2999381,69.0647482 88.675333,69.0002631 88.0649147,68.8712909 C87.4544963,68.7423187 86.9115157,68.5273683 86.4359572,68.2264333 C85.9603987,67.9254984 85.5700206,67.5278401 85.2648113,67.0334468 C84.9596019,66.5390535 84.7928042,65.9192798 84.7644126,65.1741074 L87.6390435,65.1741074 Z" id="shape" fill="#FFFFFF"/>
            </g>
        </g>
    </g>
</svg>