<?xml version="1.0" encoding="UTF-8"?>
<svg width="770px" height="120px" viewBox="0 0 770 120" version="1.1" xmlns="http://www.w3.org/2000/svg" xmlns:xlink="http://www.w3.org/1999/xlink">
    <title>Group</title>
    <g id="Page-1" stroke="none" stroke-width="1" fill="none" fill-rule="evenodd">
        <g id="Tube-Ad---Landing-page---V2---24th-oct" transform="translate(-60.000000, -160.000000)">
            <g id="Group" transform="translate(60.000000, 160.000000)">
                <g id="Group-65" fill="#E62E6B">
                    <polygon id="Fill-1" points="0 0 0 63.4385327 0 120 770 120 770 56.4385327 447.320716 56.4385327 447.320716 0"></polygon>
                </g>
                <g id="Got-a-spare-room?-Wo" transform="translate(11.820463, 13.400000)" fill="#FFFFFF" fill-rule="nonzero">
                    <path d="M15.6295373,16.45 L15.6295373,19.8 C15.6295373,20.5 16.0295373,20.9 16.7295373,20.9 L28.7795373,20.9 L28.7795373,21.65 C28.7795373,27.25 24.8295373,30.8 18.6795373,30.8 C11.7795373,30.8 7.22953726,25.7 7.22953726,18.1 C7.22953726,10.5 12.4295373,5.7 19.6295373,5.7 C23.8795373,5.7 27.3795373,6.85 30.4295373,9.9 C31.1295373,10.65 31.7295373,10.45 31.7295373,9.45 L31.7295373,4.65 C31.7295373,4.1 31.5295373,3.65 31.0795373,3.3 C27.8795373,1.05 24.0295373,-5.68434189e-14 19.6795373,-5.68434189e-14 C8.97953726,-5.68434189e-14 1.42953726,7.1 1.42953726,18.1 C1.42953726,28.95 8.27953726,36.2 18.6795373,36.2 C28.4295373,36.2 34.6795373,30.55 34.6795373,21.55 L34.6795373,16.45 C34.6795373,15.75 34.2795373,15.35 33.5795373,15.35 L16.7295373,15.35 C16.0295373,15.35 15.6295373,15.75 15.6295373,16.45 Z" id="Path"></path>
                    <path d="M51.7295373,36.2 C58.3295373,36.2 64.6295373,31.3 64.6295373,22.8 C64.6295373,14.3 58.3295373,9.4 51.7295373,9.4 C45.1295373,9.4 38.7295373,14.3 38.7295373,22.8 C38.7295373,31.3 45.1295373,36.2 51.7295373,36.2 Z M51.7295373,30.9 C47.0795373,30.9 44.3295373,27.35 44.3295373,22.8 C44.3295373,18.25 47.0795373,14.7 51.7295373,14.7 C56.3795373,14.7 59.0295373,18.25 59.0295373,22.8 C59.0295373,27.35 56.3795373,30.9 51.7295373,30.9 Z" id="Shape"></path>
                    <path d="M83.2295373,13.9 L83.2295373,11.1 C83.2295373,10.4 82.8295373,10 82.1295373,10 L76.6295373,10 L76.6295373,3.85 C76.6295373,3.15 76.2295373,2.75 75.5295373,2.75 L72.2295373,2.75 C71.5295373,2.75 71.1295373,3.15 71.1295373,3.85 L71.1295373,10 L68.3295373,10 C67.6295373,10 67.2295373,10.4 67.2295373,11.1 L67.2295373,13.9 C67.2295373,14.6 67.6295373,15 68.3295373,15 L71.1295373,15 L71.1295373,28.6 C71.1295373,33.5 73.9295373,36.2 78.9295373,36.2 C80.0795373,36.2 81.1795373,36.1 82.2795373,35.8 C82.9295373,35.65 83.2295373,35.25 83.2295373,34.6 L83.2295373,31.8 C83.2295373,31.05 82.7795373,30.7 82.0295373,30.85 C81.1295373,31 80.3295373,31.05 79.7295373,31.05 C77.7295373,31.05 76.6295373,30.05 76.6295373,27.85 L76.6295373,15 L82.1295373,15 C82.8295373,15 83.2295373,14.6 83.2295373,13.9 Z" id="Path"></path>
                    <path d="M117.929537,10.85 L117.929537,11.7 C116.329537,10.35 114.029537,9.4 111.079537,9.4 C103.379537,9.4 98.6295373,15 98.6295373,22.8 C98.6295373,30.6 103.379537,36.2 111.279537,36.2 C114.229537,36.2 116.429537,35.25 117.929537,33.85 L117.929537,34.7 C117.929537,35.25 118.329537,35.6 119.029537,35.6 L122.329537,35.6 C123.029537,35.6 123.429537,35.2 123.429537,34.5 L123.429537,11.1 C123.429537,10.4 123.029537,10 122.329537,10 L119.029537,10 C118.329537,10 117.929537,10.3 117.929537,10.85 Z M111.579537,30.9 C107.279537,30.9 104.229537,27.4 104.229537,22.8 C104.229537,18.2 107.279537,14.7 111.579537,14.7 C114.429537,14.7 116.629537,15.8 117.929537,17.6 L117.929537,28 C116.629537,29.8 114.429537,30.9 111.579537,30.9 Z" id="Shape"></path>
                    <path d="M150.879537,36.2 C157.129537,36.2 161.329537,33.1 161.329537,28.45 C161.329537,23.75 158.729537,21.25 152.679537,20.2 L150.179537,19.75 C147.779537,19.3 146.829537,18.4 146.829537,17.05 C146.829537,15.45 148.379537,14.4 150.629537,14.4 C153.279537,14.4 155.279537,14.95 157.779537,16.8 C158.529537,17.4 159.129537,17.1 159.129537,16.2 L159.129537,12.7 C159.129537,12.1 158.929537,11.7 158.379537,11.4 C155.929537,9.95 153.729537,9.4 150.629537,9.4 C144.829537,9.4 141.229537,12.35 141.229537,17.15 C141.229537,21.1 143.279537,23.75 148.979537,24.8 L151.629537,25.3 C154.529537,25.85 155.629537,26.75 155.629537,28.45 C155.629537,30.15 153.929537,31.2 150.829537,31.2 C148.379537,31.2 145.579537,30.5 142.679537,27.9 C141.929537,27.25 141.329537,27.5 141.329537,28.45 L141.329537,32.25 C141.329537,32.8 141.529537,33.2 141.979537,33.55 C144.779537,35.65 147.829537,36.2 150.879537,36.2 Z" id="Path"></path>
                    <path d="M178.129537,9.4 C175.179537,9.4 172.879537,10.35 171.279537,11.7 L171.279537,10.85 C171.279537,10.3 170.879537,10 170.179537,10 L166.879537,10 C166.179537,10 165.779537,10.4 165.779537,11.1 L165.779537,44.5 C165.779537,45.2 166.179537,45.6 166.879537,45.6 L170.179537,45.6 C170.879537,45.6 171.279537,45.2 171.279537,44.5 L171.279537,33.85 C172.779537,35.25 174.979537,36.2 177.929537,36.2 C185.829537,36.2 190.579537,30.6 190.579537,22.8 C190.579537,15 185.829537,9.4 178.129537,9.4 Z M177.629537,30.9 C174.779537,30.9 172.579537,29.8 171.279537,28 L171.279537,17.6 C172.579537,15.8 174.779537,14.7 177.629537,14.7 C181.929537,14.7 184.979537,18.2 184.979537,22.8 C184.979537,27.4 181.929537,30.9 177.629537,30.9 Z" id="Shape"></path>
                    <path d="M213.479537,10.85 L213.479537,11.7 C211.879537,10.35 209.579537,9.4 206.629537,9.4 C198.929537,9.4 194.179537,15 194.179537,22.8 C194.179537,30.6 198.929537,36.2 206.829537,36.2 C209.779537,36.2 211.979537,35.25 213.479537,33.85 L213.479537,34.7 C213.479537,35.25 213.879537,35.6 214.579537,35.6 L217.879537,35.6 C218.579537,35.6 218.979537,35.2 218.979537,34.5 L218.979537,11.1 C218.979537,10.4 218.579537,10 217.879537,10 L214.579537,10 C213.879537,10 213.479537,10.3 213.479537,10.85 Z M207.129537,30.9 C202.829537,30.9 199.779537,27.4 199.779537,22.8 C199.779537,18.2 202.829537,14.7 207.129537,14.7 C209.979537,14.7 212.179537,15.8 213.479537,17.6 L213.479537,28 C212.179537,29.8 209.979537,30.9 207.129537,30.9 Z" id="Shape"></path>
                    <path d="M226.479537,35.6 L229.779537,35.6 C230.479537,35.6 230.879537,35.2 230.879537,34.5 L230.879537,19 C232.029537,17 233.729537,14.9 237.379537,14.9 C238.029537,14.9 238.729537,15 239.429537,15.15 C240.179537,15.3 240.629537,14.95 240.629537,14.2 L240.629537,10.85 C240.629537,10.25 240.379537,9.75 239.729537,9.6 C239.129537,9.45 238.429537,9.4 237.629537,9.4 C234.579537,9.4 232.079537,10.65 230.879537,12.65 L230.879537,11.1 C230.879537,10.4 230.479537,10 229.779537,10 L226.479537,10 C225.779537,10 225.379537,10.4 225.379537,11.1 L225.379537,34.5 C225.379537,35.2 225.779537,35.6 226.479537,35.6 Z" id="Path"></path>
                    <path d="M256.429537,30.85 C254.079537,30.85 252.079537,30.1 250.529537,28.7 L265.879537,18.25 C266.429537,17.85 266.579537,17.4 266.329537,16.75 C264.179537,11.3 259.879537,9.4 255.079537,9.4 C247.879537,9.4 242.429537,14.65 242.429537,21.9 C242.429537,30.9 247.929537,36.2 256.229537,36.2 C260.679537,36.2 264.329537,34.5 266.579537,32.6 C267.029537,32.2 267.179537,31.8 267.179537,31.25 L267.179537,26.85 C267.179537,25.85 266.579537,25.65 265.879537,26.4 C263.429537,29.05 260.279537,30.85 256.429537,30.85 Z M255.079537,14.5 C256.629537,14.5 258.579537,14.95 259.629537,16.75 L248.179537,24.5 C247.979537,23.65 247.879537,22.8 247.879537,21.85 C247.879537,17.55 250.779537,14.5 255.079537,14.5 Z" id="Shape"></path>
                    <path d="M285.079537,35.6 L288.379537,35.6 C289.079537,35.6 289.479537,35.2 289.479537,34.5 L289.479537,19 C290.629537,17 292.329537,14.9 295.979537,14.9 C296.629537,14.9 297.329537,15 298.029537,15.15 C298.779537,15.3 299.229537,14.95 299.229537,14.2 L299.229537,10.85 C299.229537,10.25 298.979537,9.75 298.329537,9.6 C297.729537,9.45 297.029537,9.4 296.229537,9.4 C293.179537,9.4 290.679537,10.65 289.479537,12.65 L289.479537,11.1 C289.479537,10.4 289.079537,10 288.379537,10 L285.079537,10 C284.379537,10 283.979537,10.4 283.979537,11.1 L283.979537,34.5 C283.979537,35.2 284.379537,35.6 285.079537,35.6 Z" id="Path"></path>
                    <path d="M314.029537,36.2 C320.629537,36.2 326.929537,31.3 326.929537,22.8 C326.929537,14.3 320.629537,9.4 314.029537,9.4 C307.429537,9.4 301.029537,14.3 301.029537,22.8 C301.029537,31.3 307.429537,36.2 314.029537,36.2 Z M314.029537,30.9 C309.379537,30.9 306.629537,27.35 306.629537,22.8 C306.629537,18.25 309.379537,14.7 314.029537,14.7 C318.679537,14.7 321.329537,18.25 321.329537,22.8 C321.329537,27.35 318.679537,30.9 314.029537,30.9 Z" id="Shape"></path>
                    <path d="M343.529537,36.2 C350.129537,36.2 356.429537,31.3 356.429537,22.8 C356.429537,14.3 350.129537,9.4 343.529537,9.4 C336.929537,9.4 330.529537,14.3 330.529537,22.8 C330.529537,31.3 336.929537,36.2 343.529537,36.2 Z M343.529537,30.9 C338.879537,30.9 336.129537,27.35 336.129537,22.8 C336.129537,18.25 338.879537,14.7 343.529537,14.7 C348.179537,14.7 350.829537,18.25 350.829537,22.8 C350.829537,27.35 348.179537,30.9 343.529537,30.9 Z" id="Shape"></path>
                    <path d="M362.529537,35.6 L365.829537,35.6 C366.529537,35.6 366.929537,35.2 366.929537,34.5 L366.929537,17.35 C367.779537,15.5 369.629537,14.55 371.329537,14.55 C373.579537,14.55 375.579537,16.15 375.579537,18.7 L375.579537,34.5 C375.579537,35.2 375.979537,35.6 376.679537,35.6 L379.979537,35.6 C380.679537,35.6 381.079537,35.2 381.079537,34.5 L381.079537,17.35 C381.929537,15.5 383.729537,14.55 385.429537,14.55 C387.979537,14.55 389.729537,15.95 389.729537,18.7 L389.729537,34.5 C389.729537,35.2 390.129537,35.6 390.829537,35.6 L394.129537,35.6 C394.829537,35.6 395.229537,35.2 395.229537,34.5 L395.229537,18 C395.229537,12.85 391.479537,9.4 386.429537,9.4 C383.529537,9.4 380.829537,10.6 379.029537,13.05 C378.229537,11.15 375.879537,9.4 372.729537,9.4 C370.479537,9.4 368.129537,10.2 366.879537,12 L366.879537,11 C366.879537,10.35 366.479537,10 365.779537,10 L362.529537,10 C361.829537,10 361.429537,10.4 361.429537,11.1 L361.429537,34.5 C361.429537,35.2 361.829537,35.6 362.529537,35.6 Z" id="Path"></path>
                    <path d="M406.429537,24.65 L410.429537,24.65 C411.129537,24.65 411.429537,24.3 411.529537,23.6 C411.729537,21.95 412.529537,20.9 414.279537,19.8 C418.729537,17 421.429537,14.35 421.429537,10 C421.429537,3.85 416.729537,-5.68434189e-14 409.479537,-5.68434189e-14 C406.329537,-5.68434189e-14 403.179537,0.95 400.729537,2.85 C400.279537,3.25 400.129537,3.65 400.129537,4.2 L400.129537,7.7 C400.129537,8.65 400.729537,8.9 401.479537,8.3 C403.879537,6.4 406.379537,5.35 409.479537,5.35 C413.329537,5.35 415.729537,7.15 415.729537,10 C415.729537,12.2 414.679537,13.35 410.879537,15.75 C407.329537,18 405.679537,20.3 405.379537,23.55 C405.329537,24.25 405.729537,24.65 406.429537,24.65 Z M408.579537,36.2 C411.079537,36.2 413.129537,34.15 413.129537,31.65 C413.129537,29.15 411.079537,27.1 408.579537,27.1 C406.079537,27.1 404.029537,29.15 404.029537,31.65 C404.029537,34.15 406.079537,36.2 408.579537,36.2 Z" id="Shape"></path>
                    <path d="M43.0795373,58.5 L35.1795373,83.15 L27.2795373,58.5 C27.0795373,57.85 26.6795373,57.6 26.0295373,57.6 L23.1295373,57.6 C22.4795373,57.6 22.0795373,57.85 21.8795373,58.5 L13.9795373,83.15 L6.07953726,58.5 C5.87953726,57.85 5.47953726,57.6 4.82953726,57.6 L0.979537258,57.6 C0.179537258,57.6 -0.170462742,58.05 0.079537258,58.85 L11.0795373,91.7 C11.2795373,92.35 11.7295373,92.6 12.3295373,92.6 L15.6295373,92.6 C16.2795373,92.6 16.6795373,92.35 16.8795373,91.7 L24.5795373,67.8 L32.2795373,91.7 C32.4795373,92.35 32.8795373,92.6 33.5295373,92.6 L36.8295373,92.6 C37.4295373,92.6 37.8795373,92.35 38.0795373,91.7 L49.0795373,58.85 C49.3295373,58.05 48.9795373,57.6 48.1795373,57.6 L44.3295373,57.6 C43.6795373,57.6 43.2795373,57.85 43.0795373,58.5 Z" id="Path"></path>
                    <path d="M61.6795373,93.2 C68.2795373,93.2 74.5795373,88.3 74.5795373,79.8 C74.5795373,71.3 68.2795373,66.4 61.6795373,66.4 C55.0795373,66.4 48.6795373,71.3 48.6795373,79.8 C48.6795373,88.3 55.0795373,93.2 61.6795373,93.2 Z M61.6795373,87.9 C57.0295373,87.9 54.2795373,84.35 54.2795373,79.8 C54.2795373,75.25 57.0295373,71.7 61.6795373,71.7 C66.3295373,71.7 68.9795373,75.25 68.9795373,79.8 C68.9795373,84.35 66.3295373,87.9 61.6795373,87.9 Z" id="Shape"></path>
                    <path d="M80.6795373,92.6 L83.9795373,92.6 C84.6795373,92.6 85.0795373,92.2 85.0795373,91.5 L85.0795373,76 C86.2295373,74 87.9295373,71.9 91.5795373,71.9 C92.2295373,71.9 92.9295373,72 93.6295373,72.15 C94.3795373,72.3 94.8295373,71.95 94.8295373,71.2 L94.8295373,67.85 C94.8295373,67.25 94.5795373,66.75 93.9295373,66.6 C93.3295373,66.45 92.6295373,66.4 91.8295373,66.4 C88.7795373,66.4 86.2795373,67.65 85.0795373,69.65 L85.0795373,68.1 C85.0795373,67.4 84.6795373,67 83.9795373,67 L80.6795373,67 C79.9795373,67 79.5795373,67.4 79.5795373,68.1 L79.5795373,91.5 C79.5795373,92.2 79.9795373,92.6 80.6795373,92.6 Z" id="Path"></path>
                    <path d="M100.129537,92.6 L103.429537,92.6 C104.129537,92.6 104.529537,92.2 104.529537,91.5 L104.529537,76 C105.679537,74 107.379537,71.9 111.029537,71.9 C111.679537,71.9 112.379537,72 113.079537,72.15 C113.829537,72.3 114.279537,71.95 114.279537,71.2 L114.279537,67.85 C114.279537,67.25 114.029537,66.75 113.379537,66.6 C112.779537,66.45 112.079537,66.4 111.279537,66.4 C108.229537,66.4 105.729537,67.65 104.529537,69.65 L104.529537,68.1 C104.529537,67.4 104.129537,67 103.429537,67 L100.129537,67 C99.4295373,67 99.0295373,67.4 99.0295373,68.1 L99.0295373,91.5 C99.0295373,92.2 99.4295373,92.6 100.129537,92.6 Z" id="Path"></path>
                    <path d="M121.329537,64.25 C123.629537,64.25 125.529537,62.35 125.529537,60.05 C125.529537,57.75 123.629537,55.85 121.329537,55.85 C119.029537,55.85 117.129537,57.75 117.129537,60.05 C117.129537,62.35 119.029537,64.25 121.329537,64.25 Z M119.679537,92.6 L122.979537,92.6 C123.679537,92.6 124.079537,92.2 124.079537,91.5 L124.079537,68.1 C124.079537,67.4 123.679537,67 122.979537,67 L119.679537,67 C118.979537,67 118.579537,67.4 118.579537,68.1 L118.579537,91.5 C118.579537,92.2 118.979537,92.6 119.679537,92.6 Z" id="Shape"></path>
                    <path d="M143.179537,87.85 C140.829537,87.85 138.829537,87.1 137.279537,85.7 L152.629537,75.25 C153.179537,74.85 153.329537,74.4 153.079537,73.75 C150.929537,68.3 146.629537,66.4 141.829537,66.4 C134.629537,66.4 129.179537,71.65 129.179537,78.9 C129.179537,87.9 134.679537,93.2 142.979537,93.2 C147.429537,93.2 151.079537,91.5 153.329537,89.6 C153.779537,89.2 153.929537,88.8 153.929537,88.25 L153.929537,83.85 C153.929537,82.85 153.329537,82.65 152.629537,83.4 C150.179537,86.05 147.029537,87.85 143.179537,87.85 Z M141.829537,71.5 C143.379537,71.5 145.329537,71.95 146.379537,73.75 L134.929537,81.5 C134.729537,80.65 134.629537,79.8 134.629537,78.85 C134.629537,74.55 137.529537,71.5 141.829537,71.5 Z" id="Shape"></path>
                    <path d="M176.679537,56.3 L176.679537,68.7 C175.079537,67.35 172.779537,66.4 169.829537,66.4 C162.129537,66.4 157.379537,72 157.379537,79.8 C157.379537,87.6 162.129537,93.2 170.029537,93.2 C172.979537,93.2 175.179537,92.25 176.679537,90.85 L176.679537,91.7 C176.679537,92.25 177.079537,92.6 177.779537,92.6 L181.079537,92.6 C181.779537,92.6 182.179537,92.2 182.179537,91.5 L182.179537,56.3 C182.179537,55.6 181.779537,55.2 181.079537,55.2 L177.779537,55.2 C177.079537,55.2 176.679537,55.6 176.679537,56.3 Z M176.679537,85 C175.379537,86.8 173.179537,87.9 170.329537,87.9 C166.029537,87.9 162.979537,84.4 162.979537,79.8 C162.979537,75.2 166.029537,71.7 170.329537,71.7 C173.179537,71.7 175.379537,72.8 176.679537,74.6 L176.679537,85 Z" id="Shape"></path>
                    <path d="M218.579537,67.85 L218.579537,68.7 C216.979537,67.35 214.679537,66.4 211.729537,66.4 C204.029537,66.4 199.279537,72 199.279537,79.8 C199.279537,87.6 204.029537,93.2 211.929537,93.2 C214.879537,93.2 217.079537,92.25 218.579537,90.85 L218.579537,91.7 C218.579537,92.25 218.979537,92.6 219.679537,92.6 L222.979537,92.6 C223.679537,92.6 224.079537,92.2 224.079537,91.5 L224.079537,68.1 C224.079537,67.4 223.679537,67 222.979537,67 L219.679537,67 C218.979537,67 218.579537,67.3 218.579537,67.85 Z M212.229537,87.9 C207.929537,87.9 204.879537,84.4 204.879537,79.8 C204.879537,75.2 207.929537,71.7 212.229537,71.7 C215.079537,71.7 217.279537,72.8 218.579537,74.6 L218.579537,85 C217.279537,86.8 215.079537,87.9 212.229537,87.9 Z" id="Shape"></path>
                    <path d="M242.829537,66.4 C239.879537,66.4 237.579537,67.35 235.979537,68.7 L235.979537,56.3 C235.979537,55.6 235.579537,55.2 234.879537,55.2 L231.579537,55.2 C230.879537,55.2 230.479537,55.6 230.479537,56.3 L230.479537,91.5 C230.479537,92.2 230.879537,92.6 231.579537,92.6 L234.879537,92.6 C235.579537,92.6 235.979537,92.2 235.979537,91.5 L235.979537,90.85 C237.479537,92.25 239.679537,93.2 242.629537,93.2 C250.529537,93.2 255.279537,87.6 255.279537,79.8 C255.279537,72 250.529537,66.4 242.829537,66.4 Z M242.329537,87.9 C239.479537,87.9 237.279537,86.8 235.979537,85 L235.979537,74.6 C237.279537,72.8 239.479537,71.7 242.329537,71.7 C246.629537,71.7 249.679537,75.2 249.679537,79.8 C249.679537,84.4 246.629537,87.9 242.329537,87.9 Z" id="Shape"></path>
                    <path d="M271.879537,93.2 C278.479537,93.2 284.779537,88.3 284.779537,79.8 C284.779537,71.3 278.479537,66.4 271.879537,66.4 C265.279537,66.4 258.879537,71.3 258.879537,79.8 C258.879537,88.3 265.279537,93.2 271.879537,93.2 Z M271.879537,87.9 C267.229537,87.9 264.479537,84.35 264.479537,79.8 C264.479537,75.25 267.229537,71.7 271.879537,71.7 C276.529537,71.7 279.179537,75.25 279.179537,79.8 C279.179537,84.35 276.529537,87.9 271.879537,87.9 Z" id="Shape"></path>
                    <path d="M306.429537,68.1 L306.429537,84 C305.279537,86.5 303.129537,88.05 300.129537,88.05 C296.829537,88.05 294.779537,86.3 294.779537,82.55 L294.779537,68.1 C294.779537,67.4 294.379537,67 293.679537,67 L290.379537,67 C289.679537,67 289.279537,67.4 289.279537,68.1 L289.279537,83.25 C289.279537,89.45 293.079537,93.2 299.279537,93.2 C302.479537,93.2 305.079537,91.9 306.479537,90 L306.479537,91.5 C306.479537,92.2 306.879537,92.6 307.579537,92.6 L310.829537,92.6 C311.529537,92.6 311.929537,92.2 311.929537,91.5 L311.929537,68.1 C311.929537,67.4 311.529537,67 310.829537,67 L307.529537,67 C306.829537,67 306.429537,67.4 306.429537,68.1 Z" id="Path"></path>
                    <path d="M331.429537,70.9 L331.429537,68.1 C331.429537,67.4 331.029537,67 330.329537,67 L324.829537,67 L324.829537,60.85 C324.829537,60.15 324.429537,59.75 323.729537,59.75 L320.429537,59.75 C319.729537,59.75 319.329537,60.15 319.329537,60.85 L319.329537,67 L316.529537,67 C315.829537,67 315.429537,67.4 315.429537,68.1 L315.429537,70.9 C315.429537,71.6 315.829537,72 316.529537,72 L319.329537,72 L319.329537,85.6 C319.329537,90.5 322.129537,93.2 327.129537,93.2 C328.279537,93.2 329.379537,93.1 330.479537,92.8 C331.129537,92.65 331.429537,92.25 331.429537,91.6 L331.429537,88.8 C331.429537,88.05 330.979537,87.7 330.229537,87.85 C329.329537,88 328.529537,88.05 327.929537,88.05 C325.929537,88.05 324.829537,87.05 324.829537,84.85 L324.829537,72 L330.329537,72 C331.029537,72 331.429537,71.6 331.429537,70.9 Z" id="Path"></path>
                    <path d="M362.329537,70.9 L362.329537,68.1 C362.329537,67.4 361.929537,67 361.229537,67 L355.729537,67 L355.729537,60.85 C355.729537,60.15 355.329537,59.75 354.629537,59.75 L351.329537,59.75 C350.629537,59.75 350.229537,60.15 350.229537,60.85 L350.229537,67 L347.429537,67 C346.729537,67 346.329537,67.4 346.329537,68.1 L346.329537,70.9 C346.329537,71.6 346.729537,72 347.429537,72 L350.229537,72 L350.229537,85.6 C350.229537,90.5 353.029537,93.2 358.029537,93.2 C359.179537,93.2 360.279537,93.1 361.379537,92.8 C362.029537,92.65 362.329537,92.25 362.329537,91.6 L362.329537,88.8 C362.329537,88.05 361.879537,87.7 361.129537,87.85 C360.229537,88 359.429537,88.05 358.829537,88.05 C356.829537,88.05 355.729537,87.05 355.729537,84.85 L355.729537,72 L361.229537,72 C361.929537,72 362.329537,71.6 362.329537,70.9 Z" id="Path"></path>
                    <path d="M378.679537,66.4 C375.479537,66.4 372.879537,67.7 371.479537,69.6 L371.479537,56.3 C371.479537,55.6 371.079537,55.2 370.379537,55.2 L367.129537,55.2 C366.429537,55.2 366.029537,55.6 366.029537,56.3 L366.029537,91.5 C366.029537,92.2 366.429537,92.6 367.129537,92.6 L370.429537,92.6 C371.129537,92.6 371.529537,92.2 371.529537,91.5 L371.529537,75.6 C372.679537,73.1 374.829537,71.55 377.829537,71.55 C381.129537,71.55 383.179537,73.3 383.179537,77.05 L383.179537,91.5 C383.179537,92.2 383.579537,92.6 384.279537,92.6 L387.579537,92.6 C388.279537,92.6 388.679537,92.2 388.679537,91.5 L388.679537,76.35 C388.679537,70.15 384.879537,66.4 378.679537,66.4 Z" id="Path"></path>
                    <path d="M407.379537,87.85 C405.029537,87.85 403.029537,87.1 401.479537,85.7 L416.829537,75.25 C417.379537,74.85 417.529537,74.4 417.279537,73.75 C415.129537,68.3 410.829537,66.4 406.029537,66.4 C398.829537,66.4 393.379537,71.65 393.379537,78.9 C393.379537,87.9 398.879537,93.2 407.179537,93.2 C411.629537,93.2 415.279537,91.5 417.529537,89.6 C417.979537,89.2 418.129537,88.8 418.129537,88.25 L418.129537,83.85 C418.129537,82.85 417.529537,82.65 416.829537,83.4 C414.379537,86.05 411.229537,87.85 407.379537,87.85 Z M406.029537,71.5 C407.579537,71.5 409.529537,71.95 410.579537,73.75 L399.129537,81.5 C398.929537,80.65 398.829537,79.8 398.829537,78.85 C398.829537,74.55 401.729537,71.5 406.029537,71.5 Z" id="Shape"></path>
                    <path d="M447.079537,93.2 C450.679537,93.2 453.279537,92.45 455.629537,90.85 C456.029537,90.55 456.179537,90.15 456.179537,89.6 L456.179537,86.1 C456.179537,85.2 455.629537,84.9 454.879537,85.5 C452.579537,87.25 450.229537,87.9 447.279537,87.9 C442.429537,87.9 439.179537,84.65 439.179537,79.8 C439.179537,74.95 442.479537,71.7 447.379537,71.7 C450.029537,71.7 451.979537,72.25 453.929537,73.7 C454.679537,74.25 455.229537,74 455.229537,73.1 L455.229537,69.4 C455.229537,68.8 455.029537,68.4 454.479537,68.1 C452.379537,66.9 449.879537,66.4 447.029537,66.4 C438.929537,66.4 433.529537,71.75 433.529537,79.8 C433.529537,87.85 438.929537,93.2 447.079537,93.2 Z" id="Path"></path>
                    <path d="M472.029537,93.2 C478.629537,93.2 484.929537,88.3 484.929537,79.8 C484.929537,71.3 478.629537,66.4 472.029537,66.4 C465.429537,66.4 459.029537,71.3 459.029537,79.8 C459.029537,88.3 465.429537,93.2 472.029537,93.2 Z M472.029537,87.9 C467.379537,87.9 464.629537,84.35 464.629537,79.8 C464.629537,75.25 467.379537,71.7 472.029537,71.7 C476.679537,71.7 479.329537,75.25 479.329537,79.8 C479.329537,84.35 476.679537,87.9 472.029537,87.9 Z" id="Shape"></path>
                    <path d="M498.879537,93.2 C505.129537,93.2 509.329537,90.1 509.329537,85.45 C509.329537,80.75 506.729537,78.25 500.679537,77.2 L498.179537,76.75 C495.779537,76.3 494.829537,75.4 494.829537,74.05 C494.829537,72.45 496.379537,71.4 498.629537,71.4 C501.279537,71.4 503.279537,71.95 505.779537,73.8 C506.529537,74.4 507.129537,74.1 507.129537,73.2 L507.129537,69.7 C507.129537,69.1 506.929537,68.7 506.379537,68.4 C503.929537,66.95 501.729537,66.4 498.629537,66.4 C492.829537,66.4 489.229537,69.35 489.229537,74.15 C489.229537,78.1 491.279537,80.75 496.979537,81.8 L499.629537,82.3 C502.529537,82.85 503.629537,83.75 503.629537,85.45 C503.629537,87.15 501.929537,88.2 498.829537,88.2 C496.379537,88.2 493.579537,87.5 490.679537,84.9 C489.929537,84.25 489.329537,84.5 489.329537,85.45 L489.329537,89.25 C489.329537,89.8 489.529537,90.2 489.979537,90.55 C492.779537,92.65 495.829537,93.2 498.879537,93.2 Z" id="Path"></path>
                    <path d="M527.329537,70.9 L527.329537,68.1 C527.329537,67.4 526.929537,67 526.229537,67 L520.729537,67 L520.729537,60.85 C520.729537,60.15 520.329537,59.75 519.629537,59.75 L516.329537,59.75 C515.629537,59.75 515.229537,60.15 515.229537,60.85 L515.229537,67 L512.429537,67 C511.729537,67 511.329537,67.4 511.329537,68.1 L511.329537,70.9 C511.329537,71.6 511.729537,72 512.429537,72 L515.229537,72 L515.229537,85.6 C515.229537,90.5 518.029537,93.2 523.029537,93.2 C524.179537,93.2 525.279537,93.1 526.379537,92.8 C527.029537,92.65 527.329537,92.25 527.329537,91.6 L527.329537,88.8 C527.329537,88.05 526.879537,87.7 526.129537,87.85 C525.229537,88 524.429537,88.05 523.829537,88.05 C521.829537,88.05 520.729537,87.05 520.729537,84.85 L520.729537,72 L526.229537,72 C526.929537,72 527.329537,71.6 527.329537,70.9 Z" id="Path"></path>
                    <path d="M555.729537,93.2 C562.329537,93.2 568.629537,88.3 568.629537,79.8 C568.629537,71.3 562.329537,66.4 555.729537,66.4 C549.129537,66.4 542.729537,71.3 542.729537,79.8 C542.729537,88.3 549.129537,93.2 555.729537,93.2 Z M555.729537,87.9 C551.079537,87.9 548.329537,84.35 548.329537,79.8 C548.329537,75.25 551.079537,71.7 555.729537,71.7 C560.379537,71.7 563.029537,75.25 563.029537,79.8 C563.029537,84.35 560.379537,87.9 555.729537,87.9 Z" id="Shape"></path>
                    <path d="M583.729537,60.85 C584.179537,60.85 584.779537,60.9 585.479537,61.1 C586.579537,61.4 587.229537,61.3 587.229537,60.5 L587.229537,57.45 C587.229537,56.85 586.979537,56.4 586.379537,56.2 C585.229537,55.85 584.129537,55.7 582.929537,55.7 C577.929537,55.7 575.129537,58.4 575.129537,63.3 L575.129537,67 L572.329537,67 C571.629537,67 571.229537,67.4 571.229537,68.1 L571.229537,70.9 C571.229537,71.6 571.629537,72 572.329537,72 L575.129537,72 L575.129537,91.5 C575.129537,92.2 575.529537,92.6 576.229537,92.6 L579.529537,92.6 C580.229537,92.6 580.629537,92.2 580.629537,91.5 L580.629537,72 L586.129537,72 C586.829537,72 587.229537,71.6 587.229537,70.9 L587.229537,68.1 C587.229537,67.4 586.829537,67 586.129537,67 L580.629537,67 L580.629537,64.05 C580.629537,61.85 581.729537,60.85 583.729537,60.85 Z" id="Path"></path>
                    <path d="M610.729537,93.2 C611.879537,93.2 612.979537,93.1 614.079537,92.8 C614.729537,92.65 615.029537,92.25 615.029537,91.6 L615.029537,88.8 C615.029537,88.05 614.579537,87.7 613.829537,87.85 C612.929537,88 612.129537,88.05 611.529537,88.05 C609.529537,88.05 608.429537,87.05 608.429537,84.85 L608.429537,56.3 C608.429537,55.6 608.029537,55.2 607.329537,55.2 L604.029537,55.2 C603.329537,55.2 602.929537,55.6 602.929537,56.3 L602.929537,85.6 C602.929537,90.5 605.729537,93.2 610.729537,93.2 Z" id="Path"></path>
                    <path d="M621.829537,64.25 C624.129537,64.25 626.029537,62.35 626.029537,60.05 C626.029537,57.75 624.129537,55.85 621.829537,55.85 C619.529537,55.85 617.629537,57.75 617.629537,60.05 C617.629537,62.35 619.529537,64.25 621.829537,64.25 Z M620.179537,92.6 L623.479537,92.6 C624.179537,92.6 624.579537,92.2 624.579537,91.5 L624.579537,68.1 C624.579537,67.4 624.179537,67 623.479537,67 L620.179537,67 C619.479537,67 619.079537,67.4 619.079537,68.1 L619.079537,91.5 C619.079537,92.2 619.479537,92.6 620.179537,92.6 Z" id="Shape"></path>
                    <path d="M648.079537,67.85 L641.529537,84.7 L635.029537,67.85 C634.829537,67.3 634.329537,67 633.729537,67 L629.929537,67 C629.129537,67 628.779537,67.5 629.079537,68.3 L638.479537,91.75 C638.729537,92.3 639.129537,92.6 639.729537,92.6 L643.379537,92.6 C643.979537,92.6 644.379537,92.3 644.629537,91.75 L654.029537,68.3 C654.329537,67.5 653.979537,67 653.179537,67 L649.379537,67 C648.779537,67 648.279537,67.3 648.079537,67.85 Z" id="Path"></path>
                    <path d="M661.279537,64.25 C663.579537,64.25 665.479537,62.35 665.479537,60.05 C665.479537,57.75 663.579537,55.85 661.279537,55.85 C658.979537,55.85 657.079537,57.75 657.079537,60.05 C657.079537,62.35 658.979537,64.25 661.279537,64.25 Z M659.629537,92.6 L662.929537,92.6 C663.629537,92.6 664.029537,92.2 664.029537,91.5 L664.029537,68.1 C664.029537,67.4 663.629537,67 662.929537,67 L659.629537,67 C658.929537,67 658.529537,67.4 658.529537,68.1 L658.529537,91.5 C658.529537,92.2 658.929537,92.6 659.629537,92.6 Z" id="Shape"></path>
                    <path d="M683.179537,66.4 C679.979537,66.4 677.379537,67.7 675.979537,69.6 L675.979537,68.1 C675.979537,67.4 675.579537,67 674.879537,67 L671.629537,67 C670.929537,67 670.529537,67.4 670.529537,68.1 L670.529537,91.5 C670.529537,92.2 670.929537,92.6 671.629537,92.6 L674.929537,92.6 C675.629537,92.6 676.029537,92.2 676.029537,91.5 L676.029537,75.6 C677.229537,73 679.429537,71.55 682.229537,71.55 C685.529537,71.55 687.679537,73.3 687.679537,77.05 L687.679537,91.5 C687.679537,92.2 688.079537,92.6 688.779537,92.6 L692.079537,92.6 C692.779537,92.6 693.179537,92.2 693.179537,91.5 L693.179537,76.35 C693.179537,70.1 689.429537,66.4 683.179537,66.4 Z" id="Path"></path>
                    <path d="M717.179537,67.85 L717.179537,68.7 C715.579537,67.35 713.279537,66.4 710.329537,66.4 C702.629537,66.4 697.879537,72 697.879537,79.55 C697.879537,87.1 702.629537,92.7 710.529537,92.7 C713.479537,92.7 715.679537,91.75 717.179537,90.35 L717.179537,91.95 C717.179537,95.6 714.429537,97.6 709.779537,97.6 C707.079537,97.6 704.029537,96.8 701.279537,94.55 C700.529537,93.95 699.929537,94.2 699.929537,95.15 L699.929537,98.9 C699.929537,99.45 700.079537,99.85 700.529537,100.25 C702.829537,102.15 706.129537,102.9 709.779537,102.9 C717.829537,102.9 722.679537,98.75 722.679537,91.95 L722.679537,68.1 C722.679537,67.4 722.279537,67 721.579537,67 L718.279537,67 C717.579537,67 717.179537,67.3 717.179537,67.85 Z M717.179537,84.5 C715.879537,86.3 713.679537,87.4 710.829537,87.4 C706.529537,87.4 703.479537,83.9 703.479537,79.55 C703.479537,75.2 706.529537,71.7 710.829537,71.7 C713.679537,71.7 715.879537,72.8 717.179537,74.6 L717.179537,84.5 Z" id="Shape"></path>
                    <path d="M734.179537,81.65 L738.179537,81.65 C738.879537,81.65 739.179537,81.3 739.279537,80.6 C739.479537,78.95 740.279537,77.9 742.029537,76.8 C746.479537,74 749.179537,71.35 749.179537,67 C749.179537,60.85 744.479537,57 737.229537,57 C734.079537,57 730.929537,57.95 728.479537,59.85 C728.029537,60.25 727.879537,60.65 727.879537,61.2 L727.879537,64.7 C727.879537,65.65 728.479537,65.9 729.229537,65.3 C731.629537,63.4 734.129537,62.35 737.229537,62.35 C741.079537,62.35 743.479537,64.15 743.479537,67 C743.479537,69.2 742.429537,70.35 738.629537,72.75 C735.079537,75 733.429537,77.3 733.129537,80.55 C733.079537,81.25 733.479537,81.65 734.179537,81.65 Z M736.329537,93.2 C738.829537,93.2 740.879537,91.15 740.879537,88.65 C740.879537,86.15 738.829537,84.1 736.329537,84.1 C733.829537,84.1 731.779537,86.15 731.779537,88.65 C731.779537,91.15 733.829537,93.2 736.329537,93.2 Z" id="Shape"></path>
                </g>
            </g>
        </g>
    </g>
</svg>