<?xml version="1.0" encoding="UTF-8"?>
<svg width="284px" height="65px" viewBox="0 0 284 65" version="1.1" xmlns="http://www.w3.org/2000/svg" xmlns:xlink="http://www.w3.org/1999/xlink">
    <title>Earn extra cash from</title>
    <g id="Page-1" stroke="none" stroke-width="1" fill="none" fill-rule="evenodd">
        <g id="Homepage-banner---Desktop" transform="translate(-117.000000, -928.000000)" fill="#FFFFFF" fill-rule="nonzero">
            <g id="Group" transform="translate(85.000000, 904.000000)">
                <g id="Earn-extra-cash-from" transform="translate(32.686133, 24.560000)">
                    <path d="M1.95386705,22.44 L14.0738671,22.44 C14.4938671,22.44 14.7338671,22.2 14.7338671,21.78 L14.7338671,19.86 C14.7338671,19.44 14.4938671,19.2 14.0738671,19.2 L4.71386705,19.2 L4.71386705,13.32 L12.2738671,13.32 C12.6938671,13.32 12.9338671,13.08 12.9338671,12.66 L12.9338671,10.74 C12.9338671,10.32 12.6938671,10.08 12.2738671,10.08 L4.71386705,10.08 L4.71386705,4.68 L14.0738671,4.68 C14.4938671,4.68 14.7338671,4.44 14.7338671,4.02 L14.7338671,2.1 C14.7338671,1.68 14.4938671,1.44 14.0738671,1.44 L1.95386705,1.44 C1.53386705,1.44 1.29386705,1.68 1.29386705,2.1 L1.29386705,21.78 C1.29386705,22.2 1.53386705,22.44 1.95386705,22.44 Z" id="Path"></path>
                    <path d="M28.5938671,7.59 L28.5938671,8.1 C27.6338671,7.29 26.2538671,6.72 24.4838671,6.72 C19.8638671,6.72 17.0138671,10.08 17.0138671,14.76 C17.0138671,19.44 19.8638671,22.8 24.6038671,22.8 C26.3738671,22.8 27.6938671,22.23 28.5938671,21.39 L28.5938671,21.9 C28.5938671,22.23 28.8338671,22.44 29.2538671,22.44 L31.2338671,22.44 C31.6538671,22.44 31.8938671,22.2 31.8938671,21.78 L31.8938671,7.74 C31.8938671,7.32 31.6538671,7.08 31.2338671,7.08 L29.2538671,7.08 C28.8338671,7.08 28.5938671,7.26 28.5938671,7.59 Z M24.7838671,19.62 C22.2038671,19.62 20.3738671,17.52 20.3738671,14.76 C20.3738671,12 22.2038671,9.9 24.7838671,9.9 C26.4938671,9.9 27.8138671,10.56 28.5938671,11.64 L28.5938671,17.88 C27.8138671,18.96 26.4938671,19.62 24.7838671,19.62 Z" id="Shape"></path>
                    <path d="M36.3938671,22.44 L38.3738671,22.44 C38.7938671,22.44 39.0338671,22.2 39.0338671,21.78 L39.0338671,12.48 C39.7238671,11.28 40.7438671,10.02 42.9338671,10.02 C43.3238671,10.02 43.7438671,10.08 44.1638671,10.17 C44.6138671,10.26 44.8838671,10.05 44.8838671,9.6 L44.8838671,7.59 C44.8838671,7.23 44.7338671,6.93 44.3438671,6.84 C43.9838671,6.75 43.5638671,6.72 43.0838671,6.72 C41.2538671,6.72 39.7538671,7.47 39.0338671,8.67 L39.0338671,7.74 C39.0338671,7.32 38.7938671,7.08 38.3738671,7.08 L36.3938671,7.08 C35.9738671,7.08 35.7338671,7.32 35.7338671,7.74 L35.7338671,21.78 C35.7338671,22.2 35.9738671,22.44 36.3938671,22.44 Z" id="Path"></path>
                    <path d="M54.9938671,6.72 C53.0738671,6.72 51.5138671,7.5 50.6738671,8.64 L50.6738671,7.74 C50.6738671,7.32 50.4338671,7.08 50.0138671,7.08 L48.0638671,7.08 C47.6438671,7.08 47.4038671,7.32 47.4038671,7.74 L47.4038671,21.78 C47.4038671,22.2 47.6438671,22.44 48.0638671,22.44 L50.0438671,22.44 C50.4638671,22.44 50.7038671,22.2 50.7038671,21.78 L50.7038671,12.24 C51.4238671,10.68 52.7438671,9.81 54.4238671,9.81 C56.4038671,9.81 57.6938671,10.86 57.6938671,13.11 L57.6938671,21.78 C57.6938671,22.2 57.9338671,22.44 58.3538671,22.44 L60.3338671,22.44 C60.7538671,22.44 60.9938671,22.2 60.9938671,21.78 L60.9938671,12.69 C60.9938671,8.94 58.7438671,6.72 54.9938671,6.72 Z" id="Path"></path>
                    <path d="M79.4738671,19.59 C78.0638671,19.59 76.8638671,19.14 75.9338671,18.3 L85.1438671,12.03 C85.4738671,11.79 85.5638671,11.52 85.4138671,11.13 C84.1238671,7.86 81.5438671,6.72 78.6638671,6.72 C74.3438671,6.72 71.0738671,9.87 71.0738671,14.22 C71.0738671,19.62 74.3738671,22.8 79.3538671,22.8 C82.0238671,22.8 84.2138671,21.78 85.5638671,20.64 C85.8338671,20.4 85.9238671,20.16 85.9238671,19.83 L85.9238671,17.19 C85.9238671,16.59 85.5638671,16.47 85.1438671,16.92 C83.6738671,18.51 81.7838671,19.59 79.4738671,19.59 Z M78.6638671,9.78 C79.5938671,9.78 80.7638671,10.05 81.3938671,11.13 L74.5238671,15.78 C74.4038671,15.27 74.3438671,14.76 74.3438671,14.19 C74.3438671,11.61 76.0838671,9.78 78.6638671,9.78 Z" id="Shape"></path>
                    <path d="M101.523867,21.63 L96.3938671,14.52 L101.163867,7.89 C101.463867,7.44 101.283867,7.08 100.743867,7.08 L98.2838671,7.08 C97.9538671,7.08 97.6838671,7.23 97.4738671,7.5 L94.3838671,12 L91.2938671,7.5 C91.0838671,7.23 90.8138671,7.08 90.4838671,7.08 L87.9338671,7.08 C87.3938671,7.08 87.1838671,7.44 87.5138671,7.89 L92.3738671,14.58 L87.2438671,21.63 C86.9138671,22.08 87.1238671,22.44 87.6638671,22.44 L90.1238671,22.44 C90.4538671,22.44 90.7238671,22.29 90.9338671,22.02 L94.3538671,17.04 L97.7438671,22.02 C97.9238671,22.29 98.2238671,22.44 98.5538671,22.44 L101.103867,22.44 C101.643867,22.44 101.823867,22.08 101.523867,21.63 Z" id="Path"></path>
                    <path d="M112.533867,9.42 L112.533867,7.74 C112.533867,7.32 112.293867,7.08 111.873867,7.08 L108.573867,7.08 L108.573867,3.39 C108.573867,2.97 108.333867,2.73 107.913867,2.73 L105.933867,2.73 C105.513867,2.73 105.273867,2.97 105.273867,3.39 L105.273867,7.08 L103.593867,7.08 C103.173867,7.08 102.933867,7.32 102.933867,7.74 L102.933867,9.42 C102.933867,9.84 103.173867,10.08 103.593867,10.08 L105.273867,10.08 L105.273867,18.24 C105.273867,21.18 106.953867,22.8 109.953867,22.8 C110.643867,22.8 111.303867,22.74 111.963867,22.56 C112.353867,22.47 112.533867,22.23 112.533867,21.84 L112.533867,20.16 C112.533867,19.71 112.263867,19.5 111.813867,19.59 C111.273867,19.68 110.793867,19.71 110.433867,19.71 C109.233867,19.71 108.573867,19.11 108.573867,17.79 L108.573867,10.08 L111.873867,10.08 C112.293867,10.08 112.533867,9.84 112.533867,9.42 Z" id="Path"></path>
                    <path d="M115.593867,22.44 L117.573867,22.44 C117.993867,22.44 118.233867,22.2 118.233867,21.78 L118.233867,12.48 C118.923867,11.28 119.943867,10.02 122.133867,10.02 C122.523867,10.02 122.943867,10.08 123.363867,10.17 C123.813867,10.26 124.083867,10.05 124.083867,9.6 L124.083867,7.59 C124.083867,7.23 123.933867,6.93 123.543867,6.84 C123.183867,6.75 122.763867,6.72 122.283867,6.72 C120.453867,6.72 118.953867,7.47 118.233867,8.67 L118.233867,7.74 C118.233867,7.32 117.993867,7.08 117.573867,7.08 L115.593867,7.08 C115.173867,7.08 114.933867,7.32 114.933867,7.74 L114.933867,21.78 C114.933867,22.2 115.173867,22.44 115.593867,22.44 Z" id="Path"></path>
                    <path d="M136.743867,7.59 L136.743867,8.1 C135.783867,7.29 134.403867,6.72 132.633867,6.72 C128.013867,6.72 125.163867,10.08 125.163867,14.76 C125.163867,19.44 128.013867,22.8 132.753867,22.8 C134.523867,22.8 135.843867,22.23 136.743867,21.39 L136.743867,21.9 C136.743867,22.23 136.983867,22.44 137.403867,22.44 L139.383867,22.44 C139.803867,22.44 140.043867,22.2 140.043867,21.78 L140.043867,7.74 C140.043867,7.32 139.803867,7.08 139.383867,7.08 L137.403867,7.08 C136.983867,7.08 136.743867,7.26 136.743867,7.59 Z M132.933867,19.62 C130.353867,19.62 128.523867,17.52 128.523867,14.76 C128.523867,12 130.353867,9.9 132.933867,9.9 C134.643867,9.9 135.963867,10.56 136.743867,11.64 L136.743867,17.88 C135.963867,18.96 134.643867,19.62 132.933867,19.62 Z" id="Shape"></path>
                    <path d="M158.433867,22.8 C160.593867,22.8 162.153867,22.35 163.563867,21.39 C163.803867,21.21 163.893867,20.97 163.893867,20.64 L163.893867,18.54 C163.893867,18 163.563867,17.82 163.113867,18.18 C161.733867,19.23 160.323867,19.62 158.553867,19.62 C155.643867,19.62 153.693867,17.67 153.693867,14.76 C153.693867,11.85 155.673867,9.9 158.613867,9.9 C160.203867,9.9 161.373867,10.23 162.543867,11.1 C162.993867,11.43 163.323867,11.28 163.323867,10.74 L163.323867,8.52 C163.323867,8.16 163.203867,7.92 162.873867,7.74 C161.613867,7.02 160.113867,6.72 158.403867,6.72 C153.543867,6.72 150.303867,9.93 150.303867,14.76 C150.303867,19.59 153.543867,22.8 158.433867,22.8 Z" id="Path"></path>
                    <path d="M177.183867,7.59 L177.183867,8.1 C176.223867,7.29 174.843867,6.72 173.073867,6.72 C168.453867,6.72 165.603867,10.08 165.603867,14.76 C165.603867,19.44 168.453867,22.8 173.193867,22.8 C174.963867,22.8 176.283867,22.23 177.183867,21.39 L177.183867,21.9 C177.183867,22.23 177.423867,22.44 177.843867,22.44 L179.823867,22.44 C180.243867,22.44 180.483867,22.2 180.483867,21.78 L180.483867,7.74 C180.483867,7.32 180.243867,7.08 179.823867,7.08 L177.843867,7.08 C177.423867,7.08 177.183867,7.26 177.183867,7.59 Z M173.373867,19.62 C170.793867,19.62 168.963867,17.52 168.963867,14.76 C168.963867,12 170.793867,9.9 173.373867,9.9 C175.083867,9.9 176.403867,10.56 177.183867,11.64 L177.183867,17.88 C176.403867,18.96 175.083867,19.62 173.373867,19.62 Z" id="Shape"></path>
                    <path d="M189.693867,22.8 C193.443867,22.8 195.963867,20.94 195.963867,18.15 C195.963867,15.33 194.403867,13.83 190.773867,13.2 L189.273867,12.93 C187.833867,12.66 187.263867,12.12 187.263867,11.31 C187.263867,10.35 188.193867,9.72 189.543867,9.72 C191.133867,9.72 192.333867,10.05 193.833867,11.16 C194.283867,11.52 194.643867,11.34 194.643867,10.8 L194.643867,8.7 C194.643867,8.34 194.523867,8.1 194.193867,7.92 C192.723867,7.05 191.403867,6.72 189.543867,6.72 C186.063867,6.72 183.903867,8.49 183.903867,11.37 C183.903867,13.74 185.133867,15.33 188.553867,15.96 L190.143867,16.26 C191.883867,16.59 192.543867,17.13 192.543867,18.15 C192.543867,19.17 191.523867,19.8 189.663867,19.8 C188.193867,19.8 186.513867,19.38 184.773867,17.82 C184.323867,17.43 183.963867,17.58 183.963867,18.15 L183.963867,20.43 C183.963867,20.76 184.083867,21 184.353867,21.21 C186.033867,22.47 187.863867,22.8 189.693867,22.8 Z" id="Path"></path>
                    <path d="M206.223867,6.72 C204.303867,6.72 202.743867,7.5 201.903867,8.64 L201.903867,0.66 C201.903867,0.24 201.663867,0 201.243867,0 L199.293867,0 C198.873867,0 198.633867,0.24 198.633867,0.66 L198.633867,21.78 C198.633867,22.2 198.873867,22.44 199.293867,22.44 L201.273867,22.44 C201.693867,22.44 201.933867,22.2 201.933867,21.78 L201.933867,12.24 C202.623867,10.74 203.913867,9.81 205.713867,9.81 C207.693867,9.81 208.923867,10.86 208.923867,13.11 L208.923867,21.78 C208.923867,22.2 209.163867,22.44 209.583867,22.44 L211.563867,22.44 C211.983867,22.44 212.223867,22.2 212.223867,21.78 L212.223867,12.69 C212.223867,8.97 209.943867,6.72 206.223867,6.72 Z" id="Path"></path>
                    <path d="M229.503867,3.39 C229.773867,3.39 230.133867,3.42 230.553867,3.54 C231.213867,3.72 231.603867,3.66 231.603867,3.18 L231.603867,1.35 C231.603867,0.99 231.453867,0.72 231.093867,0.6 C230.403867,0.39 229.743867,0.3 229.023867,0.3 C226.023867,0.3 224.343867,1.92 224.343867,4.86 L224.343867,7.08 L222.663867,7.08 C222.243867,7.08 222.003867,7.32 222.003867,7.74 L222.003867,9.42 C222.003867,9.84 222.243867,10.08 222.663867,10.08 L224.343867,10.08 L224.343867,21.78 C224.343867,22.2 224.583867,22.44 225.003867,22.44 L226.983867,22.44 C227.403867,22.44 227.643867,22.2 227.643867,21.78 L227.643867,10.08 L230.943867,10.08 C231.363867,10.08 231.603867,9.84 231.603867,9.42 L231.603867,7.74 C231.603867,7.32 231.363867,7.08 230.943867,7.08 L227.643867,7.08 L227.643867,5.31 C227.643867,3.99 228.303867,3.39 229.503867,3.39 Z" id="Path"></path>
                    <path d="M234.603867,22.44 L236.583867,22.44 C237.003867,22.44 237.243867,22.2 237.243867,21.78 L237.243867,12.48 C237.933867,11.28 238.953867,10.02 241.143867,10.02 C241.533867,10.02 241.953867,10.08 242.373867,10.17 C242.823867,10.26 243.093867,10.05 243.093867,9.6 L243.093867,7.59 C243.093867,7.23 242.943867,6.93 242.553867,6.84 C242.193867,6.75 241.773867,6.72 241.293867,6.72 C239.463867,6.72 237.963867,7.47 237.243867,8.67 L237.243867,7.74 C237.243867,7.32 237.003867,7.08 236.583867,7.08 L234.603867,7.08 C234.183867,7.08 233.943867,7.32 233.943867,7.74 L233.943867,21.78 C233.943867,22.2 234.183867,22.44 234.603867,22.44 Z" id="Path"></path>
                    <path d="M251.973867,22.8 C255.933867,22.8 259.713867,19.86 259.713867,14.76 C259.713867,9.66 255.933867,6.72 251.973867,6.72 C248.013867,6.72 244.173867,9.66 244.173867,14.76 C244.173867,19.86 248.013867,22.8 251.973867,22.8 Z M251.973867,19.62 C249.183867,19.62 247.533867,17.49 247.533867,14.76 C247.533867,12.03 249.183867,9.9 251.973867,9.9 C254.763867,9.9 256.353867,12.03 256.353867,14.76 C256.353867,17.49 254.763867,19.62 251.973867,19.62 Z" id="Shape"></path>
                    <path d="M263.373867,22.44 L265.353867,22.44 C265.773867,22.44 266.013867,22.2 266.013867,21.78 L266.013867,11.49 C266.523867,10.38 267.633867,9.81 268.653867,9.81 C270.003867,9.81 271.203867,10.77 271.203867,12.3 L271.203867,21.78 C271.203867,22.2 271.443867,22.44 271.863867,22.44 L273.843867,22.44 C274.263867,22.44 274.503867,22.2 274.503867,21.78 L274.503867,11.49 C275.013867,10.38 276.093867,9.81 277.113867,9.81 C278.643867,9.81 279.693867,10.65 279.693867,12.3 L279.693867,21.78 C279.693867,22.2 279.933867,22.44 280.353867,22.44 L282.333867,22.44 C282.753867,22.44 282.993867,22.2 282.993867,21.78 L282.993867,11.88 C282.993867,8.79 280.743867,6.72 277.713867,6.72 C275.973867,6.72 274.353867,7.44 273.273867,8.91 C272.793867,7.77 271.383867,6.72 269.493867,6.72 C268.143867,6.72 266.733867,7.2 265.983867,8.28 L265.983867,7.68 C265.983867,7.29 265.743867,7.08 265.323867,7.08 L263.373867,7.08 C262.953867,7.08 262.713867,7.32 262.713867,7.74 L262.713867,21.78 C262.713867,22.2 262.953867,22.44 263.373867,22.44 Z" id="Path"></path>
                    <path d="M12.2438671,43.59 L7.86386705,53.94 L3.75386705,43.59 C3.60386705,43.26 3.33386705,43.08 2.97386705,43.08 L0.573867052,43.08 C0.0938670522,43.08 -0.116132948,43.41 0.0638670522,43.86 L6.03386705,58.26 L3.75386705,63.66 C3.57386705,64.11 3.78386705,64.44 4.26386705,64.44 L6.48386705,64.44 C6.84386705,64.44 7.08386705,64.26 7.23386705,63.93 L15.7238671,43.86 C15.9038671,43.41 15.6938671,43.08 15.2138671,43.08 L12.9938671,43.08 C12.6338671,43.08 12.3938671,43.26 12.2438671,43.59 Z" id="Path"></path>
                    <path d="M24.6338671,58.8 C28.5938671,58.8 32.3738671,55.86 32.3738671,50.76 C32.3738671,45.66 28.5938671,42.72 24.6338671,42.72 C20.6738671,42.72 16.8338671,45.66 16.8338671,50.76 C16.8338671,55.86 20.6738671,58.8 24.6338671,58.8 Z M24.6338671,55.62 C21.8438671,55.62 20.1938671,53.49 20.1938671,50.76 C20.1938671,48.03 21.8438671,45.9 24.6338671,45.9 C27.4238671,45.9 29.0138671,48.03 29.0138671,50.76 C29.0138671,53.49 27.4238671,55.62 24.6338671,55.62 Z" id="Shape"></path>
                    <path d="M45.3638671,43.74 L45.3638671,53.28 C44.6738671,54.78 43.3838671,55.71 41.5838671,55.71 C39.6038671,55.71 38.3738671,54.66 38.3738671,52.41 L38.3738671,43.74 C38.3738671,43.32 38.1338671,43.08 37.7138671,43.08 L35.7338671,43.08 C35.3138671,43.08 35.0738671,43.32 35.0738671,43.74 L35.0738671,52.83 C35.0738671,56.55 37.3538671,58.8 41.0738671,58.8 C42.9938671,58.8 44.5538671,58.02 45.3938671,56.88 L45.3938671,57.78 C45.3938671,58.2 45.6338671,58.44 46.0538671,58.44 L48.0038671,58.44 C48.4238671,58.44 48.6638671,58.2 48.6638671,57.78 L48.6638671,43.74 C48.6638671,43.32 48.4238671,43.08 48.0038671,43.08 L46.0238671,43.08 C45.6038671,43.08 45.3638671,43.32 45.3638671,43.74 Z" id="Path"></path>
                    <path d="M53.1638671,58.44 L55.1438671,58.44 C55.5638671,58.44 55.8038671,58.2 55.8038671,57.78 L55.8038671,48.48 C56.4938671,47.28 57.5138671,46.02 59.7038671,46.02 C60.0938671,46.02 60.5138671,46.08 60.9338671,46.17 C61.3838671,46.26 61.6538671,46.05 61.6538671,45.6 L61.6538671,43.59 C61.6538671,43.23 61.5038671,42.93 61.1138671,42.84 C60.7538671,42.75 60.3338671,42.72 59.8538671,42.72 C58.0238671,42.72 56.5238671,43.47 55.8038671,44.67 L55.8038671,43.74 C55.8038671,43.32 55.5638671,43.08 55.1438671,43.08 L53.1638671,43.08 C52.7438671,43.08 52.5038671,43.32 52.5038671,43.74 L52.5038671,57.78 C52.5038671,58.2 52.7438671,58.44 53.1638671,58.44 Z" id="Path"></path>
                    <path d="M76.8038671,58.8 C80.5538671,58.8 83.0738671,56.94 83.0738671,54.15 C83.0738671,51.33 81.5138671,49.83 77.8838671,49.2 L76.3838671,48.93 C74.9438671,48.66 74.3738671,48.12 74.3738671,47.31 C74.3738671,46.35 75.3038671,45.72 76.6538671,45.72 C78.2438671,45.72 79.4438671,46.05 80.9438671,47.16 C81.3938671,47.52 81.7538671,47.34 81.7538671,46.8 L81.7538671,44.7 C81.7538671,44.34 81.6338671,44.1 81.3038671,43.92 C79.8338671,43.05 78.5138671,42.72 76.6538671,42.72 C73.1738671,42.72 71.0138671,44.49 71.0138671,47.37 C71.0138671,49.74 72.2438671,51.33 75.6638671,51.96 L77.2538671,52.26 C78.9938671,52.59 79.6538671,53.13 79.6538671,54.15 C79.6538671,55.17 78.6338671,55.8 76.7738671,55.8 C75.3038671,55.8 73.6238671,55.38 71.8838671,53.82 C71.4338671,53.43 71.0738671,53.58 71.0738671,54.15 L71.0738671,56.43 C71.0738671,56.76 71.1938671,57 71.4638671,57.21 C73.1438671,58.47 74.9738671,58.8 76.8038671,58.8 Z" id="Path"></path>
                    <path d="M93.1538671,42.72 C91.3838671,42.72 90.0038671,43.29 89.0438671,44.1 L89.0438671,43.59 C89.0438671,43.26 88.8038671,43.08 88.3838671,43.08 L86.4038671,43.08 C85.9838671,43.08 85.7438671,43.32 85.7438671,43.74 L85.7438671,63.78 C85.7438671,64.2 85.9838671,64.44 86.4038671,64.44 L88.3838671,64.44 C88.8038671,64.44 89.0438671,64.2 89.0438671,63.78 L89.0438671,57.39 C89.9438671,58.23 91.2638671,58.8 93.0338671,58.8 C97.7738671,58.8 100.623867,55.44 100.623867,50.76 C100.623867,46.08 97.7738671,42.72 93.1538671,42.72 Z M92.8538671,55.62 C91.1438671,55.62 89.8238671,54.96 89.0438671,53.88 L89.0438671,47.64 C89.8238671,46.56 91.1438671,45.9 92.8538671,45.9 C95.4338671,45.9 97.2638671,48 97.2638671,50.76 C97.2638671,53.52 95.4338671,55.62 92.8538671,55.62 Z" id="Shape"></path>
                    <path d="M114.363867,43.59 L114.363867,44.1 C113.403867,43.29 112.023867,42.72 110.253867,42.72 C105.633867,42.72 102.783867,46.08 102.783867,50.76 C102.783867,55.44 105.633867,58.8 110.373867,58.8 C112.143867,58.8 113.463867,58.23 114.363867,57.39 L114.363867,57.9 C114.363867,58.23 114.603867,58.44 115.023867,58.44 L117.003867,58.44 C117.423867,58.44 117.663867,58.2 117.663867,57.78 L117.663867,43.74 C117.663867,43.32 117.423867,43.08 117.003867,43.08 L115.023867,43.08 C114.603867,43.08 114.363867,43.26 114.363867,43.59 Z M110.553867,55.62 C107.973867,55.62 106.143867,53.52 106.143867,50.76 C106.143867,48 107.973867,45.9 110.553867,45.9 C112.263867,45.9 113.583867,46.56 114.363867,47.64 L114.363867,53.88 C113.583867,54.96 112.263867,55.62 110.553867,55.62 Z" id="Shape"></path>
                    <path d="M122.163867,58.44 L124.143867,58.44 C124.563867,58.44 124.803867,58.2 124.803867,57.78 L124.803867,48.48 C125.493867,47.28 126.513867,46.02 128.703867,46.02 C129.093867,46.02 129.513867,46.08 129.933867,46.17 C130.383867,46.26 130.653867,46.05 130.653867,45.6 L130.653867,43.59 C130.653867,43.23 130.503867,42.93 130.113867,42.84 C129.753867,42.75 129.333867,42.72 128.853867,42.72 C127.023867,42.72 125.523867,43.47 124.803867,44.67 L124.803867,43.74 C124.803867,43.32 124.563867,43.08 124.143867,43.08 L122.163867,43.08 C121.743867,43.08 121.503867,43.32 121.503867,43.74 L121.503867,57.78 C121.503867,58.2 121.743867,58.44 122.163867,58.44 Z" id="Path"></path>
                    <path d="M140.133867,55.59 C138.723867,55.59 137.523867,55.14 136.593867,54.3 L145.803867,48.03 C146.133867,47.79 146.223867,47.52 146.073867,47.13 C144.783867,43.86 142.203867,42.72 139.323867,42.72 C135.003867,42.72 131.733867,45.87 131.733867,50.22 C131.733867,55.62 135.033867,58.8 140.013867,58.8 C142.683867,58.8 144.873867,57.78 146.223867,56.64 C146.493867,56.4 146.583867,56.16 146.583867,55.83 L146.583867,53.19 C146.583867,52.59 146.223867,52.47 145.803867,52.92 C144.333867,54.51 142.443867,55.59 140.133867,55.59 Z M139.323867,45.78 C140.253867,45.78 141.423867,46.05 142.053867,47.13 L135.183867,51.78 C135.063867,51.27 135.003867,50.76 135.003867,50.19 C135.003867,47.61 136.743867,45.78 139.323867,45.78 Z" id="Shape"></path>
                    <path d="M157.323867,58.44 L159.303867,58.44 C159.723867,58.44 159.963867,58.2 159.963867,57.78 L159.963867,48.48 C160.653867,47.28 161.673867,46.02 163.863867,46.02 C164.253867,46.02 164.673867,46.08 165.093867,46.17 C165.543867,46.26 165.813867,46.05 165.813867,45.6 L165.813867,43.59 C165.813867,43.23 165.663867,42.93 165.273867,42.84 C164.913867,42.75 164.493867,42.72 164.013867,42.72 C162.183867,42.72 160.683867,43.47 159.963867,44.67 L159.963867,43.74 C159.963867,43.32 159.723867,43.08 159.303867,43.08 L157.323867,43.08 C156.903867,43.08 156.663867,43.32 156.663867,43.74 L156.663867,57.78 C156.663867,58.2 156.903867,58.44 157.323867,58.44 Z" id="Path"></path>
                    <path d="M174.693867,58.8 C178.653867,58.8 182.433867,55.86 182.433867,50.76 C182.433867,45.66 178.653867,42.72 174.693867,42.72 C170.733867,42.72 166.893867,45.66 166.893867,50.76 C166.893867,55.86 170.733867,58.8 174.693867,58.8 Z M174.693867,55.62 C171.903867,55.62 170.253867,53.49 170.253867,50.76 C170.253867,48.03 171.903867,45.9 174.693867,45.9 C177.483867,45.9 179.073867,48.03 179.073867,50.76 C179.073867,53.49 177.483867,55.62 174.693867,55.62 Z" id="Shape"></path>
                    <path d="M192.393867,58.8 C196.353867,58.8 200.133867,55.86 200.133867,50.76 C200.133867,45.66 196.353867,42.72 192.393867,42.72 C188.433867,42.72 184.593867,45.66 184.593867,50.76 C184.593867,55.86 188.433867,58.8 192.393867,58.8 Z M192.393867,55.62 C189.603867,55.62 187.953867,53.49 187.953867,50.76 C187.953867,48.03 189.603867,45.9 192.393867,45.9 C195.183867,45.9 196.773867,48.03 196.773867,50.76 C196.773867,53.49 195.183867,55.62 192.393867,55.62 Z" id="Shape"></path>
                    <path d="M203.793867,58.44 L205.773867,58.44 C206.193867,58.44 206.433867,58.2 206.433867,57.78 L206.433867,47.49 C206.943867,46.38 208.053867,45.81 209.073867,45.81 C210.423867,45.81 211.623867,46.77 211.623867,48.3 L211.623867,57.78 C211.623867,58.2 211.863867,58.44 212.283867,58.44 L214.263867,58.44 C214.683867,58.44 214.923867,58.2 214.923867,57.78 L214.923867,47.49 C215.433867,46.38 216.513867,45.81 217.533867,45.81 C219.063867,45.81 220.113867,46.65 220.113867,48.3 L220.113867,57.78 C220.113867,58.2 220.353867,58.44 220.773867,58.44 L222.753867,58.44 C223.173867,58.44 223.413867,58.2 223.413867,57.78 L223.413867,47.88 C223.413867,44.79 221.163867,42.72 218.133867,42.72 C216.393867,42.72 214.773867,43.44 213.693867,44.91 C213.213867,43.77 211.803867,42.72 209.913867,42.72 C208.563867,42.72 207.153867,43.2 206.403867,44.28 L206.403867,43.68 C206.403867,43.29 206.163867,43.08 205.743867,43.08 L203.793867,43.08 C203.373867,43.08 203.133867,43.32 203.133867,43.74 L203.133867,57.78 C203.133867,58.2 203.373867,58.44 203.793867,58.44 Z" id="Path"></path>
                </g>
            </g>
        </g>
    </g>
</svg>