<?xml version="1.0" encoding="UTF-8"?>
<svg width="20px" height="20px" viewBox="0 0 20 20" version="1.1" xmlns="http://www.w3.org/2000/svg" xmlns:xlink="http://www.w3.org/1999/xlink">
    <title>verified-icon</title>
    <g id="verified-icon" stroke="none" stroke-width="1" fill="none" fill-rule="evenodd">
        <g id="verified_icon">
            <rect id="bounds" x="0" y="0" width="20" height="20"></rect>
            <path d="M18.2226562,3.26964855 L10.7226562,0.144648552 C10.5322266,0.0653123856 10.2085936,0 10.0023437,0 C9.79484379,0 9.47304666,0.0653123856 9.28125024,0.144648552 L1.78164065,3.26964855 C1.08203113,3.558321 0.625,4.24191475 0.625,4.964571 C0.625,15.0466025 8.01562488,19.999727 9.99609351,19.999727 C11.996094,19.999727 19.375,14.991914 19.375,4.964571 C19.375,4.24191475 18.9179683,3.558321 18.2226562,3.26964855 Z" id="shape" fill="#4BA72F" fill-rule="nonzero"></path>
            <path d="M13.75,7.81191334 C13.75,8.02796825 13.6757421,8.24511632 13.5241795,8.4220694 L9.77417946,12.7970694 C9.51171875,13.1048821 9.16406274,13.0892573 9.0625,13.0892573 C8.81468773,13.0892573 8.57539058,12.9903899 8.39960933,12.8146087 L6.52460933,10.9396087 C6.33984387,10.7923816 6.25,10.5501948 6.25,10.2767573 C6.25,9.77714821 6.65234387,9.33925733 7.1875,9.33925733 C7.42738307,9.33925733 7.66718745,9.4308196 7.85039067,9.61390599 L9.01015639,10.7736717 L12.1011722,7.16664061 C12.2870708,6.95054754 12.5496101,6.84 12.8136718,6.84 C13.5312498,6.87441334 13.75,7.52285108 13.75,7.81191334 Z" id="shape" fill="#FFFFFF" fill-rule="nonzero"></path>
        </g>
    </g>
</svg>